%TF.GenerationSoftware,KiCad,Pcbnew,7.0.9*%
%TF.CreationDate,2024-05-16T21:45:13+10:00*%
%TF.ProjectId,panel,70616e65-6c2e-46b6-9963-61645f706362,rev?*%
%TF.SameCoordinates,Original*%
%TF.FileFunction,Legend,Bot*%
%TF.FilePolarity,Positive*%
%FSLAX46Y46*%
G04 Gerber Fmt 4.6, Leading zero omitted, Abs format (unit mm)*
G04 Created by KiCad (PCBNEW 7.0.9) date 2024-05-16 21:45:13*
%MOMM*%
%LPD*%
G01*
G04 APERTURE LIST*
%ADD10C,0.500000*%
%ADD11C,0.200000*%
%ADD12C,0.300000*%
%ADD13C,0.040000*%
G04 APERTURE END LIST*
D10*
X109900000Y-140963285D02*
X106090476Y-140963285D01*
X105614285Y-135963285D02*
X104661904Y-135249000D01*
X104661904Y-135249000D02*
X103709523Y-135963285D01*
X95614285Y-140487095D02*
X98471428Y-140487095D01*
X97042856Y-140487095D02*
X97042856Y-135487095D01*
X97042856Y-135487095D02*
X97519047Y-136201380D01*
X97519047Y-136201380D02*
X97995237Y-136677571D01*
X97995237Y-136677571D02*
X98471428Y-136915666D01*
X93709523Y-135963285D02*
X93471427Y-135725190D01*
X93471427Y-135725190D02*
X92995237Y-135487095D01*
X92995237Y-135487095D02*
X91804761Y-135487095D01*
X91804761Y-135487095D02*
X91328570Y-135725190D01*
X91328570Y-135725190D02*
X91090475Y-135963285D01*
X91090475Y-135963285D02*
X90852380Y-136439476D01*
X90852380Y-136439476D02*
X90852380Y-136915666D01*
X90852380Y-136915666D02*
X91090475Y-137629952D01*
X91090475Y-137629952D02*
X93947618Y-140487095D01*
X93947618Y-140487095D02*
X90852380Y-140487095D01*
D11*
X109861906Y-57895314D02*
X108338096Y-57895314D01*
X107861905Y-57704838D02*
X107861905Y-56371504D01*
X107861905Y-56752457D02*
X107766667Y-56561980D01*
X107766667Y-56561980D02*
X107671429Y-56466742D01*
X107671429Y-56466742D02*
X107480953Y-56371504D01*
X107480953Y-56371504D02*
X107290476Y-56371504D01*
X106338096Y-57704838D02*
X106528572Y-57609600D01*
X106528572Y-57609600D02*
X106623810Y-57514361D01*
X106623810Y-57514361D02*
X106719048Y-57323885D01*
X106719048Y-57323885D02*
X106719048Y-56752457D01*
X106719048Y-56752457D02*
X106623810Y-56561980D01*
X106623810Y-56561980D02*
X106528572Y-56466742D01*
X106528572Y-56466742D02*
X106338096Y-56371504D01*
X106338096Y-56371504D02*
X106052381Y-56371504D01*
X106052381Y-56371504D02*
X105861905Y-56466742D01*
X105861905Y-56466742D02*
X105766667Y-56561980D01*
X105766667Y-56561980D02*
X105671429Y-56752457D01*
X105671429Y-56752457D02*
X105671429Y-57323885D01*
X105671429Y-57323885D02*
X105766667Y-57514361D01*
X105766667Y-57514361D02*
X105861905Y-57609600D01*
X105861905Y-57609600D02*
X106052381Y-57704838D01*
X106052381Y-57704838D02*
X106338096Y-57704838D01*
X105100000Y-56371504D02*
X104338096Y-56371504D01*
X104814286Y-55704838D02*
X104814286Y-57419123D01*
X104814286Y-57419123D02*
X104719048Y-57609600D01*
X104719048Y-57609600D02*
X104528572Y-57704838D01*
X104528572Y-57704838D02*
X104338096Y-57704838D01*
X102814286Y-57704838D02*
X102814286Y-56657219D01*
X102814286Y-56657219D02*
X102909524Y-56466742D01*
X102909524Y-56466742D02*
X103100000Y-56371504D01*
X103100000Y-56371504D02*
X103480953Y-56371504D01*
X103480953Y-56371504D02*
X103671429Y-56466742D01*
X102814286Y-57609600D02*
X103004762Y-57704838D01*
X103004762Y-57704838D02*
X103480953Y-57704838D01*
X103480953Y-57704838D02*
X103671429Y-57609600D01*
X103671429Y-57609600D02*
X103766667Y-57419123D01*
X103766667Y-57419123D02*
X103766667Y-57228647D01*
X103766667Y-57228647D02*
X103671429Y-57038171D01*
X103671429Y-57038171D02*
X103480953Y-56942933D01*
X103480953Y-56942933D02*
X103004762Y-56942933D01*
X103004762Y-56942933D02*
X102814286Y-56847695D01*
X101861905Y-57704838D02*
X101861905Y-56371504D01*
X101861905Y-56752457D02*
X101766667Y-56561980D01*
X101766667Y-56561980D02*
X101671429Y-56466742D01*
X101671429Y-56466742D02*
X101480953Y-56371504D01*
X101480953Y-56371504D02*
X101290476Y-56371504D01*
X100814286Y-56371504D02*
X100338096Y-57704838D01*
X99861905Y-56371504D02*
X100338096Y-57704838D01*
X100338096Y-57704838D02*
X100528572Y-58181028D01*
X100528572Y-58181028D02*
X100623810Y-58276266D01*
X100623810Y-58276266D02*
X100814286Y-58371504D01*
X99576191Y-57895314D02*
X98052381Y-57895314D01*
X96052380Y-56371504D02*
X96052380Y-58371504D01*
X96052380Y-56466742D02*
X95861904Y-56371504D01*
X95861904Y-56371504D02*
X95480951Y-56371504D01*
X95480951Y-56371504D02*
X95290475Y-56466742D01*
X95290475Y-56466742D02*
X95195237Y-56561980D01*
X95195237Y-56561980D02*
X95099999Y-56752457D01*
X95099999Y-56752457D02*
X95099999Y-57323885D01*
X95099999Y-57323885D02*
X95195237Y-57514361D01*
X95195237Y-57514361D02*
X95290475Y-57609600D01*
X95290475Y-57609600D02*
X95480951Y-57704838D01*
X95480951Y-57704838D02*
X95861904Y-57704838D01*
X95861904Y-57704838D02*
X96052380Y-57609600D01*
X93385713Y-57704838D02*
X93385713Y-56657219D01*
X93385713Y-56657219D02*
X93480951Y-56466742D01*
X93480951Y-56466742D02*
X93671427Y-56371504D01*
X93671427Y-56371504D02*
X94052380Y-56371504D01*
X94052380Y-56371504D02*
X94242856Y-56466742D01*
X93385713Y-57609600D02*
X93576189Y-57704838D01*
X93576189Y-57704838D02*
X94052380Y-57704838D01*
X94052380Y-57704838D02*
X94242856Y-57609600D01*
X94242856Y-57609600D02*
X94338094Y-57419123D01*
X94338094Y-57419123D02*
X94338094Y-57228647D01*
X94338094Y-57228647D02*
X94242856Y-57038171D01*
X94242856Y-57038171D02*
X94052380Y-56942933D01*
X94052380Y-56942933D02*
X93576189Y-56942933D01*
X93576189Y-56942933D02*
X93385713Y-56847695D01*
X92433332Y-56371504D02*
X92433332Y-57704838D01*
X92433332Y-56561980D02*
X92338094Y-56466742D01*
X92338094Y-56466742D02*
X92147618Y-56371504D01*
X92147618Y-56371504D02*
X91861903Y-56371504D01*
X91861903Y-56371504D02*
X91671427Y-56466742D01*
X91671427Y-56466742D02*
X91576189Y-56657219D01*
X91576189Y-56657219D02*
X91576189Y-57704838D01*
X89861903Y-57609600D02*
X90052379Y-57704838D01*
X90052379Y-57704838D02*
X90433332Y-57704838D01*
X90433332Y-57704838D02*
X90623808Y-57609600D01*
X90623808Y-57609600D02*
X90719046Y-57419123D01*
X90719046Y-57419123D02*
X90719046Y-56657219D01*
X90719046Y-56657219D02*
X90623808Y-56466742D01*
X90623808Y-56466742D02*
X90433332Y-56371504D01*
X90433332Y-56371504D02*
X90052379Y-56371504D01*
X90052379Y-56371504D02*
X89861903Y-56466742D01*
X89861903Y-56466742D02*
X89766665Y-56657219D01*
X89766665Y-56657219D02*
X89766665Y-56847695D01*
X89766665Y-56847695D02*
X90719046Y-57038171D01*
X88623808Y-57704838D02*
X88814284Y-57609600D01*
X88814284Y-57609600D02*
X88909522Y-57419123D01*
X88909522Y-57419123D02*
X88909522Y-55704838D01*
X103957143Y-59591504D02*
X103480953Y-60924838D01*
X103480953Y-60924838D02*
X103004762Y-59591504D01*
X101195238Y-60924838D02*
X102338095Y-60924838D01*
X101766667Y-60924838D02*
X101766667Y-58924838D01*
X101766667Y-58924838D02*
X101957143Y-59210552D01*
X101957143Y-59210552D02*
X102147619Y-59401028D01*
X102147619Y-59401028D02*
X102338095Y-59496266D01*
X100814286Y-61115314D02*
X99290476Y-61115314D01*
X98433333Y-58924838D02*
X98242856Y-58924838D01*
X98242856Y-58924838D02*
X98052380Y-59020076D01*
X98052380Y-59020076D02*
X97957142Y-59115314D01*
X97957142Y-59115314D02*
X97861904Y-59305790D01*
X97861904Y-59305790D02*
X97766666Y-59686742D01*
X97766666Y-59686742D02*
X97766666Y-60162933D01*
X97766666Y-60162933D02*
X97861904Y-60543885D01*
X97861904Y-60543885D02*
X97957142Y-60734361D01*
X97957142Y-60734361D02*
X98052380Y-60829600D01*
X98052380Y-60829600D02*
X98242856Y-60924838D01*
X98242856Y-60924838D02*
X98433333Y-60924838D01*
X98433333Y-60924838D02*
X98623809Y-60829600D01*
X98623809Y-60829600D02*
X98719047Y-60734361D01*
X98719047Y-60734361D02*
X98814285Y-60543885D01*
X98814285Y-60543885D02*
X98909523Y-60162933D01*
X98909523Y-60162933D02*
X98909523Y-59686742D01*
X98909523Y-59686742D02*
X98814285Y-59305790D01*
X98814285Y-59305790D02*
X98719047Y-59115314D01*
X98719047Y-59115314D02*
X98623809Y-59020076D01*
X98623809Y-59020076D02*
X98433333Y-58924838D01*
X97385714Y-61115314D02*
X95861904Y-61115314D01*
X95004761Y-58924838D02*
X94814284Y-58924838D01*
X94814284Y-58924838D02*
X94623808Y-59020076D01*
X94623808Y-59020076D02*
X94528570Y-59115314D01*
X94528570Y-59115314D02*
X94433332Y-59305790D01*
X94433332Y-59305790D02*
X94338094Y-59686742D01*
X94338094Y-59686742D02*
X94338094Y-60162933D01*
X94338094Y-60162933D02*
X94433332Y-60543885D01*
X94433332Y-60543885D02*
X94528570Y-60734361D01*
X94528570Y-60734361D02*
X94623808Y-60829600D01*
X94623808Y-60829600D02*
X94814284Y-60924838D01*
X94814284Y-60924838D02*
X95004761Y-60924838D01*
X95004761Y-60924838D02*
X95195237Y-60829600D01*
X95195237Y-60829600D02*
X95290475Y-60734361D01*
X95290475Y-60734361D02*
X95385713Y-60543885D01*
X95385713Y-60543885D02*
X95480951Y-60162933D01*
X95480951Y-60162933D02*
X95480951Y-59686742D01*
X95480951Y-59686742D02*
X95385713Y-59305790D01*
X95385713Y-59305790D02*
X95290475Y-59115314D01*
X95290475Y-59115314D02*
X95195237Y-59020076D01*
X95195237Y-59020076D02*
X95004761Y-58924838D01*
D12*
X108885714Y-143878328D02*
X108885714Y-144878328D01*
X109528571Y-143878328D02*
X109528571Y-144664042D01*
X109528571Y-144664042D02*
X109457142Y-144806900D01*
X109457142Y-144806900D02*
X109314285Y-144878328D01*
X109314285Y-144878328D02*
X109099999Y-144878328D01*
X109099999Y-144878328D02*
X108957142Y-144806900D01*
X108957142Y-144806900D02*
X108885714Y-144735471D01*
X108171428Y-143878328D02*
X108171428Y-144878328D01*
X108171428Y-144021185D02*
X108099999Y-143949757D01*
X108099999Y-143949757D02*
X107957142Y-143878328D01*
X107957142Y-143878328D02*
X107742856Y-143878328D01*
X107742856Y-143878328D02*
X107599999Y-143949757D01*
X107599999Y-143949757D02*
X107528571Y-144092614D01*
X107528571Y-144092614D02*
X107528571Y-144878328D01*
X106171428Y-144878328D02*
X106171428Y-143378328D01*
X106171428Y-144806900D02*
X106314285Y-144878328D01*
X106314285Y-144878328D02*
X106599999Y-144878328D01*
X106599999Y-144878328D02*
X106742856Y-144806900D01*
X106742856Y-144806900D02*
X106814285Y-144735471D01*
X106814285Y-144735471D02*
X106885713Y-144592614D01*
X106885713Y-144592614D02*
X106885713Y-144164042D01*
X106885713Y-144164042D02*
X106814285Y-144021185D01*
X106814285Y-144021185D02*
X106742856Y-143949757D01*
X106742856Y-143949757D02*
X106599999Y-143878328D01*
X106599999Y-143878328D02*
X106314285Y-143878328D01*
X106314285Y-143878328D02*
X106171428Y-143949757D01*
X104885713Y-144806900D02*
X105028570Y-144878328D01*
X105028570Y-144878328D02*
X105314285Y-144878328D01*
X105314285Y-144878328D02*
X105457142Y-144806900D01*
X105457142Y-144806900D02*
X105528570Y-144664042D01*
X105528570Y-144664042D02*
X105528570Y-144092614D01*
X105528570Y-144092614D02*
X105457142Y-143949757D01*
X105457142Y-143949757D02*
X105314285Y-143878328D01*
X105314285Y-143878328D02*
X105028570Y-143878328D01*
X105028570Y-143878328D02*
X104885713Y-143949757D01*
X104885713Y-143949757D02*
X104814285Y-144092614D01*
X104814285Y-144092614D02*
X104814285Y-144235471D01*
X104814285Y-144235471D02*
X105528570Y-144378328D01*
X104171428Y-144878328D02*
X104171428Y-143878328D01*
X104171428Y-144164042D02*
X104099999Y-144021185D01*
X104099999Y-144021185D02*
X104028571Y-143949757D01*
X104028571Y-143949757D02*
X103885713Y-143878328D01*
X103885713Y-143878328D02*
X103742856Y-143878328D01*
X103314285Y-144806900D02*
X103171428Y-144878328D01*
X103171428Y-144878328D02*
X102885714Y-144878328D01*
X102885714Y-144878328D02*
X102742857Y-144806900D01*
X102742857Y-144806900D02*
X102671428Y-144664042D01*
X102671428Y-144664042D02*
X102671428Y-144592614D01*
X102671428Y-144592614D02*
X102742857Y-144449757D01*
X102742857Y-144449757D02*
X102885714Y-144378328D01*
X102885714Y-144378328D02*
X103100000Y-144378328D01*
X103100000Y-144378328D02*
X103242857Y-144306900D01*
X103242857Y-144306900D02*
X103314285Y-144164042D01*
X103314285Y-144164042D02*
X103314285Y-144092614D01*
X103314285Y-144092614D02*
X103242857Y-143949757D01*
X103242857Y-143949757D02*
X103100000Y-143878328D01*
X103100000Y-143878328D02*
X102885714Y-143878328D01*
X102885714Y-143878328D02*
X102742857Y-143949757D01*
X101385714Y-144806900D02*
X101528571Y-144878328D01*
X101528571Y-144878328D02*
X101814285Y-144878328D01*
X101814285Y-144878328D02*
X101957142Y-144806900D01*
X101957142Y-144806900D02*
X102028571Y-144735471D01*
X102028571Y-144735471D02*
X102099999Y-144592614D01*
X102099999Y-144592614D02*
X102099999Y-144164042D01*
X102099999Y-144164042D02*
X102028571Y-144021185D01*
X102028571Y-144021185D02*
X101957142Y-143949757D01*
X101957142Y-143949757D02*
X101814285Y-143878328D01*
X101814285Y-143878328D02*
X101528571Y-143878328D01*
X101528571Y-143878328D02*
X101385714Y-143949757D01*
X100528571Y-144878328D02*
X100671428Y-144806900D01*
X100671428Y-144806900D02*
X100742857Y-144735471D01*
X100742857Y-144735471D02*
X100814285Y-144592614D01*
X100814285Y-144592614D02*
X100814285Y-144164042D01*
X100814285Y-144164042D02*
X100742857Y-144021185D01*
X100742857Y-144021185D02*
X100671428Y-143949757D01*
X100671428Y-143949757D02*
X100528571Y-143878328D01*
X100528571Y-143878328D02*
X100314285Y-143878328D01*
X100314285Y-143878328D02*
X100171428Y-143949757D01*
X100171428Y-143949757D02*
X100100000Y-144021185D01*
X100100000Y-144021185D02*
X100028571Y-144164042D01*
X100028571Y-144164042D02*
X100028571Y-144592614D01*
X100028571Y-144592614D02*
X100100000Y-144735471D01*
X100100000Y-144735471D02*
X100171428Y-144806900D01*
X100171428Y-144806900D02*
X100314285Y-144878328D01*
X100314285Y-144878328D02*
X100528571Y-144878328D01*
X99385714Y-144878328D02*
X99385714Y-143878328D01*
X99385714Y-144164042D02*
X99314285Y-144021185D01*
X99314285Y-144021185D02*
X99242857Y-143949757D01*
X99242857Y-143949757D02*
X99099999Y-143878328D01*
X99099999Y-143878328D02*
X98957142Y-143878328D01*
X97885714Y-144806900D02*
X98028571Y-144878328D01*
X98028571Y-144878328D02*
X98314286Y-144878328D01*
X98314286Y-144878328D02*
X98457143Y-144806900D01*
X98457143Y-144806900D02*
X98528571Y-144664042D01*
X98528571Y-144664042D02*
X98528571Y-144092614D01*
X98528571Y-144092614D02*
X98457143Y-143949757D01*
X98457143Y-143949757D02*
X98314286Y-143878328D01*
X98314286Y-143878328D02*
X98028571Y-143878328D01*
X98028571Y-143878328D02*
X97885714Y-143949757D01*
X97885714Y-143949757D02*
X97814286Y-144092614D01*
X97814286Y-144092614D02*
X97814286Y-144235471D01*
X97814286Y-144235471D02*
X98528571Y-144378328D01*
X97242857Y-144806900D02*
X97100000Y-144878328D01*
X97100000Y-144878328D02*
X96814286Y-144878328D01*
X96814286Y-144878328D02*
X96671429Y-144806900D01*
X96671429Y-144806900D02*
X96600000Y-144664042D01*
X96600000Y-144664042D02*
X96600000Y-144592614D01*
X96600000Y-144592614D02*
X96671429Y-144449757D01*
X96671429Y-144449757D02*
X96814286Y-144378328D01*
X96814286Y-144378328D02*
X97028572Y-144378328D01*
X97028572Y-144378328D02*
X97171429Y-144306900D01*
X97171429Y-144306900D02*
X97242857Y-144164042D01*
X97242857Y-144164042D02*
X97242857Y-144092614D01*
X97242857Y-144092614D02*
X97171429Y-143949757D01*
X97171429Y-143949757D02*
X97028572Y-143878328D01*
X97028572Y-143878328D02*
X96814286Y-143878328D01*
X96814286Y-143878328D02*
X96671429Y-143949757D01*
X95957143Y-144735471D02*
X95885714Y-144806900D01*
X95885714Y-144806900D02*
X95957143Y-144878328D01*
X95957143Y-144878328D02*
X96028571Y-144806900D01*
X96028571Y-144806900D02*
X95957143Y-144735471D01*
X95957143Y-144735471D02*
X95957143Y-144878328D01*
X95314285Y-144806900D02*
X95171428Y-144878328D01*
X95171428Y-144878328D02*
X94885714Y-144878328D01*
X94885714Y-144878328D02*
X94742857Y-144806900D01*
X94742857Y-144806900D02*
X94671428Y-144664042D01*
X94671428Y-144664042D02*
X94671428Y-144592614D01*
X94671428Y-144592614D02*
X94742857Y-144449757D01*
X94742857Y-144449757D02*
X94885714Y-144378328D01*
X94885714Y-144378328D02*
X95100000Y-144378328D01*
X95100000Y-144378328D02*
X95242857Y-144306900D01*
X95242857Y-144306900D02*
X95314285Y-144164042D01*
X95314285Y-144164042D02*
X95314285Y-144092614D01*
X95314285Y-144092614D02*
X95242857Y-143949757D01*
X95242857Y-143949757D02*
X95100000Y-143878328D01*
X95100000Y-143878328D02*
X94885714Y-143878328D01*
X94885714Y-143878328D02*
X94742857Y-143949757D01*
X94028571Y-144878328D02*
X94028571Y-143378328D01*
X93385714Y-144878328D02*
X93385714Y-144092614D01*
X93385714Y-144092614D02*
X93457142Y-143949757D01*
X93457142Y-143949757D02*
X93599999Y-143878328D01*
X93599999Y-143878328D02*
X93814285Y-143878328D01*
X93814285Y-143878328D02*
X93957142Y-143949757D01*
X93957142Y-143949757D02*
X94028571Y-144021185D01*
X92457142Y-144878328D02*
X92599999Y-144806900D01*
X92599999Y-144806900D02*
X92671428Y-144735471D01*
X92671428Y-144735471D02*
X92742856Y-144592614D01*
X92742856Y-144592614D02*
X92742856Y-144164042D01*
X92742856Y-144164042D02*
X92671428Y-144021185D01*
X92671428Y-144021185D02*
X92599999Y-143949757D01*
X92599999Y-143949757D02*
X92457142Y-143878328D01*
X92457142Y-143878328D02*
X92242856Y-143878328D01*
X92242856Y-143878328D02*
X92099999Y-143949757D01*
X92099999Y-143949757D02*
X92028571Y-144021185D01*
X92028571Y-144021185D02*
X91957142Y-144164042D01*
X91957142Y-144164042D02*
X91957142Y-144592614D01*
X91957142Y-144592614D02*
X92028571Y-144735471D01*
X92028571Y-144735471D02*
X92099999Y-144806900D01*
X92099999Y-144806900D02*
X92242856Y-144878328D01*
X92242856Y-144878328D02*
X92457142Y-144878328D01*
X91314285Y-143878328D02*
X91314285Y-145378328D01*
X91314285Y-143949757D02*
X91171428Y-143878328D01*
X91171428Y-143878328D02*
X90885713Y-143878328D01*
X90885713Y-143878328D02*
X90742856Y-143949757D01*
X90742856Y-143949757D02*
X90671428Y-144021185D01*
X90671428Y-144021185D02*
X90599999Y-144164042D01*
X90599999Y-144164042D02*
X90599999Y-144592614D01*
X90599999Y-144592614D02*
X90671428Y-144735471D01*
X90671428Y-144735471D02*
X90742856Y-144806900D01*
X90742856Y-144806900D02*
X90885713Y-144878328D01*
X90885713Y-144878328D02*
X91171428Y-144878328D01*
X91171428Y-144878328D02*
X91314285Y-144806900D01*
D13*
X117241428Y-138012641D02*
X117241428Y-138591212D01*
X117241428Y-138591212D02*
X117279999Y-138706927D01*
X117279999Y-138706927D02*
X117357142Y-138784070D01*
X117357142Y-138784070D02*
X117472856Y-138822641D01*
X117472856Y-138822641D02*
X117549999Y-138822641D01*
X116469999Y-138822641D02*
X116855713Y-138822641D01*
X116855713Y-138822641D02*
X116855713Y-138012641D01*
X115737142Y-138745498D02*
X115775714Y-138784070D01*
X115775714Y-138784070D02*
X115891428Y-138822641D01*
X115891428Y-138822641D02*
X115968571Y-138822641D01*
X115968571Y-138822641D02*
X116084285Y-138784070D01*
X116084285Y-138784070D02*
X116161428Y-138706927D01*
X116161428Y-138706927D02*
X116199999Y-138629784D01*
X116199999Y-138629784D02*
X116238571Y-138475498D01*
X116238571Y-138475498D02*
X116238571Y-138359784D01*
X116238571Y-138359784D02*
X116199999Y-138205498D01*
X116199999Y-138205498D02*
X116161428Y-138128355D01*
X116161428Y-138128355D02*
X116084285Y-138051212D01*
X116084285Y-138051212D02*
X115968571Y-138012641D01*
X115968571Y-138012641D02*
X115891428Y-138012641D01*
X115891428Y-138012641D02*
X115775714Y-138051212D01*
X115775714Y-138051212D02*
X115737142Y-138089784D01*
X115158571Y-138012641D02*
X115158571Y-138591212D01*
X115158571Y-138591212D02*
X115197142Y-138706927D01*
X115197142Y-138706927D02*
X115274285Y-138784070D01*
X115274285Y-138784070D02*
X115389999Y-138822641D01*
X115389999Y-138822641D02*
X115467142Y-138822641D01*
X114387142Y-138822641D02*
X114772856Y-138822641D01*
X114772856Y-138822641D02*
X114772856Y-138012641D01*
X113654285Y-138745498D02*
X113692857Y-138784070D01*
X113692857Y-138784070D02*
X113808571Y-138822641D01*
X113808571Y-138822641D02*
X113885714Y-138822641D01*
X113885714Y-138822641D02*
X114001428Y-138784070D01*
X114001428Y-138784070D02*
X114078571Y-138706927D01*
X114078571Y-138706927D02*
X114117142Y-138629784D01*
X114117142Y-138629784D02*
X114155714Y-138475498D01*
X114155714Y-138475498D02*
X114155714Y-138359784D01*
X114155714Y-138359784D02*
X114117142Y-138205498D01*
X114117142Y-138205498D02*
X114078571Y-138128355D01*
X114078571Y-138128355D02*
X114001428Y-138051212D01*
X114001428Y-138051212D02*
X113885714Y-138012641D01*
X113885714Y-138012641D02*
X113808571Y-138012641D01*
X113808571Y-138012641D02*
X113692857Y-138051212D01*
X113692857Y-138051212D02*
X113654285Y-138089784D01*
X113075714Y-138012641D02*
X113075714Y-138591212D01*
X113075714Y-138591212D02*
X113114285Y-138706927D01*
X113114285Y-138706927D02*
X113191428Y-138784070D01*
X113191428Y-138784070D02*
X113307142Y-138822641D01*
X113307142Y-138822641D02*
X113384285Y-138822641D01*
X112304285Y-138822641D02*
X112689999Y-138822641D01*
X112689999Y-138822641D02*
X112689999Y-138012641D01*
X111571428Y-138745498D02*
X111610000Y-138784070D01*
X111610000Y-138784070D02*
X111725714Y-138822641D01*
X111725714Y-138822641D02*
X111802857Y-138822641D01*
X111802857Y-138822641D02*
X111918571Y-138784070D01*
X111918571Y-138784070D02*
X111995714Y-138706927D01*
X111995714Y-138706927D02*
X112034285Y-138629784D01*
X112034285Y-138629784D02*
X112072857Y-138475498D01*
X112072857Y-138475498D02*
X112072857Y-138359784D01*
X112072857Y-138359784D02*
X112034285Y-138205498D01*
X112034285Y-138205498D02*
X111995714Y-138128355D01*
X111995714Y-138128355D02*
X111918571Y-138051212D01*
X111918571Y-138051212D02*
X111802857Y-138012641D01*
X111802857Y-138012641D02*
X111725714Y-138012641D01*
X111725714Y-138012641D02*
X111610000Y-138051212D01*
X111610000Y-138051212D02*
X111571428Y-138089784D01*
X110992857Y-138012641D02*
X110992857Y-138591212D01*
X110992857Y-138591212D02*
X111031428Y-138706927D01*
X111031428Y-138706927D02*
X111108571Y-138784070D01*
X111108571Y-138784070D02*
X111224285Y-138822641D01*
X111224285Y-138822641D02*
X111301428Y-138822641D01*
X110221428Y-138822641D02*
X110607142Y-138822641D01*
X110607142Y-138822641D02*
X110607142Y-138012641D01*
X109488571Y-138745498D02*
X109527143Y-138784070D01*
X109527143Y-138784070D02*
X109642857Y-138822641D01*
X109642857Y-138822641D02*
X109720000Y-138822641D01*
X109720000Y-138822641D02*
X109835714Y-138784070D01*
X109835714Y-138784070D02*
X109912857Y-138706927D01*
X109912857Y-138706927D02*
X109951428Y-138629784D01*
X109951428Y-138629784D02*
X109990000Y-138475498D01*
X109990000Y-138475498D02*
X109990000Y-138359784D01*
X109990000Y-138359784D02*
X109951428Y-138205498D01*
X109951428Y-138205498D02*
X109912857Y-138128355D01*
X109912857Y-138128355D02*
X109835714Y-138051212D01*
X109835714Y-138051212D02*
X109720000Y-138012641D01*
X109720000Y-138012641D02*
X109642857Y-138012641D01*
X109642857Y-138012641D02*
X109527143Y-138051212D01*
X109527143Y-138051212D02*
X109488571Y-138089784D01*
M02*
