%TF.GenerationSoftware,KiCad,Pcbnew,8.0.5*%
%TF.CreationDate,2025-02-02T16:45:39+11:00*%
%TF.ProjectId,panel,70616e65-6c2e-46b6-9963-61645f706362,rev?*%
%TF.SameCoordinates,Original*%
%TF.FileFunction,Profile,NP*%
%FSLAX46Y46*%
G04 Gerber Fmt 4.6, Leading zero omitted, Abs format (unit mm)*
G04 Created by KiCad (PCBNEW 8.0.5) date 2025-02-02 16:45:39*
%MOMM*%
%LPD*%
G01*
G04 APERTURE LIST*
%TA.AperFunction,Profile*%
%ADD10C,0.120000*%
%TD*%
%TA.AperFunction,Profile*%
%ADD11C,0.050000*%
%TD*%
G04 APERTURE END LIST*
D10*
X102260000Y-65020000D02*
G75*
G02*
X97660000Y-65020000I-2300000J0D01*
G01*
X97660000Y-65020000D02*
G75*
G02*
X102260000Y-65020000I2300000J0D01*
G01*
X102200000Y-135090000D02*
G75*
G02*
X97600000Y-135090000I-2300000J0D01*
G01*
X97600000Y-135090000D02*
G75*
G02*
X102200000Y-135090000I2300000J0D01*
G01*
D11*
X91700000Y-130700000D02*
G75*
G02*
X84100000Y-130700000I-3800000J0D01*
G01*
X84100000Y-130700000D02*
G75*
G02*
X91700000Y-130700000I3800000J0D01*
G01*
X103900000Y-110300000D02*
G75*
G02*
X95900000Y-110300000I-4000000J0D01*
G01*
X95900000Y-110300000D02*
G75*
G02*
X103900000Y-110300000I4000000J0D01*
G01*
D10*
X147500000Y-100000000D02*
G75*
G02*
X52500000Y-100000000I-47500000J0D01*
G01*
X52500000Y-100000000D02*
G75*
G02*
X147500000Y-100000000I47500000J0D01*
G01*
X132790000Y-69580000D02*
G75*
G02*
X128190000Y-69580000I-2300000J0D01*
G01*
X128190000Y-69580000D02*
G75*
G02*
X132790000Y-69580000I2300000J0D01*
G01*
D11*
X103400000Y-124200000D02*
G75*
G02*
X96400000Y-124200000I-3500000J0D01*
G01*
X96400000Y-124200000D02*
G75*
G02*
X103400000Y-124200000I3500000J0D01*
G01*
X103800000Y-81579006D02*
G75*
G02*
X96200000Y-81579006I-3800000J0D01*
G01*
X96200000Y-81579006D02*
G75*
G02*
X103800000Y-81579006I3800000J0D01*
G01*
D10*
X71780000Y-130480000D02*
G75*
G02*
X67180000Y-130480000I-2300000J0D01*
G01*
X67180000Y-130480000D02*
G75*
G02*
X71780000Y-130480000I2300000J0D01*
G01*
X132790000Y-130470000D02*
G75*
G02*
X128190000Y-130470000I-2300000J0D01*
G01*
X128190000Y-130470000D02*
G75*
G02*
X132790000Y-130470000I2300000J0D01*
G01*
D11*
X116200000Y-131300000D02*
G75*
G02*
X108600000Y-131300000I-3800000J0D01*
G01*
X108600000Y-131300000D02*
G75*
G02*
X116200000Y-131300000I3800000J0D01*
G01*
D10*
X71780000Y-69580000D02*
G75*
G02*
X67180000Y-69580000I-2300000J0D01*
G01*
X67180000Y-69580000D02*
G75*
G02*
X71780000Y-69580000I2300000J0D01*
G01*
M02*
