%TF.GenerationSoftware,KiCad,Pcbnew,6.0.7*%
%TF.CreationDate,2022-12-16T09:25:35+13:00*%
%TF.ProjectId,panel,70616e65-6c2e-46b6-9963-61645f706362,rev?*%
%TF.SameCoordinates,Original*%
%TF.FileFunction,Legend,Bot*%
%TF.FilePolarity,Positive*%
%FSLAX46Y46*%
G04 Gerber Fmt 4.6, Leading zero omitted, Abs format (unit mm)*
G04 Created by KiCad (PCBNEW 6.0.7) date 2022-12-16 09:25:35*
%MOMM*%
%LPD*%
G01*
G04 APERTURE LIST*
%ADD10C,0.500000*%
%ADD11C,0.150000*%
%ADD12C,0.200000*%
%ADD13C,0.300000*%
G04 APERTURE END LIST*
D10*
X109900000Y-140938095D02*
X106090476Y-140938095D01*
X105614285Y-135938095D02*
X104661904Y-135223809D01*
X103709523Y-135938095D01*
X95614285Y-140461904D02*
X98471428Y-140461904D01*
X97042857Y-140461904D02*
X97042857Y-135461904D01*
X97519047Y-136176190D01*
X97995238Y-136652380D01*
X98471428Y-136890476D01*
X93709523Y-135938095D02*
X93471428Y-135700000D01*
X92995238Y-135461904D01*
X91804761Y-135461904D01*
X91328571Y-135700000D01*
X91090476Y-135938095D01*
X90852380Y-136414285D01*
X90852380Y-136890476D01*
X91090476Y-137604761D01*
X93947619Y-140461904D01*
X90852380Y-140461904D01*
D11*
X95180952Y-75452380D02*
X95180952Y-76166666D01*
X95133333Y-76309523D01*
X95038095Y-76404761D01*
X94895238Y-76452380D01*
X94800000Y-76452380D01*
X96133333Y-76452380D02*
X95657142Y-76452380D01*
X95657142Y-75452380D01*
X97038095Y-76357142D02*
X96990476Y-76404761D01*
X96847619Y-76452380D01*
X96752380Y-76452380D01*
X96609523Y-76404761D01*
X96514285Y-76309523D01*
X96466666Y-76214285D01*
X96419047Y-76023809D01*
X96419047Y-75880952D01*
X96466666Y-75690476D01*
X96514285Y-75595238D01*
X96609523Y-75500000D01*
X96752380Y-75452380D01*
X96847619Y-75452380D01*
X96990476Y-75500000D01*
X97038095Y-75547619D01*
X97752380Y-75452380D02*
X97752380Y-76166666D01*
X97704761Y-76309523D01*
X97609523Y-76404761D01*
X97466666Y-76452380D01*
X97371428Y-76452380D01*
X98704761Y-76452380D02*
X98228571Y-76452380D01*
X98228571Y-75452380D01*
X99609523Y-76357142D02*
X99561904Y-76404761D01*
X99419047Y-76452380D01*
X99323809Y-76452380D01*
X99180952Y-76404761D01*
X99085714Y-76309523D01*
X99038095Y-76214285D01*
X98990476Y-76023809D01*
X98990476Y-75880952D01*
X99038095Y-75690476D01*
X99085714Y-75595238D01*
X99180952Y-75500000D01*
X99323809Y-75452380D01*
X99419047Y-75452380D01*
X99561904Y-75500000D01*
X99609523Y-75547619D01*
X100323809Y-75452380D02*
X100323809Y-76166666D01*
X100276190Y-76309523D01*
X100180952Y-76404761D01*
X100038095Y-76452380D01*
X99942857Y-76452380D01*
X101276190Y-76452380D02*
X100800000Y-76452380D01*
X100800000Y-75452380D01*
X102180952Y-76357142D02*
X102133333Y-76404761D01*
X101990476Y-76452380D01*
X101895238Y-76452380D01*
X101752380Y-76404761D01*
X101657142Y-76309523D01*
X101609523Y-76214285D01*
X101561904Y-76023809D01*
X101561904Y-75880952D01*
X101609523Y-75690476D01*
X101657142Y-75595238D01*
X101752380Y-75500000D01*
X101895238Y-75452380D01*
X101990476Y-75452380D01*
X102133333Y-75500000D01*
X102180952Y-75547619D01*
X102895238Y-75452380D02*
X102895238Y-76166666D01*
X102847619Y-76309523D01*
X102752380Y-76404761D01*
X102609523Y-76452380D01*
X102514285Y-76452380D01*
X103847619Y-76452380D02*
X103371428Y-76452380D01*
X103371428Y-75452380D01*
X104752380Y-76357142D02*
X104704761Y-76404761D01*
X104561904Y-76452380D01*
X104466666Y-76452380D01*
X104323809Y-76404761D01*
X104228571Y-76309523D01*
X104180952Y-76214285D01*
X104133333Y-76023809D01*
X104133333Y-75880952D01*
X104180952Y-75690476D01*
X104228571Y-75595238D01*
X104323809Y-75500000D01*
X104466666Y-75452380D01*
X104561904Y-75452380D01*
X104704761Y-75500000D01*
X104752380Y-75547619D01*
D12*
X109861904Y-57885238D02*
X108338095Y-57885238D01*
X107861904Y-57694761D02*
X107861904Y-56361428D01*
X107861904Y-56742380D02*
X107766666Y-56551904D01*
X107671428Y-56456666D01*
X107480952Y-56361428D01*
X107290476Y-56361428D01*
X106338095Y-57694761D02*
X106528571Y-57599523D01*
X106623809Y-57504285D01*
X106719047Y-57313809D01*
X106719047Y-56742380D01*
X106623809Y-56551904D01*
X106528571Y-56456666D01*
X106338095Y-56361428D01*
X106052380Y-56361428D01*
X105861904Y-56456666D01*
X105766666Y-56551904D01*
X105671428Y-56742380D01*
X105671428Y-57313809D01*
X105766666Y-57504285D01*
X105861904Y-57599523D01*
X106052380Y-57694761D01*
X106338095Y-57694761D01*
X105100000Y-56361428D02*
X104338095Y-56361428D01*
X104814285Y-55694761D02*
X104814285Y-57409047D01*
X104719047Y-57599523D01*
X104528571Y-57694761D01*
X104338095Y-57694761D01*
X102814285Y-57694761D02*
X102814285Y-56647142D01*
X102909523Y-56456666D01*
X103100000Y-56361428D01*
X103480952Y-56361428D01*
X103671428Y-56456666D01*
X102814285Y-57599523D02*
X103004761Y-57694761D01*
X103480952Y-57694761D01*
X103671428Y-57599523D01*
X103766666Y-57409047D01*
X103766666Y-57218571D01*
X103671428Y-57028095D01*
X103480952Y-56932857D01*
X103004761Y-56932857D01*
X102814285Y-56837619D01*
X101861904Y-57694761D02*
X101861904Y-56361428D01*
X101861904Y-56742380D02*
X101766666Y-56551904D01*
X101671428Y-56456666D01*
X101480952Y-56361428D01*
X101290476Y-56361428D01*
X100814285Y-56361428D02*
X100338095Y-57694761D01*
X99861904Y-56361428D02*
X100338095Y-57694761D01*
X100528571Y-58170952D01*
X100623809Y-58266190D01*
X100814285Y-58361428D01*
X99576190Y-57885238D02*
X98052380Y-57885238D01*
X96052380Y-56361428D02*
X96052380Y-58361428D01*
X96052380Y-56456666D02*
X95861904Y-56361428D01*
X95480952Y-56361428D01*
X95290476Y-56456666D01*
X95195238Y-56551904D01*
X95100000Y-56742380D01*
X95100000Y-57313809D01*
X95195238Y-57504285D01*
X95290476Y-57599523D01*
X95480952Y-57694761D01*
X95861904Y-57694761D01*
X96052380Y-57599523D01*
X93385714Y-57694761D02*
X93385714Y-56647142D01*
X93480952Y-56456666D01*
X93671428Y-56361428D01*
X94052380Y-56361428D01*
X94242857Y-56456666D01*
X93385714Y-57599523D02*
X93576190Y-57694761D01*
X94052380Y-57694761D01*
X94242857Y-57599523D01*
X94338095Y-57409047D01*
X94338095Y-57218571D01*
X94242857Y-57028095D01*
X94052380Y-56932857D01*
X93576190Y-56932857D01*
X93385714Y-56837619D01*
X92433333Y-56361428D02*
X92433333Y-57694761D01*
X92433333Y-56551904D02*
X92338095Y-56456666D01*
X92147619Y-56361428D01*
X91861904Y-56361428D01*
X91671428Y-56456666D01*
X91576190Y-56647142D01*
X91576190Y-57694761D01*
X89861904Y-57599523D02*
X90052380Y-57694761D01*
X90433333Y-57694761D01*
X90623809Y-57599523D01*
X90719047Y-57409047D01*
X90719047Y-56647142D01*
X90623809Y-56456666D01*
X90433333Y-56361428D01*
X90052380Y-56361428D01*
X89861904Y-56456666D01*
X89766666Y-56647142D01*
X89766666Y-56837619D01*
X90719047Y-57028095D01*
X88623809Y-57694761D02*
X88814285Y-57599523D01*
X88909523Y-57409047D01*
X88909523Y-55694761D01*
X100528571Y-59581428D02*
X100052380Y-60914761D01*
X99576190Y-59581428D01*
X98909523Y-59105238D02*
X98814285Y-59010000D01*
X98623809Y-58914761D01*
X98147619Y-58914761D01*
X97957142Y-59010000D01*
X97861904Y-59105238D01*
X97766666Y-59295714D01*
X97766666Y-59486190D01*
X97861904Y-59771904D01*
X99004761Y-60914761D01*
X97766666Y-60914761D01*
D13*
X108885714Y-143878571D02*
X108885714Y-144878571D01*
X109528571Y-143878571D02*
X109528571Y-144664285D01*
X109457142Y-144807142D01*
X109314285Y-144878571D01*
X109100000Y-144878571D01*
X108957142Y-144807142D01*
X108885714Y-144735714D01*
X108171428Y-143878571D02*
X108171428Y-144878571D01*
X108171428Y-144021428D02*
X108100000Y-143950000D01*
X107957142Y-143878571D01*
X107742857Y-143878571D01*
X107600000Y-143950000D01*
X107528571Y-144092857D01*
X107528571Y-144878571D01*
X106171428Y-144878571D02*
X106171428Y-143378571D01*
X106171428Y-144807142D02*
X106314285Y-144878571D01*
X106600000Y-144878571D01*
X106742857Y-144807142D01*
X106814285Y-144735714D01*
X106885714Y-144592857D01*
X106885714Y-144164285D01*
X106814285Y-144021428D01*
X106742857Y-143950000D01*
X106600000Y-143878571D01*
X106314285Y-143878571D01*
X106171428Y-143950000D01*
X104885714Y-144807142D02*
X105028571Y-144878571D01*
X105314285Y-144878571D01*
X105457142Y-144807142D01*
X105528571Y-144664285D01*
X105528571Y-144092857D01*
X105457142Y-143950000D01*
X105314285Y-143878571D01*
X105028571Y-143878571D01*
X104885714Y-143950000D01*
X104814285Y-144092857D01*
X104814285Y-144235714D01*
X105528571Y-144378571D01*
X104171428Y-144878571D02*
X104171428Y-143878571D01*
X104171428Y-144164285D02*
X104100000Y-144021428D01*
X104028571Y-143950000D01*
X103885714Y-143878571D01*
X103742857Y-143878571D01*
X103314285Y-144807142D02*
X103171428Y-144878571D01*
X102885714Y-144878571D01*
X102742857Y-144807142D01*
X102671428Y-144664285D01*
X102671428Y-144592857D01*
X102742857Y-144450000D01*
X102885714Y-144378571D01*
X103100000Y-144378571D01*
X103242857Y-144307142D01*
X103314285Y-144164285D01*
X103314285Y-144092857D01*
X103242857Y-143950000D01*
X103100000Y-143878571D01*
X102885714Y-143878571D01*
X102742857Y-143950000D01*
X101385714Y-144807142D02*
X101528571Y-144878571D01*
X101814285Y-144878571D01*
X101957142Y-144807142D01*
X102028571Y-144735714D01*
X102100000Y-144592857D01*
X102100000Y-144164285D01*
X102028571Y-144021428D01*
X101957142Y-143950000D01*
X101814285Y-143878571D01*
X101528571Y-143878571D01*
X101385714Y-143950000D01*
X100528571Y-144878571D02*
X100671428Y-144807142D01*
X100742857Y-144735714D01*
X100814285Y-144592857D01*
X100814285Y-144164285D01*
X100742857Y-144021428D01*
X100671428Y-143950000D01*
X100528571Y-143878571D01*
X100314285Y-143878571D01*
X100171428Y-143950000D01*
X100100000Y-144021428D01*
X100028571Y-144164285D01*
X100028571Y-144592857D01*
X100100000Y-144735714D01*
X100171428Y-144807142D01*
X100314285Y-144878571D01*
X100528571Y-144878571D01*
X99385714Y-144878571D02*
X99385714Y-143878571D01*
X99385714Y-144164285D02*
X99314285Y-144021428D01*
X99242857Y-143950000D01*
X99100000Y-143878571D01*
X98957142Y-143878571D01*
X97885714Y-144807142D02*
X98028571Y-144878571D01*
X98314285Y-144878571D01*
X98457142Y-144807142D01*
X98528571Y-144664285D01*
X98528571Y-144092857D01*
X98457142Y-143950000D01*
X98314285Y-143878571D01*
X98028571Y-143878571D01*
X97885714Y-143950000D01*
X97814285Y-144092857D01*
X97814285Y-144235714D01*
X98528571Y-144378571D01*
X97242857Y-144807142D02*
X97100000Y-144878571D01*
X96814285Y-144878571D01*
X96671428Y-144807142D01*
X96600000Y-144664285D01*
X96600000Y-144592857D01*
X96671428Y-144450000D01*
X96814285Y-144378571D01*
X97028571Y-144378571D01*
X97171428Y-144307142D01*
X97242857Y-144164285D01*
X97242857Y-144092857D01*
X97171428Y-143950000D01*
X97028571Y-143878571D01*
X96814285Y-143878571D01*
X96671428Y-143950000D01*
X95957142Y-144735714D02*
X95885714Y-144807142D01*
X95957142Y-144878571D01*
X96028571Y-144807142D01*
X95957142Y-144735714D01*
X95957142Y-144878571D01*
X95314285Y-144807142D02*
X95171428Y-144878571D01*
X94885714Y-144878571D01*
X94742857Y-144807142D01*
X94671428Y-144664285D01*
X94671428Y-144592857D01*
X94742857Y-144450000D01*
X94885714Y-144378571D01*
X95100000Y-144378571D01*
X95242857Y-144307142D01*
X95314285Y-144164285D01*
X95314285Y-144092857D01*
X95242857Y-143950000D01*
X95100000Y-143878571D01*
X94885714Y-143878571D01*
X94742857Y-143950000D01*
X94028571Y-144878571D02*
X94028571Y-143378571D01*
X93385714Y-144878571D02*
X93385714Y-144092857D01*
X93457142Y-143950000D01*
X93600000Y-143878571D01*
X93814285Y-143878571D01*
X93957142Y-143950000D01*
X94028571Y-144021428D01*
X92457142Y-144878571D02*
X92600000Y-144807142D01*
X92671428Y-144735714D01*
X92742857Y-144592857D01*
X92742857Y-144164285D01*
X92671428Y-144021428D01*
X92600000Y-143950000D01*
X92457142Y-143878571D01*
X92242857Y-143878571D01*
X92100000Y-143950000D01*
X92028571Y-144021428D01*
X91957142Y-144164285D01*
X91957142Y-144592857D01*
X92028571Y-144735714D01*
X92100000Y-144807142D01*
X92242857Y-144878571D01*
X92457142Y-144878571D01*
X91314285Y-143878571D02*
X91314285Y-145378571D01*
X91314285Y-143950000D02*
X91171428Y-143878571D01*
X90885714Y-143878571D01*
X90742857Y-143950000D01*
X90671428Y-144021428D01*
X90600000Y-144164285D01*
X90600000Y-144592857D01*
X90671428Y-144735714D01*
X90742857Y-144807142D01*
X90885714Y-144878571D01*
X91171428Y-144878571D01*
X91314285Y-144807142D01*
M02*
