%TF.GenerationSoftware,KiCad,Pcbnew,6.0.7*%
%TF.CreationDate,2023-06-08T16:58:43+12:00*%
%TF.ProjectId,_rotary_,5f726f74-6172-4795-9f2e-6b696361645f,v0_1_2*%
%TF.SameCoordinates,Original*%
%TF.FileFunction,Copper,L1,Top*%
%TF.FilePolarity,Positive*%
%FSLAX46Y46*%
G04 Gerber Fmt 4.6, Leading zero omitted, Abs format (unit mm)*
G04 Created by KiCad (PCBNEW 6.0.7) date 2023-06-08 16:58:43*
%MOMM*%
%LPD*%
G01*
G04 APERTURE LIST*
G04 Aperture macros list*
%AMRoundRect*
0 Rectangle with rounded corners*
0 $1 Rounding radius*
0 $2 $3 $4 $5 $6 $7 $8 $9 X,Y pos of 4 corners*
0 Add a 4 corners polygon primitive as box body*
4,1,4,$2,$3,$4,$5,$6,$7,$8,$9,$2,$3,0*
0 Add four circle primitives for the rounded corners*
1,1,$1+$1,$2,$3*
1,1,$1+$1,$4,$5*
1,1,$1+$1,$6,$7*
1,1,$1+$1,$8,$9*
0 Add four rect primitives between the rounded corners*
20,1,$1+$1,$2,$3,$4,$5,0*
20,1,$1+$1,$4,$5,$6,$7,0*
20,1,$1+$1,$6,$7,$8,$9,0*
20,1,$1+$1,$8,$9,$2,$3,0*%
G04 Aperture macros list end*
%TA.AperFunction,ComponentPad*%
%ADD10R,1.930000X1.830000*%
%TD*%
%TA.AperFunction,ComponentPad*%
%ADD11C,2.130000*%
%TD*%
%TA.AperFunction,ComponentPad*%
%ADD12C,1.600000*%
%TD*%
%TA.AperFunction,ComponentPad*%
%ADD13O,1.600000X1.600000*%
%TD*%
%TA.AperFunction,ComponentPad*%
%ADD14R,2.400000X1.600000*%
%TD*%
%TA.AperFunction,SMDPad,CuDef*%
%ADD15RoundRect,0.150000X0.825000X0.150000X-0.825000X0.150000X-0.825000X-0.150000X0.825000X-0.150000X0*%
%TD*%
%TA.AperFunction,ComponentPad*%
%ADD16O,2.400000X1.600000*%
%TD*%
%TA.AperFunction,ComponentPad*%
%ADD17R,1.100000X1.800000*%
%TD*%
%TA.AperFunction,ComponentPad*%
%ADD18RoundRect,0.275000X-0.275000X-0.625000X0.275000X-0.625000X0.275000X0.625000X-0.275000X0.625000X0*%
%TD*%
%TA.AperFunction,ComponentPad*%
%ADD19C,1.440000*%
%TD*%
%TA.AperFunction,WasherPad*%
%ADD20C,4.000000*%
%TD*%
%TA.AperFunction,ComponentPad*%
%ADD21C,1.800000*%
%TD*%
%TA.AperFunction,ComponentPad*%
%ADD22R,1.500000X1.500000*%
%TD*%
%TA.AperFunction,ComponentPad*%
%ADD23O,1.500000X1.500000*%
%TD*%
%TA.AperFunction,ComponentPad*%
%ADD24RoundRect,0.250000X0.725000X-0.600000X0.725000X0.600000X-0.725000X0.600000X-0.725000X-0.600000X0*%
%TD*%
%TA.AperFunction,ComponentPad*%
%ADD25O,1.950000X1.700000*%
%TD*%
%TA.AperFunction,ViaPad*%
%ADD26C,0.800000*%
%TD*%
%TA.AperFunction,Conductor*%
%ADD27C,0.500000*%
%TD*%
%TA.AperFunction,Conductor*%
%ADD28C,0.250000*%
%TD*%
G04 APERTURE END LIST*
D10*
%TO.P,J1,S*%
%TO.N,GND*%
X100000000Y-111200000D03*
D11*
%TO.P,J1,T*%
%TO.N,Net-(D1-Pad2)*%
X100000000Y-122600000D03*
%TO.P,J1,TN*%
%TO.N,GND*%
X100000000Y-114300000D03*
%TD*%
D12*
%TO.P,C1,1*%
%TO.N,GND*%
X113600000Y-99000000D03*
%TO.P,C1,2*%
%TO.N,+5V*%
X108600000Y-99000000D03*
%TD*%
%TO.P,R3,1*%
%TO.N,Net-(R2-Pad2)*%
X108050000Y-121750000D03*
D13*
%TO.P,R3,2*%
%TO.N,Net-(R3-Pad2)*%
X115670000Y-121750000D03*
%TD*%
D14*
%TO.P,U1,1*%
%TO.N,Net-(R2-Pad2)*%
X96175000Y-99025000D03*
D15*
X102400000Y-96430000D03*
%TO.P,U1,2,-*%
%TO.N,Net-(R1-Pad2)*%
X102400000Y-95160000D03*
D16*
X96175000Y-101565000D03*
D15*
%TO.P,U1,3,+*%
%TO.N,+2.5V*%
X102400000Y-93890000D03*
D16*
X96175000Y-104105000D03*
%TO.P,U1,4,V-*%
%TO.N,GND*%
X96175000Y-106645000D03*
D15*
X102400000Y-92620000D03*
D16*
%TO.P,U1,5,+*%
%TO.N,Net-(RV1-Pad2)*%
X103795000Y-106645000D03*
D15*
X97450000Y-92620000D03*
%TO.P,U1,6,-*%
%TO.N,Net-(R3-Pad2)*%
X97450000Y-93890000D03*
D16*
X103795000Y-104105000D03*
%TO.P,U1,7*%
%TO.N,Net-(J2-Pad2)*%
X103795000Y-101565000D03*
D15*
X97450000Y-95160000D03*
%TO.P,U1,8,V+*%
%TO.N,+5V*%
X97450000Y-96430000D03*
D16*
X103795000Y-99025000D03*
%TD*%
D12*
%TO.P,R1,1*%
%TO.N,Net-(D1-Pad2)*%
X82600000Y-99000000D03*
D13*
%TO.P,R1,2*%
%TO.N,Net-(R1-Pad2)*%
X90220000Y-99000000D03*
%TD*%
D17*
%TO.P,U2,1,ADJ*%
%TO.N,Net-(R6-Pad2)*%
X108900000Y-64700000D03*
D18*
%TO.P,U2,2,VO*%
%TO.N,+2.5V*%
X110170000Y-62630000D03*
%TO.P,U2,3,VI*%
%TO.N,+5V*%
X111440000Y-64700000D03*
%TD*%
D12*
%TO.P,R5,1*%
%TO.N,Net-(R5-Pad1)*%
X90410000Y-88600000D03*
D13*
%TO.P,R5,2*%
%TO.N,GND*%
X82790000Y-88600000D03*
%TD*%
D19*
%TO.P,RV2,1,1*%
%TO.N,unconnected-(RV2-Pad1)*%
X114150000Y-115975000D03*
%TO.P,RV2,2,2*%
%TO.N,Net-(R4-Pad2)*%
X111610000Y-113435000D03*
%TO.P,RV2,3,3*%
%TO.N,Net-(J2-Pad2)*%
X109070000Y-115975000D03*
%TD*%
D12*
%TO.P,R6,1*%
%TO.N,+2.5V*%
X117810000Y-70000000D03*
D13*
%TO.P,R6,2*%
%TO.N,Net-(R6-Pad2)*%
X110190000Y-70000000D03*
%TD*%
D20*
%TO.P,RV1,*%
%TO.N,*%
X95250000Y-81625000D03*
X104750000Y-81625000D03*
D21*
%TO.P,RV1,1,1*%
%TO.N,+5V*%
X102500000Y-89125000D03*
%TO.P,RV1,2,2*%
%TO.N,Net-(RV1-Pad2)*%
X100000000Y-89125000D03*
%TO.P,RV1,3,3*%
%TO.N,Net-(R5-Pad1)*%
X97500000Y-89125000D03*
%TD*%
D12*
%TO.P,R4,1*%
%TO.N,Net-(R3-Pad2)*%
X108050000Y-125350000D03*
D13*
%TO.P,R4,2*%
%TO.N,Net-(R4-Pad2)*%
X115670000Y-125350000D03*
%TD*%
D22*
%TO.P,D2,1,K*%
%TO.N,Net-(D1-Pad2)*%
X90415000Y-120500000D03*
D23*
%TO.P,D2,2,A*%
%TO.N,GND*%
X82795000Y-120500000D03*
%TD*%
D22*
%TO.P,D1,1,K*%
%TO.N,+5V*%
X90400000Y-116900000D03*
D23*
%TO.P,D1,2,A*%
%TO.N,Net-(D1-Pad2)*%
X82780000Y-116900000D03*
%TD*%
D12*
%TO.P,R2,1*%
%TO.N,Net-(R1-Pad2)*%
X82600000Y-102600000D03*
D13*
%TO.P,R2,2*%
%TO.N,Net-(R2-Pad2)*%
X90220000Y-102600000D03*
%TD*%
D12*
%TO.P,R7,1*%
%TO.N,Net-(R6-Pad2)*%
X110190000Y-73800000D03*
D13*
%TO.P,R7,2*%
%TO.N,GND*%
X117810000Y-73800000D03*
%TD*%
D24*
%TO.P,J2,1,Pin_1*%
%TO.N,GND*%
X84700000Y-69300000D03*
D25*
%TO.P,J2,2,Pin_2*%
%TO.N,Net-(J2-Pad2)*%
X84700000Y-66800000D03*
%TO.P,J2,3,Pin_3*%
%TO.N,+5V*%
X84700000Y-64300000D03*
%TD*%
D26*
%TO.N,Net-(R2-Pad2)*%
X109390000Y-107000000D03*
%TO.N,Net-(J2-Pad2)*%
X110950000Y-111600000D03*
%TD*%
D27*
%TO.N,+5V*%
X100725000Y-99025000D02*
X103795000Y-99025000D01*
X97450000Y-96430000D02*
X98130000Y-96430000D01*
X98130000Y-96430000D02*
X100725000Y-99025000D01*
D28*
%TO.N,Net-(D1-Pad2)*%
X82780000Y-116900000D02*
X86180000Y-120300000D01*
X84053601Y-100453601D02*
X84053601Y-115626399D01*
X82600000Y-99000000D02*
X84053601Y-100453601D01*
X86180000Y-120300000D02*
X86200000Y-120300000D01*
X97900000Y-120500000D02*
X100000000Y-122600000D01*
X90415000Y-120500000D02*
X97900000Y-120500000D01*
X86400000Y-120500000D02*
X90415000Y-120500000D01*
X86200000Y-120300000D02*
X86400000Y-120500000D01*
X84053601Y-115626399D02*
X82780000Y-116900000D01*
%TO.N,Net-(R1-Pad2)*%
X98265000Y-101565000D02*
X99500000Y-102800000D01*
X105200000Y-102800000D02*
X105770000Y-102230000D01*
X99500000Y-102800000D02*
X105200000Y-102800000D01*
X96175000Y-101565000D02*
X98265000Y-101565000D01*
X105770000Y-97270000D02*
X103660000Y-95160000D01*
X103660000Y-95160000D02*
X102400000Y-95160000D01*
X105770000Y-102230000D02*
X105770000Y-97270000D01*
%TO.N,Net-(R2-Pad2)*%
X100400000Y-100300000D02*
X104800000Y-100300000D01*
X108050000Y-121750000D02*
X107250001Y-120950001D01*
X107250001Y-120950001D02*
X107250001Y-109139999D01*
X104800000Y-100300000D02*
X105320000Y-99780000D01*
X99125000Y-99025000D02*
X100400000Y-100300000D01*
X102670000Y-96700000D02*
X102400000Y-96430000D01*
X103600000Y-96700000D02*
X102670000Y-96700000D01*
X96175000Y-99025000D02*
X99125000Y-99025000D01*
X105320000Y-99780000D02*
X105320000Y-98420000D01*
X105320000Y-98420000D02*
X103600000Y-96700000D01*
X107250001Y-109139999D02*
X109390000Y-107000000D01*
%TO.N,Net-(R3-Pad2)*%
X95610000Y-93890000D02*
X97450000Y-93890000D01*
X93950000Y-95550000D02*
X95610000Y-93890000D01*
X112070000Y-125350000D02*
X115670000Y-121750000D01*
X98131400Y-102931400D02*
X95131400Y-102931400D01*
X103795000Y-104105000D02*
X99305000Y-104105000D01*
X93950000Y-101750000D02*
X93950000Y-95550000D01*
X108050000Y-125350000D02*
X112070000Y-125350000D01*
X99305000Y-104105000D02*
X98131400Y-102931400D01*
X95131400Y-102931400D02*
X93950000Y-101750000D01*
%TO.N,Net-(R5-Pad1)*%
X97500000Y-89125000D02*
X90935000Y-89125000D01*
X90935000Y-89125000D02*
X90410000Y-88600000D01*
D27*
%TO.N,+2.5V*%
X106345000Y-104655000D02*
X106345000Y-97031828D01*
X117810000Y-70000000D02*
X114814695Y-70000000D01*
X119200000Y-91300000D02*
X119200000Y-71390000D01*
X110170000Y-65355305D02*
X110170000Y-63030000D01*
X99255000Y-105355000D02*
X105645000Y-105355000D01*
X102400000Y-93890000D02*
X116610000Y-93890000D01*
X116610000Y-93890000D02*
X119200000Y-91300000D01*
X98005000Y-104105000D02*
X99255000Y-105355000D01*
X105645000Y-105355000D02*
X106345000Y-104655000D01*
X119200000Y-71390000D02*
X117810000Y-70000000D01*
X96175000Y-104105000D02*
X98005000Y-104105000D01*
X106345000Y-97031828D02*
X103203172Y-93890000D01*
X114814695Y-70000000D02*
X110170000Y-65355305D01*
X103203172Y-93890000D02*
X102400000Y-93890000D01*
D28*
%TO.N,Net-(R6-Pad2)*%
X108900000Y-64300000D02*
X108900000Y-68710000D01*
X110190000Y-70000000D02*
X110190000Y-73800000D01*
X108900000Y-68710000D02*
X110190000Y-70000000D01*
%TO.N,Net-(RV1-Pad2)*%
X103795000Y-106645000D02*
X99245000Y-106645000D01*
X93500000Y-95300000D02*
X96180000Y-92620000D01*
X97450000Y-91675000D02*
X97450000Y-92620000D01*
X96180000Y-92620000D02*
X97450000Y-92620000D01*
X99245000Y-106645000D02*
X98000000Y-105400000D01*
X93500000Y-103678602D02*
X93500000Y-95300000D01*
X98000000Y-105400000D02*
X95221398Y-105400000D01*
X95221398Y-105400000D02*
X93500000Y-103678602D01*
X100000000Y-89125000D02*
X97450000Y-91675000D01*
%TO.N,Net-(J2-Pad2)*%
X98350000Y-100150000D02*
X94650000Y-100150000D01*
X103795000Y-101565000D02*
X99765000Y-101565000D01*
X84700000Y-66800000D02*
X86300000Y-66800000D01*
X95540000Y-95160000D02*
X97450000Y-95160000D01*
X98240000Y-95160000D02*
X100300000Y-93100000D01*
X99765000Y-101565000D02*
X98350000Y-100150000D01*
X94400000Y-99900000D02*
X94400000Y-96300000D01*
X109070000Y-113480000D02*
X109070000Y-115975000D01*
X94400000Y-96300000D02*
X95540000Y-95160000D01*
X112720000Y-83620000D02*
X105200000Y-76100000D01*
X102373249Y-91000000D02*
X111745000Y-91000000D01*
X110950000Y-111600000D02*
X109070000Y-113480000D01*
X86300000Y-66800000D02*
X95600000Y-76100000D01*
X97450000Y-95160000D02*
X98240000Y-95160000D01*
X100300000Y-93073249D02*
X102373249Y-91000000D01*
X95600000Y-76100000D02*
X105200000Y-76100000D01*
X111745000Y-91000000D02*
X112720000Y-90025000D01*
X100300000Y-93100000D02*
X100300000Y-93073249D01*
X112720000Y-90025000D02*
X112720000Y-83620000D01*
X94650000Y-100150000D02*
X94400000Y-99900000D01*
%TD*%
%TA.AperFunction,Conductor*%
%TO.N,GND*%
G36*
X117755808Y-60510000D02*
G01*
X117770641Y-60512310D01*
X117770645Y-60512310D01*
X117779514Y-60513691D01*
X117794770Y-60511696D01*
X117820092Y-60510953D01*
X117953758Y-60520512D01*
X117989061Y-60523037D01*
X118006855Y-60525595D01*
X118197192Y-60566999D01*
X118214442Y-60572064D01*
X118396941Y-60640132D01*
X118413294Y-60647600D01*
X118489870Y-60689413D01*
X118584258Y-60740952D01*
X118599372Y-60750666D01*
X118693533Y-60821153D01*
X118755305Y-60867395D01*
X118768891Y-60879167D01*
X118906623Y-61016898D01*
X118918396Y-61030484D01*
X119035128Y-61186418D01*
X119044848Y-61201543D01*
X119138195Y-61372495D01*
X119145663Y-61388847D01*
X119213736Y-61571356D01*
X119218799Y-61588602D01*
X119253903Y-61749966D01*
X119260203Y-61778927D01*
X119262761Y-61796719D01*
X119274090Y-61955107D01*
X119274335Y-61958539D01*
X119273574Y-61976833D01*
X119273476Y-61984854D01*
X119272095Y-61993724D01*
X119273259Y-62002626D01*
X119273259Y-62002628D01*
X119276222Y-62025283D01*
X119277286Y-62041621D01*
X119277286Y-69482081D01*
X119257284Y-69550202D01*
X119203628Y-69596695D01*
X119133354Y-69606799D01*
X119068774Y-69577305D01*
X119037091Y-69535331D01*
X118949849Y-69348238D01*
X118949846Y-69348233D01*
X118947523Y-69343251D01*
X118838654Y-69187770D01*
X118819357Y-69160211D01*
X118819355Y-69160208D01*
X118816198Y-69155700D01*
X118654300Y-68993802D01*
X118649792Y-68990645D01*
X118649789Y-68990643D01*
X118534493Y-68909912D01*
X118466749Y-68862477D01*
X118461767Y-68860154D01*
X118461762Y-68860151D01*
X118264225Y-68768039D01*
X118264224Y-68768039D01*
X118259243Y-68765716D01*
X118253935Y-68764294D01*
X118253933Y-68764293D01*
X118043402Y-68707881D01*
X118043400Y-68707881D01*
X118038087Y-68706457D01*
X117810000Y-68686502D01*
X117581913Y-68706457D01*
X117576600Y-68707881D01*
X117576598Y-68707881D01*
X117366067Y-68764293D01*
X117366065Y-68764294D01*
X117360757Y-68765716D01*
X117355776Y-68768039D01*
X117355775Y-68768039D01*
X117158238Y-68860151D01*
X117158233Y-68860154D01*
X117153251Y-68862477D01*
X117085507Y-68909912D01*
X116970211Y-68990643D01*
X116970208Y-68990645D01*
X116965700Y-68993802D01*
X116803802Y-69155700D01*
X116781345Y-69187771D01*
X116725890Y-69232099D01*
X116678133Y-69241500D01*
X115181066Y-69241500D01*
X115112945Y-69221498D01*
X115091971Y-69204595D01*
X112088224Y-66200848D01*
X112054198Y-66138536D01*
X112059263Y-66067721D01*
X112101810Y-66010885D01*
X112122476Y-65998315D01*
X112135151Y-65992188D01*
X112272524Y-65882524D01*
X112382188Y-65745151D01*
X112402826Y-65702460D01*
X112450973Y-65602861D01*
X112458691Y-65586895D01*
X112498233Y-65415623D01*
X112498500Y-65410992D01*
X112498500Y-63989008D01*
X112498233Y-63984377D01*
X112458691Y-63813105D01*
X112406645Y-63705442D01*
X112385255Y-63661193D01*
X112385254Y-63661191D01*
X112382188Y-63654849D01*
X112272524Y-63517476D01*
X112135151Y-63407812D01*
X112104298Y-63392897D01*
X111983237Y-63334375D01*
X111976895Y-63331309D01*
X111805623Y-63291767D01*
X111800992Y-63291500D01*
X111354500Y-63291500D01*
X111286379Y-63271498D01*
X111239886Y-63217842D01*
X111228500Y-63165500D01*
X111228500Y-61919008D01*
X111228233Y-61914377D01*
X111188691Y-61743105D01*
X111112188Y-61584849D01*
X111002524Y-61447476D01*
X110865151Y-61337812D01*
X110706895Y-61261309D01*
X110535623Y-61221767D01*
X110530992Y-61221500D01*
X109809008Y-61221500D01*
X109804377Y-61221767D01*
X109633105Y-61261309D01*
X109474849Y-61337812D01*
X109337476Y-61447476D01*
X109227812Y-61584849D01*
X109151309Y-61743105D01*
X109111767Y-61914377D01*
X109111500Y-61919008D01*
X109111500Y-63165500D01*
X109091498Y-63233621D01*
X109037842Y-63280114D01*
X108985500Y-63291500D01*
X108301866Y-63291500D01*
X108239684Y-63298255D01*
X108103295Y-63349385D01*
X107986739Y-63436739D01*
X107899385Y-63553295D01*
X107848255Y-63689684D01*
X107841500Y-63751866D01*
X107841500Y-65648134D01*
X107848255Y-65710316D01*
X107899385Y-65846705D01*
X107986739Y-65963261D01*
X108103295Y-66050615D01*
X108111703Y-66053767D01*
X108184730Y-66081144D01*
X108241494Y-66123786D01*
X108266194Y-66190348D01*
X108266500Y-66199126D01*
X108266500Y-68631233D01*
X108265973Y-68642416D01*
X108264298Y-68649909D01*
X108264547Y-68657835D01*
X108264547Y-68657836D01*
X108266438Y-68717986D01*
X108266500Y-68721945D01*
X108266500Y-68749856D01*
X108266997Y-68753790D01*
X108266997Y-68753791D01*
X108267005Y-68753856D01*
X108267938Y-68765693D01*
X108269327Y-68809889D01*
X108274978Y-68829339D01*
X108278987Y-68848700D01*
X108281526Y-68868797D01*
X108284445Y-68876168D01*
X108284445Y-68876170D01*
X108297804Y-68909912D01*
X108301649Y-68921142D01*
X108313982Y-68963593D01*
X108318015Y-68970412D01*
X108318017Y-68970417D01*
X108324293Y-68981028D01*
X108332988Y-68998776D01*
X108340448Y-69017617D01*
X108345110Y-69024033D01*
X108345110Y-69024034D01*
X108366436Y-69053387D01*
X108372952Y-69063307D01*
X108395458Y-69101362D01*
X108409779Y-69115683D01*
X108422619Y-69130716D01*
X108434528Y-69147107D01*
X108440634Y-69152158D01*
X108468605Y-69175298D01*
X108477384Y-69183288D01*
X108880848Y-69586752D01*
X108914874Y-69649064D01*
X108913459Y-69708459D01*
X108897882Y-69766591D01*
X108897881Y-69766598D01*
X108896457Y-69771913D01*
X108876502Y-70000000D01*
X108896457Y-70228087D01*
X108897881Y-70233400D01*
X108897881Y-70233402D01*
X108933615Y-70366760D01*
X108955716Y-70449243D01*
X108958039Y-70454224D01*
X108958039Y-70454225D01*
X109050151Y-70651762D01*
X109050154Y-70651767D01*
X109052477Y-70656749D01*
X109110724Y-70739934D01*
X109179697Y-70838437D01*
X109183802Y-70844300D01*
X109345700Y-71006198D01*
X109350208Y-71009355D01*
X109350211Y-71009357D01*
X109502771Y-71116181D01*
X109547099Y-71171638D01*
X109556500Y-71219394D01*
X109556500Y-72580606D01*
X109536498Y-72648727D01*
X109502771Y-72683819D01*
X109350211Y-72790643D01*
X109350208Y-72790645D01*
X109345700Y-72793802D01*
X109183802Y-72955700D01*
X109052477Y-73143251D01*
X109050154Y-73148233D01*
X109050151Y-73148238D01*
X109050034Y-73148489D01*
X108955716Y-73350757D01*
X108954294Y-73356065D01*
X108954293Y-73356067D01*
X108904972Y-73540135D01*
X108896457Y-73571913D01*
X108876502Y-73800000D01*
X108896457Y-74028087D01*
X108955716Y-74249243D01*
X108958039Y-74254224D01*
X108958039Y-74254225D01*
X109050151Y-74451762D01*
X109050154Y-74451767D01*
X109052477Y-74456749D01*
X109183802Y-74644300D01*
X109345700Y-74806198D01*
X109350208Y-74809355D01*
X109350211Y-74809357D01*
X109428389Y-74864098D01*
X109533251Y-74937523D01*
X109538233Y-74939846D01*
X109538238Y-74939849D01*
X109734765Y-75031490D01*
X109740757Y-75034284D01*
X109746065Y-75035706D01*
X109746067Y-75035707D01*
X109956598Y-75092119D01*
X109956600Y-75092119D01*
X109961913Y-75093543D01*
X110190000Y-75113498D01*
X110418087Y-75093543D01*
X110423400Y-75092119D01*
X110423402Y-75092119D01*
X110633933Y-75035707D01*
X110633935Y-75035706D01*
X110639243Y-75034284D01*
X110645235Y-75031490D01*
X110841762Y-74939849D01*
X110841767Y-74939846D01*
X110846749Y-74937523D01*
X110951611Y-74864098D01*
X111029789Y-74809357D01*
X111029792Y-74809355D01*
X111034300Y-74806198D01*
X111196198Y-74644300D01*
X111327523Y-74456749D01*
X111329846Y-74451767D01*
X111329849Y-74451762D01*
X111421961Y-74254225D01*
X111421961Y-74254224D01*
X111424284Y-74249243D01*
X111473244Y-74066522D01*
X116527273Y-74066522D01*
X116574764Y-74243761D01*
X116578510Y-74254053D01*
X116670586Y-74451511D01*
X116676069Y-74461007D01*
X116801028Y-74639467D01*
X116808084Y-74647875D01*
X116962125Y-74801916D01*
X116970533Y-74808972D01*
X117148993Y-74933931D01*
X117158489Y-74939414D01*
X117355947Y-75031490D01*
X117366239Y-75035236D01*
X117538503Y-75081394D01*
X117552599Y-75081058D01*
X117556000Y-75073116D01*
X117556000Y-74072115D01*
X117551525Y-74056876D01*
X117550135Y-74055671D01*
X117542452Y-74054000D01*
X116542033Y-74054000D01*
X116528502Y-74057973D01*
X116527273Y-74066522D01*
X111473244Y-74066522D01*
X111483543Y-74028087D01*
X111503498Y-73800000D01*
X111483543Y-73571913D01*
X111475028Y-73540135D01*
X111471911Y-73528503D01*
X116528606Y-73528503D01*
X116528942Y-73542599D01*
X116536884Y-73546000D01*
X117537885Y-73546000D01*
X117553124Y-73541525D01*
X117554329Y-73540135D01*
X117556000Y-73532452D01*
X117556000Y-72532033D01*
X117552027Y-72518502D01*
X117543478Y-72517273D01*
X117366239Y-72564764D01*
X117355947Y-72568510D01*
X117158489Y-72660586D01*
X117148993Y-72666069D01*
X116970533Y-72791028D01*
X116962125Y-72798084D01*
X116808084Y-72952125D01*
X116801028Y-72960533D01*
X116676069Y-73138993D01*
X116670586Y-73148489D01*
X116578510Y-73345947D01*
X116574764Y-73356239D01*
X116528606Y-73528503D01*
X111471911Y-73528503D01*
X111425707Y-73356067D01*
X111425706Y-73356065D01*
X111424284Y-73350757D01*
X111329966Y-73148489D01*
X111329849Y-73148238D01*
X111329846Y-73148233D01*
X111327523Y-73143251D01*
X111196198Y-72955700D01*
X111034300Y-72793802D01*
X111029792Y-72790645D01*
X111029789Y-72790643D01*
X110877229Y-72683819D01*
X110832901Y-72628362D01*
X110823500Y-72580606D01*
X110823500Y-71219394D01*
X110843502Y-71151273D01*
X110877229Y-71116181D01*
X111029789Y-71009357D01*
X111029792Y-71009355D01*
X111034300Y-71006198D01*
X111196198Y-70844300D01*
X111200304Y-70838437D01*
X111269276Y-70739934D01*
X111327523Y-70656749D01*
X111329846Y-70651767D01*
X111329849Y-70651762D01*
X111421961Y-70454225D01*
X111421961Y-70454224D01*
X111424284Y-70449243D01*
X111446386Y-70366760D01*
X111482119Y-70233402D01*
X111482119Y-70233400D01*
X111483543Y-70228087D01*
X111503498Y-70000000D01*
X111483543Y-69771913D01*
X111466584Y-69708621D01*
X111425707Y-69556067D01*
X111425706Y-69556065D01*
X111424284Y-69550757D01*
X111392260Y-69482081D01*
X111329849Y-69348238D01*
X111329846Y-69348233D01*
X111327523Y-69343251D01*
X111218654Y-69187770D01*
X111199357Y-69160211D01*
X111199355Y-69160208D01*
X111196198Y-69155700D01*
X111034300Y-68993802D01*
X111029792Y-68990645D01*
X111029789Y-68990643D01*
X110914493Y-68909912D01*
X110846749Y-68862477D01*
X110841767Y-68860154D01*
X110841762Y-68860151D01*
X110644225Y-68768039D01*
X110644224Y-68768039D01*
X110639243Y-68765716D01*
X110633935Y-68764294D01*
X110633933Y-68764293D01*
X110423402Y-68707881D01*
X110423400Y-68707881D01*
X110418087Y-68706457D01*
X110190000Y-68686502D01*
X109961913Y-68706457D01*
X109898458Y-68723460D01*
X109827482Y-68721770D01*
X109776753Y-68690848D01*
X109570405Y-68484500D01*
X109536379Y-68422188D01*
X109533500Y-68395405D01*
X109533500Y-66199126D01*
X109553502Y-66131005D01*
X109607158Y-66084512D01*
X109615269Y-66081145D01*
X109690511Y-66052937D01*
X109761318Y-66047753D01*
X109823837Y-66081823D01*
X114230925Y-70488911D01*
X114243311Y-70503323D01*
X114251844Y-70514918D01*
X114251849Y-70514923D01*
X114256187Y-70520818D01*
X114261765Y-70525557D01*
X114261768Y-70525560D01*
X114296463Y-70555035D01*
X114303979Y-70561965D01*
X114309675Y-70567661D01*
X114312536Y-70569924D01*
X114312541Y-70569929D01*
X114331961Y-70585293D01*
X114335362Y-70588082D01*
X114390980Y-70635333D01*
X114397493Y-70638659D01*
X114402532Y-70642020D01*
X114407674Y-70645196D01*
X114413411Y-70649734D01*
X114479570Y-70680655D01*
X114483464Y-70682558D01*
X114548503Y-70715769D01*
X114555612Y-70717508D01*
X114561246Y-70719604D01*
X114567016Y-70721523D01*
X114573645Y-70724622D01*
X114580808Y-70726112D01*
X114580811Y-70726113D01*
X114631525Y-70736661D01*
X114645130Y-70739491D01*
X114649396Y-70740457D01*
X114720305Y-70757808D01*
X114725907Y-70758156D01*
X114725910Y-70758156D01*
X114731459Y-70758500D01*
X114731457Y-70758535D01*
X114735429Y-70758775D01*
X114739650Y-70759152D01*
X114746810Y-70760641D01*
X114824237Y-70758546D01*
X114827645Y-70758500D01*
X116678133Y-70758500D01*
X116746254Y-70778502D01*
X116781345Y-70812228D01*
X116803802Y-70844300D01*
X116965700Y-71006198D01*
X116970208Y-71009355D01*
X116970211Y-71009357D01*
X117048389Y-71064098D01*
X117153251Y-71137523D01*
X117158233Y-71139846D01*
X117158238Y-71139849D01*
X117328825Y-71219394D01*
X117360757Y-71234284D01*
X117366065Y-71235706D01*
X117366067Y-71235707D01*
X117576598Y-71292119D01*
X117576600Y-71292119D01*
X117581913Y-71293543D01*
X117810000Y-71313498D01*
X117815475Y-71313019D01*
X117972913Y-71299245D01*
X118042518Y-71313234D01*
X118072990Y-71335671D01*
X118404595Y-71667276D01*
X118438621Y-71729588D01*
X118441500Y-71756371D01*
X118441500Y-72453474D01*
X118421498Y-72521595D01*
X118367842Y-72568088D01*
X118297568Y-72578192D01*
X118269438Y-72569812D01*
X118269226Y-72570393D01*
X118253761Y-72564764D01*
X118081497Y-72518606D01*
X118067401Y-72518942D01*
X118064000Y-72526884D01*
X118064000Y-75067967D01*
X118067973Y-75081498D01*
X118076522Y-75082727D01*
X118253761Y-75035236D01*
X118269226Y-75029607D01*
X118269799Y-75031182D01*
X118332454Y-75021672D01*
X118397264Y-75050658D01*
X118436114Y-75110082D01*
X118441500Y-75146526D01*
X118441500Y-90933629D01*
X118421498Y-91001750D01*
X118404595Y-91022724D01*
X116332724Y-93094595D01*
X116270412Y-93128621D01*
X116243629Y-93131500D01*
X103972998Y-93131500D01*
X103904877Y-93111498D01*
X103858384Y-93057842D01*
X103848280Y-92987568D01*
X103852001Y-92970346D01*
X103874939Y-92891395D01*
X103874899Y-92877294D01*
X103867630Y-92874000D01*
X102272000Y-92874000D01*
X102203879Y-92853998D01*
X102157386Y-92800342D01*
X102146000Y-92748000D01*
X102146000Y-92492000D01*
X102166002Y-92423879D01*
X102219658Y-92377386D01*
X102272000Y-92366000D01*
X103861878Y-92366000D01*
X103875409Y-92362027D01*
X103876544Y-92354129D01*
X103835893Y-92214210D01*
X103829648Y-92199779D01*
X103753089Y-92070322D01*
X103743449Y-92057896D01*
X103637104Y-91951551D01*
X103624678Y-91941911D01*
X103499621Y-91867954D01*
X103451169Y-91816061D01*
X103438463Y-91746211D01*
X103465538Y-91680580D01*
X103523798Y-91640005D01*
X103563760Y-91633500D01*
X111666233Y-91633500D01*
X111677416Y-91634027D01*
X111684909Y-91635702D01*
X111692835Y-91635453D01*
X111692836Y-91635453D01*
X111752986Y-91633562D01*
X111756945Y-91633500D01*
X111784856Y-91633500D01*
X111788791Y-91633003D01*
X111788856Y-91632995D01*
X111800693Y-91632062D01*
X111832951Y-91631048D01*
X111836970Y-91630922D01*
X111844889Y-91630673D01*
X111864343Y-91625021D01*
X111883700Y-91621013D01*
X111895930Y-91619468D01*
X111895931Y-91619468D01*
X111903797Y-91618474D01*
X111911168Y-91615555D01*
X111911170Y-91615555D01*
X111944912Y-91602196D01*
X111956142Y-91598351D01*
X111990983Y-91588229D01*
X111990984Y-91588229D01*
X111998593Y-91586018D01*
X112005412Y-91581985D01*
X112005417Y-91581983D01*
X112016028Y-91575707D01*
X112033776Y-91567012D01*
X112052617Y-91559552D01*
X112062814Y-91552144D01*
X112088387Y-91533564D01*
X112098307Y-91527048D01*
X112129535Y-91508580D01*
X112129538Y-91508578D01*
X112136362Y-91504542D01*
X112150683Y-91490221D01*
X112165717Y-91477380D01*
X112175694Y-91470131D01*
X112182107Y-91465472D01*
X112210298Y-91431395D01*
X112218288Y-91422616D01*
X113112247Y-90528657D01*
X113120537Y-90521113D01*
X113127018Y-90517000D01*
X113135994Y-90507442D01*
X113173658Y-90467333D01*
X113176413Y-90464491D01*
X113196134Y-90444770D01*
X113198612Y-90441575D01*
X113206318Y-90432553D01*
X113231158Y-90406101D01*
X113236586Y-90400321D01*
X113246346Y-90382568D01*
X113257199Y-90366045D01*
X113264753Y-90356306D01*
X113269613Y-90350041D01*
X113287176Y-90309457D01*
X113292383Y-90298827D01*
X113313695Y-90260060D01*
X113315666Y-90252383D01*
X113315668Y-90252378D01*
X113318732Y-90240442D01*
X113325138Y-90221730D01*
X113330033Y-90210419D01*
X113333181Y-90203145D01*
X113334421Y-90195317D01*
X113334423Y-90195310D01*
X113340099Y-90159476D01*
X113342505Y-90147856D01*
X113351528Y-90112711D01*
X113351528Y-90112710D01*
X113353500Y-90105030D01*
X113353500Y-90084776D01*
X113355051Y-90065065D01*
X113356980Y-90052886D01*
X113358220Y-90045057D01*
X113354059Y-90001038D01*
X113353500Y-89989181D01*
X113353500Y-83698767D01*
X113354027Y-83687584D01*
X113355702Y-83680091D01*
X113353562Y-83612014D01*
X113353500Y-83608055D01*
X113353500Y-83580144D01*
X113352995Y-83576144D01*
X113352062Y-83564301D01*
X113350922Y-83528030D01*
X113350673Y-83520111D01*
X113345021Y-83500657D01*
X113341013Y-83481300D01*
X113339468Y-83469070D01*
X113339468Y-83469069D01*
X113338474Y-83461203D01*
X113335555Y-83453830D01*
X113322196Y-83420088D01*
X113318351Y-83408858D01*
X113308229Y-83374017D01*
X113308229Y-83374016D01*
X113306018Y-83366407D01*
X113301985Y-83359588D01*
X113301983Y-83359583D01*
X113295707Y-83348972D01*
X113287012Y-83331224D01*
X113279552Y-83312383D01*
X113253564Y-83276613D01*
X113247048Y-83266693D01*
X113228580Y-83235465D01*
X113228578Y-83235462D01*
X113224542Y-83228638D01*
X113210221Y-83214317D01*
X113197380Y-83199283D01*
X113190131Y-83189306D01*
X113185472Y-83182893D01*
X113151395Y-83154702D01*
X113142616Y-83146712D01*
X105703652Y-75707747D01*
X105696112Y-75699461D01*
X105692000Y-75692982D01*
X105642348Y-75646356D01*
X105639507Y-75643602D01*
X105619770Y-75623865D01*
X105616573Y-75621385D01*
X105607551Y-75613680D01*
X105581100Y-75588841D01*
X105575321Y-75583414D01*
X105568375Y-75579595D01*
X105568372Y-75579593D01*
X105557566Y-75573652D01*
X105541047Y-75562801D01*
X105540583Y-75562441D01*
X105525041Y-75550386D01*
X105517772Y-75547241D01*
X105517768Y-75547238D01*
X105484463Y-75532826D01*
X105473813Y-75527609D01*
X105435060Y-75506305D01*
X105415437Y-75501267D01*
X105396734Y-75494863D01*
X105385420Y-75489967D01*
X105385419Y-75489967D01*
X105378145Y-75486819D01*
X105370322Y-75485580D01*
X105370312Y-75485577D01*
X105334476Y-75479901D01*
X105322856Y-75477495D01*
X105287711Y-75468472D01*
X105287710Y-75468472D01*
X105280030Y-75466500D01*
X105259776Y-75466500D01*
X105240065Y-75464949D01*
X105227886Y-75463020D01*
X105220057Y-75461780D01*
X105212165Y-75462526D01*
X105176039Y-75465941D01*
X105164181Y-75466500D01*
X95914594Y-75466500D01*
X95846473Y-75446498D01*
X95825499Y-75429595D01*
X86803652Y-66407747D01*
X86796112Y-66399461D01*
X86792000Y-66392982D01*
X86742348Y-66346356D01*
X86739507Y-66343602D01*
X86719770Y-66323865D01*
X86716573Y-66321385D01*
X86707551Y-66313680D01*
X86681100Y-66288841D01*
X86675321Y-66283414D01*
X86668375Y-66279595D01*
X86668372Y-66279593D01*
X86657566Y-66273652D01*
X86641047Y-66262801D01*
X86640583Y-66262441D01*
X86625041Y-66250386D01*
X86617772Y-66247241D01*
X86617768Y-66247238D01*
X86584463Y-66232826D01*
X86573813Y-66227609D01*
X86535060Y-66206305D01*
X86515437Y-66201267D01*
X86496734Y-66194863D01*
X86485420Y-66189967D01*
X86485419Y-66189967D01*
X86478145Y-66186819D01*
X86470322Y-66185580D01*
X86470312Y-66185577D01*
X86434476Y-66179901D01*
X86422856Y-66177495D01*
X86387711Y-66168472D01*
X86387710Y-66168472D01*
X86380030Y-66166500D01*
X86359776Y-66166500D01*
X86340065Y-66164949D01*
X86327886Y-66163020D01*
X86320057Y-66161780D01*
X86312165Y-66162526D01*
X86276039Y-66165941D01*
X86264181Y-66166500D01*
X86100596Y-66166500D01*
X86032475Y-66146498D01*
X85992877Y-66105866D01*
X85990377Y-66101745D01*
X85926623Y-65996683D01*
X85839755Y-65896576D01*
X85779023Y-65826588D01*
X85779021Y-65826586D01*
X85775523Y-65822555D01*
X85681122Y-65745151D01*
X85601373Y-65679760D01*
X85601367Y-65679756D01*
X85597245Y-65676376D01*
X85565750Y-65658448D01*
X85516445Y-65607368D01*
X85502583Y-65537738D01*
X85528566Y-65471667D01*
X85557716Y-65444427D01*
X85672930Y-65366860D01*
X85679319Y-65362559D01*
X85846135Y-65203424D01*
X85962901Y-65046485D01*
X97386854Y-65046485D01*
X97387156Y-65050320D01*
X97405108Y-65278417D01*
X97412370Y-65370695D01*
X97477206Y-65689378D01*
X97580398Y-65997784D01*
X97582052Y-66001253D01*
X97582053Y-66001254D01*
X97620159Y-66081145D01*
X97720405Y-66291316D01*
X97722467Y-66294553D01*
X97722470Y-66294558D01*
X97755470Y-66346357D01*
X97895141Y-66565597D01*
X97897584Y-66568560D01*
X97897585Y-66568562D01*
X98047308Y-66750190D01*
X98102001Y-66816538D01*
X98337902Y-67040399D01*
X98599326Y-67233843D01*
X98740851Y-67313914D01*
X98879019Y-67392086D01*
X98879023Y-67392088D01*
X98882376Y-67393985D01*
X98885937Y-67395460D01*
X98885939Y-67395461D01*
X98911916Y-67406221D01*
X99182832Y-67518438D01*
X99267790Y-67541999D01*
X99492500Y-67604317D01*
X99492508Y-67604319D01*
X99496216Y-67605347D01*
X99817856Y-67653416D01*
X99821154Y-67653560D01*
X99932918Y-67658440D01*
X99932922Y-67658440D01*
X99934294Y-67658500D01*
X100132598Y-67658500D01*
X100374605Y-67643698D01*
X100378388Y-67642997D01*
X100378395Y-67642996D01*
X100578459Y-67605916D01*
X100694372Y-67584433D01*
X100903682Y-67518438D01*
X101000860Y-67487798D01*
X101000863Y-67487797D01*
X101004532Y-67486640D01*
X101008029Y-67485046D01*
X101008035Y-67485044D01*
X101296954Y-67353376D01*
X101296958Y-67353374D01*
X101300462Y-67351777D01*
X101553440Y-67196752D01*
X101574473Y-67183863D01*
X101574476Y-67183861D01*
X101577751Y-67181854D01*
X101580755Y-67179464D01*
X101580760Y-67179461D01*
X101705007Y-67080630D01*
X101832264Y-66979405D01*
X101834958Y-66976664D01*
X101834962Y-66976660D01*
X102057513Y-66750190D01*
X102057517Y-66750185D01*
X102060208Y-66747447D01*
X102202236Y-66562353D01*
X102255835Y-66492502D01*
X102255837Y-66492498D01*
X102258185Y-66489439D01*
X102423242Y-66209227D01*
X102552920Y-65910988D01*
X102561352Y-65882524D01*
X102622415Y-65676376D01*
X102645285Y-65599169D01*
X102698961Y-65278417D01*
X102713146Y-64953515D01*
X102700388Y-64791410D01*
X102687932Y-64633140D01*
X102687932Y-64633137D01*
X102687630Y-64629305D01*
X102622794Y-64310622D01*
X102519602Y-64002216D01*
X102508615Y-63979180D01*
X102381249Y-63712152D01*
X102379595Y-63708684D01*
X102372496Y-63697540D01*
X102255495Y-63513886D01*
X102204859Y-63434403D01*
X102180411Y-63404745D01*
X102000442Y-63186425D01*
X102000438Y-63186420D01*
X101997999Y-63183462D01*
X101762098Y-62959601D01*
X101500674Y-62766157D01*
X101295781Y-62650234D01*
X101220981Y-62607914D01*
X101220977Y-62607912D01*
X101217624Y-62606015D01*
X100917168Y-62481562D01*
X100813712Y-62452871D01*
X100607500Y-62395683D01*
X100607492Y-62395681D01*
X100603784Y-62394653D01*
X100282144Y-62346584D01*
X100278846Y-62346440D01*
X100167082Y-62341560D01*
X100167078Y-62341560D01*
X100165706Y-62341500D01*
X99967402Y-62341500D01*
X99725395Y-62356302D01*
X99721612Y-62357003D01*
X99721605Y-62357004D01*
X99565511Y-62385935D01*
X99405628Y-62415567D01*
X99221058Y-62473762D01*
X99099140Y-62512202D01*
X99099137Y-62512203D01*
X99095468Y-62513360D01*
X99091971Y-62514954D01*
X99091965Y-62514956D01*
X98803046Y-62646624D01*
X98803042Y-62646626D01*
X98799538Y-62648223D01*
X98522249Y-62818146D01*
X98519245Y-62820536D01*
X98519240Y-62820539D01*
X98394992Y-62919371D01*
X98267736Y-63020595D01*
X98265042Y-63023336D01*
X98265038Y-63023340D01*
X98042487Y-63249810D01*
X98042483Y-63249815D01*
X98039792Y-63252553D01*
X97841815Y-63510561D01*
X97676758Y-63790773D01*
X97547080Y-64089012D01*
X97545986Y-64092706D01*
X97545984Y-64092711D01*
X97505727Y-64228617D01*
X97454715Y-64400831D01*
X97401039Y-64721583D01*
X97386854Y-65046485D01*
X85962901Y-65046485D01*
X85983754Y-65018458D01*
X86018723Y-64949680D01*
X86085822Y-64817704D01*
X86088240Y-64812949D01*
X86124321Y-64696752D01*
X86155024Y-64597871D01*
X86156607Y-64592773D01*
X86157308Y-64587484D01*
X86186198Y-64369511D01*
X86186198Y-64369506D01*
X86186898Y-64364226D01*
X86178249Y-64133842D01*
X86130907Y-63908209D01*
X86096058Y-63819966D01*
X86048185Y-63698744D01*
X86048184Y-63698742D01*
X86046224Y-63693779D01*
X86039250Y-63682285D01*
X85942580Y-63522979D01*
X85926623Y-63496683D01*
X85880837Y-63443919D01*
X85779023Y-63326588D01*
X85779021Y-63326586D01*
X85775523Y-63322555D01*
X85693873Y-63255606D01*
X85601373Y-63179760D01*
X85601367Y-63179756D01*
X85597245Y-63176376D01*
X85592609Y-63173737D01*
X85592606Y-63173735D01*
X85401529Y-63064968D01*
X85396886Y-63062325D01*
X85180175Y-62983663D01*
X85174926Y-62982714D01*
X85174923Y-62982713D01*
X84957392Y-62943377D01*
X84957385Y-62943376D01*
X84953308Y-62942639D01*
X84935586Y-62941803D01*
X84930644Y-62941570D01*
X84930637Y-62941570D01*
X84929156Y-62941500D01*
X84517110Y-62941500D01*
X84450191Y-62947178D01*
X84350591Y-62955629D01*
X84350587Y-62955630D01*
X84345280Y-62956080D01*
X84340125Y-62957418D01*
X84340119Y-62957419D01*
X84127297Y-63012657D01*
X84127293Y-63012658D01*
X84122128Y-63013999D01*
X84117262Y-63016191D01*
X84117259Y-63016192D01*
X84008980Y-63064968D01*
X83911925Y-63108688D01*
X83720681Y-63237441D01*
X83716824Y-63241120D01*
X83716822Y-63241122D01*
X83701639Y-63255606D01*
X83553865Y-63396576D01*
X83416246Y-63581542D01*
X83311760Y-63787051D01*
X83310178Y-63792145D01*
X83310177Y-63792148D01*
X83252102Y-63979180D01*
X83243393Y-64007227D01*
X83242692Y-64012516D01*
X83227304Y-64128623D01*
X83213102Y-64235774D01*
X83221751Y-64466158D01*
X83269093Y-64691791D01*
X83353776Y-64906221D01*
X83356543Y-64910780D01*
X83356544Y-64910783D01*
X83382475Y-64953515D01*
X83473377Y-65103317D01*
X83476874Y-65107347D01*
X83563438Y-65207103D01*
X83624477Y-65277445D01*
X83628608Y-65280832D01*
X83798627Y-65420240D01*
X83798633Y-65420244D01*
X83802755Y-65423624D01*
X83834250Y-65441552D01*
X83883555Y-65492632D01*
X83897417Y-65562262D01*
X83871434Y-65628333D01*
X83842284Y-65655573D01*
X83720681Y-65737441D01*
X83553865Y-65896576D01*
X83416246Y-66081542D01*
X83413830Y-66086293D01*
X83413828Y-66086297D01*
X83373840Y-66164949D01*
X83311760Y-66287051D01*
X83310178Y-66292145D01*
X83310177Y-66292148D01*
X83249949Y-66486114D01*
X83243393Y-66507227D01*
X83213102Y-66735774D01*
X83213302Y-66741103D01*
X83213302Y-66741105D01*
X83213540Y-66747447D01*
X83221751Y-66966158D01*
X83222846Y-66971377D01*
X83224530Y-66979405D01*
X83269093Y-67191791D01*
X83271051Y-67196750D01*
X83271052Y-67196752D01*
X83349527Y-67395461D01*
X83353776Y-67406221D01*
X83356543Y-67410780D01*
X83356544Y-67410783D01*
X83403278Y-67487798D01*
X83473377Y-67603317D01*
X83476874Y-67607347D01*
X83563438Y-67707103D01*
X83624477Y-67777445D01*
X83628608Y-67780832D01*
X83660529Y-67807006D01*
X83700524Y-67865666D01*
X83702455Y-67936636D01*
X83665710Y-67997384D01*
X83646941Y-68011584D01*
X83507193Y-68098063D01*
X83495792Y-68107099D01*
X83381261Y-68221829D01*
X83372249Y-68233240D01*
X83287184Y-68371243D01*
X83281037Y-68384424D01*
X83229862Y-68538710D01*
X83226995Y-68552086D01*
X83217328Y-68646438D01*
X83217000Y-68652855D01*
X83217000Y-69027885D01*
X83221475Y-69043124D01*
X83222865Y-69044329D01*
X83230548Y-69046000D01*
X86164884Y-69046000D01*
X86180123Y-69041525D01*
X86181328Y-69040135D01*
X86182999Y-69032452D01*
X86182999Y-68652905D01*
X86182662Y-68646386D01*
X86172743Y-68550794D01*
X86169851Y-68537400D01*
X86118412Y-68383216D01*
X86112239Y-68370038D01*
X86026937Y-68232193D01*
X86017901Y-68220792D01*
X85903171Y-68106261D01*
X85891757Y-68097247D01*
X85752287Y-68011277D01*
X85704793Y-67958505D01*
X85693369Y-67888434D01*
X85721643Y-67823310D01*
X85731430Y-67812847D01*
X85764991Y-67780832D01*
X85846135Y-67703424D01*
X85849318Y-67699146D01*
X85955911Y-67555881D01*
X86012622Y-67513168D01*
X86083422Y-67507896D01*
X86146095Y-67541999D01*
X90622208Y-72018113D01*
X95096348Y-76492253D01*
X95103888Y-76500539D01*
X95108000Y-76507018D01*
X95113777Y-76512443D01*
X95157651Y-76553643D01*
X95160493Y-76556398D01*
X95180230Y-76576135D01*
X95183427Y-76578615D01*
X95192447Y-76586318D01*
X95224679Y-76616586D01*
X95231625Y-76620405D01*
X95231628Y-76620407D01*
X95242434Y-76626348D01*
X95258953Y-76637199D01*
X95274959Y-76649614D01*
X95282228Y-76652759D01*
X95282232Y-76652762D01*
X95315537Y-76667174D01*
X95326187Y-76672391D01*
X95364940Y-76693695D01*
X95372615Y-76695666D01*
X95372616Y-76695666D01*
X95384562Y-76698733D01*
X95403267Y-76705137D01*
X95421855Y-76713181D01*
X95429678Y-76714420D01*
X95429688Y-76714423D01*
X95465524Y-76720099D01*
X95477144Y-76722505D01*
X95512289Y-76731528D01*
X95519970Y-76733500D01*
X95540224Y-76733500D01*
X95559934Y-76735051D01*
X95579943Y-76738220D01*
X95587835Y-76737474D01*
X95623961Y-76734059D01*
X95635819Y-76733500D01*
X104885406Y-76733500D01*
X104953527Y-76753502D01*
X104974501Y-76770405D01*
X112049595Y-83845500D01*
X112083621Y-83907812D01*
X112086500Y-83934595D01*
X112086500Y-89710405D01*
X112066498Y-89778526D01*
X112049595Y-89799500D01*
X111519500Y-90329595D01*
X111457188Y-90363621D01*
X111430405Y-90366500D01*
X103554614Y-90366500D01*
X103486493Y-90346498D01*
X103440000Y-90292842D01*
X103429896Y-90222568D01*
X103459390Y-90157988D01*
X103465674Y-90151249D01*
X103486117Y-90130877D01*
X103576303Y-90041005D01*
X103711458Y-89852917D01*
X103720197Y-89835236D01*
X103811784Y-89649922D01*
X103811785Y-89649920D01*
X103814078Y-89645280D01*
X103881408Y-89423671D01*
X103911640Y-89194041D01*
X103913327Y-89125000D01*
X103906648Y-89043761D01*
X103894773Y-88899318D01*
X103894772Y-88899312D01*
X103894349Y-88894167D01*
X103837925Y-88669533D01*
X103760514Y-88491500D01*
X103747630Y-88461868D01*
X103747628Y-88461865D01*
X103745570Y-88457131D01*
X103619764Y-88262665D01*
X103463887Y-88091358D01*
X103459836Y-88088159D01*
X103459832Y-88088155D01*
X103286177Y-87951011D01*
X103286172Y-87951008D01*
X103282123Y-87947810D01*
X103277607Y-87945317D01*
X103277604Y-87945315D01*
X103083879Y-87838373D01*
X103083875Y-87838371D01*
X103079355Y-87835876D01*
X103074486Y-87834152D01*
X103074482Y-87834150D01*
X102865903Y-87760288D01*
X102865899Y-87760287D01*
X102861028Y-87758562D01*
X102855935Y-87757655D01*
X102855932Y-87757654D01*
X102638095Y-87718851D01*
X102638089Y-87718850D01*
X102633006Y-87717945D01*
X102560096Y-87717054D01*
X102406581Y-87715179D01*
X102406579Y-87715179D01*
X102401411Y-87715116D01*
X102172464Y-87750150D01*
X101952314Y-87822106D01*
X101947726Y-87824494D01*
X101947722Y-87824496D01*
X101921065Y-87838373D01*
X101746872Y-87929052D01*
X101742739Y-87932155D01*
X101742736Y-87932157D01*
X101720984Y-87948489D01*
X101561655Y-88068117D01*
X101401639Y-88235564D01*
X101354836Y-88304174D01*
X101299927Y-88349175D01*
X101229402Y-88357346D01*
X101165655Y-88326092D01*
X101144959Y-88301609D01*
X101122577Y-88267013D01*
X101122574Y-88267009D01*
X101119764Y-88262665D01*
X100963887Y-88091358D01*
X100959836Y-88088159D01*
X100959832Y-88088155D01*
X100786177Y-87951011D01*
X100786172Y-87951008D01*
X100782123Y-87947810D01*
X100777607Y-87945317D01*
X100777604Y-87945315D01*
X100583879Y-87838373D01*
X100583875Y-87838371D01*
X100579355Y-87835876D01*
X100574486Y-87834152D01*
X100574482Y-87834150D01*
X100365903Y-87760288D01*
X100365899Y-87760287D01*
X100361028Y-87758562D01*
X100355935Y-87757655D01*
X100355932Y-87757654D01*
X100138095Y-87718851D01*
X100138089Y-87718850D01*
X100133006Y-87717945D01*
X100060096Y-87717054D01*
X99906581Y-87715179D01*
X99906579Y-87715179D01*
X99901411Y-87715116D01*
X99672464Y-87750150D01*
X99452314Y-87822106D01*
X99447726Y-87824494D01*
X99447722Y-87824496D01*
X99421065Y-87838373D01*
X99246872Y-87929052D01*
X99242739Y-87932155D01*
X99242736Y-87932157D01*
X99220984Y-87948489D01*
X99061655Y-88068117D01*
X98901639Y-88235564D01*
X98854836Y-88304174D01*
X98799927Y-88349175D01*
X98729402Y-88357346D01*
X98665655Y-88326092D01*
X98644959Y-88301609D01*
X98622577Y-88267013D01*
X98622574Y-88267009D01*
X98619764Y-88262665D01*
X98463887Y-88091358D01*
X98459836Y-88088159D01*
X98459832Y-88088155D01*
X98286177Y-87951011D01*
X98286172Y-87951008D01*
X98282123Y-87947810D01*
X98277607Y-87945317D01*
X98277604Y-87945315D01*
X98083879Y-87838373D01*
X98083875Y-87838371D01*
X98079355Y-87835876D01*
X98074486Y-87834152D01*
X98074482Y-87834150D01*
X97865903Y-87760288D01*
X97865899Y-87760287D01*
X97861028Y-87758562D01*
X97855935Y-87757655D01*
X97855932Y-87757654D01*
X97638095Y-87718851D01*
X97638089Y-87718850D01*
X97633006Y-87717945D01*
X97560096Y-87717054D01*
X97406581Y-87715179D01*
X97406579Y-87715179D01*
X97401411Y-87715116D01*
X97172464Y-87750150D01*
X96952314Y-87822106D01*
X96947726Y-87824494D01*
X96947722Y-87824496D01*
X96921065Y-87838373D01*
X96746872Y-87929052D01*
X96742739Y-87932155D01*
X96742736Y-87932157D01*
X96720984Y-87948489D01*
X96561655Y-88068117D01*
X96401639Y-88235564D01*
X96398730Y-88239829D01*
X96398724Y-88239837D01*
X96304890Y-88377393D01*
X96271119Y-88426899D01*
X96270403Y-88428442D01*
X96220086Y-88477090D01*
X96161574Y-88491500D01*
X91829464Y-88491500D01*
X91761343Y-88471498D01*
X91714850Y-88417842D01*
X91705583Y-88382705D01*
X91704978Y-88382812D01*
X91704022Y-88377393D01*
X91703543Y-88371913D01*
X91644284Y-88150757D01*
X91616586Y-88091358D01*
X91549849Y-87948238D01*
X91549846Y-87948233D01*
X91547523Y-87943251D01*
X91416198Y-87755700D01*
X91254300Y-87593802D01*
X91249792Y-87590645D01*
X91249789Y-87590643D01*
X91171611Y-87535902D01*
X91066749Y-87462477D01*
X91061767Y-87460154D01*
X91061762Y-87460151D01*
X90864225Y-87368039D01*
X90864224Y-87368039D01*
X90859243Y-87365716D01*
X90853935Y-87364294D01*
X90853933Y-87364293D01*
X90643402Y-87307881D01*
X90643400Y-87307881D01*
X90638087Y-87306457D01*
X90410000Y-87286502D01*
X90181913Y-87306457D01*
X90176600Y-87307881D01*
X90176598Y-87307881D01*
X89966067Y-87364293D01*
X89966065Y-87364294D01*
X89960757Y-87365716D01*
X89955776Y-87368039D01*
X89955775Y-87368039D01*
X89758238Y-87460151D01*
X89758233Y-87460154D01*
X89753251Y-87462477D01*
X89648389Y-87535902D01*
X89570211Y-87590643D01*
X89570208Y-87590645D01*
X89565700Y-87593802D01*
X89403802Y-87755700D01*
X89272477Y-87943251D01*
X89270154Y-87948233D01*
X89270151Y-87948238D01*
X89203414Y-88091358D01*
X89175716Y-88150757D01*
X89174294Y-88156065D01*
X89174293Y-88156067D01*
X89126756Y-88333478D01*
X89116457Y-88371913D01*
X89096502Y-88600000D01*
X89116457Y-88828087D01*
X89117881Y-88833400D01*
X89117881Y-88833402D01*
X89132821Y-88889156D01*
X89175716Y-89049243D01*
X89178039Y-89054224D01*
X89178039Y-89054225D01*
X89270151Y-89251762D01*
X89270154Y-89251767D01*
X89272477Y-89256749D01*
X89275634Y-89261257D01*
X89392821Y-89428617D01*
X89403802Y-89444300D01*
X89565700Y-89606198D01*
X89570208Y-89609355D01*
X89570211Y-89609357D01*
X89614444Y-89640329D01*
X89753251Y-89737523D01*
X89758233Y-89739846D01*
X89758238Y-89739849D01*
X89954765Y-89831490D01*
X89960757Y-89834284D01*
X89966065Y-89835706D01*
X89966067Y-89835707D01*
X90176598Y-89892119D01*
X90176600Y-89892119D01*
X90181913Y-89893543D01*
X90410000Y-89913498D01*
X90638087Y-89893543D01*
X90643400Y-89892119D01*
X90643402Y-89892119D01*
X90853933Y-89835707D01*
X90853935Y-89835706D01*
X90859243Y-89834284D01*
X90996447Y-89770305D01*
X91049697Y-89758500D01*
X96165630Y-89758500D01*
X96233751Y-89778502D01*
X96273063Y-89818665D01*
X96355129Y-89952584D01*
X96359501Y-89959719D01*
X96511147Y-90134784D01*
X96689349Y-90282730D01*
X96889322Y-90399584D01*
X97105694Y-90482209D01*
X97110760Y-90483240D01*
X97110761Y-90483240D01*
X97118085Y-90484730D01*
X97332656Y-90528385D01*
X97398798Y-90530810D01*
X97466139Y-90553294D01*
X97510634Y-90608617D01*
X97518157Y-90679214D01*
X97483275Y-90745820D01*
X97057747Y-91171348D01*
X97049461Y-91178888D01*
X97042982Y-91183000D01*
X97037557Y-91188777D01*
X96996357Y-91232651D01*
X96993602Y-91235493D01*
X96973865Y-91255230D01*
X96971385Y-91258427D01*
X96963682Y-91267447D01*
X96933414Y-91299679D01*
X96929595Y-91306625D01*
X96929593Y-91306628D01*
X96923652Y-91317434D01*
X96912801Y-91333953D01*
X96900386Y-91349959D01*
X96897241Y-91357228D01*
X96897238Y-91357232D01*
X96882826Y-91390537D01*
X96877609Y-91401187D01*
X96856305Y-91439940D01*
X96854334Y-91447615D01*
X96854334Y-91447616D01*
X96851267Y-91459562D01*
X96844863Y-91478266D01*
X96836819Y-91496855D01*
X96835580Y-91504678D01*
X96835577Y-91504688D01*
X96829901Y-91540524D01*
X96827495Y-91552144D01*
X96822742Y-91570659D01*
X96816500Y-91594970D01*
X96816500Y-91615224D01*
X96814949Y-91634934D01*
X96811780Y-91654943D01*
X96813548Y-91673642D01*
X96800047Y-91743341D01*
X96751006Y-91794678D01*
X96688107Y-91811500D01*
X96558498Y-91811500D01*
X96556050Y-91811693D01*
X96556042Y-91811693D01*
X96527579Y-91813933D01*
X96527574Y-91813934D01*
X96521169Y-91814438D01*
X96421231Y-91843472D01*
X96369012Y-91858643D01*
X96369010Y-91858644D01*
X96361399Y-91860855D01*
X96354572Y-91864892D01*
X96354573Y-91864892D01*
X96225020Y-91941509D01*
X96225017Y-91941511D01*
X96218193Y-91945547D01*
X96212585Y-91951155D01*
X96206325Y-91956011D01*
X96205412Y-91954834D01*
X96150797Y-91984657D01*
X96139818Y-91986541D01*
X96136140Y-91987006D01*
X96124296Y-91987939D01*
X96080110Y-91989327D01*
X96062744Y-91994372D01*
X96060658Y-91994978D01*
X96041306Y-91998986D01*
X96034235Y-91999880D01*
X96021203Y-92001526D01*
X96013834Y-92004443D01*
X96013832Y-92004444D01*
X95980097Y-92017800D01*
X95968869Y-92021645D01*
X95926407Y-92033982D01*
X95919585Y-92038016D01*
X95919579Y-92038019D01*
X95908968Y-92044294D01*
X95891218Y-92052990D01*
X95879756Y-92057528D01*
X95879751Y-92057531D01*
X95872383Y-92060448D01*
X95854970Y-92073099D01*
X95836625Y-92086427D01*
X95826707Y-92092943D01*
X95808019Y-92103995D01*
X95788637Y-92115458D01*
X95774313Y-92129782D01*
X95759281Y-92142621D01*
X95742893Y-92154528D01*
X95714712Y-92188593D01*
X95706722Y-92197373D01*
X93107747Y-94796348D01*
X93099461Y-94803888D01*
X93092982Y-94808000D01*
X93087557Y-94813777D01*
X93046357Y-94857651D01*
X93043602Y-94860493D01*
X93023865Y-94880230D01*
X93021385Y-94883427D01*
X93013682Y-94892447D01*
X92983414Y-94924679D01*
X92979595Y-94931625D01*
X92979593Y-94931628D01*
X92973652Y-94942434D01*
X92962801Y-94958953D01*
X92950386Y-94974959D01*
X92947241Y-94982228D01*
X92947238Y-94982232D01*
X92932826Y-95015537D01*
X92927609Y-95026187D01*
X92906305Y-95064940D01*
X92904334Y-95072615D01*
X92904334Y-95072616D01*
X92901267Y-95084562D01*
X92894863Y-95103266D01*
X92886819Y-95121855D01*
X92885580Y-95129678D01*
X92885577Y-95129688D01*
X92879901Y-95165524D01*
X92877495Y-95177144D01*
X92866500Y-95219970D01*
X92866500Y-95240224D01*
X92864949Y-95259934D01*
X92861780Y-95279943D01*
X92862526Y-95287835D01*
X92865941Y-95323961D01*
X92866500Y-95335819D01*
X92866500Y-103599835D01*
X92865973Y-103611018D01*
X92864298Y-103618511D01*
X92864547Y-103626437D01*
X92864547Y-103626438D01*
X92866438Y-103686588D01*
X92866500Y-103690547D01*
X92866500Y-103718458D01*
X92866997Y-103722392D01*
X92866997Y-103722393D01*
X92867005Y-103722458D01*
X92867938Y-103734295D01*
X92869327Y-103778491D01*
X92872085Y-103787983D01*
X92874978Y-103797941D01*
X92878987Y-103817302D01*
X92881526Y-103837399D01*
X92884445Y-103844770D01*
X92884445Y-103844772D01*
X92897804Y-103878514D01*
X92901649Y-103889744D01*
X92913982Y-103932195D01*
X92918015Y-103939014D01*
X92918017Y-103939019D01*
X92924293Y-103949630D01*
X92932988Y-103967378D01*
X92940448Y-103986219D01*
X92945110Y-103992635D01*
X92945110Y-103992636D01*
X92966436Y-104021989D01*
X92972952Y-104031909D01*
X92995458Y-104069964D01*
X93009779Y-104084285D01*
X93022619Y-104099318D01*
X93034528Y-104115709D01*
X93040634Y-104120760D01*
X93068605Y-104143900D01*
X93077384Y-104151890D01*
X94676853Y-105751359D01*
X94710879Y-105813671D01*
X94705814Y-105884486D01*
X94690972Y-105912724D01*
X94641068Y-105983996D01*
X94635586Y-105993489D01*
X94543510Y-106190947D01*
X94539764Y-106201239D01*
X94493606Y-106373503D01*
X94493942Y-106387599D01*
X94501884Y-106391000D01*
X97842967Y-106391000D01*
X97858206Y-106386525D01*
X97877477Y-106364285D01*
X97937203Y-106325901D01*
X98008200Y-106325901D01*
X98061797Y-106357702D01*
X98741348Y-107037253D01*
X98748888Y-107045539D01*
X98753000Y-107052018D01*
X98758777Y-107057443D01*
X98802651Y-107098643D01*
X98805493Y-107101398D01*
X98825230Y-107121135D01*
X98828427Y-107123615D01*
X98837447Y-107131318D01*
X98869679Y-107161586D01*
X98876625Y-107165405D01*
X98876628Y-107165407D01*
X98887434Y-107171348D01*
X98903953Y-107182199D01*
X98919959Y-107194614D01*
X98927228Y-107197759D01*
X98927232Y-107197762D01*
X98960537Y-107212174D01*
X98971187Y-107217391D01*
X99009940Y-107238695D01*
X99017615Y-107240666D01*
X99017616Y-107240666D01*
X99029562Y-107243733D01*
X99048267Y-107250137D01*
X99066855Y-107258181D01*
X99074678Y-107259420D01*
X99074688Y-107259423D01*
X99110524Y-107265099D01*
X99122144Y-107267505D01*
X99157289Y-107276528D01*
X99164970Y-107278500D01*
X99185224Y-107278500D01*
X99204934Y-107280051D01*
X99224943Y-107283220D01*
X99232835Y-107282474D01*
X99268961Y-107279059D01*
X99280819Y-107278500D01*
X102175606Y-107278500D01*
X102243727Y-107298502D01*
X102278819Y-107332229D01*
X102385418Y-107484467D01*
X102388802Y-107489300D01*
X102550700Y-107651198D01*
X102555208Y-107654355D01*
X102555211Y-107654357D01*
X102583200Y-107673955D01*
X102738251Y-107782523D01*
X102743233Y-107784846D01*
X102743238Y-107784849D01*
X102917503Y-107866109D01*
X102945757Y-107879284D01*
X102951065Y-107880706D01*
X102951067Y-107880707D01*
X103161598Y-107937119D01*
X103161600Y-107937119D01*
X103166913Y-107938543D01*
X103265120Y-107947135D01*
X103335149Y-107953262D01*
X103335156Y-107953262D01*
X103337873Y-107953500D01*
X104252127Y-107953500D01*
X104254844Y-107953262D01*
X104254851Y-107953262D01*
X104324880Y-107947135D01*
X104423087Y-107938543D01*
X104428400Y-107937119D01*
X104428402Y-107937119D01*
X104638933Y-107880707D01*
X104638935Y-107880706D01*
X104644243Y-107879284D01*
X104672497Y-107866109D01*
X104846762Y-107784849D01*
X104846767Y-107784846D01*
X104851749Y-107782523D01*
X105006800Y-107673955D01*
X105034789Y-107654357D01*
X105034792Y-107654355D01*
X105039300Y-107651198D01*
X105201198Y-107489300D01*
X105332523Y-107301749D01*
X105334846Y-107296767D01*
X105334849Y-107296762D01*
X105426961Y-107099225D01*
X105426961Y-107099224D01*
X105429284Y-107094243D01*
X105452778Y-107006565D01*
X105487119Y-106878402D01*
X105487119Y-106878400D01*
X105488543Y-106873087D01*
X105508498Y-106645000D01*
X105488543Y-106416913D01*
X105449743Y-106272111D01*
X105451433Y-106201135D01*
X105491227Y-106142339D01*
X105556491Y-106114391D01*
X105571450Y-106113500D01*
X105577930Y-106113500D01*
X105596880Y-106114933D01*
X105611115Y-106117099D01*
X105611119Y-106117099D01*
X105618349Y-106118199D01*
X105625641Y-106117606D01*
X105625644Y-106117606D01*
X105671018Y-106113915D01*
X105681233Y-106113500D01*
X105689293Y-106113500D01*
X105702583Y-106111951D01*
X105717507Y-106110211D01*
X105721882Y-106109778D01*
X105787339Y-106104454D01*
X105787342Y-106104453D01*
X105794637Y-106103860D01*
X105801601Y-106101604D01*
X105807560Y-106100413D01*
X105813415Y-106099029D01*
X105820681Y-106098182D01*
X105889327Y-106073265D01*
X105893455Y-106071848D01*
X105955936Y-106051607D01*
X105955938Y-106051606D01*
X105962899Y-106049351D01*
X105969154Y-106045555D01*
X105974628Y-106043049D01*
X105980058Y-106040330D01*
X105986937Y-106037833D01*
X106012572Y-106021026D01*
X106047976Y-105997814D01*
X106051680Y-105995477D01*
X106114107Y-105957595D01*
X106122484Y-105950197D01*
X106122508Y-105950224D01*
X106125500Y-105947571D01*
X106128733Y-105944868D01*
X106134852Y-105940856D01*
X106188128Y-105884617D01*
X106190506Y-105882175D01*
X106833911Y-105238770D01*
X106848323Y-105226384D01*
X106859918Y-105217851D01*
X106859923Y-105217846D01*
X106865818Y-105213508D01*
X106870557Y-105207930D01*
X106870560Y-105207927D01*
X106900035Y-105173232D01*
X106906965Y-105165716D01*
X106912660Y-105160021D01*
X106930281Y-105137749D01*
X106933072Y-105134345D01*
X106975591Y-105084297D01*
X106975592Y-105084295D01*
X106980333Y-105078715D01*
X106983661Y-105072199D01*
X106987020Y-105067162D01*
X106990194Y-105062023D01*
X106994734Y-105056284D01*
X107025636Y-104990163D01*
X107027569Y-104986209D01*
X107031239Y-104979021D01*
X107060769Y-104921192D01*
X107062510Y-104914076D01*
X107064604Y-104908446D01*
X107066523Y-104902679D01*
X107069621Y-104896050D01*
X107084483Y-104824600D01*
X107085453Y-104820315D01*
X107101473Y-104754844D01*
X107102808Y-104749390D01*
X107103500Y-104738236D01*
X107103536Y-104738238D01*
X107103775Y-104734248D01*
X107104150Y-104730050D01*
X107105640Y-104722885D01*
X107103546Y-104645496D01*
X107103500Y-104642088D01*
X107103500Y-99427706D01*
X107123502Y-99359585D01*
X107177158Y-99313092D01*
X107247432Y-99302988D01*
X107312012Y-99332482D01*
X107351207Y-99395095D01*
X107365716Y-99449243D01*
X107368039Y-99454224D01*
X107368039Y-99454225D01*
X107460151Y-99651762D01*
X107460154Y-99651767D01*
X107462477Y-99656749D01*
X107593802Y-99844300D01*
X107755700Y-100006198D01*
X107760208Y-100009355D01*
X107760211Y-100009357D01*
X107770404Y-100016494D01*
X107943251Y-100137523D01*
X107948233Y-100139846D01*
X107948238Y-100139849D01*
X108077251Y-100200008D01*
X108150757Y-100234284D01*
X108156065Y-100235706D01*
X108156067Y-100235707D01*
X108366598Y-100292119D01*
X108366600Y-100292119D01*
X108371913Y-100293543D01*
X108600000Y-100313498D01*
X108828087Y-100293543D01*
X108833400Y-100292119D01*
X108833402Y-100292119D01*
X109043933Y-100235707D01*
X109043935Y-100235706D01*
X109049243Y-100234284D01*
X109122749Y-100200008D01*
X109251762Y-100139849D01*
X109251767Y-100139846D01*
X109256749Y-100137523D01*
X109330243Y-100086062D01*
X112878493Y-100086062D01*
X112887789Y-100098077D01*
X112938994Y-100133931D01*
X112948489Y-100139414D01*
X113145947Y-100231490D01*
X113156239Y-100235236D01*
X113366688Y-100291625D01*
X113377481Y-100293528D01*
X113594525Y-100312517D01*
X113605475Y-100312517D01*
X113822519Y-100293528D01*
X113833312Y-100291625D01*
X114043761Y-100235236D01*
X114054053Y-100231490D01*
X114251511Y-100139414D01*
X114261006Y-100133931D01*
X114313048Y-100097491D01*
X114321424Y-100087012D01*
X114314356Y-100073566D01*
X113612812Y-99372022D01*
X113598868Y-99364408D01*
X113597035Y-99364539D01*
X113590420Y-99368790D01*
X112884923Y-100074287D01*
X112878493Y-100086062D01*
X109330243Y-100086062D01*
X109429596Y-100016494D01*
X109439789Y-100009357D01*
X109439792Y-100009355D01*
X109444300Y-100006198D01*
X109606198Y-99844300D01*
X109737523Y-99656749D01*
X109739846Y-99651767D01*
X109739849Y-99651762D01*
X109831961Y-99454225D01*
X109831961Y-99454224D01*
X109834284Y-99449243D01*
X109854976Y-99372022D01*
X109892119Y-99233402D01*
X109892120Y-99233398D01*
X109893543Y-99228087D01*
X109913019Y-99005475D01*
X112287483Y-99005475D01*
X112306472Y-99222519D01*
X112308375Y-99233312D01*
X112364764Y-99443761D01*
X112368510Y-99454053D01*
X112460586Y-99651511D01*
X112466069Y-99661006D01*
X112502509Y-99713048D01*
X112512988Y-99721424D01*
X112526434Y-99714356D01*
X113227978Y-99012812D01*
X113234356Y-99001132D01*
X113964408Y-99001132D01*
X113964539Y-99002965D01*
X113968790Y-99009580D01*
X114674287Y-99715077D01*
X114686062Y-99721507D01*
X114698077Y-99712211D01*
X114733931Y-99661006D01*
X114739414Y-99651511D01*
X114831490Y-99454053D01*
X114835236Y-99443761D01*
X114891625Y-99233312D01*
X114893528Y-99222519D01*
X114912517Y-99005475D01*
X114912517Y-98994525D01*
X114893528Y-98777481D01*
X114891625Y-98766688D01*
X114835236Y-98556239D01*
X114831490Y-98545947D01*
X114739414Y-98348489D01*
X114733931Y-98338994D01*
X114697491Y-98286952D01*
X114687012Y-98278576D01*
X114673566Y-98285644D01*
X113972022Y-98987188D01*
X113964408Y-99001132D01*
X113234356Y-99001132D01*
X113235592Y-98998868D01*
X113235461Y-98997035D01*
X113231210Y-98990420D01*
X112525713Y-98284923D01*
X112513938Y-98278493D01*
X112501923Y-98287789D01*
X112466069Y-98338994D01*
X112460586Y-98348489D01*
X112368510Y-98545947D01*
X112364764Y-98556239D01*
X112308375Y-98766688D01*
X112306472Y-98777481D01*
X112287483Y-98994525D01*
X112287483Y-99005475D01*
X109913019Y-99005475D01*
X109913498Y-99000000D01*
X109893543Y-98771913D01*
X109856981Y-98635461D01*
X109835707Y-98556067D01*
X109835706Y-98556065D01*
X109834284Y-98550757D01*
X109739966Y-98348489D01*
X109739849Y-98348238D01*
X109739846Y-98348233D01*
X109737523Y-98343251D01*
X109646159Y-98212770D01*
X109609357Y-98160211D01*
X109609355Y-98160208D01*
X109606198Y-98155700D01*
X109444300Y-97993802D01*
X109439792Y-97990645D01*
X109439789Y-97990643D01*
X109328886Y-97912988D01*
X112878576Y-97912988D01*
X112885644Y-97926434D01*
X113587188Y-98627978D01*
X113601132Y-98635592D01*
X113602965Y-98635461D01*
X113609580Y-98631210D01*
X114315077Y-97925713D01*
X114321507Y-97913938D01*
X114312211Y-97901923D01*
X114261006Y-97866069D01*
X114251511Y-97860586D01*
X114054053Y-97768510D01*
X114043761Y-97764764D01*
X113833312Y-97708375D01*
X113822519Y-97706472D01*
X113605475Y-97687483D01*
X113594525Y-97687483D01*
X113377481Y-97706472D01*
X113366688Y-97708375D01*
X113156239Y-97764764D01*
X113145947Y-97768510D01*
X112948489Y-97860586D01*
X112938994Y-97866069D01*
X112886952Y-97902509D01*
X112878576Y-97912988D01*
X109328886Y-97912988D01*
X109313920Y-97902509D01*
X109256749Y-97862477D01*
X109251767Y-97860154D01*
X109251762Y-97860151D01*
X109054225Y-97768039D01*
X109054224Y-97768039D01*
X109049243Y-97765716D01*
X109043935Y-97764294D01*
X109043933Y-97764293D01*
X108833402Y-97707881D01*
X108833400Y-97707881D01*
X108828087Y-97706457D01*
X108600000Y-97686502D01*
X108371913Y-97706457D01*
X108366600Y-97707881D01*
X108366598Y-97707881D01*
X108156067Y-97764293D01*
X108156065Y-97764294D01*
X108150757Y-97765716D01*
X108145776Y-97768039D01*
X108145775Y-97768039D01*
X107948238Y-97860151D01*
X107948233Y-97860154D01*
X107943251Y-97862477D01*
X107886080Y-97902509D01*
X107760211Y-97990643D01*
X107760208Y-97990645D01*
X107755700Y-97993802D01*
X107593802Y-98155700D01*
X107590645Y-98160208D01*
X107590643Y-98160211D01*
X107553841Y-98212770D01*
X107462477Y-98343251D01*
X107460154Y-98348233D01*
X107460151Y-98348238D01*
X107460034Y-98348489D01*
X107365716Y-98550757D01*
X107364294Y-98556065D01*
X107364293Y-98556067D01*
X107351207Y-98604905D01*
X107314255Y-98665528D01*
X107250394Y-98696549D01*
X107179900Y-98688121D01*
X107125153Y-98642918D01*
X107103500Y-98572294D01*
X107103500Y-97098898D01*
X107104933Y-97079948D01*
X107107099Y-97065713D01*
X107107099Y-97065709D01*
X107108199Y-97058479D01*
X107103915Y-97005810D01*
X107103500Y-96995595D01*
X107103500Y-96987535D01*
X107100209Y-96959308D01*
X107099778Y-96954949D01*
X107094453Y-96889488D01*
X107093860Y-96882192D01*
X107091605Y-96875231D01*
X107090418Y-96869291D01*
X107089029Y-96863416D01*
X107088182Y-96856147D01*
X107063264Y-96787498D01*
X107061847Y-96783370D01*
X107041607Y-96720892D01*
X107041606Y-96720890D01*
X107039351Y-96713929D01*
X107035555Y-96707674D01*
X107033049Y-96702200D01*
X107030330Y-96696770D01*
X107027833Y-96689891D01*
X106987814Y-96628852D01*
X106985467Y-96625133D01*
X106979072Y-96614594D01*
X106947595Y-96562721D01*
X106940197Y-96554344D01*
X106940224Y-96554320D01*
X106937571Y-96551328D01*
X106934868Y-96548095D01*
X106930856Y-96541976D01*
X106874617Y-96488700D01*
X106872175Y-96486322D01*
X105249448Y-94863595D01*
X105215422Y-94801283D01*
X105220487Y-94730468D01*
X105263034Y-94673632D01*
X105329554Y-94648821D01*
X105338543Y-94648500D01*
X116542930Y-94648500D01*
X116561880Y-94649933D01*
X116576115Y-94652099D01*
X116576119Y-94652099D01*
X116583349Y-94653199D01*
X116590641Y-94652606D01*
X116590644Y-94652606D01*
X116636018Y-94648915D01*
X116646233Y-94648500D01*
X116654293Y-94648500D01*
X116667583Y-94646951D01*
X116682507Y-94645211D01*
X116686882Y-94644778D01*
X116752339Y-94639454D01*
X116752342Y-94639453D01*
X116759637Y-94638860D01*
X116766601Y-94636604D01*
X116772560Y-94635413D01*
X116778415Y-94634029D01*
X116785681Y-94633182D01*
X116854327Y-94608265D01*
X116858455Y-94606848D01*
X116920936Y-94586607D01*
X116920938Y-94586606D01*
X116927899Y-94584351D01*
X116934154Y-94580555D01*
X116939628Y-94578049D01*
X116945058Y-94575330D01*
X116951937Y-94572833D01*
X117012976Y-94532814D01*
X117016680Y-94530477D01*
X117079107Y-94492595D01*
X117087484Y-94485197D01*
X117087508Y-94485224D01*
X117090500Y-94482571D01*
X117093733Y-94479868D01*
X117099852Y-94475856D01*
X117153128Y-94419617D01*
X117155506Y-94417175D01*
X119062191Y-92510490D01*
X119124503Y-92476464D01*
X119195318Y-92481529D01*
X119252154Y-92524076D01*
X119276965Y-92590596D01*
X119277286Y-92599585D01*
X119277286Y-137936423D01*
X119275786Y-137955808D01*
X119273476Y-137970641D01*
X119273476Y-137970645D01*
X119272095Y-137979514D01*
X119274090Y-137994766D01*
X119274833Y-138020094D01*
X119262749Y-138189060D01*
X119260191Y-138206855D01*
X119218787Y-138397190D01*
X119213722Y-138414439D01*
X119145654Y-138596937D01*
X119138186Y-138613290D01*
X119044839Y-138784244D01*
X119035120Y-138799367D01*
X118918386Y-138955307D01*
X118906612Y-138968894D01*
X118768894Y-139106612D01*
X118755307Y-139118386D01*
X118599367Y-139235120D01*
X118584244Y-139244839D01*
X118413290Y-139338186D01*
X118396937Y-139345654D01*
X118214439Y-139413722D01*
X118197190Y-139418787D01*
X118006855Y-139460191D01*
X117989061Y-139462749D01*
X117827186Y-139474326D01*
X117809227Y-139473579D01*
X117800942Y-139473477D01*
X117792066Y-139472095D01*
X117783163Y-139473259D01*
X117783156Y-139473259D01*
X117760496Y-139476222D01*
X117744160Y-139477286D01*
X81849367Y-139477286D01*
X81829982Y-139475786D01*
X81815149Y-139473476D01*
X81815145Y-139473476D01*
X81806276Y-139472095D01*
X81791019Y-139474090D01*
X81765698Y-139474833D01*
X81596716Y-139462747D01*
X81578937Y-139460190D01*
X81388599Y-139418785D01*
X81371369Y-139413726D01*
X81188839Y-139345645D01*
X81172502Y-139338183D01*
X81001552Y-139244837D01*
X80986428Y-139235118D01*
X80877635Y-139153676D01*
X80830496Y-139118388D01*
X80816910Y-139106616D01*
X80679178Y-138968883D01*
X80667405Y-138955296D01*
X80550680Y-138799367D01*
X80540961Y-138784244D01*
X80447612Y-138613288D01*
X80440144Y-138596935D01*
X80372077Y-138414436D01*
X80367012Y-138397187D01*
X80325609Y-138206856D01*
X80323051Y-138189061D01*
X80311470Y-138027129D01*
X80312206Y-138009450D01*
X80312310Y-138000935D01*
X80313691Y-137992066D01*
X80312527Y-137983163D01*
X80312527Y-137983158D01*
X80309564Y-137960496D01*
X80308500Y-137944160D01*
X80308500Y-135096485D01*
X97336854Y-135096485D01*
X97337156Y-135100320D01*
X97355108Y-135328417D01*
X97362370Y-135420695D01*
X97427206Y-135739378D01*
X97530398Y-136047784D01*
X97670405Y-136341316D01*
X97845141Y-136615597D01*
X97847584Y-136618560D01*
X97847585Y-136618562D01*
X97997308Y-136800190D01*
X98052001Y-136866538D01*
X98287902Y-137090399D01*
X98549326Y-137283843D01*
X98690851Y-137363914D01*
X98829019Y-137442086D01*
X98829023Y-137442088D01*
X98832376Y-137443985D01*
X99132832Y-137568438D01*
X99236288Y-137597129D01*
X99442500Y-137654317D01*
X99442508Y-137654319D01*
X99446216Y-137655347D01*
X99767856Y-137703416D01*
X99771154Y-137703560D01*
X99882918Y-137708440D01*
X99882922Y-137708440D01*
X99884294Y-137708500D01*
X100082598Y-137708500D01*
X100324605Y-137693698D01*
X100328388Y-137692997D01*
X100328395Y-137692996D01*
X100528459Y-137655916D01*
X100644372Y-137634433D01*
X100853682Y-137568438D01*
X100950860Y-137537798D01*
X100950863Y-137537797D01*
X100954532Y-137536640D01*
X100958029Y-137535046D01*
X100958035Y-137535044D01*
X101246954Y-137403376D01*
X101246958Y-137403374D01*
X101250462Y-137401777D01*
X101527751Y-137231854D01*
X101530755Y-137229464D01*
X101530760Y-137229461D01*
X101655008Y-137130629D01*
X101782264Y-137029405D01*
X101784958Y-137026664D01*
X101784962Y-137026660D01*
X102007513Y-136800190D01*
X102007517Y-136800185D01*
X102010208Y-136797447D01*
X102208185Y-136539439D01*
X102373242Y-136259227D01*
X102502920Y-135960988D01*
X102595285Y-135649169D01*
X102648961Y-135328417D01*
X102663146Y-135003515D01*
X102650388Y-134841410D01*
X102637932Y-134683140D01*
X102637932Y-134683137D01*
X102637630Y-134679305D01*
X102572794Y-134360622D01*
X102469602Y-134052216D01*
X102329595Y-133758684D01*
X102154859Y-133484403D01*
X102007470Y-133305606D01*
X101950442Y-133236425D01*
X101950438Y-133236420D01*
X101947999Y-133233462D01*
X101712098Y-133009601D01*
X101450674Y-132816157D01*
X101245781Y-132700234D01*
X101170981Y-132657914D01*
X101170977Y-132657912D01*
X101167624Y-132656015D01*
X100867168Y-132531562D01*
X100763712Y-132502871D01*
X100557500Y-132445683D01*
X100557492Y-132445681D01*
X100553784Y-132444653D01*
X100232144Y-132396584D01*
X100228846Y-132396440D01*
X100117082Y-132391560D01*
X100117078Y-132391560D01*
X100115706Y-132391500D01*
X99917402Y-132391500D01*
X99675395Y-132406302D01*
X99671612Y-132407003D01*
X99671605Y-132407004D01*
X99515511Y-132435935D01*
X99355628Y-132465567D01*
X99171058Y-132523762D01*
X99049140Y-132562202D01*
X99049137Y-132562203D01*
X99045468Y-132563360D01*
X99041971Y-132564954D01*
X99041965Y-132564956D01*
X98753046Y-132696624D01*
X98753042Y-132696626D01*
X98749538Y-132698223D01*
X98472249Y-132868146D01*
X98469245Y-132870536D01*
X98469240Y-132870539D01*
X98344993Y-132969370D01*
X98217736Y-133070595D01*
X98215042Y-133073336D01*
X98215038Y-133073340D01*
X97992487Y-133299810D01*
X97992483Y-133299815D01*
X97989792Y-133302553D01*
X97791815Y-133560561D01*
X97626758Y-133840773D01*
X97497080Y-134139012D01*
X97404715Y-134450831D01*
X97351039Y-134771583D01*
X97336854Y-135096485D01*
X80308500Y-135096485D01*
X80308500Y-125350000D01*
X106736502Y-125350000D01*
X106756457Y-125578087D01*
X106757881Y-125583400D01*
X106757881Y-125583402D01*
X106810934Y-125781395D01*
X106815716Y-125799243D01*
X106818039Y-125804224D01*
X106818039Y-125804225D01*
X106910151Y-126001762D01*
X106910154Y-126001767D01*
X106912477Y-126006749D01*
X107043802Y-126194300D01*
X107205700Y-126356198D01*
X107210208Y-126359355D01*
X107210211Y-126359357D01*
X107288389Y-126414098D01*
X107393251Y-126487523D01*
X107398233Y-126489846D01*
X107398238Y-126489849D01*
X107595775Y-126581961D01*
X107600757Y-126584284D01*
X107606065Y-126585706D01*
X107606067Y-126585707D01*
X107816598Y-126642119D01*
X107816600Y-126642119D01*
X107821913Y-126643543D01*
X108050000Y-126663498D01*
X108278087Y-126643543D01*
X108283400Y-126642119D01*
X108283402Y-126642119D01*
X108493933Y-126585707D01*
X108493935Y-126585706D01*
X108499243Y-126584284D01*
X108504225Y-126581961D01*
X108701762Y-126489849D01*
X108701767Y-126489846D01*
X108706749Y-126487523D01*
X108811611Y-126414098D01*
X108889789Y-126359357D01*
X108889792Y-126359355D01*
X108894300Y-126356198D01*
X109056198Y-126194300D01*
X109166181Y-126037229D01*
X109221638Y-125992901D01*
X109269394Y-125983500D01*
X111991233Y-125983500D01*
X112002416Y-125984027D01*
X112009909Y-125985702D01*
X112017835Y-125985453D01*
X112017836Y-125985453D01*
X112077986Y-125983562D01*
X112081945Y-125983500D01*
X112109856Y-125983500D01*
X112113791Y-125983003D01*
X112113856Y-125982995D01*
X112125693Y-125982062D01*
X112157951Y-125981048D01*
X112161970Y-125980922D01*
X112169889Y-125980673D01*
X112189343Y-125975021D01*
X112208700Y-125971013D01*
X112220930Y-125969468D01*
X112220931Y-125969468D01*
X112228797Y-125968474D01*
X112236168Y-125965555D01*
X112236170Y-125965555D01*
X112269912Y-125952196D01*
X112281142Y-125948351D01*
X112315983Y-125938229D01*
X112315984Y-125938229D01*
X112323593Y-125936018D01*
X112330412Y-125931985D01*
X112330417Y-125931983D01*
X112341028Y-125925707D01*
X112358776Y-125917012D01*
X112377617Y-125909552D01*
X112413387Y-125883564D01*
X112423307Y-125877048D01*
X112454535Y-125858580D01*
X112454538Y-125858578D01*
X112461362Y-125854542D01*
X112475683Y-125840221D01*
X112490717Y-125827380D01*
X112500694Y-125820131D01*
X112507107Y-125815472D01*
X112535298Y-125781395D01*
X112543288Y-125772616D01*
X112965904Y-125350000D01*
X114356502Y-125350000D01*
X114376457Y-125578087D01*
X114377881Y-125583400D01*
X114377881Y-125583402D01*
X114430934Y-125781395D01*
X114435716Y-125799243D01*
X114438039Y-125804224D01*
X114438039Y-125804225D01*
X114530151Y-126001762D01*
X114530154Y-126001767D01*
X114532477Y-126006749D01*
X114663802Y-126194300D01*
X114825700Y-126356198D01*
X114830208Y-126359355D01*
X114830211Y-126359357D01*
X114908389Y-126414098D01*
X115013251Y-126487523D01*
X115018233Y-126489846D01*
X115018238Y-126489849D01*
X115215775Y-126581961D01*
X115220757Y-126584284D01*
X115226065Y-126585706D01*
X115226067Y-126585707D01*
X115436598Y-126642119D01*
X115436600Y-126642119D01*
X115441913Y-126643543D01*
X115670000Y-126663498D01*
X115898087Y-126643543D01*
X115903400Y-126642119D01*
X115903402Y-126642119D01*
X116113933Y-126585707D01*
X116113935Y-126585706D01*
X116119243Y-126584284D01*
X116124225Y-126581961D01*
X116321762Y-126489849D01*
X116321767Y-126489846D01*
X116326749Y-126487523D01*
X116431611Y-126414098D01*
X116509789Y-126359357D01*
X116509792Y-126359355D01*
X116514300Y-126356198D01*
X116676198Y-126194300D01*
X116807523Y-126006749D01*
X116809846Y-126001767D01*
X116809849Y-126001762D01*
X116901961Y-125804225D01*
X116901961Y-125804224D01*
X116904284Y-125799243D01*
X116909067Y-125781395D01*
X116962119Y-125583402D01*
X116962119Y-125583400D01*
X116963543Y-125578087D01*
X116983498Y-125350000D01*
X116963543Y-125121913D01*
X116904284Y-124900757D01*
X116901961Y-124895775D01*
X116809849Y-124698238D01*
X116809846Y-124698233D01*
X116807523Y-124693251D01*
X116676198Y-124505700D01*
X116514300Y-124343802D01*
X116509792Y-124340645D01*
X116509789Y-124340643D01*
X116431611Y-124285902D01*
X116326749Y-124212477D01*
X116321767Y-124210154D01*
X116321762Y-124210151D01*
X116124225Y-124118039D01*
X116124224Y-124118039D01*
X116119243Y-124115716D01*
X116113935Y-124114294D01*
X116113933Y-124114293D01*
X115903402Y-124057881D01*
X115903400Y-124057881D01*
X115898087Y-124056457D01*
X115670000Y-124036502D01*
X115441913Y-124056457D01*
X115436600Y-124057881D01*
X115436598Y-124057881D01*
X115226067Y-124114293D01*
X115226065Y-124114294D01*
X115220757Y-124115716D01*
X115215776Y-124118039D01*
X115215775Y-124118039D01*
X115018238Y-124210151D01*
X115018233Y-124210154D01*
X115013251Y-124212477D01*
X114908389Y-124285902D01*
X114830211Y-124340643D01*
X114830208Y-124340645D01*
X114825700Y-124343802D01*
X114663802Y-124505700D01*
X114532477Y-124693251D01*
X114530154Y-124698233D01*
X114530151Y-124698238D01*
X114438039Y-124895775D01*
X114435716Y-124900757D01*
X114376457Y-125121913D01*
X114356502Y-125350000D01*
X112965904Y-125350000D01*
X115256752Y-123059152D01*
X115319064Y-123025126D01*
X115378459Y-123026541D01*
X115436591Y-123042118D01*
X115436602Y-123042120D01*
X115441913Y-123043543D01*
X115670000Y-123063498D01*
X115898087Y-123043543D01*
X115903400Y-123042119D01*
X115903402Y-123042119D01*
X116113933Y-122985707D01*
X116113935Y-122985706D01*
X116119243Y-122984284D01*
X116124225Y-122981961D01*
X116321762Y-122889849D01*
X116321767Y-122889846D01*
X116326749Y-122887523D01*
X116431611Y-122814098D01*
X116509789Y-122759357D01*
X116509792Y-122759355D01*
X116514300Y-122756198D01*
X116676198Y-122594300D01*
X116807523Y-122406749D01*
X116809846Y-122401767D01*
X116809849Y-122401762D01*
X116901961Y-122204225D01*
X116901961Y-122204224D01*
X116904284Y-122199243D01*
X116926303Y-122117070D01*
X116962119Y-121983402D01*
X116962119Y-121983400D01*
X116963543Y-121978087D01*
X116983498Y-121750000D01*
X116963543Y-121521913D01*
X116958714Y-121503891D01*
X116905707Y-121306067D01*
X116905706Y-121306065D01*
X116904284Y-121300757D01*
X116900848Y-121293388D01*
X116809849Y-121098238D01*
X116809846Y-121098233D01*
X116807523Y-121093251D01*
X116709779Y-120953658D01*
X116679357Y-120910211D01*
X116679355Y-120910208D01*
X116676198Y-120905700D01*
X116514300Y-120743802D01*
X116509792Y-120740645D01*
X116509789Y-120740643D01*
X116431611Y-120685902D01*
X116326749Y-120612477D01*
X116321767Y-120610154D01*
X116321762Y-120610151D01*
X116124225Y-120518039D01*
X116124224Y-120518039D01*
X116119243Y-120515716D01*
X116113935Y-120514294D01*
X116113933Y-120514293D01*
X115903402Y-120457881D01*
X115903400Y-120457881D01*
X115898087Y-120456457D01*
X115670000Y-120436502D01*
X115441913Y-120456457D01*
X115436600Y-120457881D01*
X115436598Y-120457881D01*
X115226067Y-120514293D01*
X115226065Y-120514294D01*
X115220757Y-120515716D01*
X115215776Y-120518039D01*
X115215775Y-120518039D01*
X115018238Y-120610151D01*
X115018233Y-120610154D01*
X115013251Y-120612477D01*
X114908389Y-120685902D01*
X114830211Y-120740643D01*
X114830208Y-120740645D01*
X114825700Y-120743802D01*
X114663802Y-120905700D01*
X114660645Y-120910208D01*
X114660643Y-120910211D01*
X114630221Y-120953658D01*
X114532477Y-121093251D01*
X114530154Y-121098233D01*
X114530151Y-121098238D01*
X114439152Y-121293388D01*
X114435716Y-121300757D01*
X114434294Y-121306065D01*
X114434293Y-121306067D01*
X114381286Y-121503891D01*
X114376457Y-121521913D01*
X114356502Y-121750000D01*
X114376457Y-121978087D01*
X114377880Y-121983398D01*
X114377882Y-121983409D01*
X114393459Y-122041541D01*
X114391770Y-122112517D01*
X114360848Y-122163248D01*
X111844500Y-124679595D01*
X111782188Y-124713621D01*
X111755405Y-124716500D01*
X109269394Y-124716500D01*
X109201273Y-124696498D01*
X109166181Y-124662771D01*
X109059357Y-124510211D01*
X109059355Y-124510208D01*
X109056198Y-124505700D01*
X108894300Y-124343802D01*
X108889792Y-124340645D01*
X108889789Y-124340643D01*
X108811611Y-124285902D01*
X108706749Y-124212477D01*
X108701767Y-124210154D01*
X108701762Y-124210151D01*
X108504225Y-124118039D01*
X108504224Y-124118039D01*
X108499243Y-124115716D01*
X108493935Y-124114294D01*
X108493933Y-124114293D01*
X108283402Y-124057881D01*
X108283400Y-124057881D01*
X108278087Y-124056457D01*
X108050000Y-124036502D01*
X107821913Y-124056457D01*
X107816600Y-124057881D01*
X107816598Y-124057881D01*
X107606067Y-124114293D01*
X107606065Y-124114294D01*
X107600757Y-124115716D01*
X107595776Y-124118039D01*
X107595775Y-124118039D01*
X107398238Y-124210151D01*
X107398233Y-124210154D01*
X107393251Y-124212477D01*
X107288389Y-124285902D01*
X107210211Y-124340643D01*
X107210208Y-124340645D01*
X107205700Y-124343802D01*
X107043802Y-124505700D01*
X106912477Y-124693251D01*
X106910154Y-124698233D01*
X106910151Y-124698238D01*
X106818039Y-124895775D01*
X106815716Y-124900757D01*
X106756457Y-125121913D01*
X106736502Y-125350000D01*
X80308500Y-125350000D01*
X80308500Y-120766522D01*
X81564037Y-120766522D01*
X81606928Y-120926595D01*
X81610674Y-120936887D01*
X81699056Y-121126421D01*
X81704534Y-121135907D01*
X81824476Y-121307203D01*
X81831530Y-121315610D01*
X81979388Y-121463468D01*
X81987796Y-121470524D01*
X82159088Y-121590464D01*
X82168584Y-121595947D01*
X82358113Y-121684326D01*
X82368405Y-121688072D01*
X82523503Y-121729630D01*
X82537599Y-121729294D01*
X82541000Y-121721352D01*
X82541000Y-121716203D01*
X83049000Y-121716203D01*
X83052973Y-121729734D01*
X83061522Y-121730963D01*
X83221595Y-121688072D01*
X83231887Y-121684326D01*
X83421416Y-121595947D01*
X83430912Y-121590464D01*
X83602204Y-121470524D01*
X83610612Y-121463468D01*
X83758470Y-121315610D01*
X83765524Y-121307203D01*
X83885466Y-121135907D01*
X83890944Y-121126421D01*
X83979326Y-120936887D01*
X83983072Y-120926595D01*
X84024630Y-120771497D01*
X84024294Y-120757401D01*
X84016352Y-120754000D01*
X83067115Y-120754000D01*
X83051876Y-120758475D01*
X83050671Y-120759865D01*
X83049000Y-120767548D01*
X83049000Y-121716203D01*
X82541000Y-121716203D01*
X82541000Y-120772115D01*
X82536525Y-120756876D01*
X82535135Y-120755671D01*
X82527452Y-120754000D01*
X81578797Y-120754000D01*
X81565266Y-120757973D01*
X81564037Y-120766522D01*
X80308500Y-120766522D01*
X80308500Y-120228503D01*
X81565370Y-120228503D01*
X81565706Y-120242599D01*
X81573648Y-120246000D01*
X82522885Y-120246000D01*
X82538124Y-120241525D01*
X82539329Y-120240135D01*
X82541000Y-120232452D01*
X82541000Y-120227885D01*
X83049000Y-120227885D01*
X83053475Y-120243124D01*
X83054865Y-120244329D01*
X83062548Y-120246000D01*
X84011203Y-120246000D01*
X84024734Y-120242027D01*
X84025963Y-120233478D01*
X83983072Y-120073405D01*
X83979326Y-120063113D01*
X83890944Y-119873579D01*
X83885466Y-119864093D01*
X83765524Y-119692797D01*
X83758470Y-119684390D01*
X83610612Y-119536532D01*
X83602204Y-119529476D01*
X83430912Y-119409536D01*
X83421416Y-119404053D01*
X83231887Y-119315674D01*
X83221595Y-119311928D01*
X83066497Y-119270370D01*
X83052401Y-119270706D01*
X83049000Y-119278648D01*
X83049000Y-120227885D01*
X82541000Y-120227885D01*
X82541000Y-119283797D01*
X82537027Y-119270266D01*
X82528478Y-119269037D01*
X82368405Y-119311928D01*
X82358113Y-119315674D01*
X82168579Y-119404056D01*
X82159093Y-119409534D01*
X81987797Y-119529476D01*
X81979390Y-119536530D01*
X81831530Y-119684390D01*
X81824476Y-119692797D01*
X81704534Y-119864093D01*
X81699056Y-119873579D01*
X81610674Y-120063113D01*
X81606928Y-120073405D01*
X81565370Y-120228503D01*
X80308500Y-120228503D01*
X80308500Y-102600000D01*
X81286502Y-102600000D01*
X81306457Y-102828087D01*
X81365716Y-103049243D01*
X81368039Y-103054224D01*
X81368039Y-103054225D01*
X81460151Y-103251762D01*
X81460154Y-103251767D01*
X81462477Y-103256749D01*
X81534461Y-103359552D01*
X81586240Y-103433500D01*
X81593802Y-103444300D01*
X81755700Y-103606198D01*
X81760208Y-103609355D01*
X81760211Y-103609357D01*
X81808050Y-103642854D01*
X81943251Y-103737523D01*
X81948233Y-103739846D01*
X81948238Y-103739849D01*
X82125861Y-103822675D01*
X82150757Y-103834284D01*
X82156065Y-103835706D01*
X82156067Y-103835707D01*
X82366598Y-103892119D01*
X82366600Y-103892119D01*
X82371913Y-103893543D01*
X82600000Y-103913498D01*
X82828087Y-103893543D01*
X82833400Y-103892119D01*
X82833402Y-103892119D01*
X83043933Y-103835707D01*
X83043935Y-103835706D01*
X83049243Y-103834284D01*
X83240852Y-103744936D01*
X83311043Y-103734275D01*
X83375856Y-103763255D01*
X83414712Y-103822675D01*
X83420101Y-103859131D01*
X83420101Y-115311804D01*
X83400099Y-115379925D01*
X83383196Y-115400900D01*
X83152422Y-115631673D01*
X83090110Y-115665698D01*
X83030716Y-115664284D01*
X82999371Y-115655885D01*
X82780000Y-115636693D01*
X82560629Y-115655885D01*
X82347924Y-115712880D01*
X82269917Y-115749255D01*
X82153334Y-115803618D01*
X82153329Y-115803621D01*
X82148347Y-115805944D01*
X82143840Y-115809100D01*
X82143838Y-115809101D01*
X81972473Y-115929092D01*
X81972470Y-115929094D01*
X81967962Y-115932251D01*
X81812251Y-116087962D01*
X81809094Y-116092470D01*
X81809092Y-116092473D01*
X81782780Y-116130051D01*
X81685944Y-116268347D01*
X81683621Y-116273329D01*
X81683618Y-116273334D01*
X81636415Y-116374562D01*
X81592880Y-116467924D01*
X81535885Y-116680629D01*
X81516693Y-116900000D01*
X81535885Y-117119371D01*
X81592880Y-117332076D01*
X81595205Y-117337061D01*
X81683618Y-117526666D01*
X81683621Y-117526671D01*
X81685944Y-117531653D01*
X81689100Y-117536160D01*
X81689101Y-117536162D01*
X81800123Y-117694717D01*
X81812251Y-117712038D01*
X81967962Y-117867749D01*
X82148346Y-117994056D01*
X82347924Y-118087120D01*
X82560629Y-118144115D01*
X82780000Y-118163307D01*
X82999371Y-118144115D01*
X83014556Y-118140046D01*
X83030717Y-118135716D01*
X83101694Y-118137406D01*
X83152423Y-118168328D01*
X85676348Y-120692253D01*
X85683888Y-120700539D01*
X85688000Y-120707018D01*
X85693777Y-120712443D01*
X85737651Y-120753643D01*
X85740493Y-120756398D01*
X85760230Y-120776135D01*
X85763427Y-120778615D01*
X85772447Y-120786318D01*
X85804679Y-120816586D01*
X85811625Y-120820405D01*
X85811628Y-120820407D01*
X85822426Y-120826343D01*
X85838957Y-120837202D01*
X85843140Y-120840447D01*
X85855004Y-120850908D01*
X85896343Y-120892247D01*
X85903887Y-120900537D01*
X85908000Y-120907018D01*
X85913777Y-120912443D01*
X85957667Y-120953658D01*
X85960509Y-120956413D01*
X85980231Y-120976135D01*
X85983373Y-120978572D01*
X85983433Y-120978619D01*
X85992445Y-120986317D01*
X86018036Y-121010347D01*
X86024679Y-121016586D01*
X86031622Y-121020403D01*
X86042431Y-121026345D01*
X86058953Y-121037198D01*
X86074959Y-121049614D01*
X86082237Y-121052764D01*
X86082238Y-121052764D01*
X86115537Y-121067174D01*
X86126187Y-121072391D01*
X86164940Y-121093695D01*
X86172615Y-121095666D01*
X86172616Y-121095666D01*
X86184562Y-121098733D01*
X86203267Y-121105137D01*
X86221855Y-121113181D01*
X86229678Y-121114420D01*
X86229688Y-121114423D01*
X86265524Y-121120099D01*
X86277144Y-121122505D01*
X86312289Y-121131528D01*
X86319970Y-121133500D01*
X86340224Y-121133500D01*
X86359934Y-121135051D01*
X86379943Y-121138220D01*
X86387835Y-121137474D01*
X86423961Y-121134059D01*
X86435819Y-121133500D01*
X89030500Y-121133500D01*
X89098621Y-121153502D01*
X89145114Y-121207158D01*
X89156500Y-121259500D01*
X89156500Y-121298134D01*
X89163255Y-121360316D01*
X89214385Y-121496705D01*
X89301739Y-121613261D01*
X89418295Y-121700615D01*
X89554684Y-121751745D01*
X89616866Y-121758500D01*
X91213134Y-121758500D01*
X91275316Y-121751745D01*
X91411705Y-121700615D01*
X91528261Y-121613261D01*
X91615615Y-121496705D01*
X91666745Y-121360316D01*
X91673500Y-121298134D01*
X91673500Y-121259500D01*
X91693502Y-121191379D01*
X91747158Y-121144886D01*
X91799500Y-121133500D01*
X97585406Y-121133500D01*
X97653527Y-121153502D01*
X97674501Y-121170405D01*
X98473759Y-121969663D01*
X98507785Y-122031975D01*
X98501455Y-122102699D01*
X98502309Y-122102977D01*
X98501096Y-122106710D01*
X98501072Y-122106978D01*
X98498885Y-122112258D01*
X98497730Y-122117070D01*
X98442221Y-122348276D01*
X98442220Y-122348282D01*
X98441066Y-122353089D01*
X98421634Y-122600000D01*
X98441066Y-122846911D01*
X98442220Y-122851718D01*
X98442221Y-122851724D01*
X98473489Y-122981961D01*
X98498885Y-123087742D01*
X98593666Y-123316563D01*
X98723075Y-123527740D01*
X98883927Y-123716073D01*
X99072260Y-123876925D01*
X99283437Y-124006334D01*
X99288007Y-124008227D01*
X99288011Y-124008229D01*
X99507685Y-124099221D01*
X99512258Y-124101115D01*
X99567148Y-124114293D01*
X99748276Y-124157779D01*
X99748282Y-124157780D01*
X99753089Y-124158934D01*
X100000000Y-124178366D01*
X100246911Y-124158934D01*
X100251718Y-124157780D01*
X100251724Y-124157779D01*
X100432852Y-124114293D01*
X100487742Y-124101115D01*
X100492315Y-124099221D01*
X100711989Y-124008229D01*
X100711993Y-124008227D01*
X100716563Y-124006334D01*
X100927740Y-123876925D01*
X101116073Y-123716073D01*
X101276925Y-123527740D01*
X101406334Y-123316563D01*
X101501115Y-123087742D01*
X101526511Y-122981961D01*
X101557779Y-122851724D01*
X101557780Y-122851718D01*
X101558934Y-122846911D01*
X101578366Y-122600000D01*
X101558934Y-122353089D01*
X101557780Y-122348282D01*
X101557779Y-122348276D01*
X101502270Y-122117070D01*
X101501115Y-122112258D01*
X101499221Y-122107685D01*
X101408229Y-121888011D01*
X101408227Y-121888007D01*
X101406334Y-121883437D01*
X101276925Y-121672260D01*
X101133124Y-121503891D01*
X101119281Y-121487683D01*
X101116073Y-121483927D01*
X100927740Y-121323075D01*
X100716563Y-121193666D01*
X100711993Y-121191773D01*
X100711989Y-121191771D01*
X100492315Y-121100779D01*
X100492313Y-121100778D01*
X100487742Y-121098885D01*
X100377409Y-121072396D01*
X100251724Y-121042221D01*
X100251718Y-121042220D01*
X100246911Y-121041066D01*
X100000000Y-121021634D01*
X99753089Y-121041066D01*
X99748282Y-121042220D01*
X99748276Y-121042221D01*
X99622591Y-121072396D01*
X99512258Y-121098885D01*
X99507694Y-121100775D01*
X99507677Y-121100781D01*
X99506967Y-121101075D01*
X99506676Y-121101106D01*
X99502974Y-121102309D01*
X99502721Y-121101531D01*
X99436377Y-121108659D01*
X99369663Y-121073758D01*
X98403652Y-120107747D01*
X98396112Y-120099461D01*
X98392000Y-120092982D01*
X98360193Y-120063113D01*
X98342349Y-120046357D01*
X98339507Y-120043602D01*
X98319770Y-120023865D01*
X98316573Y-120021385D01*
X98307551Y-120013680D01*
X98281100Y-119988841D01*
X98275321Y-119983414D01*
X98268375Y-119979595D01*
X98268372Y-119979593D01*
X98257566Y-119973652D01*
X98241047Y-119962801D01*
X98240583Y-119962441D01*
X98225041Y-119950386D01*
X98217772Y-119947241D01*
X98217768Y-119947238D01*
X98184463Y-119932826D01*
X98173813Y-119927609D01*
X98135060Y-119906305D01*
X98115437Y-119901267D01*
X98096734Y-119894863D01*
X98085420Y-119889967D01*
X98085419Y-119889967D01*
X98078145Y-119886819D01*
X98070322Y-119885580D01*
X98070312Y-119885577D01*
X98034476Y-119879901D01*
X98022856Y-119877495D01*
X97987711Y-119868472D01*
X97987710Y-119868472D01*
X97980030Y-119866500D01*
X97959776Y-119866500D01*
X97940065Y-119864949D01*
X97927886Y-119863020D01*
X97920057Y-119861780D01*
X97912165Y-119862526D01*
X97876039Y-119865941D01*
X97864181Y-119866500D01*
X91799500Y-119866500D01*
X91731379Y-119846498D01*
X91684886Y-119792842D01*
X91673500Y-119740500D01*
X91673500Y-119701866D01*
X91666745Y-119639684D01*
X91615615Y-119503295D01*
X91528261Y-119386739D01*
X91411705Y-119299385D01*
X91275316Y-119248255D01*
X91213134Y-119241500D01*
X89616866Y-119241500D01*
X89554684Y-119248255D01*
X89418295Y-119299385D01*
X89301739Y-119386739D01*
X89214385Y-119503295D01*
X89163255Y-119639684D01*
X89156500Y-119701866D01*
X89156500Y-119740500D01*
X89136498Y-119808621D01*
X89082842Y-119855114D01*
X89030500Y-119866500D01*
X86714595Y-119866500D01*
X86646474Y-119846498D01*
X86625500Y-119829595D01*
X86619770Y-119823865D01*
X86616573Y-119821385D01*
X86607551Y-119813680D01*
X86581100Y-119788841D01*
X86575321Y-119783414D01*
X86568375Y-119779595D01*
X86568372Y-119779593D01*
X86557574Y-119773657D01*
X86541043Y-119762798D01*
X86536860Y-119759553D01*
X86524996Y-119749092D01*
X84474039Y-117698134D01*
X89141500Y-117698134D01*
X89148255Y-117760316D01*
X89199385Y-117896705D01*
X89286739Y-118013261D01*
X89403295Y-118100615D01*
X89539684Y-118151745D01*
X89601866Y-118158500D01*
X91198134Y-118158500D01*
X91260316Y-118151745D01*
X91396705Y-118100615D01*
X91513261Y-118013261D01*
X91600615Y-117896705D01*
X91651745Y-117760316D01*
X91658500Y-117698134D01*
X91658500Y-116101866D01*
X91651745Y-116039684D01*
X91600615Y-115903295D01*
X91513261Y-115786739D01*
X91396705Y-115699385D01*
X91260316Y-115648255D01*
X91198134Y-115641500D01*
X89601866Y-115641500D01*
X89539684Y-115648255D01*
X89403295Y-115699385D01*
X89286739Y-115786739D01*
X89199385Y-115903295D01*
X89148255Y-116039684D01*
X89141500Y-116101866D01*
X89141500Y-117698134D01*
X84474039Y-117698134D01*
X84048328Y-117272423D01*
X84014302Y-117210111D01*
X84015716Y-117150717D01*
X84022691Y-117124685D01*
X84022692Y-117124681D01*
X84024115Y-117119371D01*
X84043307Y-116900000D01*
X84024115Y-116680629D01*
X84015716Y-116649283D01*
X84017406Y-116578306D01*
X84048328Y-116527577D01*
X84445854Y-116130051D01*
X84454140Y-116122511D01*
X84460619Y-116118399D01*
X84507245Y-116068747D01*
X84509999Y-116065906D01*
X84529736Y-116046169D01*
X84532216Y-116042972D01*
X84539921Y-116033950D01*
X84564760Y-116007499D01*
X84570187Y-116001720D01*
X84574006Y-115994774D01*
X84574008Y-115994771D01*
X84579949Y-115983965D01*
X84590800Y-115967446D01*
X84598359Y-115957700D01*
X84603215Y-115951440D01*
X84606360Y-115944171D01*
X84606363Y-115944167D01*
X84620775Y-115910862D01*
X84625992Y-115900212D01*
X84647296Y-115861459D01*
X84652334Y-115841836D01*
X84658738Y-115823133D01*
X84663634Y-115811819D01*
X84663634Y-115811818D01*
X84666782Y-115804544D01*
X84668021Y-115796721D01*
X84668024Y-115796711D01*
X84673700Y-115760875D01*
X84676106Y-115749255D01*
X84685129Y-115714110D01*
X84685129Y-115714109D01*
X84687101Y-115706429D01*
X84687101Y-115686175D01*
X84688652Y-115666464D01*
X84690581Y-115654285D01*
X84691821Y-115646456D01*
X84687660Y-115602437D01*
X84687101Y-115590580D01*
X84687101Y-115579938D01*
X99084892Y-115579938D01*
X99090619Y-115587588D01*
X99279445Y-115703301D01*
X99288239Y-115707782D01*
X99507840Y-115798744D01*
X99517225Y-115801793D01*
X99748355Y-115857283D01*
X99758102Y-115858826D01*
X99995070Y-115877476D01*
X100004930Y-115877476D01*
X100241898Y-115858826D01*
X100251645Y-115857283D01*
X100482775Y-115801793D01*
X100492160Y-115798744D01*
X100711761Y-115707782D01*
X100720555Y-115703301D01*
X100905715Y-115589835D01*
X100915175Y-115579379D01*
X100911391Y-115570601D01*
X100012812Y-114672022D01*
X99998868Y-114664408D01*
X99997035Y-114664539D01*
X99990420Y-114668790D01*
X99091652Y-115567558D01*
X99084892Y-115579938D01*
X84687101Y-115579938D01*
X84687101Y-114304930D01*
X98422524Y-114304930D01*
X98441174Y-114541898D01*
X98442717Y-114551645D01*
X98498207Y-114782775D01*
X98501256Y-114792160D01*
X98592218Y-115011761D01*
X98596699Y-115020555D01*
X98710165Y-115205715D01*
X98720621Y-115215175D01*
X98729399Y-115211391D01*
X99627978Y-114312812D01*
X99634356Y-114301132D01*
X100364408Y-114301132D01*
X100364539Y-114302965D01*
X100368790Y-114309580D01*
X101267558Y-115208348D01*
X101279938Y-115215108D01*
X101287588Y-115209381D01*
X101403301Y-115020555D01*
X101407782Y-115011761D01*
X101498744Y-114792160D01*
X101501793Y-114782775D01*
X101557283Y-114551645D01*
X101558826Y-114541898D01*
X101577476Y-114304930D01*
X101577476Y-114295070D01*
X101558826Y-114058102D01*
X101557283Y-114048355D01*
X101501793Y-113817225D01*
X101498744Y-113807840D01*
X101407782Y-113588239D01*
X101403301Y-113579445D01*
X101289835Y-113394285D01*
X101279379Y-113384825D01*
X101270601Y-113388609D01*
X100372022Y-114287188D01*
X100364408Y-114301132D01*
X99634356Y-114301132D01*
X99635592Y-114298868D01*
X99635461Y-114297035D01*
X99631210Y-114290420D01*
X98732442Y-113391652D01*
X98720062Y-113384892D01*
X98712412Y-113390619D01*
X98596699Y-113579445D01*
X98592218Y-113588239D01*
X98501256Y-113807840D01*
X98498207Y-113817225D01*
X98442717Y-114048355D01*
X98441174Y-114058102D01*
X98422524Y-114295070D01*
X98422524Y-114304930D01*
X84687101Y-114304930D01*
X84687101Y-112159669D01*
X98527001Y-112159669D01*
X98527371Y-112166490D01*
X98532895Y-112217352D01*
X98536521Y-112232604D01*
X98581676Y-112353054D01*
X98590214Y-112368649D01*
X98666715Y-112470724D01*
X98679276Y-112483285D01*
X98781351Y-112559786D01*
X98796946Y-112568324D01*
X98917394Y-112613478D01*
X98932649Y-112617105D01*
X98983514Y-112622631D01*
X98990328Y-112623000D01*
X99304745Y-112623000D01*
X99372866Y-112643002D01*
X99419359Y-112696658D01*
X99429463Y-112766932D01*
X99399969Y-112831512D01*
X99352963Y-112865409D01*
X99288239Y-112892218D01*
X99279445Y-112896699D01*
X99094285Y-113010165D01*
X99084825Y-113020621D01*
X99088609Y-113029399D01*
X99987188Y-113927978D01*
X100001132Y-113935592D01*
X100002965Y-113935461D01*
X100009580Y-113931210D01*
X100908348Y-113032442D01*
X100915108Y-113020062D01*
X100909381Y-113012412D01*
X100720555Y-112896699D01*
X100711765Y-112892220D01*
X100647035Y-112865408D01*
X100591755Y-112820859D01*
X100569334Y-112753496D01*
X100586893Y-112684704D01*
X100638855Y-112636326D01*
X100695254Y-112622999D01*
X101009669Y-112622999D01*
X101016490Y-112622629D01*
X101067352Y-112617105D01*
X101082604Y-112613479D01*
X101203054Y-112568324D01*
X101218649Y-112559786D01*
X101320724Y-112483285D01*
X101333285Y-112470724D01*
X101409786Y-112368649D01*
X101418324Y-112353054D01*
X101463478Y-112232606D01*
X101467105Y-112217351D01*
X101472631Y-112166486D01*
X101473000Y-112159672D01*
X101473000Y-111472115D01*
X101468525Y-111456876D01*
X101467135Y-111455671D01*
X101459452Y-111454000D01*
X98545116Y-111454000D01*
X98529877Y-111458475D01*
X98528672Y-111459865D01*
X98527001Y-111467548D01*
X98527001Y-112159669D01*
X84687101Y-112159669D01*
X84687101Y-110927885D01*
X98527000Y-110927885D01*
X98531475Y-110943124D01*
X98532865Y-110944329D01*
X98540548Y-110946000D01*
X99727885Y-110946000D01*
X99743124Y-110941525D01*
X99744329Y-110940135D01*
X99746000Y-110932452D01*
X99746000Y-110927885D01*
X100254000Y-110927885D01*
X100258475Y-110943124D01*
X100259865Y-110944329D01*
X100267548Y-110946000D01*
X101454884Y-110946000D01*
X101470123Y-110941525D01*
X101471328Y-110940135D01*
X101472999Y-110932452D01*
X101472999Y-110240331D01*
X101472629Y-110233510D01*
X101467105Y-110182648D01*
X101463479Y-110167396D01*
X101418324Y-110046946D01*
X101409786Y-110031351D01*
X101333285Y-109929276D01*
X101320724Y-109916715D01*
X101218649Y-109840214D01*
X101203054Y-109831676D01*
X101082606Y-109786522D01*
X101067351Y-109782895D01*
X101016486Y-109777369D01*
X101009672Y-109777000D01*
X100272115Y-109777000D01*
X100256876Y-109781475D01*
X100255671Y-109782865D01*
X100254000Y-109790548D01*
X100254000Y-110927885D01*
X99746000Y-110927885D01*
X99746000Y-109795116D01*
X99741525Y-109779877D01*
X99740135Y-109778672D01*
X99732452Y-109777001D01*
X98990331Y-109777001D01*
X98983510Y-109777371D01*
X98932648Y-109782895D01*
X98917396Y-109786521D01*
X98796946Y-109831676D01*
X98781351Y-109840214D01*
X98679276Y-109916715D01*
X98666715Y-109929276D01*
X98590214Y-110031351D01*
X98581676Y-110046946D01*
X98536522Y-110167394D01*
X98532895Y-110182649D01*
X98527369Y-110233514D01*
X98527000Y-110240328D01*
X98527000Y-110927885D01*
X84687101Y-110927885D01*
X84687101Y-109119942D01*
X106611781Y-109119942D01*
X106612527Y-109127834D01*
X106615942Y-109163960D01*
X106616501Y-109175818D01*
X106616501Y-120871234D01*
X106615974Y-120882417D01*
X106614299Y-120889910D01*
X106614548Y-120897836D01*
X106614548Y-120897837D01*
X106616439Y-120957987D01*
X106616501Y-120961946D01*
X106616501Y-120989857D01*
X106616998Y-120993791D01*
X106616998Y-120993792D01*
X106617006Y-120993857D01*
X106617939Y-121005694D01*
X106619328Y-121049890D01*
X106624979Y-121069340D01*
X106628988Y-121088701D01*
X106631527Y-121108798D01*
X106634446Y-121116169D01*
X106634446Y-121116171D01*
X106647805Y-121149913D01*
X106651650Y-121161143D01*
X106663983Y-121203594D01*
X106668016Y-121210413D01*
X106668018Y-121210418D01*
X106674294Y-121221029D01*
X106682989Y-121238777D01*
X106690449Y-121257618D01*
X106695111Y-121264034D01*
X106695111Y-121264035D01*
X106716437Y-121293388D01*
X106722953Y-121303308D01*
X106745459Y-121341363D01*
X106751065Y-121346969D01*
X106751577Y-121347629D01*
X106777525Y-121413714D01*
X106773726Y-121457464D01*
X106756457Y-121521913D01*
X106736502Y-121750000D01*
X106756457Y-121978087D01*
X106757881Y-121983400D01*
X106757881Y-121983402D01*
X106793698Y-122117070D01*
X106815716Y-122199243D01*
X106818039Y-122204224D01*
X106818039Y-122204225D01*
X106910151Y-122401762D01*
X106910154Y-122401767D01*
X106912477Y-122406749D01*
X107043802Y-122594300D01*
X107205700Y-122756198D01*
X107210208Y-122759355D01*
X107210211Y-122759357D01*
X107288389Y-122814098D01*
X107393251Y-122887523D01*
X107398233Y-122889846D01*
X107398238Y-122889849D01*
X107595775Y-122981961D01*
X107600757Y-122984284D01*
X107606065Y-122985706D01*
X107606067Y-122985707D01*
X107816598Y-123042119D01*
X107816600Y-123042119D01*
X107821913Y-123043543D01*
X108050000Y-123063498D01*
X108278087Y-123043543D01*
X108283400Y-123042119D01*
X108283402Y-123042119D01*
X108493933Y-122985707D01*
X108493935Y-122985706D01*
X108499243Y-122984284D01*
X108504225Y-122981961D01*
X108701762Y-122889849D01*
X108701767Y-122889846D01*
X108706749Y-122887523D01*
X108811611Y-122814098D01*
X108889789Y-122759357D01*
X108889792Y-122759355D01*
X108894300Y-122756198D01*
X109056198Y-122594300D01*
X109187523Y-122406749D01*
X109189846Y-122401767D01*
X109189849Y-122401762D01*
X109281961Y-122204225D01*
X109281961Y-122204224D01*
X109284284Y-122199243D01*
X109306303Y-122117070D01*
X109342119Y-121983402D01*
X109342119Y-121983400D01*
X109343543Y-121978087D01*
X109363498Y-121750000D01*
X109343543Y-121521913D01*
X109338714Y-121503891D01*
X109285707Y-121306067D01*
X109285706Y-121306065D01*
X109284284Y-121300757D01*
X109280848Y-121293388D01*
X109189849Y-121098238D01*
X109189846Y-121098233D01*
X109187523Y-121093251D01*
X109089779Y-120953658D01*
X109059357Y-120910211D01*
X109059355Y-120910208D01*
X109056198Y-120905700D01*
X108894300Y-120743802D01*
X108889792Y-120740645D01*
X108889789Y-120740643D01*
X108811611Y-120685902D01*
X108706749Y-120612477D01*
X108701767Y-120610154D01*
X108701762Y-120610151D01*
X108504225Y-120518039D01*
X108504224Y-120518039D01*
X108499243Y-120515716D01*
X108493935Y-120514294D01*
X108493933Y-120514293D01*
X108283402Y-120457881D01*
X108283400Y-120457881D01*
X108278087Y-120456457D01*
X108050000Y-120436502D01*
X108044525Y-120436981D01*
X108044522Y-120436981D01*
X108020481Y-120439084D01*
X107950876Y-120425094D01*
X107899885Y-120375694D01*
X107883501Y-120313563D01*
X107883501Y-116821949D01*
X107903503Y-116753828D01*
X107957159Y-116707335D01*
X108027433Y-116697231D01*
X108092013Y-116726725D01*
X108112710Y-116749674D01*
X108125319Y-116767681D01*
X108277319Y-116919681D01*
X108453403Y-117042976D01*
X108458381Y-117045297D01*
X108458384Y-117045299D01*
X108643241Y-117131499D01*
X108648223Y-117133822D01*
X108653531Y-117135244D01*
X108653533Y-117135245D01*
X108850543Y-117188034D01*
X108850545Y-117188034D01*
X108855858Y-117189458D01*
X109070000Y-117208193D01*
X109284142Y-117189458D01*
X109289455Y-117188034D01*
X109289457Y-117188034D01*
X109486467Y-117135245D01*
X109486469Y-117135244D01*
X109491777Y-117133822D01*
X109496759Y-117131499D01*
X109681616Y-117045299D01*
X109681619Y-117045297D01*
X109686597Y-117042976D01*
X109862681Y-116919681D01*
X110014681Y-116767681D01*
X110137976Y-116591596D01*
X110144174Y-116578306D01*
X110226499Y-116401759D01*
X110226500Y-116401757D01*
X110228822Y-116396777D01*
X110284458Y-116189142D01*
X110303193Y-115975000D01*
X112916807Y-115975000D01*
X112935542Y-116189142D01*
X112991178Y-116396777D01*
X112993500Y-116401757D01*
X112993501Y-116401759D01*
X113075827Y-116578306D01*
X113082024Y-116591596D01*
X113205319Y-116767681D01*
X113357319Y-116919681D01*
X113533403Y-117042976D01*
X113538381Y-117045297D01*
X113538384Y-117045299D01*
X113723241Y-117131499D01*
X113728223Y-117133822D01*
X113733531Y-117135244D01*
X113733533Y-117135245D01*
X113930543Y-117188034D01*
X113930545Y-117188034D01*
X113935858Y-117189458D01*
X114150000Y-117208193D01*
X114364142Y-117189458D01*
X114369455Y-117188034D01*
X114369457Y-117188034D01*
X114566467Y-117135245D01*
X114566469Y-117135244D01*
X114571777Y-117133822D01*
X114576759Y-117131499D01*
X114761616Y-117045299D01*
X114761619Y-117045297D01*
X114766597Y-117042976D01*
X114942681Y-116919681D01*
X115094681Y-116767681D01*
X115217976Y-116591596D01*
X115224174Y-116578306D01*
X115306499Y-116401759D01*
X115306500Y-116401757D01*
X115308822Y-116396777D01*
X115364458Y-116189142D01*
X115383193Y-115975000D01*
X115364458Y-115760858D01*
X115349874Y-115706429D01*
X115310245Y-115558533D01*
X115310244Y-115558531D01*
X115308822Y-115553223D01*
X115306499Y-115548241D01*
X115220299Y-115363385D01*
X115220297Y-115363382D01*
X115217976Y-115358404D01*
X115094681Y-115182319D01*
X114942681Y-115030319D01*
X114766597Y-114907024D01*
X114761619Y-114904703D01*
X114761616Y-114904701D01*
X114576759Y-114818501D01*
X114576758Y-114818500D01*
X114571777Y-114816178D01*
X114566469Y-114814756D01*
X114566467Y-114814755D01*
X114369457Y-114761966D01*
X114369455Y-114761966D01*
X114364142Y-114760542D01*
X114150000Y-114741807D01*
X113935858Y-114760542D01*
X113930545Y-114761966D01*
X113930543Y-114761966D01*
X113733533Y-114814755D01*
X113733531Y-114814756D01*
X113728223Y-114816178D01*
X113723243Y-114818500D01*
X113723241Y-114818501D01*
X113538385Y-114904701D01*
X113538382Y-114904703D01*
X113533404Y-114907024D01*
X113357319Y-115030319D01*
X113205319Y-115182319D01*
X113082024Y-115358404D01*
X113079703Y-115363382D01*
X113079701Y-115363385D01*
X112993501Y-115548241D01*
X112991178Y-115553223D01*
X112989756Y-115558531D01*
X112989755Y-115558533D01*
X112950126Y-115706429D01*
X112935542Y-115760858D01*
X112916807Y-115975000D01*
X110303193Y-115975000D01*
X110284458Y-115760858D01*
X110269874Y-115706429D01*
X110230245Y-115558533D01*
X110230244Y-115558531D01*
X110228822Y-115553223D01*
X110226499Y-115548241D01*
X110140299Y-115363385D01*
X110140297Y-115363382D01*
X110137976Y-115358404D01*
X110014681Y-115182319D01*
X109862681Y-115030319D01*
X109757230Y-114956482D01*
X109712901Y-114901025D01*
X109703500Y-114853269D01*
X109703500Y-113794594D01*
X109723502Y-113726473D01*
X109740405Y-113705499D01*
X110167101Y-113278803D01*
X110229413Y-113244777D01*
X110300228Y-113249842D01*
X110357064Y-113292389D01*
X110381875Y-113358909D01*
X110381717Y-113378878D01*
X110376807Y-113435000D01*
X110395542Y-113649142D01*
X110396966Y-113654455D01*
X110396966Y-113654457D01*
X110420532Y-113742404D01*
X110451178Y-113856777D01*
X110542024Y-114051596D01*
X110665319Y-114227681D01*
X110817319Y-114379681D01*
X110993403Y-114502976D01*
X110998381Y-114505297D01*
X110998384Y-114505299D01*
X111097774Y-114551645D01*
X111188223Y-114593822D01*
X111193531Y-114595244D01*
X111193533Y-114595245D01*
X111390543Y-114648034D01*
X111390545Y-114648034D01*
X111395858Y-114649458D01*
X111610000Y-114668193D01*
X111824142Y-114649458D01*
X111829455Y-114648034D01*
X111829457Y-114648034D01*
X112026467Y-114595245D01*
X112026469Y-114595244D01*
X112031777Y-114593822D01*
X112122226Y-114551645D01*
X112221616Y-114505299D01*
X112221619Y-114505297D01*
X112226597Y-114502976D01*
X112402681Y-114379681D01*
X112554681Y-114227681D01*
X112677976Y-114051596D01*
X112768822Y-113856777D01*
X112799469Y-113742404D01*
X112823034Y-113654457D01*
X112823034Y-113654455D01*
X112824458Y-113649142D01*
X112843193Y-113435000D01*
X112824458Y-113220858D01*
X112805123Y-113148699D01*
X112770245Y-113018533D01*
X112770244Y-113018531D01*
X112768822Y-113013223D01*
X112699895Y-112865409D01*
X112680299Y-112823385D01*
X112680297Y-112823382D01*
X112677976Y-112818404D01*
X112554681Y-112642319D01*
X112402681Y-112490319D01*
X112226597Y-112367024D01*
X112221619Y-112364703D01*
X112221616Y-112364701D01*
X112036759Y-112278501D01*
X112036758Y-112278500D01*
X112031777Y-112276178D01*
X112026469Y-112274756D01*
X112026467Y-112274755D01*
X111824142Y-112220542D01*
X111824820Y-112218013D01*
X111771023Y-112191322D01*
X111734580Y-112130393D01*
X111736863Y-112059433D01*
X111747436Y-112035800D01*
X111781223Y-111977279D01*
X111781224Y-111977278D01*
X111784527Y-111971556D01*
X111843542Y-111789928D01*
X111863504Y-111600000D01*
X111849583Y-111467548D01*
X111844232Y-111416635D01*
X111844232Y-111416633D01*
X111843542Y-111410072D01*
X111784527Y-111228444D01*
X111689040Y-111063056D01*
X111583643Y-110946000D01*
X111565675Y-110926045D01*
X111565674Y-110926044D01*
X111561253Y-110921134D01*
X111406752Y-110808882D01*
X111400724Y-110806198D01*
X111400722Y-110806197D01*
X111238319Y-110733891D01*
X111238318Y-110733891D01*
X111232288Y-110731206D01*
X111138888Y-110711353D01*
X111051944Y-110692872D01*
X111051939Y-110692872D01*
X111045487Y-110691500D01*
X110854513Y-110691500D01*
X110848061Y-110692872D01*
X110848056Y-110692872D01*
X110761112Y-110711353D01*
X110667712Y-110731206D01*
X110661682Y-110733891D01*
X110661681Y-110733891D01*
X110499278Y-110806197D01*
X110499276Y-110806198D01*
X110493248Y-110808882D01*
X110338747Y-110921134D01*
X110334326Y-110926044D01*
X110334325Y-110926045D01*
X110316358Y-110946000D01*
X110210960Y-111063056D01*
X110115473Y-111228444D01*
X110056458Y-111410072D01*
X110055768Y-111416633D01*
X110055768Y-111416635D01*
X110039093Y-111575292D01*
X110012080Y-111640949D01*
X110002878Y-111651217D01*
X108677747Y-112976348D01*
X108669461Y-112983888D01*
X108662982Y-112988000D01*
X108657557Y-112993777D01*
X108616357Y-113037651D01*
X108613602Y-113040493D01*
X108593865Y-113060230D01*
X108591385Y-113063427D01*
X108583682Y-113072447D01*
X108553414Y-113104679D01*
X108549595Y-113111625D01*
X108549593Y-113111628D01*
X108543652Y-113122434D01*
X108532801Y-113138953D01*
X108520386Y-113154959D01*
X108517241Y-113162228D01*
X108517238Y-113162232D01*
X108502826Y-113195537D01*
X108497609Y-113206187D01*
X108476305Y-113244940D01*
X108474334Y-113252615D01*
X108474334Y-113252616D01*
X108471267Y-113264562D01*
X108464863Y-113283266D01*
X108456819Y-113301855D01*
X108455580Y-113309678D01*
X108455577Y-113309688D01*
X108449901Y-113345524D01*
X108447495Y-113357144D01*
X108436500Y-113399970D01*
X108436500Y-113420224D01*
X108434949Y-113439934D01*
X108431780Y-113459943D01*
X108432526Y-113467835D01*
X108435941Y-113503961D01*
X108436500Y-113515819D01*
X108436500Y-114853269D01*
X108416498Y-114921390D01*
X108382770Y-114956482D01*
X108277319Y-115030319D01*
X108125319Y-115182319D01*
X108112713Y-115200323D01*
X108057258Y-115244650D01*
X107986638Y-115251959D01*
X107923278Y-115219929D01*
X107887292Y-115158728D01*
X107883501Y-115128051D01*
X107883501Y-109454593D01*
X107903503Y-109386472D01*
X107920406Y-109365498D01*
X109340499Y-107945405D01*
X109402811Y-107911379D01*
X109429594Y-107908500D01*
X109485487Y-107908500D01*
X109491939Y-107907128D01*
X109491944Y-107907128D01*
X109578888Y-107888647D01*
X109672288Y-107868794D01*
X109678319Y-107866109D01*
X109840722Y-107793803D01*
X109840724Y-107793802D01*
X109846752Y-107791118D01*
X110001253Y-107678866D01*
X110129040Y-107536944D01*
X110224527Y-107371556D01*
X110283542Y-107189928D01*
X110284355Y-107182199D01*
X110302814Y-107006565D01*
X110303504Y-107000000D01*
X110283542Y-106810072D01*
X110224527Y-106628444D01*
X110129040Y-106463056D01*
X110001253Y-106321134D01*
X109846752Y-106208882D01*
X109840724Y-106206198D01*
X109840722Y-106206197D01*
X109678319Y-106133891D01*
X109678318Y-106133891D01*
X109672288Y-106131206D01*
X109571478Y-106109778D01*
X109491944Y-106092872D01*
X109491939Y-106092872D01*
X109485487Y-106091500D01*
X109294513Y-106091500D01*
X109288061Y-106092872D01*
X109288056Y-106092872D01*
X109208522Y-106109778D01*
X109107712Y-106131206D01*
X109101682Y-106133891D01*
X109101681Y-106133891D01*
X108939278Y-106206197D01*
X108939276Y-106206198D01*
X108933248Y-106208882D01*
X108778747Y-106321134D01*
X108650960Y-106463056D01*
X108555473Y-106628444D01*
X108496458Y-106810072D01*
X108485208Y-106917115D01*
X108479093Y-106975293D01*
X108452080Y-107040950D01*
X108442878Y-107051218D01*
X106857748Y-108636347D01*
X106849462Y-108643887D01*
X106842983Y-108647999D01*
X106837558Y-108653776D01*
X106796358Y-108697650D01*
X106793603Y-108700492D01*
X106773866Y-108720229D01*
X106771386Y-108723426D01*
X106763683Y-108732446D01*
X106733415Y-108764678D01*
X106729596Y-108771624D01*
X106729594Y-108771627D01*
X106723653Y-108782433D01*
X106712802Y-108798952D01*
X106700387Y-108814958D01*
X106697242Y-108822227D01*
X106697239Y-108822231D01*
X106682827Y-108855536D01*
X106677610Y-108866186D01*
X106656306Y-108904939D01*
X106654335Y-108912614D01*
X106654335Y-108912615D01*
X106651268Y-108924561D01*
X106644864Y-108943265D01*
X106636820Y-108961854D01*
X106635581Y-108969677D01*
X106635578Y-108969687D01*
X106629902Y-109005523D01*
X106627496Y-109017143D01*
X106616501Y-109059969D01*
X106616501Y-109080223D01*
X106614950Y-109099933D01*
X106611781Y-109119942D01*
X84687101Y-109119942D01*
X84687101Y-106911522D01*
X94492273Y-106911522D01*
X94539764Y-107088761D01*
X94543510Y-107099053D01*
X94635586Y-107296511D01*
X94641069Y-107306007D01*
X94766028Y-107484467D01*
X94773084Y-107492875D01*
X94927125Y-107646916D01*
X94935533Y-107653972D01*
X95113993Y-107778931D01*
X95123489Y-107784414D01*
X95320947Y-107876490D01*
X95331239Y-107880236D01*
X95541688Y-107936625D01*
X95552481Y-107938528D01*
X95715170Y-107952762D01*
X95720635Y-107953000D01*
X95902885Y-107953000D01*
X95918124Y-107948525D01*
X95919329Y-107947135D01*
X95921000Y-107939452D01*
X95921000Y-107934885D01*
X96429000Y-107934885D01*
X96433475Y-107950124D01*
X96434865Y-107951329D01*
X96442548Y-107953000D01*
X96629365Y-107953000D01*
X96634830Y-107952762D01*
X96797519Y-107938528D01*
X96808312Y-107936625D01*
X97018761Y-107880236D01*
X97029053Y-107876490D01*
X97226511Y-107784414D01*
X97236007Y-107778931D01*
X97414467Y-107653972D01*
X97422875Y-107646916D01*
X97576916Y-107492875D01*
X97583972Y-107484467D01*
X97708931Y-107306007D01*
X97714414Y-107296511D01*
X97806490Y-107099053D01*
X97810236Y-107088761D01*
X97856394Y-106916497D01*
X97856058Y-106902401D01*
X97848116Y-106899000D01*
X96447115Y-106899000D01*
X96431876Y-106903475D01*
X96430671Y-106904865D01*
X96429000Y-106912548D01*
X96429000Y-107934885D01*
X95921000Y-107934885D01*
X95921000Y-106917115D01*
X95916525Y-106901876D01*
X95915135Y-106900671D01*
X95907452Y-106899000D01*
X94507033Y-106899000D01*
X94493502Y-106902973D01*
X94492273Y-106911522D01*
X84687101Y-106911522D01*
X84687101Y-102600000D01*
X88906502Y-102600000D01*
X88926457Y-102828087D01*
X88985716Y-103049243D01*
X88988039Y-103054224D01*
X88988039Y-103054225D01*
X89080151Y-103251762D01*
X89080154Y-103251767D01*
X89082477Y-103256749D01*
X89154461Y-103359552D01*
X89206240Y-103433500D01*
X89213802Y-103444300D01*
X89375700Y-103606198D01*
X89380208Y-103609355D01*
X89380211Y-103609357D01*
X89428050Y-103642854D01*
X89563251Y-103737523D01*
X89568233Y-103739846D01*
X89568238Y-103739849D01*
X89745861Y-103822675D01*
X89770757Y-103834284D01*
X89776065Y-103835706D01*
X89776067Y-103835707D01*
X89986598Y-103892119D01*
X89986600Y-103892119D01*
X89991913Y-103893543D01*
X90220000Y-103913498D01*
X90448087Y-103893543D01*
X90453400Y-103892119D01*
X90453402Y-103892119D01*
X90663933Y-103835707D01*
X90663935Y-103835706D01*
X90669243Y-103834284D01*
X90694139Y-103822675D01*
X90871762Y-103739849D01*
X90871767Y-103739846D01*
X90876749Y-103737523D01*
X91011950Y-103642854D01*
X91059789Y-103609357D01*
X91059792Y-103609355D01*
X91064300Y-103606198D01*
X91226198Y-103444300D01*
X91233761Y-103433500D01*
X91285539Y-103359552D01*
X91357523Y-103256749D01*
X91359846Y-103251767D01*
X91359849Y-103251762D01*
X91451961Y-103054225D01*
X91451961Y-103054224D01*
X91454284Y-103049243D01*
X91513543Y-102828087D01*
X91533498Y-102600000D01*
X91513543Y-102371913D01*
X91493700Y-102297859D01*
X91455707Y-102156067D01*
X91455706Y-102156065D01*
X91454284Y-102150757D01*
X91451961Y-102145775D01*
X91359849Y-101948238D01*
X91359846Y-101948233D01*
X91357523Y-101943251D01*
X91226198Y-101755700D01*
X91064300Y-101593802D01*
X91059792Y-101590645D01*
X91059789Y-101590643D01*
X90981611Y-101535902D01*
X90876749Y-101462477D01*
X90871767Y-101460154D01*
X90871762Y-101460151D01*
X90674225Y-101368039D01*
X90674224Y-101368039D01*
X90669243Y-101365716D01*
X90663935Y-101364294D01*
X90663933Y-101364293D01*
X90453402Y-101307881D01*
X90453400Y-101307881D01*
X90448087Y-101306457D01*
X90220000Y-101286502D01*
X89991913Y-101306457D01*
X89986600Y-101307881D01*
X89986598Y-101307881D01*
X89776067Y-101364293D01*
X89776065Y-101364294D01*
X89770757Y-101365716D01*
X89765776Y-101368039D01*
X89765775Y-101368039D01*
X89568238Y-101460151D01*
X89568233Y-101460154D01*
X89563251Y-101462477D01*
X89458389Y-101535902D01*
X89380211Y-101590643D01*
X89380208Y-101590645D01*
X89375700Y-101593802D01*
X89213802Y-101755700D01*
X89082477Y-101943251D01*
X89080154Y-101948233D01*
X89080151Y-101948238D01*
X88988039Y-102145775D01*
X88985716Y-102150757D01*
X88984294Y-102156065D01*
X88984293Y-102156067D01*
X88946300Y-102297859D01*
X88926457Y-102371913D01*
X88906502Y-102600000D01*
X84687101Y-102600000D01*
X84687101Y-100532368D01*
X84687628Y-100521185D01*
X84689303Y-100513692D01*
X84687163Y-100445615D01*
X84687101Y-100441656D01*
X84687101Y-100413745D01*
X84686596Y-100409745D01*
X84685663Y-100397902D01*
X84684523Y-100361630D01*
X84684274Y-100353711D01*
X84678623Y-100334259D01*
X84674615Y-100314907D01*
X84673068Y-100302664D01*
X84672075Y-100294804D01*
X84665513Y-100278230D01*
X84655801Y-100253698D01*
X84651956Y-100242471D01*
X84648902Y-100231961D01*
X84639619Y-100200008D01*
X84635585Y-100193186D01*
X84635582Y-100193180D01*
X84629307Y-100182569D01*
X84620611Y-100164819D01*
X84616073Y-100153357D01*
X84616070Y-100153352D01*
X84613153Y-100145984D01*
X84587174Y-100110226D01*
X84580658Y-100100308D01*
X84562176Y-100069058D01*
X84558143Y-100062238D01*
X84543819Y-100047914D01*
X84530977Y-100032879D01*
X84519073Y-100016494D01*
X84485007Y-99988312D01*
X84476228Y-99980323D01*
X83909152Y-99413247D01*
X83875126Y-99350935D01*
X83876540Y-99291541D01*
X83893543Y-99228087D01*
X83913498Y-99000000D01*
X88906502Y-99000000D01*
X88926457Y-99228087D01*
X88927880Y-99233398D01*
X88927881Y-99233402D01*
X88965025Y-99372022D01*
X88985716Y-99449243D01*
X88988039Y-99454224D01*
X88988039Y-99454225D01*
X89080151Y-99651762D01*
X89080154Y-99651767D01*
X89082477Y-99656749D01*
X89213802Y-99844300D01*
X89375700Y-100006198D01*
X89380208Y-100009355D01*
X89380211Y-100009357D01*
X89390404Y-100016494D01*
X89563251Y-100137523D01*
X89568233Y-100139846D01*
X89568238Y-100139849D01*
X89697251Y-100200008D01*
X89770757Y-100234284D01*
X89776065Y-100235706D01*
X89776067Y-100235707D01*
X89986598Y-100292119D01*
X89986600Y-100292119D01*
X89991913Y-100293543D01*
X90220000Y-100313498D01*
X90448087Y-100293543D01*
X90453400Y-100292119D01*
X90453402Y-100292119D01*
X90663933Y-100235707D01*
X90663935Y-100235706D01*
X90669243Y-100234284D01*
X90742749Y-100200008D01*
X90871762Y-100139849D01*
X90871767Y-100139846D01*
X90876749Y-100137523D01*
X91049596Y-100016494D01*
X91059789Y-100009357D01*
X91059792Y-100009355D01*
X91064300Y-100006198D01*
X91226198Y-99844300D01*
X91357523Y-99656749D01*
X91359846Y-99651767D01*
X91359849Y-99651762D01*
X91451961Y-99454225D01*
X91451961Y-99454224D01*
X91454284Y-99449243D01*
X91474976Y-99372022D01*
X91512119Y-99233402D01*
X91512120Y-99233398D01*
X91513543Y-99228087D01*
X91533498Y-99000000D01*
X91513543Y-98771913D01*
X91476981Y-98635461D01*
X91455707Y-98556067D01*
X91455706Y-98556065D01*
X91454284Y-98550757D01*
X91359966Y-98348489D01*
X91359849Y-98348238D01*
X91359846Y-98348233D01*
X91357523Y-98343251D01*
X91266159Y-98212770D01*
X91229357Y-98160211D01*
X91229355Y-98160208D01*
X91226198Y-98155700D01*
X91064300Y-97993802D01*
X91059792Y-97990645D01*
X91059789Y-97990643D01*
X90933920Y-97902509D01*
X90876749Y-97862477D01*
X90871767Y-97860154D01*
X90871762Y-97860151D01*
X90674225Y-97768039D01*
X90674224Y-97768039D01*
X90669243Y-97765716D01*
X90663935Y-97764294D01*
X90663933Y-97764293D01*
X90453402Y-97707881D01*
X90453400Y-97707881D01*
X90448087Y-97706457D01*
X90220000Y-97686502D01*
X89991913Y-97706457D01*
X89986600Y-97707881D01*
X89986598Y-97707881D01*
X89776067Y-97764293D01*
X89776065Y-97764294D01*
X89770757Y-97765716D01*
X89765776Y-97768039D01*
X89765775Y-97768039D01*
X89568238Y-97860151D01*
X89568233Y-97860154D01*
X89563251Y-97862477D01*
X89506080Y-97902509D01*
X89380211Y-97990643D01*
X89380208Y-97990645D01*
X89375700Y-97993802D01*
X89213802Y-98155700D01*
X89210645Y-98160208D01*
X89210643Y-98160211D01*
X89173841Y-98212770D01*
X89082477Y-98343251D01*
X89080154Y-98348233D01*
X89080151Y-98348238D01*
X89080034Y-98348489D01*
X88985716Y-98550757D01*
X88984294Y-98556065D01*
X88984293Y-98556067D01*
X88963019Y-98635461D01*
X88926457Y-98771913D01*
X88906502Y-99000000D01*
X83913498Y-99000000D01*
X83893543Y-98771913D01*
X83856981Y-98635461D01*
X83835707Y-98556067D01*
X83835706Y-98556065D01*
X83834284Y-98550757D01*
X83739966Y-98348489D01*
X83739849Y-98348238D01*
X83739846Y-98348233D01*
X83737523Y-98343251D01*
X83646159Y-98212770D01*
X83609357Y-98160211D01*
X83609355Y-98160208D01*
X83606198Y-98155700D01*
X83444300Y-97993802D01*
X83439792Y-97990645D01*
X83439789Y-97990643D01*
X83313920Y-97902509D01*
X83256749Y-97862477D01*
X83251767Y-97860154D01*
X83251762Y-97860151D01*
X83054225Y-97768039D01*
X83054224Y-97768039D01*
X83049243Y-97765716D01*
X83043935Y-97764294D01*
X83043933Y-97764293D01*
X82833402Y-97707881D01*
X82833400Y-97707881D01*
X82828087Y-97706457D01*
X82600000Y-97686502D01*
X82371913Y-97706457D01*
X82366600Y-97707881D01*
X82366598Y-97707881D01*
X82156067Y-97764293D01*
X82156065Y-97764294D01*
X82150757Y-97765716D01*
X82145776Y-97768039D01*
X82145775Y-97768039D01*
X81948238Y-97860151D01*
X81948233Y-97860154D01*
X81943251Y-97862477D01*
X81886080Y-97902509D01*
X81760211Y-97990643D01*
X81760208Y-97990645D01*
X81755700Y-97993802D01*
X81593802Y-98155700D01*
X81590645Y-98160208D01*
X81590643Y-98160211D01*
X81553841Y-98212770D01*
X81462477Y-98343251D01*
X81460154Y-98348233D01*
X81460151Y-98348238D01*
X81460034Y-98348489D01*
X81365716Y-98550757D01*
X81364294Y-98556065D01*
X81364293Y-98556067D01*
X81343019Y-98635461D01*
X81306457Y-98771913D01*
X81286502Y-99000000D01*
X81306457Y-99228087D01*
X81307880Y-99233398D01*
X81307881Y-99233402D01*
X81345025Y-99372022D01*
X81365716Y-99449243D01*
X81368039Y-99454224D01*
X81368039Y-99454225D01*
X81460151Y-99651762D01*
X81460154Y-99651767D01*
X81462477Y-99656749D01*
X81593802Y-99844300D01*
X81755700Y-100006198D01*
X81760208Y-100009355D01*
X81760211Y-100009357D01*
X81770404Y-100016494D01*
X81943251Y-100137523D01*
X81948233Y-100139846D01*
X81948238Y-100139849D01*
X82077251Y-100200008D01*
X82150757Y-100234284D01*
X82156065Y-100235706D01*
X82156067Y-100235707D01*
X82366598Y-100292119D01*
X82366600Y-100292119D01*
X82371913Y-100293543D01*
X82600000Y-100313498D01*
X82828087Y-100293543D01*
X82833398Y-100292120D01*
X82833409Y-100292118D01*
X82891541Y-100276541D01*
X82962517Y-100278230D01*
X83013248Y-100309152D01*
X83383196Y-100679100D01*
X83417222Y-100741412D01*
X83420101Y-100768195D01*
X83420101Y-101340869D01*
X83400099Y-101408990D01*
X83346443Y-101455483D01*
X83276169Y-101465587D01*
X83240853Y-101455065D01*
X83049243Y-101365716D01*
X83043935Y-101364294D01*
X83043933Y-101364293D01*
X82833402Y-101307881D01*
X82833400Y-101307881D01*
X82828087Y-101306457D01*
X82600000Y-101286502D01*
X82371913Y-101306457D01*
X82366600Y-101307881D01*
X82366598Y-101307881D01*
X82156067Y-101364293D01*
X82156065Y-101364294D01*
X82150757Y-101365716D01*
X82145776Y-101368039D01*
X82145775Y-101368039D01*
X81948238Y-101460151D01*
X81948233Y-101460154D01*
X81943251Y-101462477D01*
X81838389Y-101535902D01*
X81760211Y-101590643D01*
X81760208Y-101590645D01*
X81755700Y-101593802D01*
X81593802Y-101755700D01*
X81462477Y-101943251D01*
X81460154Y-101948233D01*
X81460151Y-101948238D01*
X81368039Y-102145775D01*
X81365716Y-102150757D01*
X81364294Y-102156065D01*
X81364293Y-102156067D01*
X81326300Y-102297859D01*
X81306457Y-102371913D01*
X81286502Y-102600000D01*
X80308500Y-102600000D01*
X80308500Y-88866522D01*
X81507273Y-88866522D01*
X81554764Y-89043761D01*
X81558510Y-89054053D01*
X81650586Y-89251511D01*
X81656069Y-89261007D01*
X81781028Y-89439467D01*
X81788084Y-89447875D01*
X81942125Y-89601916D01*
X81950533Y-89608972D01*
X82128993Y-89733931D01*
X82138489Y-89739414D01*
X82335947Y-89831490D01*
X82346239Y-89835236D01*
X82518503Y-89881394D01*
X82532599Y-89881058D01*
X82536000Y-89873116D01*
X82536000Y-89867967D01*
X83044000Y-89867967D01*
X83047973Y-89881498D01*
X83056522Y-89882727D01*
X83233761Y-89835236D01*
X83244053Y-89831490D01*
X83441511Y-89739414D01*
X83451007Y-89733931D01*
X83629467Y-89608972D01*
X83637875Y-89601916D01*
X83791916Y-89447875D01*
X83798972Y-89439467D01*
X83923931Y-89261007D01*
X83929414Y-89251511D01*
X84021490Y-89054053D01*
X84025236Y-89043761D01*
X84071394Y-88871497D01*
X84071058Y-88857401D01*
X84063116Y-88854000D01*
X83062115Y-88854000D01*
X83046876Y-88858475D01*
X83045671Y-88859865D01*
X83044000Y-88867548D01*
X83044000Y-89867967D01*
X82536000Y-89867967D01*
X82536000Y-88872115D01*
X82531525Y-88856876D01*
X82530135Y-88855671D01*
X82522452Y-88854000D01*
X81522033Y-88854000D01*
X81508502Y-88857973D01*
X81507273Y-88866522D01*
X80308500Y-88866522D01*
X80308500Y-88328503D01*
X81508606Y-88328503D01*
X81508942Y-88342599D01*
X81516884Y-88346000D01*
X82517885Y-88346000D01*
X82533124Y-88341525D01*
X82534329Y-88340135D01*
X82536000Y-88332452D01*
X82536000Y-88327885D01*
X83044000Y-88327885D01*
X83048475Y-88343124D01*
X83049865Y-88344329D01*
X83057548Y-88346000D01*
X84057967Y-88346000D01*
X84071498Y-88342027D01*
X84072727Y-88333478D01*
X84025236Y-88156239D01*
X84021490Y-88145947D01*
X83929414Y-87948489D01*
X83923931Y-87938993D01*
X83798972Y-87760533D01*
X83791916Y-87752125D01*
X83637875Y-87598084D01*
X83629467Y-87591028D01*
X83451007Y-87466069D01*
X83441511Y-87460586D01*
X83244053Y-87368510D01*
X83233761Y-87364764D01*
X83061497Y-87318606D01*
X83047401Y-87318942D01*
X83044000Y-87326884D01*
X83044000Y-88327885D01*
X82536000Y-88327885D01*
X82536000Y-87332033D01*
X82532027Y-87318502D01*
X82523478Y-87317273D01*
X82346239Y-87364764D01*
X82335947Y-87368510D01*
X82138489Y-87460586D01*
X82128993Y-87466069D01*
X81950533Y-87591028D01*
X81942125Y-87598084D01*
X81788084Y-87752125D01*
X81781028Y-87760533D01*
X81656069Y-87938993D01*
X81650586Y-87948489D01*
X81558510Y-88145947D01*
X81554764Y-88156239D01*
X81508606Y-88328503D01*
X80308500Y-88328503D01*
X80308500Y-81625000D01*
X92736540Y-81625000D01*
X92756359Y-81940020D01*
X92815505Y-82250072D01*
X92913044Y-82550266D01*
X92914731Y-82553852D01*
X92914733Y-82553856D01*
X93045750Y-82832283D01*
X93045754Y-82832290D01*
X93047438Y-82835869D01*
X93216568Y-83102375D01*
X93417767Y-83345582D01*
X93420657Y-83348296D01*
X93420658Y-83348297D01*
X93439943Y-83366407D01*
X93647860Y-83561654D01*
X93651062Y-83563981D01*
X93651064Y-83563982D01*
X93667804Y-83576144D01*
X93903221Y-83747184D01*
X93906690Y-83749091D01*
X93906693Y-83749093D01*
X94176352Y-83897340D01*
X94179821Y-83899247D01*
X94183490Y-83900700D01*
X94183495Y-83900702D01*
X94469628Y-84013990D01*
X94473298Y-84015443D01*
X94779025Y-84093940D01*
X95092179Y-84133500D01*
X95407821Y-84133500D01*
X95720975Y-84093940D01*
X96026702Y-84015443D01*
X96030372Y-84013990D01*
X96316505Y-83900702D01*
X96316510Y-83900700D01*
X96320179Y-83899247D01*
X96323648Y-83897340D01*
X96593307Y-83749093D01*
X96593310Y-83749091D01*
X96596779Y-83747184D01*
X96832196Y-83576144D01*
X96848936Y-83563982D01*
X96848938Y-83563981D01*
X96852140Y-83561654D01*
X97060057Y-83366407D01*
X97079342Y-83348297D01*
X97079343Y-83348296D01*
X97082233Y-83345582D01*
X97283432Y-83102375D01*
X97452562Y-82835869D01*
X97454246Y-82832290D01*
X97454250Y-82832283D01*
X97585267Y-82553856D01*
X97585269Y-82553852D01*
X97586956Y-82550266D01*
X97684495Y-82250072D01*
X97743641Y-81940020D01*
X97763460Y-81625000D01*
X102236540Y-81625000D01*
X102256359Y-81940020D01*
X102315505Y-82250072D01*
X102413044Y-82550266D01*
X102414731Y-82553852D01*
X102414733Y-82553856D01*
X102545750Y-82832283D01*
X102545754Y-82832290D01*
X102547438Y-82835869D01*
X102716568Y-83102375D01*
X102917767Y-83345582D01*
X102920657Y-83348296D01*
X102920658Y-83348297D01*
X102939943Y-83366407D01*
X103147860Y-83561654D01*
X103151062Y-83563981D01*
X103151064Y-83563982D01*
X103167804Y-83576144D01*
X103403221Y-83747184D01*
X103406690Y-83749091D01*
X103406693Y-83749093D01*
X103676352Y-83897340D01*
X103679821Y-83899247D01*
X103683490Y-83900700D01*
X103683495Y-83900702D01*
X103969628Y-84013990D01*
X103973298Y-84015443D01*
X104279025Y-84093940D01*
X104592179Y-84133500D01*
X104907821Y-84133500D01*
X105220975Y-84093940D01*
X105526702Y-84015443D01*
X105530372Y-84013990D01*
X105816505Y-83900702D01*
X105816510Y-83900700D01*
X105820179Y-83899247D01*
X105823648Y-83897340D01*
X106093307Y-83749093D01*
X106093310Y-83749091D01*
X106096779Y-83747184D01*
X106332196Y-83576144D01*
X106348936Y-83563982D01*
X106348938Y-83563981D01*
X106352140Y-83561654D01*
X106560057Y-83366407D01*
X106579342Y-83348297D01*
X106579343Y-83348296D01*
X106582233Y-83345582D01*
X106783432Y-83102375D01*
X106952562Y-82835869D01*
X106954246Y-82832290D01*
X106954250Y-82832283D01*
X107085267Y-82553856D01*
X107085269Y-82553852D01*
X107086956Y-82550266D01*
X107184495Y-82250072D01*
X107243641Y-81940020D01*
X107263460Y-81625000D01*
X107243641Y-81309980D01*
X107184495Y-80999928D01*
X107086956Y-80699734D01*
X107085267Y-80696144D01*
X106954250Y-80417717D01*
X106954246Y-80417710D01*
X106952562Y-80414131D01*
X106783432Y-80147625D01*
X106582233Y-79904418D01*
X106352140Y-79688346D01*
X106096779Y-79502816D01*
X105820179Y-79350753D01*
X105816510Y-79349300D01*
X105816505Y-79349298D01*
X105530372Y-79236010D01*
X105530371Y-79236010D01*
X105526702Y-79234557D01*
X105220975Y-79156060D01*
X104907821Y-79116500D01*
X104592179Y-79116500D01*
X104279025Y-79156060D01*
X103973298Y-79234557D01*
X103969629Y-79236010D01*
X103969628Y-79236010D01*
X103683495Y-79349298D01*
X103683490Y-79349300D01*
X103679821Y-79350753D01*
X103403221Y-79502816D01*
X103147860Y-79688346D01*
X102917767Y-79904418D01*
X102716568Y-80147625D01*
X102547438Y-80414131D01*
X102545754Y-80417710D01*
X102545750Y-80417717D01*
X102414733Y-80696144D01*
X102413044Y-80699734D01*
X102315505Y-80999928D01*
X102256359Y-81309980D01*
X102236540Y-81625000D01*
X97763460Y-81625000D01*
X97743641Y-81309980D01*
X97684495Y-80999928D01*
X97586956Y-80699734D01*
X97585267Y-80696144D01*
X97454250Y-80417717D01*
X97454246Y-80417710D01*
X97452562Y-80414131D01*
X97283432Y-80147625D01*
X97082233Y-79904418D01*
X96852140Y-79688346D01*
X96596779Y-79502816D01*
X96320179Y-79350753D01*
X96316510Y-79349300D01*
X96316505Y-79349298D01*
X96030372Y-79236010D01*
X96030371Y-79236010D01*
X96026702Y-79234557D01*
X95720975Y-79156060D01*
X95407821Y-79116500D01*
X95092179Y-79116500D01*
X94779025Y-79156060D01*
X94473298Y-79234557D01*
X94469629Y-79236010D01*
X94469628Y-79236010D01*
X94183495Y-79349298D01*
X94183490Y-79349300D01*
X94179821Y-79350753D01*
X93903221Y-79502816D01*
X93647860Y-79688346D01*
X93417767Y-79904418D01*
X93216568Y-80147625D01*
X93047438Y-80414131D01*
X93045754Y-80417710D01*
X93045750Y-80417717D01*
X92914733Y-80696144D01*
X92913044Y-80699734D01*
X92815505Y-80999928D01*
X92756359Y-81309980D01*
X92736540Y-81625000D01*
X80308500Y-81625000D01*
X80308500Y-70844377D01*
X81962703Y-70844377D01*
X81972704Y-71060438D01*
X82023380Y-71270710D01*
X82025862Y-71276168D01*
X82025863Y-71276172D01*
X82042714Y-71313234D01*
X82112903Y-71467606D01*
X82238043Y-71644021D01*
X82394285Y-71793590D01*
X82399320Y-71796841D01*
X82570954Y-71907664D01*
X82570957Y-71907665D01*
X82575991Y-71910916D01*
X82776604Y-71991766D01*
X82782485Y-71992914D01*
X82782490Y-71992916D01*
X82984441Y-72032354D01*
X82984444Y-72032354D01*
X82988887Y-72033222D01*
X82994571Y-72033500D01*
X83154041Y-72033500D01*
X83315315Y-72018113D01*
X83522860Y-71957226D01*
X83528188Y-71954482D01*
X83709817Y-71860937D01*
X83709820Y-71860935D01*
X83715148Y-71858191D01*
X83802666Y-71789445D01*
X83880522Y-71728289D01*
X83880527Y-71728285D01*
X83885239Y-71724583D01*
X83934968Y-71667276D01*
X84023067Y-71565752D01*
X84023071Y-71565747D01*
X84026998Y-71561221D01*
X84135307Y-71374001D01*
X84183825Y-71234284D01*
X84204293Y-71175342D01*
X84204294Y-71175340D01*
X84206260Y-71169677D01*
X84214017Y-71116181D01*
X84236436Y-70961563D01*
X84236436Y-70961560D01*
X84237297Y-70955623D01*
X84232425Y-70850374D01*
X84229623Y-70789826D01*
X84246454Y-70720853D01*
X84297902Y-70671929D01*
X84355488Y-70658000D01*
X84427885Y-70658000D01*
X84443124Y-70653525D01*
X84444329Y-70652135D01*
X84446000Y-70644452D01*
X84446000Y-70639884D01*
X84954000Y-70639884D01*
X84958475Y-70655123D01*
X84959865Y-70656328D01*
X84967548Y-70657999D01*
X85472095Y-70657999D01*
X85478614Y-70657662D01*
X85574206Y-70647743D01*
X85587600Y-70644851D01*
X85741784Y-70593412D01*
X85754962Y-70587239D01*
X85892807Y-70501937D01*
X85904208Y-70492901D01*
X86018739Y-70378171D01*
X86027751Y-70366760D01*
X86112816Y-70228757D01*
X86118963Y-70215576D01*
X86170138Y-70061290D01*
X86173005Y-70047914D01*
X86182672Y-69953562D01*
X86183000Y-69947146D01*
X86183000Y-69572115D01*
X86178525Y-69556876D01*
X86177135Y-69555671D01*
X86169452Y-69554000D01*
X84972115Y-69554000D01*
X84956876Y-69558475D01*
X84955671Y-69559865D01*
X84954000Y-69567548D01*
X84954000Y-70639884D01*
X84446000Y-70639884D01*
X84446000Y-69572115D01*
X84441525Y-69556876D01*
X84440135Y-69555671D01*
X84432452Y-69554000D01*
X83235116Y-69554000D01*
X83219877Y-69558475D01*
X83218672Y-69559865D01*
X83217001Y-69567548D01*
X83217001Y-69640500D01*
X83196999Y-69708621D01*
X83143343Y-69755114D01*
X83091001Y-69766500D01*
X83045959Y-69766500D01*
X82884685Y-69781887D01*
X82677140Y-69842774D01*
X82671813Y-69845518D01*
X82671812Y-69845518D01*
X82490183Y-69939063D01*
X82490180Y-69939065D01*
X82484852Y-69941809D01*
X82480137Y-69945513D01*
X82319478Y-70071711D01*
X82319473Y-70071715D01*
X82314761Y-70075417D01*
X82310830Y-70079947D01*
X82310829Y-70079948D01*
X82176933Y-70234248D01*
X82176929Y-70234253D01*
X82173002Y-70238779D01*
X82064693Y-70425999D01*
X82038323Y-70501937D01*
X82006558Y-70593412D01*
X81993740Y-70630323D01*
X81992879Y-70636258D01*
X81992879Y-70636260D01*
X81970613Y-70789826D01*
X81962703Y-70844377D01*
X80308500Y-70844377D01*
X80308500Y-62037407D01*
X80310141Y-62017137D01*
X80310888Y-62012552D01*
X80313633Y-61995713D01*
X80311740Y-61980389D01*
X80311175Y-61955107D01*
X80320095Y-61841237D01*
X80324333Y-61787140D01*
X80326994Y-61769443D01*
X80331357Y-61749966D01*
X80369376Y-61580219D01*
X80374518Y-61563078D01*
X80440594Y-61388847D01*
X80443278Y-61381771D01*
X80450795Y-61365534D01*
X80544554Y-61195789D01*
X80554297Y-61180778D01*
X80671153Y-61026036D01*
X80682925Y-61012557D01*
X80820519Y-60875937D01*
X80834082Y-60864260D01*
X80989658Y-60748503D01*
X81004737Y-60738867D01*
X81175147Y-60646315D01*
X81191419Y-60638922D01*
X81373229Y-60571444D01*
X81390398Y-60566428D01*
X81579913Y-60525394D01*
X81597627Y-60522858D01*
X81758365Y-60511414D01*
X81777713Y-60512222D01*
X81784851Y-60512309D01*
X81793724Y-60513691D01*
X81802626Y-60512527D01*
X81802628Y-60512527D01*
X81817677Y-60510559D01*
X81825286Y-60509564D01*
X81841621Y-60508500D01*
X117736423Y-60508500D01*
X117755808Y-60510000D01*
G37*
%TD.AperFunction*%
%TD*%
M02*
