%TF.GenerationSoftware,KiCad,Pcbnew,6.0.7*%
%TF.CreationDate,2023-06-08T16:58:43+12:00*%
%TF.ProjectId,_rotary_,5f726f74-6172-4795-9f2e-6b696361645f,v0_1_2*%
%TF.SameCoordinates,Original*%
%TF.FileFunction,Soldermask,Bot*%
%TF.FilePolarity,Negative*%
%FSLAX46Y46*%
G04 Gerber Fmt 4.6, Leading zero omitted, Abs format (unit mm)*
G04 Created by KiCad (PCBNEW 6.0.7) date 2023-06-08 16:58:43*
%MOMM*%
%LPD*%
G01*
G04 APERTURE LIST*
G04 Aperture macros list*
%AMRoundRect*
0 Rectangle with rounded corners*
0 $1 Rounding radius*
0 $2 $3 $4 $5 $6 $7 $8 $9 X,Y pos of 4 corners*
0 Add a 4 corners polygon primitive as box body*
4,1,4,$2,$3,$4,$5,$6,$7,$8,$9,$2,$3,0*
0 Add four circle primitives for the rounded corners*
1,1,$1+$1,$2,$3*
1,1,$1+$1,$4,$5*
1,1,$1+$1,$6,$7*
1,1,$1+$1,$8,$9*
0 Add four rect primitives between the rounded corners*
20,1,$1+$1,$2,$3,$4,$5,0*
20,1,$1+$1,$4,$5,$6,$7,0*
20,1,$1+$1,$6,$7,$8,$9,0*
20,1,$1+$1,$8,$9,$2,$3,0*%
G04 Aperture macros list end*
%ADD10R,1.930000X1.830000*%
%ADD11C,2.130000*%
%ADD12C,1.600000*%
%ADD13C,4.300000*%
%ADD14O,1.600000X1.600000*%
%ADD15R,2.400000X1.600000*%
%ADD16O,2.400000X1.600000*%
%ADD17R,1.100000X1.800000*%
%ADD18RoundRect,0.275000X-0.275000X-0.625000X0.275000X-0.625000X0.275000X0.625000X-0.275000X0.625000X0*%
%ADD19C,1.440000*%
%ADD20C,4.000000*%
%ADD21C,1.800000*%
%ADD22R,1.500000X1.500000*%
%ADD23O,1.500000X1.500000*%
%ADD24C,1.250000*%
%ADD25RoundRect,0.250000X0.725000X-0.600000X0.725000X0.600000X-0.725000X0.600000X-0.725000X-0.600000X0*%
%ADD26O,1.950000X1.700000*%
G04 APERTURE END LIST*
D10*
%TO.C,J1*%
X100000000Y-111200000D03*
D11*
X100000000Y-122600000D03*
X100000000Y-114300000D03*
%TD*%
D12*
%TO.C,C1*%
X113600000Y-99000000D03*
X108600000Y-99000000D03*
%TD*%
D13*
%TO.C,REF\u002A\u002A*%
X100000000Y-135050000D03*
%TD*%
D12*
%TO.C,R3*%
X108050000Y-121750000D03*
D14*
X115670000Y-121750000D03*
%TD*%
D15*
%TO.C,U1*%
X96175000Y-99025000D03*
D16*
X96175000Y-101565000D03*
X96175000Y-104105000D03*
X96175000Y-106645000D03*
X103795000Y-106645000D03*
X103795000Y-104105000D03*
X103795000Y-101565000D03*
X103795000Y-99025000D03*
%TD*%
D13*
%TO.C,REF\u002A\u002A*%
X100050000Y-65000000D03*
%TD*%
D12*
%TO.C,R1*%
X82600000Y-99000000D03*
D14*
X90220000Y-99000000D03*
%TD*%
D17*
%TO.C,U2*%
X108900000Y-64700000D03*
D18*
X110170000Y-62630000D03*
X111440000Y-64700000D03*
%TD*%
D12*
%TO.C,R5*%
X90410000Y-88600000D03*
D14*
X82790000Y-88600000D03*
%TD*%
D19*
%TO.C,RV2*%
X114150000Y-115975000D03*
X111610000Y-113435000D03*
X109070000Y-115975000D03*
%TD*%
D12*
%TO.C,R6*%
X117810000Y-70000000D03*
D14*
X110190000Y-70000000D03*
%TD*%
D20*
%TO.C,RV1*%
X95250000Y-81625000D03*
X104750000Y-81625000D03*
D21*
X102500000Y-89125000D03*
X100000000Y-89125000D03*
X97500000Y-89125000D03*
%TD*%
D12*
%TO.C,R4*%
X108050000Y-125350000D03*
D14*
X115670000Y-125350000D03*
%TD*%
D22*
%TO.C,D2*%
X90415000Y-120500000D03*
D23*
X82795000Y-120500000D03*
%TD*%
D22*
%TO.C,D1*%
X90400000Y-116900000D03*
D23*
X82780000Y-116900000D03*
%TD*%
D12*
%TO.C,R2*%
X82600000Y-102600000D03*
D14*
X90220000Y-102600000D03*
%TD*%
D12*
%TO.C,R7*%
X110190000Y-73800000D03*
D14*
X117810000Y-73800000D03*
%TD*%
D24*
%TO.C,J2*%
X83100000Y-70900000D03*
D25*
X84700000Y-69300000D03*
D26*
X84700000Y-66800000D03*
X84700000Y-64300000D03*
%TD*%
M02*
