M48
; DRILL file {KiCad 6.0.7} date Thu 08 Jun 2023 16:58:47
; FORMAT={-:-/ absolute / metric / decimal}
; #@! TF.CreationDate,2023-06-08T16:58:47+12:00
; #@! TF.GenerationSoftware,Kicad,Pcbnew,6.0.7
; #@! TF.FileFunction,Plated,1,2,PTH
FMAT,2
METRIC
; #@! TA.AperFunction,Plated,PTH,ViaDrill
T1C0.400
; #@! TA.AperFunction,Plated,PTH,ComponentDrill
T2C0.750
; #@! TA.AperFunction,Plated,PTH,ComponentDrill
T3C0.800
; #@! TA.AperFunction,Plated,PTH,ComponentDrill
T4C0.950
; #@! TA.AperFunction,Plated,PTH,ComponentDrill
T5C1.000
; #@! TA.AperFunction,Plated,PTH,ComponentDrill
T6C1.220
; #@! TA.AperFunction,Plated,PTH,ComponentDrill
T7C1.420
; #@! TA.AperFunction,Plated,PTH,ComponentDrill
T8C1.430
%
G90
G05
T1
X109.39Y-107.0
X110.95Y-111.6
T2
X82.78Y-116.9
X82.795Y-120.5
X90.4Y-116.9
X90.415Y-120.5
X108.9Y-64.3
X110.17Y-63.03
X111.44Y-64.3
T3
X82.6Y-99.0
X82.6Y-102.6
X82.79Y-88.6
X90.22Y-99.0
X90.22Y-102.6
X90.41Y-88.6
X96.175Y-99.025
X96.175Y-101.565
X96.175Y-104.105
X96.175Y-106.645
X103.795Y-99.025
X103.795Y-101.565
X103.795Y-104.105
X103.795Y-106.645
X108.05Y-121.75
X108.05Y-125.35
X108.6Y-99.0
X109.07Y-115.975
X110.19Y-70.0
X110.19Y-73.8
X111.61Y-113.435
X113.6Y-99.0
X114.15Y-115.975
X115.67Y-121.75
X115.67Y-125.35
X117.81Y-70.0
X117.81Y-73.8
T4
X84.7Y-64.3
X84.7Y-66.8
X84.7Y-69.3
T5
X97.5Y-89.125
X100.0Y-89.125
X102.5Y-89.125
T6
X100.0Y-111.2
T7
X100.0Y-114.3
T8
X100.0Y-122.6
T0
M30
