%TF.GenerationSoftware,KiCad,Pcbnew,6.0.7*%
%TF.CreationDate,2023-06-08T16:58:43+12:00*%
%TF.ProjectId,_rotary_,5f726f74-6172-4795-9f2e-6b696361645f,v0_1_2*%
%TF.SameCoordinates,Original*%
%TF.FileFunction,Legend,Top*%
%TF.FilePolarity,Positive*%
%FSLAX46Y46*%
G04 Gerber Fmt 4.6, Leading zero omitted, Abs format (unit mm)*
G04 Created by KiCad (PCBNEW 6.0.7) date 2023-06-08 16:58:43*
%MOMM*%
%LPD*%
G01*
G04 APERTURE LIST*
%ADD10C,0.250000*%
%ADD11C,0.200000*%
%ADD12C,0.150000*%
%ADD13C,0.120000*%
G04 APERTURE END LIST*
D10*
X110307142Y-108071071D02*
X110307142Y-109285357D01*
X110235714Y-109428214D01*
X110164285Y-109499642D01*
X110021428Y-109571071D01*
X109807142Y-109571071D01*
X109664285Y-109499642D01*
X110307142Y-108999642D02*
X110164285Y-109071071D01*
X109878571Y-109071071D01*
X109735714Y-108999642D01*
X109664285Y-108928214D01*
X109592857Y-108785357D01*
X109592857Y-108356785D01*
X109664285Y-108213928D01*
X109735714Y-108142500D01*
X109878571Y-108071071D01*
X110164285Y-108071071D01*
X110307142Y-108142500D01*
X111664285Y-109071071D02*
X111664285Y-108285357D01*
X111592857Y-108142500D01*
X111450000Y-108071071D01*
X111164285Y-108071071D01*
X111021428Y-108142500D01*
X111664285Y-108999642D02*
X111521428Y-109071071D01*
X111164285Y-109071071D01*
X111021428Y-108999642D01*
X110950000Y-108856785D01*
X110950000Y-108713928D01*
X111021428Y-108571071D01*
X111164285Y-108499642D01*
X111521428Y-108499642D01*
X111664285Y-108428214D01*
X112378571Y-109071071D02*
X112378571Y-108071071D01*
X112378571Y-107571071D02*
X112307142Y-107642500D01*
X112378571Y-107713928D01*
X112450000Y-107642500D01*
X112378571Y-107571071D01*
X112378571Y-107713928D01*
X113092857Y-108071071D02*
X113092857Y-109071071D01*
X113092857Y-108213928D02*
X113164285Y-108142500D01*
X113307142Y-108071071D01*
X113521428Y-108071071D01*
X113664285Y-108142500D01*
X113735714Y-108285357D01*
X113735714Y-109071071D01*
X109878571Y-111486071D02*
X109021428Y-111486071D01*
X109450000Y-111486071D02*
X109450000Y-109986071D01*
X109307142Y-110200357D01*
X109164285Y-110343214D01*
X109021428Y-110414642D01*
X110521428Y-110914642D02*
X111664285Y-110914642D01*
X113021428Y-109986071D02*
X112735714Y-109986071D01*
X112592857Y-110057500D01*
X112521428Y-110128928D01*
X112378571Y-110343214D01*
X112307142Y-110628928D01*
X112307142Y-111200357D01*
X112378571Y-111343214D01*
X112450000Y-111414642D01*
X112592857Y-111486071D01*
X112878571Y-111486071D01*
X113021428Y-111414642D01*
X113092857Y-111343214D01*
X113164285Y-111200357D01*
X113164285Y-110843214D01*
X113092857Y-110700357D01*
X113021428Y-110628928D01*
X112878571Y-110557500D01*
X112592857Y-110557500D01*
X112450000Y-110628928D01*
X112378571Y-110700357D01*
X112307142Y-110843214D01*
X113664285Y-111486071D02*
X114450000Y-110486071D01*
X113664285Y-110486071D02*
X114450000Y-111486071D01*
X97326190Y-127164285D02*
X97230952Y-127259523D01*
X96945238Y-127354761D01*
X96754761Y-127354761D01*
X96469047Y-127259523D01*
X96278571Y-127069047D01*
X96183333Y-126878571D01*
X96088095Y-126497619D01*
X96088095Y-126211904D01*
X96183333Y-125830952D01*
X96278571Y-125640476D01*
X96469047Y-125450000D01*
X96754761Y-125354761D01*
X96945238Y-125354761D01*
X97230952Y-125450000D01*
X97326190Y-125545238D01*
X97897619Y-125354761D02*
X98564285Y-127354761D01*
X99230952Y-125354761D01*
X99421428Y-127545238D02*
X100945238Y-127545238D01*
X101421428Y-127354761D02*
X101421428Y-125354761D01*
X102373809Y-127354761D02*
X102373809Y-125354761D01*
X103516666Y-127354761D01*
X103516666Y-125354761D01*
D11*
X103617619Y-136815404D02*
X104608095Y-136815404D01*
X104917619Y-136691595D02*
X104917619Y-135824928D01*
X104917619Y-136072547D02*
X104979523Y-135948738D01*
X105041428Y-135886833D01*
X105165238Y-135824928D01*
X105289047Y-135824928D01*
X105908095Y-136691595D02*
X105784285Y-136629690D01*
X105722380Y-136567785D01*
X105660476Y-136443976D01*
X105660476Y-136072547D01*
X105722380Y-135948738D01*
X105784285Y-135886833D01*
X105908095Y-135824928D01*
X106093809Y-135824928D01*
X106217619Y-135886833D01*
X106279523Y-135948738D01*
X106341428Y-136072547D01*
X106341428Y-136443976D01*
X106279523Y-136567785D01*
X106217619Y-136629690D01*
X106093809Y-136691595D01*
X105908095Y-136691595D01*
X106712857Y-135824928D02*
X107208095Y-135824928D01*
X106898571Y-135391595D02*
X106898571Y-136505880D01*
X106960476Y-136629690D01*
X107084285Y-136691595D01*
X107208095Y-136691595D01*
X108198571Y-136691595D02*
X108198571Y-136010642D01*
X108136666Y-135886833D01*
X108012857Y-135824928D01*
X107765238Y-135824928D01*
X107641428Y-135886833D01*
X108198571Y-136629690D02*
X108074761Y-136691595D01*
X107765238Y-136691595D01*
X107641428Y-136629690D01*
X107579523Y-136505880D01*
X107579523Y-136382071D01*
X107641428Y-136258261D01*
X107765238Y-136196357D01*
X108074761Y-136196357D01*
X108198571Y-136134452D01*
X108817619Y-136691595D02*
X108817619Y-135824928D01*
X108817619Y-136072547D02*
X108879523Y-135948738D01*
X108941428Y-135886833D01*
X109065238Y-135824928D01*
X109189047Y-135824928D01*
X109498571Y-135824928D02*
X109808095Y-136691595D01*
X110117619Y-135824928D02*
X109808095Y-136691595D01*
X109684285Y-137001119D01*
X109622380Y-137063023D01*
X109498571Y-137124928D01*
X110303333Y-136815404D02*
X111293809Y-136815404D01*
X112470000Y-135824928D02*
X112779523Y-136691595D01*
X113089047Y-135824928D01*
X113831904Y-135391595D02*
X113955714Y-135391595D01*
X114079523Y-135453500D01*
X114141428Y-135515404D01*
X114203333Y-135639214D01*
X114265238Y-135886833D01*
X114265238Y-136196357D01*
X114203333Y-136443976D01*
X114141428Y-136567785D01*
X114079523Y-136629690D01*
X113955714Y-136691595D01*
X113831904Y-136691595D01*
X113708095Y-136629690D01*
X113646190Y-136567785D01*
X113584285Y-136443976D01*
X113522380Y-136196357D01*
X113522380Y-135886833D01*
X113584285Y-135639214D01*
X113646190Y-135515404D01*
X113708095Y-135453500D01*
X113831904Y-135391595D01*
X114512857Y-136815404D02*
X115503333Y-136815404D01*
X116493809Y-136691595D02*
X115750952Y-136691595D01*
X116122380Y-136691595D02*
X116122380Y-135391595D01*
X115998571Y-135577309D01*
X115874761Y-135701119D01*
X115750952Y-135763023D01*
X116741428Y-136815404D02*
X117731904Y-136815404D01*
X117979523Y-135515404D02*
X118041428Y-135453500D01*
X118165238Y-135391595D01*
X118474761Y-135391595D01*
X118598571Y-135453500D01*
X118660476Y-135515404D01*
X118722380Y-135639214D01*
X118722380Y-135763023D01*
X118660476Y-135948738D01*
X117917619Y-136691595D01*
X118722380Y-136691595D01*
X100089047Y-138722690D02*
X99965238Y-138784595D01*
X99717619Y-138784595D01*
X99593809Y-138722690D01*
X99531904Y-138660785D01*
X99470000Y-138536976D01*
X99470000Y-138165547D01*
X99531904Y-138041738D01*
X99593809Y-137979833D01*
X99717619Y-137917928D01*
X99965238Y-137917928D01*
X100089047Y-137979833D01*
X100522380Y-137917928D02*
X100831904Y-138784595D01*
X101141428Y-137917928D02*
X100831904Y-138784595D01*
X100708095Y-139094119D01*
X100646190Y-139156023D01*
X100522380Y-139217928D01*
X101636666Y-138784595D02*
X101636666Y-137484595D01*
X101636666Y-137979833D02*
X101760476Y-137917928D01*
X102008095Y-137917928D01*
X102131904Y-137979833D01*
X102193809Y-138041738D01*
X102255714Y-138165547D01*
X102255714Y-138536976D01*
X102193809Y-138660785D01*
X102131904Y-138722690D01*
X102008095Y-138784595D01*
X101760476Y-138784595D01*
X101636666Y-138722690D01*
X103308095Y-138722690D02*
X103184285Y-138784595D01*
X102936666Y-138784595D01*
X102812857Y-138722690D01*
X102750952Y-138598880D01*
X102750952Y-138103642D01*
X102812857Y-137979833D01*
X102936666Y-137917928D01*
X103184285Y-137917928D01*
X103308095Y-137979833D01*
X103370000Y-138103642D01*
X103370000Y-138227452D01*
X102750952Y-138351261D01*
X103927142Y-138784595D02*
X103927142Y-137917928D01*
X103927142Y-138165547D02*
X103989047Y-138041738D01*
X104050952Y-137979833D01*
X104174761Y-137917928D01*
X104298571Y-137917928D01*
X104731904Y-138784595D02*
X104731904Y-137484595D01*
X104731904Y-137979833D02*
X104855714Y-137917928D01*
X105103333Y-137917928D01*
X105227142Y-137979833D01*
X105289047Y-138041738D01*
X105350952Y-138165547D01*
X105350952Y-138536976D01*
X105289047Y-138660785D01*
X105227142Y-138722690D01*
X105103333Y-138784595D01*
X104855714Y-138784595D01*
X104731904Y-138722690D01*
X106093809Y-138784595D02*
X105970000Y-138722690D01*
X105908095Y-138660785D01*
X105846190Y-138536976D01*
X105846190Y-138165547D01*
X105908095Y-138041738D01*
X105970000Y-137979833D01*
X106093809Y-137917928D01*
X106279523Y-137917928D01*
X106403333Y-137979833D01*
X106465238Y-138041738D01*
X106527142Y-138165547D01*
X106527142Y-138536976D01*
X106465238Y-138660785D01*
X106403333Y-138722690D01*
X106279523Y-138784595D01*
X106093809Y-138784595D01*
X106960476Y-137917928D02*
X107270000Y-138784595D01*
X107579523Y-137917928D02*
X107270000Y-138784595D01*
X107146190Y-139094119D01*
X107084285Y-139156023D01*
X106960476Y-139217928D01*
X108631904Y-137484595D02*
X108384285Y-137484595D01*
X108260476Y-137546500D01*
X108198571Y-137608404D01*
X108074761Y-137794119D01*
X108012857Y-138041738D01*
X108012857Y-138536976D01*
X108074761Y-138660785D01*
X108136666Y-138722690D01*
X108260476Y-138784595D01*
X108508095Y-138784595D01*
X108631904Y-138722690D01*
X108693809Y-138660785D01*
X108755714Y-138536976D01*
X108755714Y-138227452D01*
X108693809Y-138103642D01*
X108631904Y-138041738D01*
X108508095Y-137979833D01*
X108260476Y-137979833D01*
X108136666Y-138041738D01*
X108074761Y-138103642D01*
X108012857Y-138227452D01*
X109870000Y-137484595D02*
X109622380Y-137484595D01*
X109498571Y-137546500D01*
X109436666Y-137608404D01*
X109312857Y-137794119D01*
X109250952Y-138041738D01*
X109250952Y-138536976D01*
X109312857Y-138660785D01*
X109374761Y-138722690D01*
X109498571Y-138784595D01*
X109746190Y-138784595D01*
X109870000Y-138722690D01*
X109931904Y-138660785D01*
X109993809Y-138536976D01*
X109993809Y-138227452D01*
X109931904Y-138103642D01*
X109870000Y-138041738D01*
X109746190Y-137979833D01*
X109498571Y-137979833D01*
X109374761Y-138041738D01*
X109312857Y-138103642D01*
X109250952Y-138227452D01*
X111108095Y-137484595D02*
X110860476Y-137484595D01*
X110736666Y-137546500D01*
X110674761Y-137608404D01*
X110550952Y-137794119D01*
X110489047Y-138041738D01*
X110489047Y-138536976D01*
X110550952Y-138660785D01*
X110612857Y-138722690D01*
X110736666Y-138784595D01*
X110984285Y-138784595D01*
X111108095Y-138722690D01*
X111170000Y-138660785D01*
X111231904Y-138536976D01*
X111231904Y-138227452D01*
X111170000Y-138103642D01*
X111108095Y-138041738D01*
X110984285Y-137979833D01*
X110736666Y-137979833D01*
X110612857Y-138041738D01*
X110550952Y-138103642D01*
X110489047Y-138227452D01*
X113831904Y-138784595D02*
X113770000Y-138784595D01*
X113646190Y-138722690D01*
X113460476Y-138536976D01*
X113150952Y-138165547D01*
X113027142Y-137979833D01*
X112965238Y-137794119D01*
X112965238Y-137670309D01*
X113027142Y-137546500D01*
X113150952Y-137484595D01*
X113212857Y-137484595D01*
X113336666Y-137546500D01*
X113398571Y-137670309D01*
X113398571Y-137732214D01*
X113336666Y-137856023D01*
X113274761Y-137917928D01*
X112903333Y-138165547D01*
X112841428Y-138227452D01*
X112779523Y-138351261D01*
X112779523Y-138536976D01*
X112841428Y-138660785D01*
X112903333Y-138722690D01*
X113027142Y-138784595D01*
X113212857Y-138784595D01*
X113336666Y-138722690D01*
X113398571Y-138660785D01*
X113584285Y-138413166D01*
X113646190Y-138227452D01*
X113646190Y-138103642D01*
X115936666Y-138784595D02*
X115936666Y-138103642D01*
X115874761Y-137979833D01*
X115750952Y-137917928D01*
X115503333Y-137917928D01*
X115379523Y-137979833D01*
X115936666Y-138722690D02*
X115812857Y-138784595D01*
X115503333Y-138784595D01*
X115379523Y-138722690D01*
X115317619Y-138598880D01*
X115317619Y-138475071D01*
X115379523Y-138351261D01*
X115503333Y-138289357D01*
X115812857Y-138289357D01*
X115936666Y-138227452D01*
X117112857Y-137917928D02*
X117112857Y-138784595D01*
X116555714Y-137917928D02*
X116555714Y-138598880D01*
X116617619Y-138722690D01*
X116741428Y-138784595D01*
X116927142Y-138784595D01*
X117050952Y-138722690D01*
X117112857Y-138660785D01*
X117546190Y-137917928D02*
X118041428Y-137917928D01*
X117731904Y-137484595D02*
X117731904Y-138598880D01*
X117793809Y-138722690D01*
X117917619Y-138784595D01*
X118041428Y-138784595D01*
X118474761Y-138784595D02*
X118474761Y-137917928D01*
X118474761Y-138165547D02*
X118536666Y-138041738D01*
X118598571Y-137979833D01*
X118722380Y-137917928D01*
X118846190Y-137917928D01*
D10*
X84904761Y-82404761D02*
X84904761Y-80404761D01*
X85571428Y-81833333D01*
X86238095Y-80404761D01*
X86238095Y-82404761D01*
X87190476Y-82404761D02*
X87190476Y-80404761D01*
X87952380Y-80404761D02*
X89285714Y-82404761D01*
X89285714Y-80404761D02*
X87952380Y-82404761D01*
D12*
%TO.C,J1*%
X95636666Y-111732380D02*
X95636666Y-112446666D01*
X95589047Y-112589523D01*
X95493809Y-112684761D01*
X95350952Y-112732380D01*
X95255714Y-112732380D01*
X96636666Y-112732380D02*
X96065238Y-112732380D01*
X96350952Y-112732380D02*
X96350952Y-111732380D01*
X96255714Y-111875238D01*
X96160476Y-111970476D01*
X96065238Y-112018095D01*
%TO.C,C1*%
X110933333Y-99357142D02*
X110885714Y-99404761D01*
X110742857Y-99452380D01*
X110647619Y-99452380D01*
X110504761Y-99404761D01*
X110409523Y-99309523D01*
X110361904Y-99214285D01*
X110314285Y-99023809D01*
X110314285Y-98880952D01*
X110361904Y-98690476D01*
X110409523Y-98595238D01*
X110504761Y-98500000D01*
X110647619Y-98452380D01*
X110742857Y-98452380D01*
X110885714Y-98500000D01*
X110933333Y-98547619D01*
X111885714Y-99452380D02*
X111314285Y-99452380D01*
X111600000Y-99452380D02*
X111600000Y-98452380D01*
X111504761Y-98595238D01*
X111409523Y-98690476D01*
X111314285Y-98738095D01*
%TO.C,R3*%
X111693333Y-122202380D02*
X111360000Y-121726190D01*
X111121904Y-122202380D02*
X111121904Y-121202380D01*
X111502857Y-121202380D01*
X111598095Y-121250000D01*
X111645714Y-121297619D01*
X111693333Y-121392857D01*
X111693333Y-121535714D01*
X111645714Y-121630952D01*
X111598095Y-121678571D01*
X111502857Y-121726190D01*
X111121904Y-121726190D01*
X112026666Y-121202380D02*
X112645714Y-121202380D01*
X112312380Y-121583333D01*
X112455238Y-121583333D01*
X112550476Y-121630952D01*
X112598095Y-121678571D01*
X112645714Y-121773809D01*
X112645714Y-122011904D01*
X112598095Y-122107142D01*
X112550476Y-122154761D01*
X112455238Y-122202380D01*
X112169523Y-122202380D01*
X112074285Y-122154761D01*
X112026666Y-122107142D01*
%TO.C,U1*%
X99413095Y-90427380D02*
X99413095Y-91236904D01*
X99460714Y-91332142D01*
X99508333Y-91379761D01*
X99603571Y-91427380D01*
X99794047Y-91427380D01*
X99889285Y-91379761D01*
X99936904Y-91332142D01*
X99984523Y-91236904D01*
X99984523Y-90427380D01*
X100984523Y-91427380D02*
X100413095Y-91427380D01*
X100698809Y-91427380D02*
X100698809Y-90427380D01*
X100603571Y-90570238D01*
X100508333Y-90665476D01*
X100413095Y-90713095D01*
%TO.C,R1*%
X86233333Y-99452380D02*
X85900000Y-98976190D01*
X85661904Y-99452380D02*
X85661904Y-98452380D01*
X86042857Y-98452380D01*
X86138095Y-98500000D01*
X86185714Y-98547619D01*
X86233333Y-98642857D01*
X86233333Y-98785714D01*
X86185714Y-98880952D01*
X86138095Y-98928571D01*
X86042857Y-98976190D01*
X85661904Y-98976190D01*
X87185714Y-99452380D02*
X86614285Y-99452380D01*
X86900000Y-99452380D02*
X86900000Y-98452380D01*
X86804761Y-98595238D01*
X86709523Y-98690476D01*
X86614285Y-98738095D01*
%TO.C,U2*%
X109538095Y-60302380D02*
X109538095Y-61111904D01*
X109585714Y-61207142D01*
X109633333Y-61254761D01*
X109728571Y-61302380D01*
X109919047Y-61302380D01*
X110014285Y-61254761D01*
X110061904Y-61207142D01*
X110109523Y-61111904D01*
X110109523Y-60302380D01*
X110538095Y-60397619D02*
X110585714Y-60350000D01*
X110680952Y-60302380D01*
X110919047Y-60302380D01*
X111014285Y-60350000D01*
X111061904Y-60397619D01*
X111109523Y-60492857D01*
X111109523Y-60588095D01*
X111061904Y-60730952D01*
X110490476Y-61302380D01*
X111109523Y-61302380D01*
%TO.C,R5*%
X86433333Y-89052380D02*
X86100000Y-88576190D01*
X85861904Y-89052380D02*
X85861904Y-88052380D01*
X86242857Y-88052380D01*
X86338095Y-88100000D01*
X86385714Y-88147619D01*
X86433333Y-88242857D01*
X86433333Y-88385714D01*
X86385714Y-88480952D01*
X86338095Y-88528571D01*
X86242857Y-88576190D01*
X85861904Y-88576190D01*
X87338095Y-88052380D02*
X86861904Y-88052380D01*
X86814285Y-88528571D01*
X86861904Y-88480952D01*
X86957142Y-88433333D01*
X87195238Y-88433333D01*
X87290476Y-88480952D01*
X87338095Y-88528571D01*
X87385714Y-88623809D01*
X87385714Y-88861904D01*
X87338095Y-88957142D01*
X87290476Y-89004761D01*
X87195238Y-89052380D01*
X86957142Y-89052380D01*
X86861904Y-89004761D01*
X86814285Y-88957142D01*
%TO.C,RV2*%
X107602380Y-116070238D02*
X107126190Y-116403571D01*
X107602380Y-116641666D02*
X106602380Y-116641666D01*
X106602380Y-116260714D01*
X106650000Y-116165476D01*
X106697619Y-116117857D01*
X106792857Y-116070238D01*
X106935714Y-116070238D01*
X107030952Y-116117857D01*
X107078571Y-116165476D01*
X107126190Y-116260714D01*
X107126190Y-116641666D01*
X106602380Y-115784523D02*
X107602380Y-115451190D01*
X106602380Y-115117857D01*
X106697619Y-114832142D02*
X106650000Y-114784523D01*
X106602380Y-114689285D01*
X106602380Y-114451190D01*
X106650000Y-114355952D01*
X106697619Y-114308333D01*
X106792857Y-114260714D01*
X106888095Y-114260714D01*
X107030952Y-114308333D01*
X107602380Y-114879761D01*
X107602380Y-114260714D01*
%TO.C,R6*%
X113833333Y-70452380D02*
X113500000Y-69976190D01*
X113261904Y-70452380D02*
X113261904Y-69452380D01*
X113642857Y-69452380D01*
X113738095Y-69500000D01*
X113785714Y-69547619D01*
X113833333Y-69642857D01*
X113833333Y-69785714D01*
X113785714Y-69880952D01*
X113738095Y-69928571D01*
X113642857Y-69976190D01*
X113261904Y-69976190D01*
X114690476Y-69452380D02*
X114500000Y-69452380D01*
X114404761Y-69500000D01*
X114357142Y-69547619D01*
X114261904Y-69690476D01*
X114214285Y-69880952D01*
X114214285Y-70261904D01*
X114261904Y-70357142D01*
X114309523Y-70404761D01*
X114404761Y-70452380D01*
X114595238Y-70452380D01*
X114690476Y-70404761D01*
X114738095Y-70357142D01*
X114785714Y-70261904D01*
X114785714Y-70023809D01*
X114738095Y-69928571D01*
X114690476Y-69880952D01*
X114595238Y-69833333D01*
X114404761Y-69833333D01*
X114309523Y-69880952D01*
X114261904Y-69928571D01*
X114214285Y-70023809D01*
%TO.C,RV1*%
X94004761Y-89652380D02*
X93671428Y-89176190D01*
X93433333Y-89652380D02*
X93433333Y-88652380D01*
X93814285Y-88652380D01*
X93909523Y-88700000D01*
X93957142Y-88747619D01*
X94004761Y-88842857D01*
X94004761Y-88985714D01*
X93957142Y-89080952D01*
X93909523Y-89128571D01*
X93814285Y-89176190D01*
X93433333Y-89176190D01*
X94290476Y-88652380D02*
X94623809Y-89652380D01*
X94957142Y-88652380D01*
X95814285Y-89652380D02*
X95242857Y-89652380D01*
X95528571Y-89652380D02*
X95528571Y-88652380D01*
X95433333Y-88795238D01*
X95338095Y-88890476D01*
X95242857Y-88938095D01*
%TO.C,R4*%
X111693333Y-125802380D02*
X111360000Y-125326190D01*
X111121904Y-125802380D02*
X111121904Y-124802380D01*
X111502857Y-124802380D01*
X111598095Y-124850000D01*
X111645714Y-124897619D01*
X111693333Y-124992857D01*
X111693333Y-125135714D01*
X111645714Y-125230952D01*
X111598095Y-125278571D01*
X111502857Y-125326190D01*
X111121904Y-125326190D01*
X112550476Y-125135714D02*
X112550476Y-125802380D01*
X112312380Y-124754761D02*
X112074285Y-125469047D01*
X112693333Y-125469047D01*
%TO.C,D2*%
X85676904Y-120952380D02*
X85676904Y-119952380D01*
X85915000Y-119952380D01*
X86057857Y-120000000D01*
X86153095Y-120095238D01*
X86200714Y-120190476D01*
X86248333Y-120380952D01*
X86248333Y-120523809D01*
X86200714Y-120714285D01*
X86153095Y-120809523D01*
X86057857Y-120904761D01*
X85915000Y-120952380D01*
X85676904Y-120952380D01*
X86629285Y-120047619D02*
X86676904Y-120000000D01*
X86772142Y-119952380D01*
X87010238Y-119952380D01*
X87105476Y-120000000D01*
X87153095Y-120047619D01*
X87200714Y-120142857D01*
X87200714Y-120238095D01*
X87153095Y-120380952D01*
X86581666Y-120952380D01*
X87200714Y-120952380D01*
X90153095Y-122702380D02*
X90153095Y-121702380D01*
X90724523Y-122702380D02*
X90295952Y-122130952D01*
X90724523Y-121702380D02*
X90153095Y-122273809D01*
%TO.C,D1*%
X85661904Y-117552380D02*
X85661904Y-116552380D01*
X85900000Y-116552380D01*
X86042857Y-116600000D01*
X86138095Y-116695238D01*
X86185714Y-116790476D01*
X86233333Y-116980952D01*
X86233333Y-117123809D01*
X86185714Y-117314285D01*
X86138095Y-117409523D01*
X86042857Y-117504761D01*
X85900000Y-117552380D01*
X85661904Y-117552380D01*
X87185714Y-117552380D02*
X86614285Y-117552380D01*
X86900000Y-117552380D02*
X86900000Y-116552380D01*
X86804761Y-116695238D01*
X86709523Y-116790476D01*
X86614285Y-116838095D01*
X90138095Y-119102380D02*
X90138095Y-118102380D01*
X90709523Y-119102380D02*
X90280952Y-118530952D01*
X90709523Y-118102380D02*
X90138095Y-118673809D01*
%TO.C,R2*%
X86243333Y-103052380D02*
X85910000Y-102576190D01*
X85671904Y-103052380D02*
X85671904Y-102052380D01*
X86052857Y-102052380D01*
X86148095Y-102100000D01*
X86195714Y-102147619D01*
X86243333Y-102242857D01*
X86243333Y-102385714D01*
X86195714Y-102480952D01*
X86148095Y-102528571D01*
X86052857Y-102576190D01*
X85671904Y-102576190D01*
X86624285Y-102147619D02*
X86671904Y-102100000D01*
X86767142Y-102052380D01*
X87005238Y-102052380D01*
X87100476Y-102100000D01*
X87148095Y-102147619D01*
X87195714Y-102242857D01*
X87195714Y-102338095D01*
X87148095Y-102480952D01*
X86576666Y-103052380D01*
X87195714Y-103052380D01*
%TO.C,R7*%
X113833333Y-74252380D02*
X113500000Y-73776190D01*
X113261904Y-74252380D02*
X113261904Y-73252380D01*
X113642857Y-73252380D01*
X113738095Y-73300000D01*
X113785714Y-73347619D01*
X113833333Y-73442857D01*
X113833333Y-73585714D01*
X113785714Y-73680952D01*
X113738095Y-73728571D01*
X113642857Y-73776190D01*
X113261904Y-73776190D01*
X114166666Y-73252380D02*
X114833333Y-73252380D01*
X114404761Y-74252380D01*
D13*
%TO.C,J1*%
X98940000Y-110200000D02*
X99800000Y-110200000D01*
X104500000Y-113180000D02*
X104500000Y-123680000D01*
X104500000Y-123680000D02*
X100500000Y-123680000D01*
X98940000Y-110200000D02*
X98940000Y-111000000D01*
X99650000Y-113180000D02*
X95500000Y-113180000D01*
X95500000Y-113180000D02*
X95500000Y-123680000D01*
X99500000Y-123680000D02*
X95500000Y-123680000D01*
X104500000Y-113180000D02*
X100350000Y-113180000D01*
X101800000Y-117680000D02*
G75*
G03*
X101800000Y-117680000I-1800000J0D01*
G01*
%TO.C,C1*%
X114720000Y-100370000D02*
X107480000Y-100370000D01*
X114720000Y-100370000D02*
X114720000Y-97630000D01*
X107480000Y-100370000D02*
X107480000Y-97630000D01*
X114720000Y-97630000D02*
X107480000Y-97630000D01*
%TO.C,R3*%
X108590000Y-120380000D02*
X115130000Y-120380000D01*
X108590000Y-122790000D02*
X108590000Y-123120000D01*
X108590000Y-120710000D02*
X108590000Y-120380000D01*
X115130000Y-123120000D02*
X115130000Y-122790000D01*
X108590000Y-123120000D02*
X115130000Y-123120000D01*
X115130000Y-120380000D02*
X115130000Y-120710000D01*
%TO.C,U1*%
X99925000Y-97085000D02*
X103375000Y-97085000D01*
X97735000Y-97695000D02*
X97735000Y-107975000D01*
X100375000Y-95775000D02*
X99975000Y-96375000D01*
X102235000Y-107975000D02*
X102235000Y-97695000D01*
X102235000Y-97695000D02*
X100985000Y-97695000D01*
X98985000Y-97695000D02*
X97735000Y-97695000D01*
X99975000Y-99175000D02*
X100375000Y-99775000D01*
X99975000Y-96375000D02*
X99575000Y-95775000D01*
X99575000Y-95775000D02*
X100375000Y-95775000D01*
X99575000Y-99775000D02*
X99975000Y-99175000D01*
X100375000Y-99775000D02*
X99575000Y-99775000D01*
X99925000Y-91965000D02*
X101875000Y-91965000D01*
X99975000Y-95775000D02*
X99975000Y-94575000D01*
X99925000Y-91965000D02*
X97975000Y-91965000D01*
X99925000Y-97085000D02*
X97975000Y-97085000D01*
X99975000Y-99775000D02*
X99975000Y-100975000D01*
X97735000Y-107975000D02*
X102235000Y-107975000D01*
X98985000Y-97695000D02*
G75*
G03*
X100985000Y-97695000I1000000J0D01*
G01*
%TO.C,R1*%
X89680000Y-100370000D02*
X89680000Y-100040000D01*
X83140000Y-97960000D02*
X83140000Y-97630000D01*
X83140000Y-100040000D02*
X83140000Y-100370000D01*
X89680000Y-97630000D02*
X89680000Y-97960000D01*
X83140000Y-97630000D02*
X89680000Y-97630000D01*
X83140000Y-100370000D02*
X89680000Y-100370000D01*
%TO.C,U2*%
X108370000Y-66150000D02*
X111970000Y-66150000D01*
X111978445Y-66127684D02*
G75*
G03*
X110950000Y-61850000I-1808445J1827684D01*
G01*
X109350000Y-61850000D02*
G75*
G03*
X108358125Y-66141741I820000J-2450000D01*
G01*
%TO.C,R5*%
X83330000Y-89970000D02*
X83330000Y-89640000D01*
X89870000Y-89970000D02*
X83330000Y-89970000D01*
X89870000Y-87230000D02*
X83330000Y-87230000D01*
X83330000Y-87230000D02*
X83330000Y-87560000D01*
X89870000Y-89640000D02*
X89870000Y-89970000D01*
X89870000Y-87560000D02*
X89870000Y-87230000D01*
%TO.C,RV2*%
X108150000Y-119225000D02*
X108150000Y-112475000D01*
X115150000Y-119225000D02*
X115150000Y-112475000D01*
X108150000Y-119225000D02*
X115150000Y-119225000D01*
X108150000Y-112475000D02*
X115150000Y-112475000D01*
%TO.C,R6*%
X110730000Y-71370000D02*
X110730000Y-71040000D01*
X117270000Y-68630000D02*
X110730000Y-68630000D01*
X117270000Y-71040000D02*
X117270000Y-71370000D01*
X117270000Y-71370000D02*
X110730000Y-71370000D01*
X117270000Y-68960000D02*
X117270000Y-68630000D01*
X110730000Y-68630000D02*
X110730000Y-68960000D01*
%TO.C,RV1*%
X93830000Y-76655000D02*
X106170000Y-76655000D01*
X106170000Y-79670000D02*
X106170000Y-76655000D01*
X106170000Y-88245000D02*
X106170000Y-83579000D01*
X98371000Y-88245000D02*
X99130000Y-88245000D01*
X103370000Y-88245000D02*
X106170000Y-88245000D01*
X100871000Y-88245000D02*
X101630000Y-88245000D01*
X93830000Y-88245000D02*
X96629000Y-88245000D01*
X93830000Y-88245000D02*
X93830000Y-83579000D01*
X93830000Y-79670000D02*
X93830000Y-76655000D01*
%TO.C,R4*%
X108590000Y-123980000D02*
X115130000Y-123980000D01*
X108590000Y-126720000D02*
X115130000Y-126720000D01*
X108590000Y-124310000D02*
X108590000Y-123980000D01*
X115130000Y-126720000D02*
X115130000Y-126390000D01*
X115130000Y-123980000D02*
X115130000Y-124310000D01*
X108590000Y-126390000D02*
X108590000Y-126720000D01*
%TO.C,D2*%
X87549000Y-121420000D02*
X87549000Y-119580000D01*
X88245000Y-119580000D02*
X84965000Y-119580000D01*
X83785000Y-120500000D02*
X84965000Y-120500000D01*
X87669000Y-121420000D02*
X87669000Y-119580000D01*
X84965000Y-119580000D02*
X84965000Y-121420000D01*
X88245000Y-121420000D02*
X88245000Y-119580000D01*
X89425000Y-120500000D02*
X88245000Y-120500000D01*
X87789000Y-121420000D02*
X87789000Y-119580000D01*
X84965000Y-121420000D02*
X88245000Y-121420000D01*
%TO.C,D1*%
X88230000Y-117820000D02*
X88230000Y-115980000D01*
X87534000Y-117820000D02*
X87534000Y-115980000D01*
X87774000Y-117820000D02*
X87774000Y-115980000D01*
X87654000Y-117820000D02*
X87654000Y-115980000D01*
X84950000Y-115980000D02*
X84950000Y-117820000D01*
X83770000Y-116900000D02*
X84950000Y-116900000D01*
X84950000Y-117820000D02*
X88230000Y-117820000D01*
X88230000Y-115980000D02*
X84950000Y-115980000D01*
X89410000Y-116900000D02*
X88230000Y-116900000D01*
%TO.C,R2*%
X89680000Y-103970000D02*
X89680000Y-103640000D01*
X83140000Y-103970000D02*
X89680000Y-103970000D01*
X83140000Y-101560000D02*
X83140000Y-101230000D01*
X83140000Y-101230000D02*
X89680000Y-101230000D01*
X89680000Y-101230000D02*
X89680000Y-101560000D01*
X83140000Y-103640000D02*
X83140000Y-103970000D01*
%TO.C,R7*%
X110730000Y-75170000D02*
X117270000Y-75170000D01*
X110730000Y-74840000D02*
X110730000Y-75170000D01*
X110730000Y-72430000D02*
X117270000Y-72430000D01*
X117270000Y-72430000D02*
X117270000Y-72760000D01*
X117270000Y-75170000D02*
X117270000Y-74840000D01*
X110730000Y-72760000D02*
X110730000Y-72430000D01*
%TD*%
M02*
