%TF.GenerationSoftware,KiCad,Pcbnew,6.0.7*%
%TF.CreationDate,2023-06-08T16:58:43+12:00*%
%TF.ProjectId,_rotary_,5f726f74-6172-4795-9f2e-6b696361645f,v0_1_2*%
%TF.SameCoordinates,Original*%
%TF.FileFunction,Copper,L2,Bot*%
%TF.FilePolarity,Positive*%
%FSLAX46Y46*%
G04 Gerber Fmt 4.6, Leading zero omitted, Abs format (unit mm)*
G04 Created by KiCad (PCBNEW 6.0.7) date 2023-06-08 16:58:43*
%MOMM*%
%LPD*%
G01*
G04 APERTURE LIST*
G04 Aperture macros list*
%AMRoundRect*
0 Rectangle with rounded corners*
0 $1 Rounding radius*
0 $2 $3 $4 $5 $6 $7 $8 $9 X,Y pos of 4 corners*
0 Add a 4 corners polygon primitive as box body*
4,1,4,$2,$3,$4,$5,$6,$7,$8,$9,$2,$3,0*
0 Add four circle primitives for the rounded corners*
1,1,$1+$1,$2,$3*
1,1,$1+$1,$4,$5*
1,1,$1+$1,$6,$7*
1,1,$1+$1,$8,$9*
0 Add four rect primitives between the rounded corners*
20,1,$1+$1,$2,$3,$4,$5,0*
20,1,$1+$1,$4,$5,$6,$7,0*
20,1,$1+$1,$6,$7,$8,$9,0*
20,1,$1+$1,$8,$9,$2,$3,0*%
G04 Aperture macros list end*
%TA.AperFunction,ComponentPad*%
%ADD10R,1.930000X1.830000*%
%TD*%
%TA.AperFunction,ComponentPad*%
%ADD11C,2.130000*%
%TD*%
%TA.AperFunction,ComponentPad*%
%ADD12C,1.600000*%
%TD*%
%TA.AperFunction,ComponentPad*%
%ADD13O,1.600000X1.600000*%
%TD*%
%TA.AperFunction,ComponentPad*%
%ADD14R,2.400000X1.600000*%
%TD*%
%TA.AperFunction,ComponentPad*%
%ADD15O,2.400000X1.600000*%
%TD*%
%TA.AperFunction,ComponentPad*%
%ADD16R,1.100000X1.800000*%
%TD*%
%TA.AperFunction,ComponentPad*%
%ADD17RoundRect,0.275000X-0.275000X-0.625000X0.275000X-0.625000X0.275000X0.625000X-0.275000X0.625000X0*%
%TD*%
%TA.AperFunction,ComponentPad*%
%ADD18C,1.440000*%
%TD*%
%TA.AperFunction,WasherPad*%
%ADD19C,4.000000*%
%TD*%
%TA.AperFunction,ComponentPad*%
%ADD20C,1.800000*%
%TD*%
%TA.AperFunction,ComponentPad*%
%ADD21R,1.500000X1.500000*%
%TD*%
%TA.AperFunction,ComponentPad*%
%ADD22O,1.500000X1.500000*%
%TD*%
%TA.AperFunction,ComponentPad*%
%ADD23RoundRect,0.250000X0.725000X-0.600000X0.725000X0.600000X-0.725000X0.600000X-0.725000X-0.600000X0*%
%TD*%
%TA.AperFunction,ComponentPad*%
%ADD24O,1.950000X1.700000*%
%TD*%
%TA.AperFunction,ViaPad*%
%ADD25C,0.800000*%
%TD*%
%TA.AperFunction,Conductor*%
%ADD26C,0.500000*%
%TD*%
%TA.AperFunction,Conductor*%
%ADD27C,0.250000*%
%TD*%
G04 APERTURE END LIST*
D10*
%TO.P,J1,S*%
%TO.N,GND*%
X100000000Y-111200000D03*
D11*
%TO.P,J1,T*%
%TO.N,Net-(D1-Pad2)*%
X100000000Y-122600000D03*
%TO.P,J1,TN*%
%TO.N,GND*%
X100000000Y-114300000D03*
%TD*%
D12*
%TO.P,C1,1*%
%TO.N,GND*%
X113600000Y-99000000D03*
%TO.P,C1,2*%
%TO.N,+5V*%
X108600000Y-99000000D03*
%TD*%
%TO.P,R3,1*%
%TO.N,Net-(R2-Pad2)*%
X108050000Y-121750000D03*
D13*
%TO.P,R3,2*%
%TO.N,Net-(R3-Pad2)*%
X115670000Y-121750000D03*
%TD*%
D14*
%TO.P,U1,1*%
%TO.N,Net-(R2-Pad2)*%
X96175000Y-99025000D03*
D15*
%TO.P,U1,2,-*%
%TO.N,Net-(R1-Pad2)*%
X96175000Y-101565000D03*
%TO.P,U1,3,+*%
%TO.N,+2.5V*%
X96175000Y-104105000D03*
%TO.P,U1,4,V-*%
%TO.N,GND*%
X96175000Y-106645000D03*
%TO.P,U1,5,+*%
%TO.N,Net-(RV1-Pad2)*%
X103795000Y-106645000D03*
%TO.P,U1,6,-*%
%TO.N,Net-(R3-Pad2)*%
X103795000Y-104105000D03*
%TO.P,U1,7*%
%TO.N,Net-(J2-Pad2)*%
X103795000Y-101565000D03*
%TO.P,U1,8,V+*%
%TO.N,+5V*%
X103795000Y-99025000D03*
%TD*%
D12*
%TO.P,R1,1*%
%TO.N,Net-(D1-Pad2)*%
X82600000Y-99000000D03*
D13*
%TO.P,R1,2*%
%TO.N,Net-(R1-Pad2)*%
X90220000Y-99000000D03*
%TD*%
D16*
%TO.P,U2,1,ADJ*%
%TO.N,Net-(R6-Pad2)*%
X108900000Y-64700000D03*
D17*
%TO.P,U2,2,VO*%
%TO.N,+2.5V*%
X110170000Y-62630000D03*
%TO.P,U2,3,VI*%
%TO.N,+5V*%
X111440000Y-64700000D03*
%TD*%
D12*
%TO.P,R5,1*%
%TO.N,Net-(R5-Pad1)*%
X90410000Y-88600000D03*
D13*
%TO.P,R5,2*%
%TO.N,GND*%
X82790000Y-88600000D03*
%TD*%
D18*
%TO.P,RV2,1,1*%
%TO.N,unconnected-(RV2-Pad1)*%
X114150000Y-115975000D03*
%TO.P,RV2,2,2*%
%TO.N,Net-(R4-Pad2)*%
X111610000Y-113435000D03*
%TO.P,RV2,3,3*%
%TO.N,Net-(J2-Pad2)*%
X109070000Y-115975000D03*
%TD*%
D12*
%TO.P,R6,1*%
%TO.N,+2.5V*%
X117810000Y-70000000D03*
D13*
%TO.P,R6,2*%
%TO.N,Net-(R6-Pad2)*%
X110190000Y-70000000D03*
%TD*%
D19*
%TO.P,RV1,*%
%TO.N,*%
X95250000Y-81625000D03*
X104750000Y-81625000D03*
D20*
%TO.P,RV1,1,1*%
%TO.N,+5V*%
X102500000Y-89125000D03*
%TO.P,RV1,2,2*%
%TO.N,Net-(RV1-Pad2)*%
X100000000Y-89125000D03*
%TO.P,RV1,3,3*%
%TO.N,Net-(R5-Pad1)*%
X97500000Y-89125000D03*
%TD*%
D12*
%TO.P,R4,1*%
%TO.N,Net-(R3-Pad2)*%
X108050000Y-125350000D03*
D13*
%TO.P,R4,2*%
%TO.N,Net-(R4-Pad2)*%
X115670000Y-125350000D03*
%TD*%
D21*
%TO.P,D2,1,K*%
%TO.N,Net-(D1-Pad2)*%
X90415000Y-120500000D03*
D22*
%TO.P,D2,2,A*%
%TO.N,GND*%
X82795000Y-120500000D03*
%TD*%
D21*
%TO.P,D1,1,K*%
%TO.N,+5V*%
X90400000Y-116900000D03*
D22*
%TO.P,D1,2,A*%
%TO.N,Net-(D1-Pad2)*%
X82780000Y-116900000D03*
%TD*%
D12*
%TO.P,R2,1*%
%TO.N,Net-(R1-Pad2)*%
X82600000Y-102600000D03*
D13*
%TO.P,R2,2*%
%TO.N,Net-(R2-Pad2)*%
X90220000Y-102600000D03*
%TD*%
D12*
%TO.P,R7,1*%
%TO.N,Net-(R6-Pad2)*%
X110190000Y-73800000D03*
D13*
%TO.P,R7,2*%
%TO.N,GND*%
X117810000Y-73800000D03*
%TD*%
D23*
%TO.P,J2,1,Pin_1*%
%TO.N,GND*%
X84700000Y-69300000D03*
D24*
%TO.P,J2,2,Pin_2*%
%TO.N,Net-(J2-Pad2)*%
X84700000Y-66800000D03*
%TO.P,J2,3,Pin_3*%
%TO.N,+5V*%
X84700000Y-64300000D03*
%TD*%
D25*
%TO.N,Net-(R2-Pad2)*%
X109390000Y-107000000D03*
%TO.N,Net-(J2-Pad2)*%
X110950000Y-111600000D03*
%TD*%
D26*
%TO.N,+5V*%
X113300000Y-111200000D02*
X113300000Y-103700000D01*
X102500000Y-89125000D02*
X112900000Y-78725000D01*
X108600000Y-95225000D02*
X102500000Y-89125000D01*
X113300000Y-103700000D02*
X108600000Y-99000000D01*
X90400000Y-116900000D02*
X91600000Y-116900000D01*
X110745305Y-61280000D02*
X87720000Y-61280000D01*
X111440000Y-64300000D02*
X111440000Y-61974695D01*
X91600000Y-116900000D02*
X95300000Y-120600000D01*
X112900000Y-65500000D02*
X111700000Y-64300000D01*
X103795000Y-99025000D02*
X108575000Y-99025000D01*
X111440000Y-61974695D02*
X110745305Y-61280000D01*
X108575000Y-99025000D02*
X108600000Y-99000000D01*
X81300000Y-67700000D02*
X81300000Y-107800000D01*
X87720000Y-61280000D02*
X84700000Y-64300000D01*
X84700000Y-64300000D02*
X81300000Y-67700000D01*
X111700000Y-64300000D02*
X111440000Y-64300000D01*
X108600000Y-99000000D02*
X108600000Y-95225000D01*
X81300000Y-107800000D02*
X90400000Y-116900000D01*
X95300000Y-120600000D02*
X103900000Y-120600000D01*
X112900000Y-78725000D02*
X112900000Y-65500000D01*
D27*
%TO.N,Net-(R1-Pad2)*%
X96175000Y-101565000D02*
X93340000Y-104400000D01*
X82600000Y-102600000D02*
X86620000Y-102600000D01*
X86620000Y-102600000D02*
X90220000Y-99000000D01*
X93340000Y-104400000D02*
X84400000Y-104400000D01*
X84400000Y-104400000D02*
X82600000Y-102600000D01*
%TO.N,Net-(R2-Pad2)*%
X93795000Y-99025000D02*
X90220000Y-102600000D01*
X96175000Y-99025000D02*
X93795000Y-99025000D01*
X105165699Y-102775699D02*
X99925699Y-102775699D01*
X109390000Y-107000000D02*
X105165699Y-102775699D01*
X99925699Y-102775699D02*
X96175000Y-99025000D01*
%TO.N,Net-(R3-Pad2)*%
X115700000Y-120450000D02*
X115670000Y-120480000D01*
X103795000Y-104105000D02*
X109390000Y-109700000D01*
X109390000Y-109700000D02*
X109390000Y-114140000D01*
X115670000Y-120480000D02*
X115670000Y-121750000D01*
X109390000Y-114140000D02*
X115700000Y-120450000D01*
%TO.N,Net-(R4-Pad2)*%
X113176427Y-113523573D02*
X113087854Y-113435000D01*
X117010000Y-117357146D02*
X113176427Y-113523573D01*
X115670000Y-125350000D02*
X117010000Y-124010000D01*
X117010000Y-124010000D02*
X117010000Y-117357146D01*
X113087854Y-113435000D02*
X111610000Y-113435000D01*
%TO.N,Net-(J2-Pad2)*%
X105765000Y-101565000D02*
X111150000Y-106950000D01*
X103795000Y-101565000D02*
X105765000Y-101565000D01*
X111150000Y-106950000D02*
X111150000Y-111400000D01*
X111150000Y-111400000D02*
X110950000Y-111600000D01*
%TD*%
%TA.AperFunction,Conductor*%
%TO.N,GND*%
G36*
X117755808Y-60510000D02*
G01*
X117770641Y-60512310D01*
X117770645Y-60512310D01*
X117779514Y-60513691D01*
X117794770Y-60511696D01*
X117820092Y-60510953D01*
X117953758Y-60520512D01*
X117989061Y-60523037D01*
X118006855Y-60525595D01*
X118197192Y-60566999D01*
X118214442Y-60572064D01*
X118396941Y-60640132D01*
X118413294Y-60647600D01*
X118487980Y-60688381D01*
X118584258Y-60740952D01*
X118599372Y-60750666D01*
X118693533Y-60821153D01*
X118755305Y-60867395D01*
X118768891Y-60879167D01*
X118906623Y-61016898D01*
X118918396Y-61030484D01*
X119035128Y-61186418D01*
X119044848Y-61201543D01*
X119138195Y-61372495D01*
X119145663Y-61388847D01*
X119213187Y-61569883D01*
X119213736Y-61571356D01*
X119218799Y-61588602D01*
X119249647Y-61730401D01*
X119260203Y-61778927D01*
X119262761Y-61796719D01*
X119274090Y-61955107D01*
X119274335Y-61958539D01*
X119273574Y-61976833D01*
X119273476Y-61984854D01*
X119272095Y-61993724D01*
X119273259Y-62002626D01*
X119273259Y-62002628D01*
X119276222Y-62025283D01*
X119277286Y-62041621D01*
X119277286Y-69482081D01*
X119257284Y-69550202D01*
X119203628Y-69596695D01*
X119133354Y-69606799D01*
X119068774Y-69577305D01*
X119037091Y-69535331D01*
X118949849Y-69348238D01*
X118949846Y-69348233D01*
X118947523Y-69343251D01*
X118816198Y-69155700D01*
X118654300Y-68993802D01*
X118649792Y-68990645D01*
X118649789Y-68990643D01*
X118571611Y-68935902D01*
X118466749Y-68862477D01*
X118461767Y-68860154D01*
X118461762Y-68860151D01*
X118264225Y-68768039D01*
X118264224Y-68768039D01*
X118259243Y-68765716D01*
X118253935Y-68764294D01*
X118253933Y-68764293D01*
X118043402Y-68707881D01*
X118043400Y-68707881D01*
X118038087Y-68706457D01*
X117810000Y-68686502D01*
X117581913Y-68706457D01*
X117576600Y-68707881D01*
X117576598Y-68707881D01*
X117366067Y-68764293D01*
X117366065Y-68764294D01*
X117360757Y-68765716D01*
X117355776Y-68768039D01*
X117355775Y-68768039D01*
X117158238Y-68860151D01*
X117158233Y-68860154D01*
X117153251Y-68862477D01*
X117048389Y-68935902D01*
X116970211Y-68990643D01*
X116970208Y-68990645D01*
X116965700Y-68993802D01*
X116803802Y-69155700D01*
X116672477Y-69343251D01*
X116670154Y-69348233D01*
X116670151Y-69348238D01*
X116607740Y-69482081D01*
X116575716Y-69550757D01*
X116574294Y-69556065D01*
X116574293Y-69556067D01*
X116571217Y-69567548D01*
X116516457Y-69771913D01*
X116496502Y-70000000D01*
X116516457Y-70228087D01*
X116517881Y-70233400D01*
X116517881Y-70233402D01*
X116565572Y-70411384D01*
X116575716Y-70449243D01*
X116578039Y-70454224D01*
X116578039Y-70454225D01*
X116670151Y-70651762D01*
X116670154Y-70651767D01*
X116672477Y-70656749D01*
X116803802Y-70844300D01*
X116965700Y-71006198D01*
X116970208Y-71009355D01*
X116970211Y-71009357D01*
X117048389Y-71064098D01*
X117153251Y-71137523D01*
X117158233Y-71139846D01*
X117158238Y-71139849D01*
X117355775Y-71231961D01*
X117360757Y-71234284D01*
X117366065Y-71235706D01*
X117366067Y-71235707D01*
X117576598Y-71292119D01*
X117576600Y-71292119D01*
X117581913Y-71293543D01*
X117810000Y-71313498D01*
X118038087Y-71293543D01*
X118043400Y-71292119D01*
X118043402Y-71292119D01*
X118253933Y-71235707D01*
X118253935Y-71235706D01*
X118259243Y-71234284D01*
X118264225Y-71231961D01*
X118461762Y-71139849D01*
X118461767Y-71139846D01*
X118466749Y-71137523D01*
X118571611Y-71064098D01*
X118649789Y-71009357D01*
X118649792Y-71009355D01*
X118654300Y-71006198D01*
X118816198Y-70844300D01*
X118947523Y-70656749D01*
X118949846Y-70651767D01*
X118949849Y-70651762D01*
X119037091Y-70464669D01*
X119084008Y-70411384D01*
X119152285Y-70391923D01*
X119220245Y-70412465D01*
X119266311Y-70466487D01*
X119277286Y-70517919D01*
X119277286Y-73283264D01*
X119257284Y-73351385D01*
X119203628Y-73397878D01*
X119133354Y-73407982D01*
X119068774Y-73378488D01*
X119037091Y-73336514D01*
X118949414Y-73148489D01*
X118943931Y-73138993D01*
X118818972Y-72960533D01*
X118811916Y-72952125D01*
X118657875Y-72798084D01*
X118649467Y-72791028D01*
X118471007Y-72666069D01*
X118461511Y-72660586D01*
X118264053Y-72568510D01*
X118253761Y-72564764D01*
X118081497Y-72518606D01*
X118067401Y-72518942D01*
X118064000Y-72526884D01*
X118064000Y-75067967D01*
X118067973Y-75081498D01*
X118076522Y-75082727D01*
X118253761Y-75035236D01*
X118264053Y-75031490D01*
X118461511Y-74939414D01*
X118471007Y-74933931D01*
X118649467Y-74808972D01*
X118657875Y-74801916D01*
X118811916Y-74647875D01*
X118818972Y-74639467D01*
X118943931Y-74461007D01*
X118949414Y-74451511D01*
X119037091Y-74263486D01*
X119084008Y-74210201D01*
X119152286Y-74190740D01*
X119220246Y-74211282D01*
X119266311Y-74265305D01*
X119277286Y-74316736D01*
X119277286Y-137936423D01*
X119275786Y-137955808D01*
X119273476Y-137970641D01*
X119273476Y-137970645D01*
X119272095Y-137979514D01*
X119274090Y-137994766D01*
X119274833Y-138020094D01*
X119262749Y-138189060D01*
X119260191Y-138206855D01*
X119218787Y-138397190D01*
X119213722Y-138414439D01*
X119145654Y-138596937D01*
X119138186Y-138613290D01*
X119044839Y-138784244D01*
X119035120Y-138799367D01*
X118918386Y-138955307D01*
X118906612Y-138968894D01*
X118768894Y-139106612D01*
X118755307Y-139118386D01*
X118599367Y-139235120D01*
X118584244Y-139244839D01*
X118413290Y-139338186D01*
X118396937Y-139345654D01*
X118214439Y-139413722D01*
X118197190Y-139418787D01*
X118006855Y-139460191D01*
X117989061Y-139462749D01*
X117827186Y-139474326D01*
X117809227Y-139473579D01*
X117800942Y-139473477D01*
X117792066Y-139472095D01*
X117783163Y-139473259D01*
X117783156Y-139473259D01*
X117760496Y-139476222D01*
X117744160Y-139477286D01*
X81849367Y-139477286D01*
X81829982Y-139475786D01*
X81815149Y-139473476D01*
X81815145Y-139473476D01*
X81806276Y-139472095D01*
X81791019Y-139474090D01*
X81765698Y-139474833D01*
X81596716Y-139462747D01*
X81578937Y-139460190D01*
X81388599Y-139418785D01*
X81371369Y-139413726D01*
X81188839Y-139345645D01*
X81172502Y-139338183D01*
X81001552Y-139244837D01*
X80986428Y-139235118D01*
X80877635Y-139153676D01*
X80830496Y-139118388D01*
X80816910Y-139106616D01*
X80679178Y-138968883D01*
X80667405Y-138955296D01*
X80550680Y-138799367D01*
X80540961Y-138784244D01*
X80447612Y-138613288D01*
X80440144Y-138596935D01*
X80372077Y-138414436D01*
X80367012Y-138397187D01*
X80325609Y-138206856D01*
X80323051Y-138189061D01*
X80311470Y-138027129D01*
X80312206Y-138009450D01*
X80312310Y-138000935D01*
X80313691Y-137992066D01*
X80312527Y-137983163D01*
X80312527Y-137983158D01*
X80309564Y-137960496D01*
X80308500Y-137944160D01*
X80308500Y-135096485D01*
X97336854Y-135096485D01*
X97337156Y-135100320D01*
X97355108Y-135328417D01*
X97362370Y-135420695D01*
X97427206Y-135739378D01*
X97530398Y-136047784D01*
X97670405Y-136341316D01*
X97845141Y-136615597D01*
X97847584Y-136618560D01*
X97847585Y-136618562D01*
X97997308Y-136800190D01*
X98052001Y-136866538D01*
X98287902Y-137090399D01*
X98549326Y-137283843D01*
X98690851Y-137363914D01*
X98829019Y-137442086D01*
X98829023Y-137442088D01*
X98832376Y-137443985D01*
X99132832Y-137568438D01*
X99236288Y-137597129D01*
X99442500Y-137654317D01*
X99442508Y-137654319D01*
X99446216Y-137655347D01*
X99767856Y-137703416D01*
X99771154Y-137703560D01*
X99882918Y-137708440D01*
X99882922Y-137708440D01*
X99884294Y-137708500D01*
X100082598Y-137708500D01*
X100324605Y-137693698D01*
X100328388Y-137692997D01*
X100328395Y-137692996D01*
X100528459Y-137655916D01*
X100644372Y-137634433D01*
X100853682Y-137568438D01*
X100950860Y-137537798D01*
X100950863Y-137537797D01*
X100954532Y-137536640D01*
X100958029Y-137535046D01*
X100958035Y-137535044D01*
X101246954Y-137403376D01*
X101246958Y-137403374D01*
X101250462Y-137401777D01*
X101527751Y-137231854D01*
X101530755Y-137229464D01*
X101530760Y-137229461D01*
X101655008Y-137130629D01*
X101782264Y-137029405D01*
X101784958Y-137026664D01*
X101784962Y-137026660D01*
X102007513Y-136800190D01*
X102007517Y-136800185D01*
X102010208Y-136797447D01*
X102208185Y-136539439D01*
X102373242Y-136259227D01*
X102502920Y-135960988D01*
X102595285Y-135649169D01*
X102648961Y-135328417D01*
X102663146Y-135003515D01*
X102650388Y-134841410D01*
X102637932Y-134683140D01*
X102637932Y-134683137D01*
X102637630Y-134679305D01*
X102572794Y-134360622D01*
X102469602Y-134052216D01*
X102329595Y-133758684D01*
X102154859Y-133484403D01*
X102007470Y-133305606D01*
X101950442Y-133236425D01*
X101950438Y-133236420D01*
X101947999Y-133233462D01*
X101712098Y-133009601D01*
X101450674Y-132816157D01*
X101245781Y-132700234D01*
X101170981Y-132657914D01*
X101170977Y-132657912D01*
X101167624Y-132656015D01*
X100867168Y-132531562D01*
X100763712Y-132502871D01*
X100557500Y-132445683D01*
X100557492Y-132445681D01*
X100553784Y-132444653D01*
X100232144Y-132396584D01*
X100228846Y-132396440D01*
X100117082Y-132391560D01*
X100117078Y-132391560D01*
X100115706Y-132391500D01*
X99917402Y-132391500D01*
X99675395Y-132406302D01*
X99671612Y-132407003D01*
X99671605Y-132407004D01*
X99515511Y-132435935D01*
X99355628Y-132465567D01*
X99171058Y-132523762D01*
X99049140Y-132562202D01*
X99049137Y-132562203D01*
X99045468Y-132563360D01*
X99041971Y-132564954D01*
X99041965Y-132564956D01*
X98753046Y-132696624D01*
X98753042Y-132696626D01*
X98749538Y-132698223D01*
X98472249Y-132868146D01*
X98469245Y-132870536D01*
X98469240Y-132870539D01*
X98344993Y-132969370D01*
X98217736Y-133070595D01*
X98215042Y-133073336D01*
X98215038Y-133073340D01*
X97992487Y-133299810D01*
X97992483Y-133299815D01*
X97989792Y-133302553D01*
X97791815Y-133560561D01*
X97626758Y-133840773D01*
X97497080Y-134139012D01*
X97404715Y-134450831D01*
X97351039Y-134771583D01*
X97336854Y-135096485D01*
X80308500Y-135096485D01*
X80308500Y-125350000D01*
X106736502Y-125350000D01*
X106756457Y-125578087D01*
X106815716Y-125799243D01*
X106818039Y-125804224D01*
X106818039Y-125804225D01*
X106910151Y-126001762D01*
X106910154Y-126001767D01*
X106912477Y-126006749D01*
X107043802Y-126194300D01*
X107205700Y-126356198D01*
X107210208Y-126359355D01*
X107210211Y-126359357D01*
X107288389Y-126414098D01*
X107393251Y-126487523D01*
X107398233Y-126489846D01*
X107398238Y-126489849D01*
X107595775Y-126581961D01*
X107600757Y-126584284D01*
X107606065Y-126585706D01*
X107606067Y-126585707D01*
X107816598Y-126642119D01*
X107816600Y-126642119D01*
X107821913Y-126643543D01*
X108050000Y-126663498D01*
X108278087Y-126643543D01*
X108283400Y-126642119D01*
X108283402Y-126642119D01*
X108493933Y-126585707D01*
X108493935Y-126585706D01*
X108499243Y-126584284D01*
X108504225Y-126581961D01*
X108701762Y-126489849D01*
X108701767Y-126489846D01*
X108706749Y-126487523D01*
X108811611Y-126414098D01*
X108889789Y-126359357D01*
X108889792Y-126359355D01*
X108894300Y-126356198D01*
X109056198Y-126194300D01*
X109187523Y-126006749D01*
X109189846Y-126001767D01*
X109189849Y-126001762D01*
X109281961Y-125804225D01*
X109281961Y-125804224D01*
X109284284Y-125799243D01*
X109343543Y-125578087D01*
X109363498Y-125350000D01*
X109343543Y-125121913D01*
X109342117Y-125116591D01*
X109285707Y-124906067D01*
X109285706Y-124906065D01*
X109284284Y-124900757D01*
X109281961Y-124895775D01*
X109189849Y-124698238D01*
X109189846Y-124698233D01*
X109187523Y-124693251D01*
X109056198Y-124505700D01*
X108894300Y-124343802D01*
X108889792Y-124340645D01*
X108889789Y-124340643D01*
X108808627Y-124283813D01*
X108706749Y-124212477D01*
X108701767Y-124210154D01*
X108701762Y-124210151D01*
X108504225Y-124118039D01*
X108504224Y-124118039D01*
X108499243Y-124115716D01*
X108493935Y-124114294D01*
X108493933Y-124114293D01*
X108283402Y-124057881D01*
X108283400Y-124057881D01*
X108278087Y-124056457D01*
X108050000Y-124036502D01*
X107821913Y-124056457D01*
X107816600Y-124057881D01*
X107816598Y-124057881D01*
X107606067Y-124114293D01*
X107606065Y-124114294D01*
X107600757Y-124115716D01*
X107595776Y-124118039D01*
X107595775Y-124118039D01*
X107398238Y-124210151D01*
X107398233Y-124210154D01*
X107393251Y-124212477D01*
X107291373Y-124283813D01*
X107210211Y-124340643D01*
X107210208Y-124340645D01*
X107205700Y-124343802D01*
X107043802Y-124505700D01*
X106912477Y-124693251D01*
X106910154Y-124698233D01*
X106910151Y-124698238D01*
X106818039Y-124895775D01*
X106815716Y-124900757D01*
X106814294Y-124906065D01*
X106814293Y-124906067D01*
X106757883Y-125116591D01*
X106756457Y-125121913D01*
X106736502Y-125350000D01*
X80308500Y-125350000D01*
X80308500Y-120766522D01*
X81564037Y-120766522D01*
X81606928Y-120926595D01*
X81610674Y-120936887D01*
X81699056Y-121126421D01*
X81704534Y-121135907D01*
X81824476Y-121307203D01*
X81831530Y-121315610D01*
X81979388Y-121463468D01*
X81987796Y-121470524D01*
X82159088Y-121590464D01*
X82168584Y-121595947D01*
X82358113Y-121684326D01*
X82368405Y-121688072D01*
X82523503Y-121729630D01*
X82537599Y-121729294D01*
X82541000Y-121721352D01*
X82541000Y-121716203D01*
X83049000Y-121716203D01*
X83052973Y-121729734D01*
X83061522Y-121730963D01*
X83221595Y-121688072D01*
X83231887Y-121684326D01*
X83421416Y-121595947D01*
X83430912Y-121590464D01*
X83602204Y-121470524D01*
X83610612Y-121463468D01*
X83758470Y-121315610D01*
X83765524Y-121307203D01*
X83771874Y-121298134D01*
X89156500Y-121298134D01*
X89163255Y-121360316D01*
X89214385Y-121496705D01*
X89301739Y-121613261D01*
X89418295Y-121700615D01*
X89554684Y-121751745D01*
X89616866Y-121758500D01*
X91213134Y-121758500D01*
X91275316Y-121751745D01*
X91411705Y-121700615D01*
X91528261Y-121613261D01*
X91615615Y-121496705D01*
X91666745Y-121360316D01*
X91673500Y-121298134D01*
X91673500Y-119701866D01*
X91666745Y-119639684D01*
X91615615Y-119503295D01*
X91528261Y-119386739D01*
X91411705Y-119299385D01*
X91275316Y-119248255D01*
X91213134Y-119241500D01*
X89616866Y-119241500D01*
X89554684Y-119248255D01*
X89418295Y-119299385D01*
X89301739Y-119386739D01*
X89214385Y-119503295D01*
X89163255Y-119639684D01*
X89156500Y-119701866D01*
X89156500Y-121298134D01*
X83771874Y-121298134D01*
X83885466Y-121135907D01*
X83890944Y-121126421D01*
X83979326Y-120936887D01*
X83983072Y-120926595D01*
X84024630Y-120771497D01*
X84024294Y-120757401D01*
X84016352Y-120754000D01*
X83067115Y-120754000D01*
X83051876Y-120758475D01*
X83050671Y-120759865D01*
X83049000Y-120767548D01*
X83049000Y-121716203D01*
X82541000Y-121716203D01*
X82541000Y-120772115D01*
X82536525Y-120756876D01*
X82535135Y-120755671D01*
X82527452Y-120754000D01*
X81578797Y-120754000D01*
X81565266Y-120757973D01*
X81564037Y-120766522D01*
X80308500Y-120766522D01*
X80308500Y-120228503D01*
X81565370Y-120228503D01*
X81565706Y-120242599D01*
X81573648Y-120246000D01*
X82522885Y-120246000D01*
X82538124Y-120241525D01*
X82539329Y-120240135D01*
X82541000Y-120232452D01*
X82541000Y-120227885D01*
X83049000Y-120227885D01*
X83053475Y-120243124D01*
X83054865Y-120244329D01*
X83062548Y-120246000D01*
X84011203Y-120246000D01*
X84024734Y-120242027D01*
X84025963Y-120233478D01*
X83983072Y-120073405D01*
X83979326Y-120063113D01*
X83890944Y-119873579D01*
X83885466Y-119864093D01*
X83765524Y-119692797D01*
X83758470Y-119684390D01*
X83610612Y-119536532D01*
X83602204Y-119529476D01*
X83430912Y-119409536D01*
X83421416Y-119404053D01*
X83231887Y-119315674D01*
X83221595Y-119311928D01*
X83066497Y-119270370D01*
X83052401Y-119270706D01*
X83049000Y-119278648D01*
X83049000Y-120227885D01*
X82541000Y-120227885D01*
X82541000Y-119283797D01*
X82537027Y-119270266D01*
X82528478Y-119269037D01*
X82368405Y-119311928D01*
X82358113Y-119315674D01*
X82168579Y-119404056D01*
X82159093Y-119409534D01*
X81987797Y-119529476D01*
X81979390Y-119536530D01*
X81831530Y-119684390D01*
X81824476Y-119692797D01*
X81704534Y-119864093D01*
X81699056Y-119873579D01*
X81610674Y-120063113D01*
X81606928Y-120073405D01*
X81565370Y-120228503D01*
X80308500Y-120228503D01*
X80308500Y-116900000D01*
X81516693Y-116900000D01*
X81535885Y-117119371D01*
X81592880Y-117332076D01*
X81628895Y-117409310D01*
X81683618Y-117526666D01*
X81683621Y-117526671D01*
X81685944Y-117531653D01*
X81689100Y-117536160D01*
X81689101Y-117536162D01*
X81800123Y-117694717D01*
X81812251Y-117712038D01*
X81967962Y-117867749D01*
X82148346Y-117994056D01*
X82347924Y-118087120D01*
X82560629Y-118144115D01*
X82780000Y-118163307D01*
X82999371Y-118144115D01*
X83212076Y-118087120D01*
X83411654Y-117994056D01*
X83592038Y-117867749D01*
X83747749Y-117712038D01*
X83759878Y-117694717D01*
X83870899Y-117536162D01*
X83870900Y-117536160D01*
X83874056Y-117531653D01*
X83876379Y-117526671D01*
X83876382Y-117526666D01*
X83931105Y-117409310D01*
X83967120Y-117332076D01*
X84024115Y-117119371D01*
X84043307Y-116900000D01*
X84024115Y-116680629D01*
X83967120Y-116467924D01*
X83923528Y-116374440D01*
X83876382Y-116273334D01*
X83876379Y-116273329D01*
X83874056Y-116268347D01*
X83867215Y-116258577D01*
X83750908Y-116092473D01*
X83750906Y-116092470D01*
X83747749Y-116087962D01*
X83592038Y-115932251D01*
X83411654Y-115805944D01*
X83212076Y-115712880D01*
X82999371Y-115655885D01*
X82780000Y-115636693D01*
X82560629Y-115655885D01*
X82347924Y-115712880D01*
X82256433Y-115755543D01*
X82153334Y-115803618D01*
X82153329Y-115803621D01*
X82148347Y-115805944D01*
X82143840Y-115809100D01*
X82143838Y-115809101D01*
X81972473Y-115929092D01*
X81972470Y-115929094D01*
X81967962Y-115932251D01*
X81812251Y-116087962D01*
X81809094Y-116092470D01*
X81809092Y-116092473D01*
X81692785Y-116258577D01*
X81685944Y-116268347D01*
X81683621Y-116273329D01*
X81683618Y-116273334D01*
X81636472Y-116374440D01*
X81592880Y-116467924D01*
X81535885Y-116680629D01*
X81516693Y-116900000D01*
X80308500Y-116900000D01*
X80308500Y-108002263D01*
X80328502Y-107934142D01*
X80382158Y-107887649D01*
X80452432Y-107877545D01*
X80517012Y-107907039D01*
X80556399Y-107972085D01*
X80556818Y-107975681D01*
X80581735Y-108044327D01*
X80583152Y-108048455D01*
X80605649Y-108117899D01*
X80609445Y-108124154D01*
X80611951Y-108129628D01*
X80614670Y-108135058D01*
X80617167Y-108141937D01*
X80621180Y-108148057D01*
X80621180Y-108148058D01*
X80657186Y-108202976D01*
X80659523Y-108206680D01*
X80697405Y-108269107D01*
X80701121Y-108273315D01*
X80701122Y-108273316D01*
X80704803Y-108277484D01*
X80704776Y-108277508D01*
X80707429Y-108280500D01*
X80710132Y-108283733D01*
X80714144Y-108289852D01*
X80719456Y-108294884D01*
X80770383Y-108343128D01*
X80772825Y-108345506D01*
X89104595Y-116677276D01*
X89138621Y-116739588D01*
X89141500Y-116766371D01*
X89141500Y-117698134D01*
X89148255Y-117760316D01*
X89199385Y-117896705D01*
X89286739Y-118013261D01*
X89403295Y-118100615D01*
X89539684Y-118151745D01*
X89601866Y-118158500D01*
X91198134Y-118158500D01*
X91260316Y-118151745D01*
X91396705Y-118100615D01*
X91498623Y-118024232D01*
X91565128Y-117999384D01*
X91634511Y-118014437D01*
X91663282Y-118035963D01*
X94716230Y-121088911D01*
X94728616Y-121103323D01*
X94737149Y-121114918D01*
X94737154Y-121114923D01*
X94741492Y-121120818D01*
X94747070Y-121125557D01*
X94747073Y-121125560D01*
X94781768Y-121155035D01*
X94789284Y-121161965D01*
X94794979Y-121167660D01*
X94797861Y-121169940D01*
X94817251Y-121185281D01*
X94820655Y-121188072D01*
X94870703Y-121230591D01*
X94876285Y-121235333D01*
X94882801Y-121238661D01*
X94887850Y-121242028D01*
X94892979Y-121245195D01*
X94898716Y-121249734D01*
X94964875Y-121280655D01*
X94968769Y-121282558D01*
X95033808Y-121315769D01*
X95040916Y-121317508D01*
X95046559Y-121319607D01*
X95052322Y-121321524D01*
X95058950Y-121324622D01*
X95066112Y-121326112D01*
X95066113Y-121326112D01*
X95130412Y-121339486D01*
X95134696Y-121340456D01*
X95205610Y-121357808D01*
X95211212Y-121358156D01*
X95211215Y-121358156D01*
X95216764Y-121358500D01*
X95216762Y-121358536D01*
X95220755Y-121358775D01*
X95224947Y-121359149D01*
X95232115Y-121360640D01*
X95309520Y-121358546D01*
X95312928Y-121358500D01*
X98717736Y-121358500D01*
X98785857Y-121378502D01*
X98832350Y-121432158D01*
X98842454Y-121502432D01*
X98813547Y-121566330D01*
X98726290Y-121668494D01*
X98726282Y-121668506D01*
X98723075Y-121672260D01*
X98593666Y-121883437D01*
X98591773Y-121888007D01*
X98591771Y-121888011D01*
X98552259Y-121983402D01*
X98498885Y-122112258D01*
X98497730Y-122117070D01*
X98442221Y-122348276D01*
X98442220Y-122348282D01*
X98441066Y-122353089D01*
X98421634Y-122600000D01*
X98441066Y-122846911D01*
X98442220Y-122851718D01*
X98442221Y-122851724D01*
X98462754Y-122937248D01*
X98498885Y-123087742D01*
X98593666Y-123316563D01*
X98723075Y-123527740D01*
X98883927Y-123716073D01*
X99072260Y-123876925D01*
X99283437Y-124006334D01*
X99288007Y-124008227D01*
X99288011Y-124008229D01*
X99504040Y-124097711D01*
X99512258Y-124101115D01*
X99567148Y-124114293D01*
X99748276Y-124157779D01*
X99748282Y-124157780D01*
X99753089Y-124158934D01*
X100000000Y-124178366D01*
X100246911Y-124158934D01*
X100251718Y-124157780D01*
X100251724Y-124157779D01*
X100432852Y-124114293D01*
X100487742Y-124101115D01*
X100495960Y-124097711D01*
X100711989Y-124008229D01*
X100711993Y-124008227D01*
X100716563Y-124006334D01*
X100927740Y-123876925D01*
X101116073Y-123716073D01*
X101276925Y-123527740D01*
X101406334Y-123316563D01*
X101501115Y-123087742D01*
X101537246Y-122937248D01*
X101557779Y-122851724D01*
X101557780Y-122851718D01*
X101558934Y-122846911D01*
X101578366Y-122600000D01*
X101558934Y-122353089D01*
X101557780Y-122348282D01*
X101557779Y-122348276D01*
X101502270Y-122117070D01*
X101501115Y-122112258D01*
X101447741Y-121983402D01*
X101408229Y-121888011D01*
X101408227Y-121888007D01*
X101406334Y-121883437D01*
X101324564Y-121750000D01*
X106736502Y-121750000D01*
X106756457Y-121978087D01*
X106757881Y-121983400D01*
X106757881Y-121983402D01*
X106793698Y-122117070D01*
X106815716Y-122199243D01*
X106818039Y-122204224D01*
X106818039Y-122204225D01*
X106910151Y-122401762D01*
X106910154Y-122401767D01*
X106912477Y-122406749D01*
X107043802Y-122594300D01*
X107205700Y-122756198D01*
X107210208Y-122759355D01*
X107210211Y-122759357D01*
X107288389Y-122814098D01*
X107393251Y-122887523D01*
X107398233Y-122889846D01*
X107398238Y-122889849D01*
X107595775Y-122981961D01*
X107600757Y-122984284D01*
X107606065Y-122985706D01*
X107606067Y-122985707D01*
X107816598Y-123042119D01*
X107816600Y-123042119D01*
X107821913Y-123043543D01*
X108050000Y-123063498D01*
X108278087Y-123043543D01*
X108283400Y-123042119D01*
X108283402Y-123042119D01*
X108493933Y-122985707D01*
X108493935Y-122985706D01*
X108499243Y-122984284D01*
X108504225Y-122981961D01*
X108701762Y-122889849D01*
X108701767Y-122889846D01*
X108706749Y-122887523D01*
X108811611Y-122814098D01*
X108889789Y-122759357D01*
X108889792Y-122759355D01*
X108894300Y-122756198D01*
X109056198Y-122594300D01*
X109187523Y-122406749D01*
X109189846Y-122401767D01*
X109189849Y-122401762D01*
X109281961Y-122204225D01*
X109281961Y-122204224D01*
X109284284Y-122199243D01*
X109306303Y-122117070D01*
X109342119Y-121983402D01*
X109342119Y-121983400D01*
X109343543Y-121978087D01*
X109363498Y-121750000D01*
X109343543Y-121521913D01*
X109338084Y-121501541D01*
X109285707Y-121306067D01*
X109285706Y-121306065D01*
X109284284Y-121300757D01*
X109260492Y-121249734D01*
X109189849Y-121098238D01*
X109189846Y-121098233D01*
X109187523Y-121093251D01*
X109114098Y-120988389D01*
X109059357Y-120910211D01*
X109059355Y-120910208D01*
X109056198Y-120905700D01*
X108894300Y-120743802D01*
X108889792Y-120740645D01*
X108889789Y-120740643D01*
X108772688Y-120658648D01*
X108706749Y-120612477D01*
X108701767Y-120610154D01*
X108701762Y-120610151D01*
X108504225Y-120518039D01*
X108504224Y-120518039D01*
X108499243Y-120515716D01*
X108493935Y-120514294D01*
X108493933Y-120514293D01*
X108283402Y-120457881D01*
X108283400Y-120457881D01*
X108278087Y-120456457D01*
X108050000Y-120436502D01*
X107821913Y-120456457D01*
X107816600Y-120457881D01*
X107816598Y-120457881D01*
X107606067Y-120514293D01*
X107606065Y-120514294D01*
X107600757Y-120515716D01*
X107595776Y-120518039D01*
X107595775Y-120518039D01*
X107398238Y-120610151D01*
X107398233Y-120610154D01*
X107393251Y-120612477D01*
X107327312Y-120658648D01*
X107210211Y-120740643D01*
X107210208Y-120740645D01*
X107205700Y-120743802D01*
X107043802Y-120905700D01*
X107040645Y-120910208D01*
X107040643Y-120910211D01*
X106985902Y-120988389D01*
X106912477Y-121093251D01*
X106910154Y-121098233D01*
X106910151Y-121098238D01*
X106839508Y-121249734D01*
X106815716Y-121300757D01*
X106814294Y-121306065D01*
X106814293Y-121306067D01*
X106761916Y-121501541D01*
X106756457Y-121521913D01*
X106736502Y-121750000D01*
X101324564Y-121750000D01*
X101276925Y-121672260D01*
X101273718Y-121668506D01*
X101273710Y-121668494D01*
X101186453Y-121566330D01*
X101157422Y-121501541D01*
X101168027Y-121431341D01*
X101214902Y-121378018D01*
X101282264Y-121358500D01*
X103944293Y-121358500D01*
X104014036Y-121350369D01*
X104068411Y-121344030D01*
X104068415Y-121344029D01*
X104075681Y-121343182D01*
X104082556Y-121340687D01*
X104082558Y-121340686D01*
X104235061Y-121285329D01*
X104235062Y-121285329D01*
X104241937Y-121282833D01*
X104248054Y-121278822D01*
X104248057Y-121278821D01*
X104383733Y-121189868D01*
X104383734Y-121189867D01*
X104389852Y-121185856D01*
X104511490Y-121057453D01*
X104600326Y-120904510D01*
X104651595Y-120735233D01*
X104662547Y-120558702D01*
X104656846Y-120525521D01*
X104633834Y-120391602D01*
X104633834Y-120391601D01*
X104632594Y-120384386D01*
X104563343Y-120221636D01*
X104559010Y-120215748D01*
X104559007Y-120215743D01*
X104462846Y-120085077D01*
X104458508Y-120079182D01*
X104452930Y-120074443D01*
X104452927Y-120074440D01*
X104329294Y-119969406D01*
X104329290Y-119969403D01*
X104323715Y-119964667D01*
X104241755Y-119922816D01*
X104172708Y-119887558D01*
X104172706Y-119887557D01*
X104166192Y-119884231D01*
X104159087Y-119882492D01*
X104159083Y-119882491D01*
X104076762Y-119862348D01*
X103994390Y-119842192D01*
X103988788Y-119841844D01*
X103988785Y-119841844D01*
X103985175Y-119841620D01*
X103985165Y-119841620D01*
X103983236Y-119841500D01*
X95666371Y-119841500D01*
X95598250Y-119821498D01*
X95577276Y-119804595D01*
X92183770Y-116411089D01*
X92171384Y-116396677D01*
X92162851Y-116385082D01*
X92162846Y-116385077D01*
X92158508Y-116379182D01*
X92152930Y-116374443D01*
X92152927Y-116374440D01*
X92118232Y-116344965D01*
X92110716Y-116338035D01*
X92105021Y-116332340D01*
X92098880Y-116327482D01*
X92082749Y-116314719D01*
X92079345Y-116311928D01*
X92029297Y-116269409D01*
X92029295Y-116269408D01*
X92023715Y-116264667D01*
X92017199Y-116261339D01*
X92012150Y-116257972D01*
X92007021Y-116254805D01*
X92001284Y-116250266D01*
X91935125Y-116219345D01*
X91931225Y-116217439D01*
X91866192Y-116184231D01*
X91859084Y-116182492D01*
X91853441Y-116180393D01*
X91847678Y-116178476D01*
X91841050Y-116175378D01*
X91769583Y-116160513D01*
X91765321Y-116159548D01*
X91747799Y-116155261D01*
X91686385Y-116119643D01*
X91653977Y-116056475D01*
X91652714Y-116048025D01*
X91652598Y-116047538D01*
X91651745Y-116039684D01*
X91600615Y-115903295D01*
X91513261Y-115786739D01*
X91396705Y-115699385D01*
X91260316Y-115648255D01*
X91198134Y-115641500D01*
X90266371Y-115641500D01*
X90198250Y-115621498D01*
X90177276Y-115604595D01*
X90152619Y-115579938D01*
X99084892Y-115579938D01*
X99090619Y-115587588D01*
X99279445Y-115703301D01*
X99288239Y-115707782D01*
X99507840Y-115798744D01*
X99517225Y-115801793D01*
X99748355Y-115857283D01*
X99758102Y-115858826D01*
X99995070Y-115877476D01*
X100004930Y-115877476D01*
X100241898Y-115858826D01*
X100251645Y-115857283D01*
X100482775Y-115801793D01*
X100492160Y-115798744D01*
X100711761Y-115707782D01*
X100720555Y-115703301D01*
X100905715Y-115589835D01*
X100915175Y-115579379D01*
X100911391Y-115570601D01*
X100012812Y-114672022D01*
X99998868Y-114664408D01*
X99997035Y-114664539D01*
X99990420Y-114668790D01*
X99091652Y-115567558D01*
X99084892Y-115579938D01*
X90152619Y-115579938D01*
X88877611Y-114304930D01*
X98422524Y-114304930D01*
X98441174Y-114541898D01*
X98442717Y-114551645D01*
X98498207Y-114782775D01*
X98501256Y-114792160D01*
X98592218Y-115011761D01*
X98596699Y-115020555D01*
X98710165Y-115205715D01*
X98720621Y-115215175D01*
X98729399Y-115211391D01*
X99627978Y-114312812D01*
X99634356Y-114301132D01*
X100364408Y-114301132D01*
X100364539Y-114302965D01*
X100368790Y-114309580D01*
X101267558Y-115208348D01*
X101279938Y-115215108D01*
X101287588Y-115209381D01*
X101403301Y-115020555D01*
X101407782Y-115011761D01*
X101498744Y-114792160D01*
X101501793Y-114782775D01*
X101557283Y-114551645D01*
X101558826Y-114541898D01*
X101577476Y-114304930D01*
X101577476Y-114295070D01*
X101558826Y-114058102D01*
X101557283Y-114048355D01*
X101501793Y-113817225D01*
X101498744Y-113807840D01*
X101407782Y-113588239D01*
X101403301Y-113579445D01*
X101289835Y-113394285D01*
X101279379Y-113384825D01*
X101270601Y-113388609D01*
X100372022Y-114287188D01*
X100364408Y-114301132D01*
X99634356Y-114301132D01*
X99635592Y-114298868D01*
X99635461Y-114297035D01*
X99631210Y-114290420D01*
X98732442Y-113391652D01*
X98720062Y-113384892D01*
X98712412Y-113390619D01*
X98596699Y-113579445D01*
X98592218Y-113588239D01*
X98501256Y-113807840D01*
X98498207Y-113817225D01*
X98442717Y-114048355D01*
X98441174Y-114058102D01*
X98422524Y-114295070D01*
X98422524Y-114304930D01*
X88877611Y-114304930D01*
X86732350Y-112159669D01*
X98527001Y-112159669D01*
X98527371Y-112166490D01*
X98532895Y-112217352D01*
X98536521Y-112232604D01*
X98581676Y-112353054D01*
X98590214Y-112368649D01*
X98666715Y-112470724D01*
X98679276Y-112483285D01*
X98781351Y-112559786D01*
X98796946Y-112568324D01*
X98917394Y-112613478D01*
X98932649Y-112617105D01*
X98983514Y-112622631D01*
X98990328Y-112623000D01*
X99304745Y-112623000D01*
X99372866Y-112643002D01*
X99419359Y-112696658D01*
X99429463Y-112766932D01*
X99399969Y-112831512D01*
X99352963Y-112865409D01*
X99288239Y-112892218D01*
X99279445Y-112896699D01*
X99094285Y-113010165D01*
X99084825Y-113020621D01*
X99088609Y-113029399D01*
X99987188Y-113927978D01*
X100001132Y-113935592D01*
X100002965Y-113935461D01*
X100009580Y-113931210D01*
X100908348Y-113032442D01*
X100915108Y-113020062D01*
X100909381Y-113012412D01*
X100720555Y-112896699D01*
X100711765Y-112892220D01*
X100647035Y-112865408D01*
X100591755Y-112820859D01*
X100569334Y-112753496D01*
X100586893Y-112684704D01*
X100638855Y-112636326D01*
X100695254Y-112622999D01*
X101009669Y-112622999D01*
X101016490Y-112622629D01*
X101067352Y-112617105D01*
X101082604Y-112613479D01*
X101203054Y-112568324D01*
X101218649Y-112559786D01*
X101320724Y-112483285D01*
X101333285Y-112470724D01*
X101409786Y-112368649D01*
X101418324Y-112353054D01*
X101463478Y-112232606D01*
X101467105Y-112217351D01*
X101472631Y-112166486D01*
X101473000Y-112159672D01*
X101473000Y-111472115D01*
X101468525Y-111456876D01*
X101467135Y-111455671D01*
X101459452Y-111454000D01*
X98545116Y-111454000D01*
X98529877Y-111458475D01*
X98528672Y-111459865D01*
X98527001Y-111467548D01*
X98527001Y-112159669D01*
X86732350Y-112159669D01*
X85500566Y-110927885D01*
X98527000Y-110927885D01*
X98531475Y-110943124D01*
X98532865Y-110944329D01*
X98540548Y-110946000D01*
X99727885Y-110946000D01*
X99743124Y-110941525D01*
X99744329Y-110940135D01*
X99746000Y-110932452D01*
X99746000Y-110927885D01*
X100254000Y-110927885D01*
X100258475Y-110943124D01*
X100259865Y-110944329D01*
X100267548Y-110946000D01*
X101454884Y-110946000D01*
X101470123Y-110941525D01*
X101471328Y-110940135D01*
X101472999Y-110932452D01*
X101472999Y-110240331D01*
X101472629Y-110233510D01*
X101467105Y-110182648D01*
X101463479Y-110167396D01*
X101418324Y-110046946D01*
X101409786Y-110031351D01*
X101333285Y-109929276D01*
X101320724Y-109916715D01*
X101218649Y-109840214D01*
X101203054Y-109831676D01*
X101082606Y-109786522D01*
X101067351Y-109782895D01*
X101016486Y-109777369D01*
X101009672Y-109777000D01*
X100272115Y-109777000D01*
X100256876Y-109781475D01*
X100255671Y-109782865D01*
X100254000Y-109790548D01*
X100254000Y-110927885D01*
X99746000Y-110927885D01*
X99746000Y-109795116D01*
X99741525Y-109779877D01*
X99740135Y-109778672D01*
X99732452Y-109777001D01*
X98990331Y-109777001D01*
X98983510Y-109777371D01*
X98932648Y-109782895D01*
X98917396Y-109786521D01*
X98796946Y-109831676D01*
X98781351Y-109840214D01*
X98679276Y-109916715D01*
X98666715Y-109929276D01*
X98590214Y-110031351D01*
X98581676Y-110046946D01*
X98536522Y-110167394D01*
X98532895Y-110182649D01*
X98527369Y-110233514D01*
X98527000Y-110240328D01*
X98527000Y-110927885D01*
X85500566Y-110927885D01*
X82095405Y-107522724D01*
X82061379Y-107460412D01*
X82058500Y-107433629D01*
X82058500Y-106911522D01*
X94492273Y-106911522D01*
X94539764Y-107088761D01*
X94543510Y-107099053D01*
X94635586Y-107296511D01*
X94641069Y-107306007D01*
X94766028Y-107484467D01*
X94773084Y-107492875D01*
X94927125Y-107646916D01*
X94935533Y-107653972D01*
X95113993Y-107778931D01*
X95123489Y-107784414D01*
X95320947Y-107876490D01*
X95331239Y-107880236D01*
X95541688Y-107936625D01*
X95552481Y-107938528D01*
X95715170Y-107952762D01*
X95720635Y-107953000D01*
X95902885Y-107953000D01*
X95918124Y-107948525D01*
X95919329Y-107947135D01*
X95921000Y-107939452D01*
X95921000Y-107934885D01*
X96429000Y-107934885D01*
X96433475Y-107950124D01*
X96434865Y-107951329D01*
X96442548Y-107953000D01*
X96629365Y-107953000D01*
X96634830Y-107952762D01*
X96797519Y-107938528D01*
X96808312Y-107936625D01*
X97018761Y-107880236D01*
X97029053Y-107876490D01*
X97226511Y-107784414D01*
X97236007Y-107778931D01*
X97414467Y-107653972D01*
X97422875Y-107646916D01*
X97576916Y-107492875D01*
X97583972Y-107484467D01*
X97708931Y-107306007D01*
X97714414Y-107296511D01*
X97806490Y-107099053D01*
X97810236Y-107088761D01*
X97856394Y-106916497D01*
X97856058Y-106902401D01*
X97848116Y-106899000D01*
X96447115Y-106899000D01*
X96431876Y-106903475D01*
X96430671Y-106904865D01*
X96429000Y-106912548D01*
X96429000Y-107934885D01*
X95921000Y-107934885D01*
X95921000Y-106917115D01*
X95916525Y-106901876D01*
X95915135Y-106900671D01*
X95907452Y-106899000D01*
X94507033Y-106899000D01*
X94493502Y-106902973D01*
X94492273Y-106911522D01*
X82058500Y-106911522D01*
X82058500Y-103973771D01*
X82078502Y-103905650D01*
X82132158Y-103859157D01*
X82202432Y-103849053D01*
X82217111Y-103852064D01*
X82366598Y-103892119D01*
X82366600Y-103892119D01*
X82371913Y-103893543D01*
X82600000Y-103913498D01*
X82828087Y-103893543D01*
X82833398Y-103892120D01*
X82833409Y-103892118D01*
X82891541Y-103876541D01*
X82962517Y-103878230D01*
X83013248Y-103909152D01*
X83896343Y-104792247D01*
X83903887Y-104800537D01*
X83908000Y-104807018D01*
X83913777Y-104812443D01*
X83957667Y-104853658D01*
X83960509Y-104856413D01*
X83980230Y-104876134D01*
X83983425Y-104878612D01*
X83992447Y-104886318D01*
X84024679Y-104916586D01*
X84031628Y-104920406D01*
X84042432Y-104926346D01*
X84058956Y-104937199D01*
X84074959Y-104949613D01*
X84115543Y-104967176D01*
X84126173Y-104972383D01*
X84164940Y-104993695D01*
X84172617Y-104995666D01*
X84172622Y-104995668D01*
X84184558Y-104998732D01*
X84203266Y-105005137D01*
X84221855Y-105013181D01*
X84229680Y-105014420D01*
X84229682Y-105014421D01*
X84265519Y-105020097D01*
X84277140Y-105022504D01*
X84308959Y-105030673D01*
X84319970Y-105033500D01*
X84340231Y-105033500D01*
X84359940Y-105035051D01*
X84379943Y-105038219D01*
X84387835Y-105037473D01*
X84393062Y-105036979D01*
X84423954Y-105034059D01*
X84435811Y-105033500D01*
X93261233Y-105033500D01*
X93272416Y-105034027D01*
X93279909Y-105035702D01*
X93287835Y-105035453D01*
X93287836Y-105035453D01*
X93347986Y-105033562D01*
X93351945Y-105033500D01*
X93379856Y-105033500D01*
X93383791Y-105033003D01*
X93383856Y-105032995D01*
X93395693Y-105032062D01*
X93427951Y-105031048D01*
X93431970Y-105030922D01*
X93439889Y-105030673D01*
X93459343Y-105025021D01*
X93478700Y-105021013D01*
X93490930Y-105019468D01*
X93490931Y-105019468D01*
X93498797Y-105018474D01*
X93506168Y-105015555D01*
X93506170Y-105015555D01*
X93539912Y-105002196D01*
X93551142Y-104998351D01*
X93585983Y-104988229D01*
X93585984Y-104988229D01*
X93593593Y-104986018D01*
X93600412Y-104981985D01*
X93600417Y-104981983D01*
X93611028Y-104975707D01*
X93628776Y-104967012D01*
X93647617Y-104959552D01*
X93667987Y-104944753D01*
X93683387Y-104933564D01*
X93693307Y-104927048D01*
X93724535Y-104908580D01*
X93724538Y-104908578D01*
X93731362Y-104904542D01*
X93745683Y-104890221D01*
X93760717Y-104877380D01*
X93762432Y-104876134D01*
X93777107Y-104865472D01*
X93805298Y-104831395D01*
X93813288Y-104822616D01*
X94289388Y-104346516D01*
X94351700Y-104312490D01*
X94422515Y-104317555D01*
X94479351Y-104360102D01*
X94500190Y-104402999D01*
X94540716Y-104554243D01*
X94543039Y-104559224D01*
X94543039Y-104559225D01*
X94635151Y-104756762D01*
X94635154Y-104756767D01*
X94637477Y-104761749D01*
X94673934Y-104813815D01*
X94760329Y-104937199D01*
X94768802Y-104949300D01*
X94930700Y-105111198D01*
X94935208Y-105114355D01*
X94935211Y-105114357D01*
X95013389Y-105169098D01*
X95118251Y-105242523D01*
X95123233Y-105244846D01*
X95123238Y-105244849D01*
X95158049Y-105261081D01*
X95211334Y-105307998D01*
X95230795Y-105376275D01*
X95210253Y-105444235D01*
X95158049Y-105489471D01*
X95123489Y-105505586D01*
X95113993Y-105511069D01*
X94935533Y-105636028D01*
X94927125Y-105643084D01*
X94773084Y-105797125D01*
X94766028Y-105805533D01*
X94641069Y-105983993D01*
X94635586Y-105993489D01*
X94543510Y-106190947D01*
X94539764Y-106201239D01*
X94493606Y-106373503D01*
X94493942Y-106387599D01*
X94501884Y-106391000D01*
X97842967Y-106391000D01*
X97856498Y-106387027D01*
X97857727Y-106378478D01*
X97810236Y-106201239D01*
X97806490Y-106190947D01*
X97714414Y-105993489D01*
X97708931Y-105983993D01*
X97583972Y-105805533D01*
X97576916Y-105797125D01*
X97422875Y-105643084D01*
X97414467Y-105636028D01*
X97236007Y-105511069D01*
X97226511Y-105505586D01*
X97191951Y-105489471D01*
X97138666Y-105442554D01*
X97119205Y-105374277D01*
X97139747Y-105306317D01*
X97191951Y-105261081D01*
X97226762Y-105244849D01*
X97226767Y-105244846D01*
X97231749Y-105242523D01*
X97336611Y-105169098D01*
X97414789Y-105114357D01*
X97414792Y-105114355D01*
X97419300Y-105111198D01*
X97581198Y-104949300D01*
X97589672Y-104937199D01*
X97676066Y-104813815D01*
X97712523Y-104761749D01*
X97714846Y-104756767D01*
X97714849Y-104756762D01*
X97806961Y-104559225D01*
X97806961Y-104559224D01*
X97809284Y-104554243D01*
X97868543Y-104333087D01*
X97888498Y-104105000D01*
X97868543Y-103876913D01*
X97845593Y-103791264D01*
X97810707Y-103661067D01*
X97810706Y-103661065D01*
X97809284Y-103655757D01*
X97789681Y-103613717D01*
X97714849Y-103453238D01*
X97714846Y-103453233D01*
X97712523Y-103448251D01*
X97610148Y-103302045D01*
X97584357Y-103265211D01*
X97584355Y-103265208D01*
X97581198Y-103260700D01*
X97419300Y-103098802D01*
X97414792Y-103095645D01*
X97414789Y-103095643D01*
X97310495Y-103022616D01*
X97231749Y-102967477D01*
X97226767Y-102965154D01*
X97226762Y-102965151D01*
X97192543Y-102949195D01*
X97139258Y-102902278D01*
X97119797Y-102834001D01*
X97140339Y-102766041D01*
X97192543Y-102720805D01*
X97226762Y-102704849D01*
X97226767Y-102704846D01*
X97231749Y-102702523D01*
X97385986Y-102594525D01*
X97414789Y-102574357D01*
X97414792Y-102574355D01*
X97419300Y-102571198D01*
X97581198Y-102409300D01*
X97611099Y-102366598D01*
X97701009Y-102238192D01*
X97712523Y-102221749D01*
X97714846Y-102216767D01*
X97714849Y-102216762D01*
X97806961Y-102019225D01*
X97806961Y-102019224D01*
X97809284Y-102014243D01*
X97849810Y-101862999D01*
X97886762Y-101802377D01*
X97950623Y-101771355D01*
X98021117Y-101779784D01*
X98060612Y-101806516D01*
X99422042Y-103167946D01*
X99429586Y-103176236D01*
X99433699Y-103182717D01*
X99480520Y-103226684D01*
X99483366Y-103229357D01*
X99486208Y-103232112D01*
X99505929Y-103251833D01*
X99509124Y-103254311D01*
X99518146Y-103262017D01*
X99550378Y-103292285D01*
X99561557Y-103298431D01*
X99568131Y-103302045D01*
X99584655Y-103312898D01*
X99600658Y-103325312D01*
X99641242Y-103342875D01*
X99651872Y-103348082D01*
X99690639Y-103369394D01*
X99698316Y-103371365D01*
X99698321Y-103371367D01*
X99710257Y-103374431D01*
X99728965Y-103380836D01*
X99747554Y-103388880D01*
X99755379Y-103390119D01*
X99755381Y-103390120D01*
X99791218Y-103395796D01*
X99802839Y-103398203D01*
X99837988Y-103407227D01*
X99845669Y-103409199D01*
X99865930Y-103409199D01*
X99885639Y-103410750D01*
X99905642Y-103413918D01*
X99913534Y-103413172D01*
X99918761Y-103412678D01*
X99949653Y-103409758D01*
X99961510Y-103409199D01*
X102077907Y-103409199D01*
X102146028Y-103429201D01*
X102192521Y-103482857D01*
X102202625Y-103553131D01*
X102192102Y-103588449D01*
X102160716Y-103655757D01*
X102159294Y-103661065D01*
X102159293Y-103661067D01*
X102124407Y-103791264D01*
X102101457Y-103876913D01*
X102081502Y-104105000D01*
X102101457Y-104333087D01*
X102160716Y-104554243D01*
X102163039Y-104559224D01*
X102163039Y-104559225D01*
X102255151Y-104756762D01*
X102255154Y-104756767D01*
X102257477Y-104761749D01*
X102293934Y-104813815D01*
X102380329Y-104937199D01*
X102388802Y-104949300D01*
X102550700Y-105111198D01*
X102555208Y-105114355D01*
X102555211Y-105114357D01*
X102633389Y-105169098D01*
X102738251Y-105242523D01*
X102743233Y-105244846D01*
X102743238Y-105244849D01*
X102777457Y-105260805D01*
X102830742Y-105307722D01*
X102850203Y-105375999D01*
X102829661Y-105443959D01*
X102777457Y-105489195D01*
X102743238Y-105505151D01*
X102743233Y-105505154D01*
X102738251Y-105507477D01*
X102633389Y-105580902D01*
X102555211Y-105635643D01*
X102555208Y-105635645D01*
X102550700Y-105638802D01*
X102388802Y-105800700D01*
X102257477Y-105988251D01*
X102255154Y-105993233D01*
X102255151Y-105993238D01*
X102163039Y-106190775D01*
X102160716Y-106195757D01*
X102101457Y-106416913D01*
X102081502Y-106645000D01*
X102101457Y-106873087D01*
X102102881Y-106878400D01*
X102102881Y-106878402D01*
X102143172Y-107028767D01*
X102160716Y-107094243D01*
X102163039Y-107099224D01*
X102163039Y-107099225D01*
X102255151Y-107296762D01*
X102255154Y-107296767D01*
X102257477Y-107301749D01*
X102388802Y-107489300D01*
X102550700Y-107651198D01*
X102555208Y-107654355D01*
X102555211Y-107654357D01*
X102583200Y-107673955D01*
X102738251Y-107782523D01*
X102743233Y-107784846D01*
X102743238Y-107784849D01*
X102917503Y-107866109D01*
X102945757Y-107879284D01*
X102951065Y-107880706D01*
X102951067Y-107880707D01*
X103161598Y-107937119D01*
X103161600Y-107937119D01*
X103166913Y-107938543D01*
X103265120Y-107947135D01*
X103335149Y-107953262D01*
X103335156Y-107953262D01*
X103337873Y-107953500D01*
X104252127Y-107953500D01*
X104254844Y-107953262D01*
X104254851Y-107953262D01*
X104324880Y-107947135D01*
X104423087Y-107938543D01*
X104428400Y-107937119D01*
X104428402Y-107937119D01*
X104638933Y-107880707D01*
X104638935Y-107880706D01*
X104644243Y-107879284D01*
X104672497Y-107866109D01*
X104846762Y-107784849D01*
X104846767Y-107784846D01*
X104851749Y-107782523D01*
X105006800Y-107673955D01*
X105034789Y-107654357D01*
X105034792Y-107654355D01*
X105039300Y-107651198D01*
X105201198Y-107489300D01*
X105332523Y-107301749D01*
X105334846Y-107296767D01*
X105334849Y-107296762D01*
X105426961Y-107099225D01*
X105426961Y-107099224D01*
X105429284Y-107094243D01*
X105469810Y-106942999D01*
X105506762Y-106882377D01*
X105570623Y-106851355D01*
X105641117Y-106859784D01*
X105680612Y-106886516D01*
X108020807Y-109226712D01*
X108719595Y-109925500D01*
X108753621Y-109987812D01*
X108756500Y-110014595D01*
X108756500Y-114061233D01*
X108755973Y-114072416D01*
X108754298Y-114079909D01*
X108754547Y-114087835D01*
X108754547Y-114087836D01*
X108756438Y-114147986D01*
X108756500Y-114151945D01*
X108756500Y-114179856D01*
X108756997Y-114183790D01*
X108756997Y-114183791D01*
X108757005Y-114183856D01*
X108757938Y-114195693D01*
X108759327Y-114239889D01*
X108764978Y-114259339D01*
X108768987Y-114278700D01*
X108771526Y-114298797D01*
X108774445Y-114306168D01*
X108774445Y-114306170D01*
X108787804Y-114339912D01*
X108791649Y-114351142D01*
X108803982Y-114393593D01*
X108808015Y-114400412D01*
X108808017Y-114400417D01*
X108814293Y-114411028D01*
X108822988Y-114428776D01*
X108830448Y-114447617D01*
X108835110Y-114454033D01*
X108835110Y-114454034D01*
X108856436Y-114483387D01*
X108862952Y-114493307D01*
X108877127Y-114517275D01*
X108885458Y-114531362D01*
X108899779Y-114545683D01*
X108912626Y-114560725D01*
X108917140Y-114566939D01*
X108940993Y-114633809D01*
X108924907Y-114702959D01*
X108873989Y-114752435D01*
X108847811Y-114762698D01*
X108772884Y-114782775D01*
X108653533Y-114814755D01*
X108653531Y-114814756D01*
X108648223Y-114816178D01*
X108643243Y-114818500D01*
X108643241Y-114818501D01*
X108458385Y-114904701D01*
X108458382Y-114904703D01*
X108453404Y-114907024D01*
X108277319Y-115030319D01*
X108125319Y-115182319D01*
X108002024Y-115358404D01*
X107911178Y-115553223D01*
X107909756Y-115558531D01*
X107909755Y-115558533D01*
X107869764Y-115707782D01*
X107855542Y-115760858D01*
X107836807Y-115975000D01*
X107855542Y-116189142D01*
X107856966Y-116194455D01*
X107856966Y-116194457D01*
X107894608Y-116334936D01*
X107911178Y-116396777D01*
X107913500Y-116401757D01*
X107913501Y-116401759D01*
X107944355Y-116467924D01*
X108002024Y-116591596D01*
X108125319Y-116767681D01*
X108277319Y-116919681D01*
X108453403Y-117042976D01*
X108458381Y-117045297D01*
X108458384Y-117045299D01*
X108628620Y-117124681D01*
X108648223Y-117133822D01*
X108653531Y-117135244D01*
X108653533Y-117135245D01*
X108850543Y-117188034D01*
X108850545Y-117188034D01*
X108855858Y-117189458D01*
X109070000Y-117208193D01*
X109284142Y-117189458D01*
X109289455Y-117188034D01*
X109289457Y-117188034D01*
X109486467Y-117135245D01*
X109486469Y-117135244D01*
X109491777Y-117133822D01*
X109511380Y-117124681D01*
X109681616Y-117045299D01*
X109681619Y-117045297D01*
X109686597Y-117042976D01*
X109862681Y-116919681D01*
X110014681Y-116767681D01*
X110137976Y-116591596D01*
X110195646Y-116467924D01*
X110226499Y-116401759D01*
X110226500Y-116401757D01*
X110228822Y-116396777D01*
X110282661Y-116195848D01*
X110319612Y-116135227D01*
X110383472Y-116104206D01*
X110453967Y-116112634D01*
X110493462Y-116139366D01*
X114879617Y-120525521D01*
X114913643Y-120587833D01*
X114908578Y-120658648D01*
X114862793Y-120717829D01*
X114830211Y-120740643D01*
X114830208Y-120740645D01*
X114825700Y-120743802D01*
X114663802Y-120905700D01*
X114660645Y-120910208D01*
X114660643Y-120910211D01*
X114605902Y-120988389D01*
X114532477Y-121093251D01*
X114530154Y-121098233D01*
X114530151Y-121098238D01*
X114459508Y-121249734D01*
X114435716Y-121300757D01*
X114434294Y-121306065D01*
X114434293Y-121306067D01*
X114381916Y-121501541D01*
X114376457Y-121521913D01*
X114356502Y-121750000D01*
X114376457Y-121978087D01*
X114377881Y-121983400D01*
X114377881Y-121983402D01*
X114413698Y-122117070D01*
X114435716Y-122199243D01*
X114438039Y-122204224D01*
X114438039Y-122204225D01*
X114530151Y-122401762D01*
X114530154Y-122401767D01*
X114532477Y-122406749D01*
X114663802Y-122594300D01*
X114825700Y-122756198D01*
X114830208Y-122759355D01*
X114830211Y-122759357D01*
X114908389Y-122814098D01*
X115013251Y-122887523D01*
X115018233Y-122889846D01*
X115018238Y-122889849D01*
X115215775Y-122981961D01*
X115220757Y-122984284D01*
X115226065Y-122985706D01*
X115226067Y-122985707D01*
X115436598Y-123042119D01*
X115436600Y-123042119D01*
X115441913Y-123043543D01*
X115670000Y-123063498D01*
X115898087Y-123043543D01*
X115903400Y-123042119D01*
X115903402Y-123042119D01*
X116113933Y-122985707D01*
X116113935Y-122985706D01*
X116119243Y-122984284D01*
X116157965Y-122966228D01*
X116197250Y-122947909D01*
X116267442Y-122937248D01*
X116332255Y-122966228D01*
X116371111Y-123025648D01*
X116376500Y-123062104D01*
X116376500Y-123695405D01*
X116356498Y-123763526D01*
X116339595Y-123784500D01*
X116083247Y-124040848D01*
X116020935Y-124074874D01*
X115961542Y-124073460D01*
X115898087Y-124056457D01*
X115670000Y-124036502D01*
X115441913Y-124056457D01*
X115436600Y-124057881D01*
X115436598Y-124057881D01*
X115226067Y-124114293D01*
X115226065Y-124114294D01*
X115220757Y-124115716D01*
X115215776Y-124118039D01*
X115215775Y-124118039D01*
X115018238Y-124210151D01*
X115018233Y-124210154D01*
X115013251Y-124212477D01*
X114911373Y-124283813D01*
X114830211Y-124340643D01*
X114830208Y-124340645D01*
X114825700Y-124343802D01*
X114663802Y-124505700D01*
X114532477Y-124693251D01*
X114530154Y-124698233D01*
X114530151Y-124698238D01*
X114438039Y-124895775D01*
X114435716Y-124900757D01*
X114434294Y-124906065D01*
X114434293Y-124906067D01*
X114377883Y-125116591D01*
X114376457Y-125121913D01*
X114356502Y-125350000D01*
X114376457Y-125578087D01*
X114435716Y-125799243D01*
X114438039Y-125804224D01*
X114438039Y-125804225D01*
X114530151Y-126001762D01*
X114530154Y-126001767D01*
X114532477Y-126006749D01*
X114663802Y-126194300D01*
X114825700Y-126356198D01*
X114830208Y-126359355D01*
X114830211Y-126359357D01*
X114908389Y-126414098D01*
X115013251Y-126487523D01*
X115018233Y-126489846D01*
X115018238Y-126489849D01*
X115215775Y-126581961D01*
X115220757Y-126584284D01*
X115226065Y-126585706D01*
X115226067Y-126585707D01*
X115436598Y-126642119D01*
X115436600Y-126642119D01*
X115441913Y-126643543D01*
X115670000Y-126663498D01*
X115898087Y-126643543D01*
X115903400Y-126642119D01*
X115903402Y-126642119D01*
X116113933Y-126585707D01*
X116113935Y-126585706D01*
X116119243Y-126584284D01*
X116124225Y-126581961D01*
X116321762Y-126489849D01*
X116321767Y-126489846D01*
X116326749Y-126487523D01*
X116431611Y-126414098D01*
X116509789Y-126359357D01*
X116509792Y-126359355D01*
X116514300Y-126356198D01*
X116676198Y-126194300D01*
X116807523Y-126006749D01*
X116809846Y-126001767D01*
X116809849Y-126001762D01*
X116901961Y-125804225D01*
X116901961Y-125804224D01*
X116904284Y-125799243D01*
X116963543Y-125578087D01*
X116983498Y-125350000D01*
X116963543Y-125121913D01*
X116962119Y-125116598D01*
X116962118Y-125116591D01*
X116946541Y-125058459D01*
X116948230Y-124987483D01*
X116979152Y-124936752D01*
X117402247Y-124513657D01*
X117410537Y-124506113D01*
X117417018Y-124502000D01*
X117463659Y-124452332D01*
X117466413Y-124449491D01*
X117486134Y-124429770D01*
X117488612Y-124426575D01*
X117496318Y-124417553D01*
X117521158Y-124391101D01*
X117526586Y-124385321D01*
X117536346Y-124367568D01*
X117547199Y-124351045D01*
X117554753Y-124341306D01*
X117559613Y-124335041D01*
X117577176Y-124294457D01*
X117582383Y-124283827D01*
X117603695Y-124245060D01*
X117605666Y-124237383D01*
X117605668Y-124237378D01*
X117608732Y-124225442D01*
X117615138Y-124206730D01*
X117620033Y-124195419D01*
X117623181Y-124188145D01*
X117624421Y-124180317D01*
X117624423Y-124180310D01*
X117630099Y-124144476D01*
X117632505Y-124132856D01*
X117641528Y-124097711D01*
X117641528Y-124097710D01*
X117643500Y-124090030D01*
X117643500Y-124069776D01*
X117645051Y-124050065D01*
X117646980Y-124037886D01*
X117648220Y-124030057D01*
X117644059Y-123986038D01*
X117643500Y-123974181D01*
X117643500Y-117435913D01*
X117644027Y-117424730D01*
X117645702Y-117417237D01*
X117643562Y-117349146D01*
X117643500Y-117345189D01*
X117643500Y-117317290D01*
X117642996Y-117313299D01*
X117642063Y-117301457D01*
X117640923Y-117265182D01*
X117640674Y-117257257D01*
X117638462Y-117249643D01*
X117638461Y-117249638D01*
X117635023Y-117237805D01*
X117631012Y-117218441D01*
X117629718Y-117208193D01*
X117628474Y-117198349D01*
X117625557Y-117190982D01*
X117625556Y-117190977D01*
X117612198Y-117157238D01*
X117608354Y-117146011D01*
X117604812Y-117133822D01*
X117596018Y-117103553D01*
X117585707Y-117086118D01*
X117577012Y-117068370D01*
X117569552Y-117049529D01*
X117543564Y-117013759D01*
X117537048Y-117003839D01*
X117518580Y-116972611D01*
X117518578Y-116972608D01*
X117514542Y-116965784D01*
X117500221Y-116951463D01*
X117487380Y-116936429D01*
X117480131Y-116926452D01*
X117475472Y-116920039D01*
X117441395Y-116891848D01*
X117432616Y-116883858D01*
X113596197Y-113047438D01*
X113591508Y-113042749D01*
X113583966Y-113034461D01*
X113579854Y-113027982D01*
X113530200Y-112981354D01*
X113527359Y-112978600D01*
X113507624Y-112958865D01*
X113504427Y-112956385D01*
X113495405Y-112948680D01*
X113468954Y-112923841D01*
X113463175Y-112918414D01*
X113456229Y-112914595D01*
X113456226Y-112914593D01*
X113445420Y-112908652D01*
X113428901Y-112897801D01*
X113427480Y-112896699D01*
X113412895Y-112885386D01*
X113405626Y-112882241D01*
X113405622Y-112882238D01*
X113372317Y-112867826D01*
X113361667Y-112862609D01*
X113322914Y-112841305D01*
X113303291Y-112836267D01*
X113284588Y-112829863D01*
X113273274Y-112824967D01*
X113273273Y-112824967D01*
X113265999Y-112821819D01*
X113258176Y-112820580D01*
X113258166Y-112820577D01*
X113222330Y-112814901D01*
X113210710Y-112812495D01*
X113175565Y-112803472D01*
X113175564Y-112803472D01*
X113167884Y-112801500D01*
X113147630Y-112801500D01*
X113127919Y-112799949D01*
X113115740Y-112798020D01*
X113107911Y-112796780D01*
X113100019Y-112797526D01*
X113063893Y-112800941D01*
X113052035Y-112801500D01*
X112731731Y-112801500D01*
X112663610Y-112781498D01*
X112628518Y-112747770D01*
X112557840Y-112646831D01*
X112554681Y-112642319D01*
X112402681Y-112490319D01*
X112226597Y-112367024D01*
X112221619Y-112364703D01*
X112221616Y-112364701D01*
X112036759Y-112278501D01*
X112036758Y-112278500D01*
X112031777Y-112276178D01*
X112026469Y-112274756D01*
X112026467Y-112274755D01*
X111824142Y-112220542D01*
X111824820Y-112218013D01*
X111771023Y-112191322D01*
X111734580Y-112130393D01*
X111736863Y-112059433D01*
X111747436Y-112035800D01*
X111781223Y-111977279D01*
X111781224Y-111977278D01*
X111784527Y-111971556D01*
X111843542Y-111789928D01*
X111846389Y-111762846D01*
X111862814Y-111606565D01*
X111863504Y-111600000D01*
X111849583Y-111467548D01*
X111844232Y-111416635D01*
X111844232Y-111416633D01*
X111843542Y-111410072D01*
X111789667Y-111244263D01*
X111783500Y-111205327D01*
X111783500Y-107028767D01*
X111784027Y-107017584D01*
X111785702Y-107010091D01*
X111783562Y-106942014D01*
X111783500Y-106938055D01*
X111783500Y-106910144D01*
X111782995Y-106906144D01*
X111782062Y-106894301D01*
X111781818Y-106886516D01*
X111780673Y-106850111D01*
X111775021Y-106830657D01*
X111771013Y-106811300D01*
X111769468Y-106799070D01*
X111769468Y-106799069D01*
X111768474Y-106791203D01*
X111765555Y-106783830D01*
X111752196Y-106750088D01*
X111748351Y-106738858D01*
X111738229Y-106704017D01*
X111738229Y-106704016D01*
X111736018Y-106696407D01*
X111731985Y-106689588D01*
X111731983Y-106689583D01*
X111725707Y-106678972D01*
X111717012Y-106661224D01*
X111709552Y-106642383D01*
X111683564Y-106606613D01*
X111677048Y-106596693D01*
X111658580Y-106565465D01*
X111658578Y-106565462D01*
X111654542Y-106558638D01*
X111640221Y-106544317D01*
X111627380Y-106529283D01*
X111620131Y-106519306D01*
X111615472Y-106512893D01*
X111581395Y-106484702D01*
X111572616Y-106476712D01*
X106268652Y-101172747D01*
X106261112Y-101164461D01*
X106257000Y-101157982D01*
X106207348Y-101111356D01*
X106204507Y-101108602D01*
X106184770Y-101088865D01*
X106181573Y-101086385D01*
X106172551Y-101078680D01*
X106146100Y-101053841D01*
X106140321Y-101048414D01*
X106133375Y-101044595D01*
X106133372Y-101044593D01*
X106122566Y-101038652D01*
X106106047Y-101027801D01*
X106105583Y-101027441D01*
X106090041Y-101015386D01*
X106082772Y-101012241D01*
X106082768Y-101012238D01*
X106049463Y-100997826D01*
X106038813Y-100992609D01*
X106000060Y-100971305D01*
X105980437Y-100966267D01*
X105961734Y-100959863D01*
X105950420Y-100954967D01*
X105950419Y-100954967D01*
X105943145Y-100951819D01*
X105935322Y-100950580D01*
X105935312Y-100950577D01*
X105899476Y-100944901D01*
X105887856Y-100942495D01*
X105852711Y-100933472D01*
X105852710Y-100933472D01*
X105845030Y-100931500D01*
X105824776Y-100931500D01*
X105805065Y-100929949D01*
X105792886Y-100928020D01*
X105785057Y-100926780D01*
X105777165Y-100927526D01*
X105741039Y-100930941D01*
X105729181Y-100931500D01*
X105414394Y-100931500D01*
X105346273Y-100911498D01*
X105311181Y-100877771D01*
X105204357Y-100725211D01*
X105204355Y-100725208D01*
X105201198Y-100720700D01*
X105039300Y-100558802D01*
X105034792Y-100555645D01*
X105034789Y-100555643D01*
X104956611Y-100500902D01*
X104851749Y-100427477D01*
X104846767Y-100425154D01*
X104846762Y-100425151D01*
X104812543Y-100409195D01*
X104759258Y-100362278D01*
X104739797Y-100294001D01*
X104760339Y-100226041D01*
X104812543Y-100180805D01*
X104846762Y-100164849D01*
X104846767Y-100164846D01*
X104851749Y-100162523D01*
X104977763Y-100074287D01*
X105034789Y-100034357D01*
X105034792Y-100034355D01*
X105039300Y-100031198D01*
X105201198Y-99869300D01*
X105223655Y-99837229D01*
X105279110Y-99792901D01*
X105326867Y-99783500D01*
X107485638Y-99783500D01*
X107553759Y-99803502D01*
X107588851Y-99837230D01*
X107593802Y-99844300D01*
X107755700Y-100006198D01*
X107760208Y-100009355D01*
X107760211Y-100009357D01*
X107795915Y-100034357D01*
X107943251Y-100137523D01*
X107948233Y-100139846D01*
X107948238Y-100139849D01*
X108144765Y-100231490D01*
X108150757Y-100234284D01*
X108156065Y-100235706D01*
X108156067Y-100235707D01*
X108366598Y-100292119D01*
X108366600Y-100292119D01*
X108371913Y-100293543D01*
X108600000Y-100313498D01*
X108605475Y-100313019D01*
X108762913Y-100299245D01*
X108832518Y-100313234D01*
X108862990Y-100335671D01*
X112504595Y-103977276D01*
X112538621Y-104039588D01*
X112541500Y-104066371D01*
X112541500Y-111244293D01*
X112556818Y-111375681D01*
X112559313Y-111382556D01*
X112559314Y-111382558D01*
X112591822Y-111472115D01*
X112617167Y-111541937D01*
X112621178Y-111548054D01*
X112621179Y-111548057D01*
X112710132Y-111683733D01*
X112714144Y-111689852D01*
X112842547Y-111811490D01*
X112995490Y-111900326D01*
X113002494Y-111902447D01*
X113002498Y-111902449D01*
X113133488Y-111942121D01*
X113164767Y-111951595D01*
X113341298Y-111962547D01*
X113348514Y-111961307D01*
X113348516Y-111961307D01*
X113508398Y-111933834D01*
X113508399Y-111933834D01*
X113515614Y-111932594D01*
X113678364Y-111863343D01*
X113684252Y-111859010D01*
X113684257Y-111859007D01*
X113814923Y-111762846D01*
X113820818Y-111758508D01*
X113825557Y-111752930D01*
X113825560Y-111752927D01*
X113930594Y-111629294D01*
X113930597Y-111629290D01*
X113935333Y-111623715D01*
X114015769Y-111466192D01*
X114017658Y-111458475D01*
X114056473Y-111299844D01*
X114057808Y-111294390D01*
X114058500Y-111283236D01*
X114058500Y-103767070D01*
X114059933Y-103748120D01*
X114062099Y-103733885D01*
X114062099Y-103733881D01*
X114063199Y-103726651D01*
X114058915Y-103673982D01*
X114058500Y-103663767D01*
X114058500Y-103655707D01*
X114055209Y-103627480D01*
X114054778Y-103623121D01*
X114054013Y-103613717D01*
X114048860Y-103550364D01*
X114046605Y-103543403D01*
X114045418Y-103537463D01*
X114044029Y-103531588D01*
X114043182Y-103524319D01*
X114018264Y-103455670D01*
X114016847Y-103451542D01*
X113996607Y-103389064D01*
X113996606Y-103389062D01*
X113994351Y-103382101D01*
X113990555Y-103375846D01*
X113988049Y-103370372D01*
X113985330Y-103364942D01*
X113982833Y-103358063D01*
X113963424Y-103328460D01*
X113942814Y-103297024D01*
X113940467Y-103293305D01*
X113939848Y-103292285D01*
X113902595Y-103230893D01*
X113895197Y-103222516D01*
X113895224Y-103222492D01*
X113892571Y-103219500D01*
X113889868Y-103216267D01*
X113885856Y-103210148D01*
X113829617Y-103156872D01*
X113827175Y-103154494D01*
X110758743Y-100086062D01*
X112878493Y-100086062D01*
X112887789Y-100098077D01*
X112938994Y-100133931D01*
X112948489Y-100139414D01*
X113145947Y-100231490D01*
X113156239Y-100235236D01*
X113366688Y-100291625D01*
X113377481Y-100293528D01*
X113594525Y-100312517D01*
X113605475Y-100312517D01*
X113822519Y-100293528D01*
X113833312Y-100291625D01*
X114043761Y-100235236D01*
X114054053Y-100231490D01*
X114251511Y-100139414D01*
X114261006Y-100133931D01*
X114313048Y-100097491D01*
X114321424Y-100087012D01*
X114314356Y-100073566D01*
X113612812Y-99372022D01*
X113598868Y-99364408D01*
X113597035Y-99364539D01*
X113590420Y-99368790D01*
X112884923Y-100074287D01*
X112878493Y-100086062D01*
X110758743Y-100086062D01*
X109935671Y-99262990D01*
X109901645Y-99200678D01*
X109899245Y-99162913D01*
X109913019Y-99005475D01*
X112287483Y-99005475D01*
X112306472Y-99222519D01*
X112308375Y-99233312D01*
X112364764Y-99443761D01*
X112368510Y-99454053D01*
X112460586Y-99651511D01*
X112466069Y-99661006D01*
X112502509Y-99713048D01*
X112512988Y-99721424D01*
X112526434Y-99714356D01*
X113227978Y-99012812D01*
X113234356Y-99001132D01*
X113964408Y-99001132D01*
X113964539Y-99002965D01*
X113968790Y-99009580D01*
X114674287Y-99715077D01*
X114686062Y-99721507D01*
X114698077Y-99712211D01*
X114733931Y-99661006D01*
X114739414Y-99651511D01*
X114831490Y-99454053D01*
X114835236Y-99443761D01*
X114891625Y-99233312D01*
X114893528Y-99222519D01*
X114912517Y-99005475D01*
X114912517Y-98994525D01*
X114893528Y-98777481D01*
X114891625Y-98766688D01*
X114835236Y-98556239D01*
X114831490Y-98545947D01*
X114739414Y-98348489D01*
X114733931Y-98338994D01*
X114697491Y-98286952D01*
X114687012Y-98278576D01*
X114673566Y-98285644D01*
X113972022Y-98987188D01*
X113964408Y-99001132D01*
X113234356Y-99001132D01*
X113235592Y-98998868D01*
X113235461Y-98997035D01*
X113231210Y-98990420D01*
X112525713Y-98284923D01*
X112513938Y-98278493D01*
X112501923Y-98287789D01*
X112466069Y-98338994D01*
X112460586Y-98348489D01*
X112368510Y-98545947D01*
X112364764Y-98556239D01*
X112308375Y-98766688D01*
X112306472Y-98777481D01*
X112287483Y-98994525D01*
X112287483Y-99005475D01*
X109913019Y-99005475D01*
X109913498Y-99000000D01*
X109893543Y-98771913D01*
X109856981Y-98635461D01*
X109835707Y-98556067D01*
X109835706Y-98556065D01*
X109834284Y-98550757D01*
X109831961Y-98545775D01*
X109739849Y-98348238D01*
X109739846Y-98348233D01*
X109737523Y-98343251D01*
X109626862Y-98185211D01*
X109609357Y-98160211D01*
X109609355Y-98160208D01*
X109606198Y-98155700D01*
X109444300Y-97993802D01*
X109412229Y-97971345D01*
X109367901Y-97915890D01*
X109367330Y-97912988D01*
X112878576Y-97912988D01*
X112885644Y-97926434D01*
X113587188Y-98627978D01*
X113601132Y-98635592D01*
X113602965Y-98635461D01*
X113609580Y-98631210D01*
X114315077Y-97925713D01*
X114321507Y-97913938D01*
X114312211Y-97901923D01*
X114261006Y-97866069D01*
X114251511Y-97860586D01*
X114054053Y-97768510D01*
X114043761Y-97764764D01*
X113833312Y-97708375D01*
X113822519Y-97706472D01*
X113605475Y-97687483D01*
X113594525Y-97687483D01*
X113377481Y-97706472D01*
X113366688Y-97708375D01*
X113156239Y-97764764D01*
X113145947Y-97768510D01*
X112948489Y-97860586D01*
X112938994Y-97866069D01*
X112886952Y-97902509D01*
X112878576Y-97912988D01*
X109367330Y-97912988D01*
X109358500Y-97868133D01*
X109358500Y-95292070D01*
X109359933Y-95273120D01*
X109362099Y-95258885D01*
X109362099Y-95258881D01*
X109363199Y-95251651D01*
X109358915Y-95198982D01*
X109358500Y-95188767D01*
X109358500Y-95180707D01*
X109355209Y-95152480D01*
X109354778Y-95148121D01*
X109349453Y-95082660D01*
X109348860Y-95075364D01*
X109346605Y-95068403D01*
X109345418Y-95062463D01*
X109344029Y-95056588D01*
X109343182Y-95049319D01*
X109318264Y-94980670D01*
X109316847Y-94976542D01*
X109296607Y-94914064D01*
X109296606Y-94914062D01*
X109294351Y-94907101D01*
X109290555Y-94900846D01*
X109288049Y-94895372D01*
X109285330Y-94889942D01*
X109282833Y-94883063D01*
X109242814Y-94822024D01*
X109240467Y-94818305D01*
X109202595Y-94755893D01*
X109195197Y-94747516D01*
X109195224Y-94747492D01*
X109192571Y-94744500D01*
X109189868Y-94741267D01*
X109185856Y-94735148D01*
X109129617Y-94681872D01*
X109127175Y-94679494D01*
X103924176Y-89476495D01*
X103890150Y-89414183D01*
X103888349Y-89370954D01*
X103911203Y-89197362D01*
X103911203Y-89197358D01*
X103911640Y-89194041D01*
X103913327Y-89125000D01*
X103894349Y-88894167D01*
X103893088Y-88889147D01*
X103892244Y-88884047D01*
X103893797Y-88883790D01*
X103896316Y-88819917D01*
X103926624Y-88771057D01*
X113388911Y-79308770D01*
X113403323Y-79296384D01*
X113414918Y-79287851D01*
X113414923Y-79287846D01*
X113420818Y-79283508D01*
X113425557Y-79277930D01*
X113425560Y-79277927D01*
X113455035Y-79243232D01*
X113461965Y-79235716D01*
X113467660Y-79230021D01*
X113485281Y-79207749D01*
X113488072Y-79204345D01*
X113530591Y-79154297D01*
X113530592Y-79154295D01*
X113535333Y-79148715D01*
X113538661Y-79142199D01*
X113542028Y-79137150D01*
X113545195Y-79132021D01*
X113549734Y-79126284D01*
X113580655Y-79060125D01*
X113582561Y-79056225D01*
X113615769Y-78991192D01*
X113617508Y-78984084D01*
X113619607Y-78978441D01*
X113621524Y-78972678D01*
X113624622Y-78966050D01*
X113639487Y-78894583D01*
X113640457Y-78890299D01*
X113656473Y-78824845D01*
X113657808Y-78819390D01*
X113658500Y-78808236D01*
X113658536Y-78808238D01*
X113658775Y-78804245D01*
X113659149Y-78800053D01*
X113660640Y-78792885D01*
X113658546Y-78715479D01*
X113658500Y-78712072D01*
X113658500Y-74066522D01*
X116527273Y-74066522D01*
X116574764Y-74243761D01*
X116578510Y-74254053D01*
X116670586Y-74451511D01*
X116676069Y-74461007D01*
X116801028Y-74639467D01*
X116808084Y-74647875D01*
X116962125Y-74801916D01*
X116970533Y-74808972D01*
X117148993Y-74933931D01*
X117158489Y-74939414D01*
X117355947Y-75031490D01*
X117366239Y-75035236D01*
X117538503Y-75081394D01*
X117552599Y-75081058D01*
X117556000Y-75073116D01*
X117556000Y-74072115D01*
X117551525Y-74056876D01*
X117550135Y-74055671D01*
X117542452Y-74054000D01*
X116542033Y-74054000D01*
X116528502Y-74057973D01*
X116527273Y-74066522D01*
X113658500Y-74066522D01*
X113658500Y-73528503D01*
X116528606Y-73528503D01*
X116528942Y-73542599D01*
X116536884Y-73546000D01*
X117537885Y-73546000D01*
X117553124Y-73541525D01*
X117554329Y-73540135D01*
X117556000Y-73532452D01*
X117556000Y-72532033D01*
X117552027Y-72518502D01*
X117543478Y-72517273D01*
X117366239Y-72564764D01*
X117355947Y-72568510D01*
X117158489Y-72660586D01*
X117148993Y-72666069D01*
X116970533Y-72791028D01*
X116962125Y-72798084D01*
X116808084Y-72952125D01*
X116801028Y-72960533D01*
X116676069Y-73138993D01*
X116670586Y-73148489D01*
X116578510Y-73345947D01*
X116574764Y-73356239D01*
X116528606Y-73528503D01*
X113658500Y-73528503D01*
X113658500Y-65567069D01*
X113659933Y-65548118D01*
X113662099Y-65533883D01*
X113662099Y-65533881D01*
X113663199Y-65526651D01*
X113658915Y-65473982D01*
X113658500Y-65463767D01*
X113658500Y-65455707D01*
X113655211Y-65427493D01*
X113654778Y-65423118D01*
X113649454Y-65357661D01*
X113649453Y-65357658D01*
X113648860Y-65350363D01*
X113646604Y-65343399D01*
X113645413Y-65337440D01*
X113644029Y-65331585D01*
X113643182Y-65324319D01*
X113618265Y-65255673D01*
X113616848Y-65251545D01*
X113596607Y-65189064D01*
X113596606Y-65189062D01*
X113594351Y-65182101D01*
X113590555Y-65175846D01*
X113588049Y-65170372D01*
X113585330Y-65164942D01*
X113582833Y-65158063D01*
X113542809Y-65097016D01*
X113540472Y-65093312D01*
X113505509Y-65035693D01*
X113505505Y-65035688D01*
X113502595Y-65030892D01*
X113495197Y-65022516D01*
X113495223Y-65022493D01*
X113492574Y-65019503D01*
X113489866Y-65016264D01*
X113485856Y-65010148D01*
X113480549Y-65005121D01*
X113480546Y-65005117D01*
X113429617Y-64956872D01*
X113427175Y-64954494D01*
X112534265Y-64061584D01*
X112500239Y-63999272D01*
X112498632Y-63990346D01*
X112498500Y-63989424D01*
X112498500Y-63989008D01*
X112498233Y-63984377D01*
X112487054Y-63935953D01*
X112460275Y-63819966D01*
X112458691Y-63813105D01*
X112406645Y-63705442D01*
X112385255Y-63661193D01*
X112385254Y-63661191D01*
X112382188Y-63654849D01*
X112272524Y-63517476D01*
X112245891Y-63496215D01*
X112205132Y-63438084D01*
X112198500Y-63397744D01*
X112198500Y-62041765D01*
X112199933Y-62022815D01*
X112202099Y-62008580D01*
X112202099Y-62008576D01*
X112203199Y-62001346D01*
X112201637Y-61982135D01*
X112198915Y-61948677D01*
X112198500Y-61938462D01*
X112198500Y-61930402D01*
X112195211Y-61902188D01*
X112194778Y-61897813D01*
X112189454Y-61832356D01*
X112189453Y-61832353D01*
X112188860Y-61825058D01*
X112186604Y-61818094D01*
X112185413Y-61812135D01*
X112184029Y-61806280D01*
X112183182Y-61799014D01*
X112158265Y-61730368D01*
X112156848Y-61726240D01*
X112136607Y-61663759D01*
X112136606Y-61663757D01*
X112134351Y-61656796D01*
X112130555Y-61650541D01*
X112128049Y-61645067D01*
X112125330Y-61639637D01*
X112122833Y-61632758D01*
X112082814Y-61571719D01*
X112080467Y-61568000D01*
X112042595Y-61505588D01*
X112035197Y-61497211D01*
X112035224Y-61497187D01*
X112032571Y-61494195D01*
X112029868Y-61490962D01*
X112025856Y-61484843D01*
X111969617Y-61431567D01*
X111967175Y-61429189D01*
X111329075Y-60791089D01*
X111316689Y-60776677D01*
X111308156Y-60765082D01*
X111308151Y-60765077D01*
X111303813Y-60759182D01*
X111270079Y-60730523D01*
X111231116Y-60671177D01*
X111230423Y-60600184D01*
X111268222Y-60540086D01*
X111332511Y-60509964D01*
X111351660Y-60508500D01*
X117736423Y-60508500D01*
X117755808Y-60510000D01*
G37*
%TD.AperFunction*%
%TA.AperFunction,Conductor*%
G36*
X109053621Y-62058502D02*
G01*
X109100114Y-62112158D01*
X109111500Y-62164500D01*
X109111500Y-63165500D01*
X109091498Y-63233621D01*
X109037842Y-63280114D01*
X108985500Y-63291500D01*
X108301866Y-63291500D01*
X108239684Y-63298255D01*
X108103295Y-63349385D01*
X107986739Y-63436739D01*
X107899385Y-63553295D01*
X107848255Y-63689684D01*
X107841500Y-63751866D01*
X107841500Y-65648134D01*
X107848255Y-65710316D01*
X107899385Y-65846705D01*
X107986739Y-65963261D01*
X108103295Y-66050615D01*
X108239684Y-66101745D01*
X108301866Y-66108500D01*
X109498134Y-66108500D01*
X109560316Y-66101745D01*
X109696705Y-66050615D01*
X109813261Y-65963261D01*
X109900615Y-65846705D01*
X109951745Y-65710316D01*
X109958500Y-65648134D01*
X109958500Y-64164500D01*
X109978502Y-64096379D01*
X110032158Y-64049886D01*
X110084500Y-64038500D01*
X110255500Y-64038500D01*
X110323621Y-64058502D01*
X110370114Y-64112158D01*
X110381500Y-64164500D01*
X110381500Y-65410992D01*
X110381767Y-65415623D01*
X110421309Y-65586895D01*
X110429027Y-65602861D01*
X110477175Y-65702460D01*
X110497812Y-65745151D01*
X110607476Y-65882524D01*
X110744849Y-65992188D01*
X110903105Y-66068691D01*
X111074377Y-66108233D01*
X111079008Y-66108500D01*
X111800992Y-66108500D01*
X111805623Y-66108233D01*
X111976895Y-66068691D01*
X111976927Y-66068830D01*
X112044539Y-66065240D01*
X112106216Y-66100403D01*
X112139091Y-66163330D01*
X112141500Y-66187848D01*
X112141500Y-78358629D01*
X112121498Y-78426750D01*
X112104595Y-78447724D01*
X102850407Y-87701912D01*
X102788095Y-87735938D01*
X102739216Y-87736864D01*
X102638095Y-87718851D01*
X102638089Y-87718850D01*
X102633006Y-87717945D01*
X102560096Y-87717054D01*
X102406581Y-87715179D01*
X102406579Y-87715179D01*
X102401411Y-87715116D01*
X102172464Y-87750150D01*
X101952314Y-87822106D01*
X101947726Y-87824494D01*
X101947722Y-87824496D01*
X101921065Y-87838373D01*
X101746872Y-87929052D01*
X101742739Y-87932155D01*
X101742736Y-87932157D01*
X101720984Y-87948489D01*
X101561655Y-88068117D01*
X101401639Y-88235564D01*
X101354836Y-88304174D01*
X101299927Y-88349175D01*
X101229402Y-88357346D01*
X101165655Y-88326092D01*
X101144959Y-88301609D01*
X101122577Y-88267013D01*
X101122576Y-88267012D01*
X101119764Y-88262665D01*
X100963887Y-88091358D01*
X100959836Y-88088159D01*
X100959832Y-88088155D01*
X100786177Y-87951011D01*
X100786172Y-87951008D01*
X100782123Y-87947810D01*
X100777607Y-87945317D01*
X100777604Y-87945315D01*
X100583879Y-87838373D01*
X100583875Y-87838371D01*
X100579355Y-87835876D01*
X100574486Y-87834152D01*
X100574482Y-87834150D01*
X100365903Y-87760288D01*
X100365899Y-87760287D01*
X100361028Y-87758562D01*
X100355935Y-87757655D01*
X100355932Y-87757654D01*
X100138095Y-87718851D01*
X100138089Y-87718850D01*
X100133006Y-87717945D01*
X100060096Y-87717054D01*
X99906581Y-87715179D01*
X99906579Y-87715179D01*
X99901411Y-87715116D01*
X99672464Y-87750150D01*
X99452314Y-87822106D01*
X99447726Y-87824494D01*
X99447722Y-87824496D01*
X99421065Y-87838373D01*
X99246872Y-87929052D01*
X99242739Y-87932155D01*
X99242736Y-87932157D01*
X99220984Y-87948489D01*
X99061655Y-88068117D01*
X98901639Y-88235564D01*
X98854836Y-88304174D01*
X98799927Y-88349175D01*
X98729402Y-88357346D01*
X98665655Y-88326092D01*
X98644959Y-88301609D01*
X98622577Y-88267013D01*
X98622576Y-88267012D01*
X98619764Y-88262665D01*
X98463887Y-88091358D01*
X98459836Y-88088159D01*
X98459832Y-88088155D01*
X98286177Y-87951011D01*
X98286172Y-87951008D01*
X98282123Y-87947810D01*
X98277607Y-87945317D01*
X98277604Y-87945315D01*
X98083879Y-87838373D01*
X98083875Y-87838371D01*
X98079355Y-87835876D01*
X98074486Y-87834152D01*
X98074482Y-87834150D01*
X97865903Y-87760288D01*
X97865899Y-87760287D01*
X97861028Y-87758562D01*
X97855935Y-87757655D01*
X97855932Y-87757654D01*
X97638095Y-87718851D01*
X97638089Y-87718850D01*
X97633006Y-87717945D01*
X97560096Y-87717054D01*
X97406581Y-87715179D01*
X97406579Y-87715179D01*
X97401411Y-87715116D01*
X97172464Y-87750150D01*
X96952314Y-87822106D01*
X96947726Y-87824494D01*
X96947722Y-87824496D01*
X96921065Y-87838373D01*
X96746872Y-87929052D01*
X96742739Y-87932155D01*
X96742736Y-87932157D01*
X96720984Y-87948489D01*
X96561655Y-88068117D01*
X96401639Y-88235564D01*
X96398730Y-88239829D01*
X96398724Y-88239837D01*
X96383152Y-88262665D01*
X96271119Y-88426899D01*
X96173602Y-88636981D01*
X96111707Y-88860169D01*
X96087095Y-89090469D01*
X96087392Y-89095622D01*
X96087392Y-89095625D01*
X96093067Y-89194041D01*
X96100427Y-89321697D01*
X96101564Y-89326743D01*
X96101565Y-89326749D01*
X96123408Y-89423671D01*
X96151346Y-89547642D01*
X96153288Y-89552424D01*
X96153289Y-89552428D01*
X96229393Y-89739849D01*
X96238484Y-89762237D01*
X96359501Y-89959719D01*
X96511147Y-90134784D01*
X96689349Y-90282730D01*
X96889322Y-90399584D01*
X97105694Y-90482209D01*
X97110760Y-90483240D01*
X97110761Y-90483240D01*
X97163846Y-90494040D01*
X97332656Y-90528385D01*
X97463324Y-90533176D01*
X97558949Y-90536683D01*
X97558953Y-90536683D01*
X97564113Y-90536872D01*
X97569233Y-90536216D01*
X97569235Y-90536216D01*
X97659293Y-90524679D01*
X97793847Y-90507442D01*
X97798795Y-90505957D01*
X97798802Y-90505956D01*
X98010747Y-90442369D01*
X98015690Y-90440886D01*
X98096236Y-90401427D01*
X98219049Y-90341262D01*
X98219052Y-90341260D01*
X98223684Y-90338991D01*
X98412243Y-90204494D01*
X98576303Y-90041005D01*
X98645370Y-89944888D01*
X98701365Y-89901240D01*
X98772068Y-89894794D01*
X98835033Y-89927597D01*
X98855128Y-89952584D01*
X98856799Y-89955311D01*
X98856804Y-89955317D01*
X98859501Y-89959719D01*
X99011147Y-90134784D01*
X99189349Y-90282730D01*
X99389322Y-90399584D01*
X99605694Y-90482209D01*
X99610760Y-90483240D01*
X99610761Y-90483240D01*
X99663846Y-90494040D01*
X99832656Y-90528385D01*
X99963324Y-90533176D01*
X100058949Y-90536683D01*
X100058953Y-90536683D01*
X100064113Y-90536872D01*
X100069233Y-90536216D01*
X100069235Y-90536216D01*
X100159293Y-90524679D01*
X100293847Y-90507442D01*
X100298795Y-90505957D01*
X100298802Y-90505956D01*
X100510747Y-90442369D01*
X100515690Y-90440886D01*
X100596236Y-90401427D01*
X100719049Y-90341262D01*
X100719052Y-90341260D01*
X100723684Y-90338991D01*
X100912243Y-90204494D01*
X101076303Y-90041005D01*
X101145370Y-89944888D01*
X101201365Y-89901240D01*
X101272068Y-89894794D01*
X101335033Y-89927597D01*
X101355128Y-89952584D01*
X101356799Y-89955311D01*
X101356804Y-89955317D01*
X101359501Y-89959719D01*
X101511147Y-90134784D01*
X101689349Y-90282730D01*
X101889322Y-90399584D01*
X102105694Y-90482209D01*
X102110760Y-90483240D01*
X102110761Y-90483240D01*
X102163846Y-90494040D01*
X102332656Y-90528385D01*
X102463324Y-90533176D01*
X102558949Y-90536683D01*
X102558953Y-90536683D01*
X102564113Y-90536872D01*
X102746594Y-90513495D01*
X102816703Y-90524679D01*
X102851698Y-90549379D01*
X107804595Y-95502276D01*
X107838621Y-95564588D01*
X107841500Y-95591371D01*
X107841500Y-97868133D01*
X107821498Y-97936254D01*
X107787772Y-97971345D01*
X107755700Y-97993802D01*
X107593802Y-98155700D01*
X107590645Y-98160208D01*
X107590643Y-98160211D01*
X107553840Y-98212771D01*
X107498382Y-98257099D01*
X107450627Y-98266500D01*
X105326867Y-98266500D01*
X105258746Y-98246498D01*
X105223654Y-98212771D01*
X105201198Y-98180700D01*
X105039300Y-98018802D01*
X105034792Y-98015645D01*
X105034789Y-98015643D01*
X104956611Y-97960902D01*
X104851749Y-97887477D01*
X104846767Y-97885154D01*
X104846762Y-97885151D01*
X104649225Y-97793039D01*
X104649224Y-97793039D01*
X104644243Y-97790716D01*
X104638935Y-97789294D01*
X104638933Y-97789293D01*
X104428402Y-97732881D01*
X104428400Y-97732881D01*
X104423087Y-97731457D01*
X104323520Y-97722746D01*
X104254851Y-97716738D01*
X104254844Y-97716738D01*
X104252127Y-97716500D01*
X103337873Y-97716500D01*
X103335156Y-97716738D01*
X103335149Y-97716738D01*
X103266480Y-97722746D01*
X103166913Y-97731457D01*
X103161600Y-97732881D01*
X103161598Y-97732881D01*
X102951067Y-97789293D01*
X102951065Y-97789294D01*
X102945757Y-97790716D01*
X102940776Y-97793039D01*
X102940775Y-97793039D01*
X102743238Y-97885151D01*
X102743233Y-97885154D01*
X102738251Y-97887477D01*
X102633389Y-97960902D01*
X102555211Y-98015643D01*
X102555208Y-98015645D01*
X102550700Y-98018802D01*
X102388802Y-98180700D01*
X102385645Y-98185208D01*
X102385643Y-98185211D01*
X102342730Y-98246498D01*
X102257477Y-98368251D01*
X102255154Y-98373233D01*
X102255151Y-98373238D01*
X102169817Y-98556239D01*
X102160716Y-98575757D01*
X102101457Y-98796913D01*
X102081502Y-99025000D01*
X102101457Y-99253087D01*
X102102881Y-99258400D01*
X102102881Y-99258402D01*
X102131286Y-99364408D01*
X102160716Y-99474243D01*
X102163039Y-99479224D01*
X102163039Y-99479225D01*
X102255151Y-99676762D01*
X102255154Y-99676767D01*
X102257477Y-99681749D01*
X102260634Y-99686257D01*
X102371297Y-99844300D01*
X102388802Y-99869300D01*
X102550700Y-100031198D01*
X102555208Y-100034355D01*
X102555211Y-100034357D01*
X102612237Y-100074287D01*
X102738251Y-100162523D01*
X102743233Y-100164846D01*
X102743238Y-100164849D01*
X102777457Y-100180805D01*
X102830742Y-100227722D01*
X102850203Y-100295999D01*
X102829661Y-100363959D01*
X102777457Y-100409195D01*
X102743238Y-100425151D01*
X102743233Y-100425154D01*
X102738251Y-100427477D01*
X102633389Y-100500902D01*
X102555211Y-100555643D01*
X102555208Y-100555645D01*
X102550700Y-100558802D01*
X102388802Y-100720700D01*
X102257477Y-100908251D01*
X102255154Y-100913233D01*
X102255151Y-100913238D01*
X102174409Y-101086392D01*
X102160716Y-101115757D01*
X102159294Y-101121065D01*
X102159293Y-101121067D01*
X102114965Y-101286502D01*
X102101457Y-101336913D01*
X102081502Y-101565000D01*
X102101457Y-101793087D01*
X102102881Y-101798400D01*
X102102881Y-101798402D01*
X102152502Y-101983588D01*
X102150812Y-102054564D01*
X102111018Y-102113360D01*
X102045754Y-102141308D01*
X102030795Y-102142199D01*
X100240294Y-102142199D01*
X100172173Y-102122197D01*
X100151199Y-102105294D01*
X97920405Y-99874500D01*
X97886379Y-99812188D01*
X97883500Y-99785405D01*
X97883500Y-98176866D01*
X97876745Y-98114684D01*
X97825615Y-97978295D01*
X97738261Y-97861739D01*
X97621705Y-97774385D01*
X97485316Y-97723255D01*
X97423134Y-97716500D01*
X94926866Y-97716500D01*
X94864684Y-97723255D01*
X94728295Y-97774385D01*
X94611739Y-97861739D01*
X94524385Y-97978295D01*
X94473255Y-98114684D01*
X94466500Y-98176866D01*
X94466500Y-98265500D01*
X94446498Y-98333621D01*
X94392842Y-98380114D01*
X94340500Y-98391500D01*
X93873763Y-98391500D01*
X93862579Y-98390973D01*
X93855091Y-98389299D01*
X93847168Y-98389548D01*
X93787033Y-98391438D01*
X93783075Y-98391500D01*
X93755144Y-98391500D01*
X93751229Y-98391995D01*
X93751225Y-98391995D01*
X93751167Y-98392003D01*
X93751138Y-98392006D01*
X93739296Y-98392939D01*
X93695110Y-98394327D01*
X93677744Y-98399372D01*
X93675658Y-98399978D01*
X93656306Y-98403986D01*
X93644068Y-98405532D01*
X93644066Y-98405533D01*
X93636203Y-98406526D01*
X93595086Y-98422806D01*
X93583885Y-98426641D01*
X93541406Y-98438982D01*
X93534587Y-98443015D01*
X93534582Y-98443017D01*
X93523971Y-98449293D01*
X93506221Y-98457990D01*
X93487383Y-98465448D01*
X93480967Y-98470109D01*
X93480966Y-98470110D01*
X93451625Y-98491428D01*
X93441701Y-98497947D01*
X93410460Y-98516422D01*
X93410455Y-98516426D01*
X93403637Y-98520458D01*
X93389313Y-98534782D01*
X93374281Y-98547621D01*
X93357893Y-98559528D01*
X93329712Y-98593593D01*
X93321722Y-98602373D01*
X90633247Y-101290848D01*
X90570935Y-101324874D01*
X90511542Y-101323460D01*
X90448087Y-101306457D01*
X90220000Y-101286502D01*
X89991913Y-101306457D01*
X89986600Y-101307881D01*
X89986598Y-101307881D01*
X89776067Y-101364293D01*
X89776065Y-101364294D01*
X89770757Y-101365716D01*
X89765776Y-101368039D01*
X89765775Y-101368039D01*
X89568238Y-101460151D01*
X89568233Y-101460154D01*
X89563251Y-101462477D01*
X89458389Y-101535902D01*
X89380211Y-101590643D01*
X89380208Y-101590645D01*
X89375700Y-101593802D01*
X89213802Y-101755700D01*
X89210645Y-101760208D01*
X89210643Y-101760211D01*
X89181118Y-101802377D01*
X89082477Y-101943251D01*
X89080154Y-101948233D01*
X89080151Y-101948238D01*
X88988039Y-102145775D01*
X88985716Y-102150757D01*
X88984294Y-102156065D01*
X88984293Y-102156067D01*
X88927883Y-102366591D01*
X88926457Y-102371913D01*
X88906502Y-102600000D01*
X88926457Y-102828087D01*
X88927881Y-102833400D01*
X88927881Y-102833402D01*
X88980934Y-103031395D01*
X88985716Y-103049243D01*
X88988039Y-103054224D01*
X88988039Y-103054225D01*
X89080151Y-103251762D01*
X89080154Y-103251767D01*
X89082477Y-103256749D01*
X89132690Y-103328460D01*
X89203230Y-103429201D01*
X89213802Y-103444300D01*
X89320907Y-103551405D01*
X89354933Y-103613717D01*
X89349868Y-103684532D01*
X89307321Y-103741368D01*
X89240801Y-103766179D01*
X89231812Y-103766500D01*
X84714595Y-103766500D01*
X84646474Y-103746498D01*
X84625500Y-103729595D01*
X84344500Y-103448595D01*
X84310474Y-103386283D01*
X84315539Y-103315468D01*
X84358086Y-103258632D01*
X84424606Y-103233821D01*
X84433595Y-103233500D01*
X86541233Y-103233500D01*
X86552416Y-103234027D01*
X86559909Y-103235702D01*
X86567835Y-103235453D01*
X86567836Y-103235453D01*
X86627986Y-103233562D01*
X86631945Y-103233500D01*
X86659856Y-103233500D01*
X86663791Y-103233003D01*
X86663856Y-103232995D01*
X86675693Y-103232062D01*
X86707951Y-103231048D01*
X86711970Y-103230922D01*
X86719889Y-103230673D01*
X86739343Y-103225021D01*
X86758700Y-103221013D01*
X86770930Y-103219468D01*
X86770931Y-103219468D01*
X86778797Y-103218474D01*
X86786168Y-103215555D01*
X86786170Y-103215555D01*
X86819912Y-103202196D01*
X86831142Y-103198351D01*
X86865983Y-103188229D01*
X86865984Y-103188229D01*
X86873593Y-103186018D01*
X86880412Y-103181985D01*
X86880417Y-103181983D01*
X86891028Y-103175707D01*
X86908776Y-103167012D01*
X86927617Y-103159552D01*
X86963387Y-103133564D01*
X86973307Y-103127048D01*
X87004535Y-103108580D01*
X87004538Y-103108578D01*
X87011362Y-103104542D01*
X87025683Y-103090221D01*
X87040717Y-103077380D01*
X87050694Y-103070131D01*
X87057107Y-103065472D01*
X87085298Y-103031395D01*
X87093288Y-103022616D01*
X89806752Y-100309152D01*
X89869064Y-100275126D01*
X89928459Y-100276541D01*
X89986591Y-100292118D01*
X89986602Y-100292120D01*
X89991913Y-100293543D01*
X90220000Y-100313498D01*
X90448087Y-100293543D01*
X90453400Y-100292119D01*
X90453402Y-100292119D01*
X90663933Y-100235707D01*
X90663935Y-100235706D01*
X90669243Y-100234284D01*
X90675235Y-100231490D01*
X90871762Y-100139849D01*
X90871767Y-100139846D01*
X90876749Y-100137523D01*
X91024085Y-100034357D01*
X91059789Y-100009357D01*
X91059792Y-100009355D01*
X91064300Y-100006198D01*
X91226198Y-99844300D01*
X91231149Y-99837230D01*
X91318688Y-99712211D01*
X91357523Y-99656749D01*
X91359846Y-99651767D01*
X91359849Y-99651762D01*
X91451961Y-99454225D01*
X91451961Y-99454224D01*
X91454284Y-99449243D01*
X91474976Y-99372022D01*
X91512119Y-99233402D01*
X91512119Y-99233400D01*
X91513543Y-99228087D01*
X91533498Y-99000000D01*
X91513543Y-98771913D01*
X91476981Y-98635461D01*
X91455707Y-98556067D01*
X91455706Y-98556065D01*
X91454284Y-98550757D01*
X91451961Y-98545775D01*
X91359849Y-98348238D01*
X91359846Y-98348233D01*
X91357523Y-98343251D01*
X91246862Y-98185211D01*
X91229357Y-98160211D01*
X91229355Y-98160208D01*
X91226198Y-98155700D01*
X91064300Y-97993802D01*
X91059792Y-97990645D01*
X91059789Y-97990643D01*
X90933920Y-97902509D01*
X90876749Y-97862477D01*
X90871767Y-97860154D01*
X90871762Y-97860151D01*
X90674225Y-97768039D01*
X90674224Y-97768039D01*
X90669243Y-97765716D01*
X90663935Y-97764294D01*
X90663933Y-97764293D01*
X90453402Y-97707881D01*
X90453400Y-97707881D01*
X90448087Y-97706457D01*
X90220000Y-97686502D01*
X89991913Y-97706457D01*
X89986600Y-97707881D01*
X89986598Y-97707881D01*
X89776067Y-97764293D01*
X89776065Y-97764294D01*
X89770757Y-97765716D01*
X89765776Y-97768039D01*
X89765775Y-97768039D01*
X89568238Y-97860151D01*
X89568233Y-97860154D01*
X89563251Y-97862477D01*
X89506080Y-97902509D01*
X89380211Y-97990643D01*
X89380208Y-97990645D01*
X89375700Y-97993802D01*
X89213802Y-98155700D01*
X89210645Y-98160208D01*
X89210643Y-98160211D01*
X89193138Y-98185211D01*
X89082477Y-98343251D01*
X89080154Y-98348233D01*
X89080151Y-98348238D01*
X88988039Y-98545775D01*
X88985716Y-98550757D01*
X88984294Y-98556065D01*
X88984293Y-98556067D01*
X88963019Y-98635461D01*
X88926457Y-98771913D01*
X88906502Y-99000000D01*
X88926457Y-99228087D01*
X88927880Y-99233398D01*
X88927882Y-99233409D01*
X88943459Y-99291541D01*
X88941770Y-99362517D01*
X88910848Y-99413248D01*
X86394500Y-101929595D01*
X86332188Y-101963621D01*
X86305405Y-101966500D01*
X83819394Y-101966500D01*
X83751273Y-101946498D01*
X83716181Y-101912771D01*
X83609357Y-101760211D01*
X83609355Y-101760208D01*
X83606198Y-101755700D01*
X83444300Y-101593802D01*
X83439792Y-101590645D01*
X83439789Y-101590643D01*
X83361611Y-101535902D01*
X83256749Y-101462477D01*
X83251767Y-101460154D01*
X83251762Y-101460151D01*
X83054225Y-101368039D01*
X83054224Y-101368039D01*
X83049243Y-101365716D01*
X83043935Y-101364294D01*
X83043933Y-101364293D01*
X82833402Y-101307881D01*
X82833400Y-101307881D01*
X82828087Y-101306457D01*
X82600000Y-101286502D01*
X82371913Y-101306457D01*
X82366600Y-101307881D01*
X82366598Y-101307881D01*
X82217111Y-101347936D01*
X82146135Y-101346246D01*
X82087339Y-101306452D01*
X82059391Y-101241188D01*
X82058500Y-101226229D01*
X82058500Y-100373771D01*
X82078502Y-100305650D01*
X82132158Y-100259157D01*
X82202432Y-100249053D01*
X82217111Y-100252064D01*
X82366598Y-100292119D01*
X82366600Y-100292119D01*
X82371913Y-100293543D01*
X82600000Y-100313498D01*
X82828087Y-100293543D01*
X82833400Y-100292119D01*
X82833402Y-100292119D01*
X83043933Y-100235707D01*
X83043935Y-100235706D01*
X83049243Y-100234284D01*
X83055235Y-100231490D01*
X83251762Y-100139849D01*
X83251767Y-100139846D01*
X83256749Y-100137523D01*
X83404085Y-100034357D01*
X83439789Y-100009357D01*
X83439792Y-100009355D01*
X83444300Y-100006198D01*
X83606198Y-99844300D01*
X83611149Y-99837230D01*
X83698688Y-99712211D01*
X83737523Y-99656749D01*
X83739846Y-99651767D01*
X83739849Y-99651762D01*
X83831961Y-99454225D01*
X83831961Y-99454224D01*
X83834284Y-99449243D01*
X83854976Y-99372022D01*
X83892119Y-99233402D01*
X83892119Y-99233400D01*
X83893543Y-99228087D01*
X83913498Y-99000000D01*
X83893543Y-98771913D01*
X83856981Y-98635461D01*
X83835707Y-98556067D01*
X83835706Y-98556065D01*
X83834284Y-98550757D01*
X83831961Y-98545775D01*
X83739849Y-98348238D01*
X83739846Y-98348233D01*
X83737523Y-98343251D01*
X83626862Y-98185211D01*
X83609357Y-98160211D01*
X83609355Y-98160208D01*
X83606198Y-98155700D01*
X83444300Y-97993802D01*
X83439792Y-97990645D01*
X83439789Y-97990643D01*
X83313920Y-97902509D01*
X83256749Y-97862477D01*
X83251767Y-97860154D01*
X83251762Y-97860151D01*
X83054225Y-97768039D01*
X83054224Y-97768039D01*
X83049243Y-97765716D01*
X83043935Y-97764294D01*
X83043933Y-97764293D01*
X82833402Y-97707881D01*
X82833400Y-97707881D01*
X82828087Y-97706457D01*
X82600000Y-97686502D01*
X82371913Y-97706457D01*
X82366600Y-97707881D01*
X82366598Y-97707881D01*
X82217111Y-97747936D01*
X82146135Y-97746246D01*
X82087339Y-97706452D01*
X82059391Y-97641188D01*
X82058500Y-97626229D01*
X82058500Y-89899895D01*
X82078502Y-89831774D01*
X82132158Y-89785281D01*
X82202432Y-89775177D01*
X82237750Y-89785700D01*
X82335947Y-89831490D01*
X82346239Y-89835236D01*
X82518503Y-89881394D01*
X82532599Y-89881058D01*
X82536000Y-89873116D01*
X82536000Y-89867967D01*
X83044000Y-89867967D01*
X83047973Y-89881498D01*
X83056522Y-89882727D01*
X83233761Y-89835236D01*
X83244053Y-89831490D01*
X83441511Y-89739414D01*
X83451007Y-89733931D01*
X83629467Y-89608972D01*
X83637875Y-89601916D01*
X83791916Y-89447875D01*
X83798972Y-89439467D01*
X83923931Y-89261007D01*
X83929414Y-89251511D01*
X84021490Y-89054053D01*
X84025236Y-89043761D01*
X84071394Y-88871497D01*
X84071058Y-88857401D01*
X84063116Y-88854000D01*
X83062115Y-88854000D01*
X83046876Y-88858475D01*
X83045671Y-88859865D01*
X83044000Y-88867548D01*
X83044000Y-89867967D01*
X82536000Y-89867967D01*
X82536000Y-88600000D01*
X89096502Y-88600000D01*
X89116457Y-88828087D01*
X89117881Y-88833400D01*
X89117881Y-88833402D01*
X89131452Y-88884047D01*
X89175716Y-89049243D01*
X89178039Y-89054224D01*
X89178039Y-89054225D01*
X89270151Y-89251762D01*
X89270154Y-89251767D01*
X89272477Y-89256749D01*
X89403802Y-89444300D01*
X89565700Y-89606198D01*
X89570208Y-89609355D01*
X89570211Y-89609357D01*
X89648389Y-89664098D01*
X89753251Y-89737523D01*
X89758233Y-89739846D01*
X89758238Y-89739849D01*
X89954765Y-89831490D01*
X89960757Y-89834284D01*
X89966065Y-89835706D01*
X89966067Y-89835707D01*
X90176598Y-89892119D01*
X90176600Y-89892119D01*
X90181913Y-89893543D01*
X90410000Y-89913498D01*
X90638087Y-89893543D01*
X90643400Y-89892119D01*
X90643402Y-89892119D01*
X90853933Y-89835707D01*
X90853935Y-89835706D01*
X90859243Y-89834284D01*
X90865235Y-89831490D01*
X91061762Y-89739849D01*
X91061767Y-89739846D01*
X91066749Y-89737523D01*
X91171611Y-89664098D01*
X91249789Y-89609357D01*
X91249792Y-89609355D01*
X91254300Y-89606198D01*
X91416198Y-89444300D01*
X91547523Y-89256749D01*
X91549846Y-89251767D01*
X91549849Y-89251762D01*
X91641961Y-89054225D01*
X91641961Y-89054224D01*
X91644284Y-89049243D01*
X91688549Y-88884047D01*
X91702119Y-88833402D01*
X91702119Y-88833400D01*
X91703543Y-88828087D01*
X91723498Y-88600000D01*
X91703543Y-88371913D01*
X91674270Y-88262665D01*
X91645707Y-88156067D01*
X91645706Y-88156065D01*
X91644284Y-88150757D01*
X91616586Y-88091358D01*
X91549849Y-87948238D01*
X91549846Y-87948233D01*
X91547523Y-87943251D01*
X91416198Y-87755700D01*
X91254300Y-87593802D01*
X91249792Y-87590645D01*
X91249789Y-87590643D01*
X91171611Y-87535902D01*
X91066749Y-87462477D01*
X91061767Y-87460154D01*
X91061762Y-87460151D01*
X90864225Y-87368039D01*
X90864224Y-87368039D01*
X90859243Y-87365716D01*
X90853935Y-87364294D01*
X90853933Y-87364293D01*
X90643402Y-87307881D01*
X90643400Y-87307881D01*
X90638087Y-87306457D01*
X90410000Y-87286502D01*
X90181913Y-87306457D01*
X90176600Y-87307881D01*
X90176598Y-87307881D01*
X89966067Y-87364293D01*
X89966065Y-87364294D01*
X89960757Y-87365716D01*
X89955776Y-87368039D01*
X89955775Y-87368039D01*
X89758238Y-87460151D01*
X89758233Y-87460154D01*
X89753251Y-87462477D01*
X89648389Y-87535902D01*
X89570211Y-87590643D01*
X89570208Y-87590645D01*
X89565700Y-87593802D01*
X89403802Y-87755700D01*
X89272477Y-87943251D01*
X89270154Y-87948233D01*
X89270151Y-87948238D01*
X89203414Y-88091358D01*
X89175716Y-88150757D01*
X89174294Y-88156065D01*
X89174293Y-88156067D01*
X89145730Y-88262665D01*
X89116457Y-88371913D01*
X89096502Y-88600000D01*
X82536000Y-88600000D01*
X82536000Y-88327885D01*
X83044000Y-88327885D01*
X83048475Y-88343124D01*
X83049865Y-88344329D01*
X83057548Y-88346000D01*
X84057967Y-88346000D01*
X84071498Y-88342027D01*
X84072727Y-88333478D01*
X84025236Y-88156239D01*
X84021490Y-88145947D01*
X83929414Y-87948489D01*
X83923931Y-87938993D01*
X83798972Y-87760533D01*
X83791916Y-87752125D01*
X83637875Y-87598084D01*
X83629467Y-87591028D01*
X83451007Y-87466069D01*
X83441511Y-87460586D01*
X83244053Y-87368510D01*
X83233761Y-87364764D01*
X83061497Y-87318606D01*
X83047401Y-87318942D01*
X83044000Y-87326884D01*
X83044000Y-88327885D01*
X82536000Y-88327885D01*
X82536000Y-87332033D01*
X82532027Y-87318502D01*
X82523478Y-87317273D01*
X82346239Y-87364764D01*
X82335947Y-87368510D01*
X82237750Y-87414300D01*
X82167558Y-87424961D01*
X82102745Y-87395981D01*
X82063889Y-87336561D01*
X82058500Y-87300105D01*
X82058500Y-81625000D01*
X92736540Y-81625000D01*
X92756359Y-81940020D01*
X92815505Y-82250072D01*
X92913044Y-82550266D01*
X92914731Y-82553852D01*
X92914733Y-82553856D01*
X93045750Y-82832283D01*
X93045754Y-82832290D01*
X93047438Y-82835869D01*
X93216568Y-83102375D01*
X93417767Y-83345582D01*
X93647860Y-83561654D01*
X93903221Y-83747184D01*
X94179821Y-83899247D01*
X94183490Y-83900700D01*
X94183495Y-83900702D01*
X94469628Y-84013990D01*
X94473298Y-84015443D01*
X94779025Y-84093940D01*
X95092179Y-84133500D01*
X95407821Y-84133500D01*
X95720975Y-84093940D01*
X96026702Y-84015443D01*
X96030372Y-84013990D01*
X96316505Y-83900702D01*
X96316510Y-83900700D01*
X96320179Y-83899247D01*
X96596779Y-83747184D01*
X96852140Y-83561654D01*
X97082233Y-83345582D01*
X97283432Y-83102375D01*
X97452562Y-82835869D01*
X97454246Y-82832290D01*
X97454250Y-82832283D01*
X97585267Y-82553856D01*
X97585269Y-82553852D01*
X97586956Y-82550266D01*
X97684495Y-82250072D01*
X97743641Y-81940020D01*
X97763460Y-81625000D01*
X102236540Y-81625000D01*
X102256359Y-81940020D01*
X102315505Y-82250072D01*
X102413044Y-82550266D01*
X102414731Y-82553852D01*
X102414733Y-82553856D01*
X102545750Y-82832283D01*
X102545754Y-82832290D01*
X102547438Y-82835869D01*
X102716568Y-83102375D01*
X102917767Y-83345582D01*
X103147860Y-83561654D01*
X103403221Y-83747184D01*
X103679821Y-83899247D01*
X103683490Y-83900700D01*
X103683495Y-83900702D01*
X103969628Y-84013990D01*
X103973298Y-84015443D01*
X104279025Y-84093940D01*
X104592179Y-84133500D01*
X104907821Y-84133500D01*
X105220975Y-84093940D01*
X105526702Y-84015443D01*
X105530372Y-84013990D01*
X105816505Y-83900702D01*
X105816510Y-83900700D01*
X105820179Y-83899247D01*
X106096779Y-83747184D01*
X106352140Y-83561654D01*
X106582233Y-83345582D01*
X106783432Y-83102375D01*
X106952562Y-82835869D01*
X106954246Y-82832290D01*
X106954250Y-82832283D01*
X107085267Y-82553856D01*
X107085269Y-82553852D01*
X107086956Y-82550266D01*
X107184495Y-82250072D01*
X107243641Y-81940020D01*
X107263460Y-81625000D01*
X107243641Y-81309980D01*
X107184495Y-80999928D01*
X107086956Y-80699734D01*
X107085267Y-80696144D01*
X106954250Y-80417717D01*
X106954246Y-80417710D01*
X106952562Y-80414131D01*
X106783432Y-80147625D01*
X106582233Y-79904418D01*
X106352140Y-79688346D01*
X106096779Y-79502816D01*
X105820179Y-79350753D01*
X105816510Y-79349300D01*
X105816505Y-79349298D01*
X105530372Y-79236010D01*
X105530371Y-79236010D01*
X105526702Y-79234557D01*
X105220975Y-79156060D01*
X104907821Y-79116500D01*
X104592179Y-79116500D01*
X104279025Y-79156060D01*
X103973298Y-79234557D01*
X103969629Y-79236010D01*
X103969628Y-79236010D01*
X103683495Y-79349298D01*
X103683490Y-79349300D01*
X103679821Y-79350753D01*
X103403221Y-79502816D01*
X103147860Y-79688346D01*
X102917767Y-79904418D01*
X102716568Y-80147625D01*
X102547438Y-80414131D01*
X102545754Y-80417710D01*
X102545750Y-80417717D01*
X102414733Y-80696144D01*
X102413044Y-80699734D01*
X102315505Y-80999928D01*
X102256359Y-81309980D01*
X102236540Y-81625000D01*
X97763460Y-81625000D01*
X97743641Y-81309980D01*
X97684495Y-80999928D01*
X97586956Y-80699734D01*
X97585267Y-80696144D01*
X97454250Y-80417717D01*
X97454246Y-80417710D01*
X97452562Y-80414131D01*
X97283432Y-80147625D01*
X97082233Y-79904418D01*
X96852140Y-79688346D01*
X96596779Y-79502816D01*
X96320179Y-79350753D01*
X96316510Y-79349300D01*
X96316505Y-79349298D01*
X96030372Y-79236010D01*
X96030371Y-79236010D01*
X96026702Y-79234557D01*
X95720975Y-79156060D01*
X95407821Y-79116500D01*
X95092179Y-79116500D01*
X94779025Y-79156060D01*
X94473298Y-79234557D01*
X94469629Y-79236010D01*
X94469628Y-79236010D01*
X94183495Y-79349298D01*
X94183490Y-79349300D01*
X94179821Y-79350753D01*
X93903221Y-79502816D01*
X93647860Y-79688346D01*
X93417767Y-79904418D01*
X93216568Y-80147625D01*
X93047438Y-80414131D01*
X93045754Y-80417710D01*
X93045750Y-80417717D01*
X92914733Y-80696144D01*
X92913044Y-80699734D01*
X92815505Y-80999928D01*
X92756359Y-81309980D01*
X92736540Y-81625000D01*
X82058500Y-81625000D01*
X82058500Y-73800000D01*
X108876502Y-73800000D01*
X108896457Y-74028087D01*
X108897881Y-74033400D01*
X108897881Y-74033402D01*
X108945255Y-74210201D01*
X108955716Y-74249243D01*
X108958039Y-74254224D01*
X108958039Y-74254225D01*
X109050151Y-74451762D01*
X109050154Y-74451767D01*
X109052477Y-74456749D01*
X109183802Y-74644300D01*
X109345700Y-74806198D01*
X109350208Y-74809355D01*
X109350211Y-74809357D01*
X109428389Y-74864098D01*
X109533251Y-74937523D01*
X109538233Y-74939846D01*
X109538238Y-74939849D01*
X109734765Y-75031490D01*
X109740757Y-75034284D01*
X109746065Y-75035706D01*
X109746067Y-75035707D01*
X109956598Y-75092119D01*
X109956600Y-75092119D01*
X109961913Y-75093543D01*
X110190000Y-75113498D01*
X110418087Y-75093543D01*
X110423400Y-75092119D01*
X110423402Y-75092119D01*
X110633933Y-75035707D01*
X110633935Y-75035706D01*
X110639243Y-75034284D01*
X110645235Y-75031490D01*
X110841762Y-74939849D01*
X110841767Y-74939846D01*
X110846749Y-74937523D01*
X110951611Y-74864098D01*
X111029789Y-74809357D01*
X111029792Y-74809355D01*
X111034300Y-74806198D01*
X111196198Y-74644300D01*
X111327523Y-74456749D01*
X111329846Y-74451767D01*
X111329849Y-74451762D01*
X111421961Y-74254225D01*
X111421961Y-74254224D01*
X111424284Y-74249243D01*
X111434746Y-74210201D01*
X111482119Y-74033402D01*
X111482119Y-74033400D01*
X111483543Y-74028087D01*
X111503498Y-73800000D01*
X111483543Y-73571913D01*
X111475028Y-73540135D01*
X111425707Y-73356067D01*
X111425706Y-73356065D01*
X111424284Y-73350757D01*
X111421961Y-73345775D01*
X111329849Y-73148238D01*
X111329846Y-73148233D01*
X111327523Y-73143251D01*
X111196198Y-72955700D01*
X111034300Y-72793802D01*
X111029792Y-72790645D01*
X111029789Y-72790643D01*
X110951611Y-72735902D01*
X110846749Y-72662477D01*
X110841767Y-72660154D01*
X110841762Y-72660151D01*
X110644225Y-72568039D01*
X110644224Y-72568039D01*
X110639243Y-72565716D01*
X110633935Y-72564294D01*
X110633933Y-72564293D01*
X110423402Y-72507881D01*
X110423400Y-72507881D01*
X110418087Y-72506457D01*
X110190000Y-72486502D01*
X109961913Y-72506457D01*
X109956600Y-72507881D01*
X109956598Y-72507881D01*
X109746067Y-72564293D01*
X109746065Y-72564294D01*
X109740757Y-72565716D01*
X109735776Y-72568039D01*
X109735775Y-72568039D01*
X109538238Y-72660151D01*
X109538233Y-72660154D01*
X109533251Y-72662477D01*
X109428389Y-72735902D01*
X109350211Y-72790643D01*
X109350208Y-72790645D01*
X109345700Y-72793802D01*
X109183802Y-72955700D01*
X109052477Y-73143251D01*
X109050154Y-73148233D01*
X109050151Y-73148238D01*
X108958039Y-73345775D01*
X108955716Y-73350757D01*
X108954294Y-73356065D01*
X108954293Y-73356067D01*
X108904972Y-73540135D01*
X108896457Y-73571913D01*
X108876502Y-73800000D01*
X82058500Y-73800000D01*
X82058500Y-71767192D01*
X82078502Y-71699071D01*
X82132158Y-71652578D01*
X82202432Y-71642474D01*
X82271630Y-71676174D01*
X82394285Y-71793590D01*
X82399320Y-71796841D01*
X82570954Y-71907664D01*
X82570957Y-71907665D01*
X82575991Y-71910916D01*
X82776604Y-71991766D01*
X82782485Y-71992914D01*
X82782490Y-71992916D01*
X82984441Y-72032354D01*
X82984444Y-72032354D01*
X82988887Y-72033222D01*
X82994571Y-72033500D01*
X83154041Y-72033500D01*
X83315315Y-72018113D01*
X83522860Y-71957226D01*
X83528188Y-71954482D01*
X83709817Y-71860937D01*
X83709820Y-71860935D01*
X83715148Y-71858191D01*
X83802666Y-71789445D01*
X83880522Y-71728289D01*
X83880527Y-71728285D01*
X83885239Y-71724583D01*
X83889171Y-71720052D01*
X84023067Y-71565752D01*
X84023071Y-71565747D01*
X84026998Y-71561221D01*
X84135307Y-71374001D01*
X84183825Y-71234284D01*
X84204293Y-71175342D01*
X84204294Y-71175340D01*
X84206260Y-71169677D01*
X84237297Y-70955623D01*
X84233208Y-70867283D01*
X84229623Y-70789826D01*
X84246454Y-70720853D01*
X84297902Y-70671929D01*
X84355488Y-70658000D01*
X84427885Y-70658000D01*
X84443124Y-70653525D01*
X84444329Y-70652135D01*
X84446000Y-70644452D01*
X84446000Y-70639884D01*
X84954000Y-70639884D01*
X84958475Y-70655123D01*
X84959865Y-70656328D01*
X84967548Y-70657999D01*
X85472095Y-70657999D01*
X85478614Y-70657662D01*
X85574206Y-70647743D01*
X85587600Y-70644851D01*
X85741784Y-70593412D01*
X85754962Y-70587239D01*
X85892807Y-70501937D01*
X85904208Y-70492901D01*
X86018739Y-70378171D01*
X86027751Y-70366760D01*
X86112816Y-70228757D01*
X86118963Y-70215576D01*
X86170138Y-70061290D01*
X86173005Y-70047914D01*
X86177914Y-70000000D01*
X108876502Y-70000000D01*
X108896457Y-70228087D01*
X108897881Y-70233400D01*
X108897881Y-70233402D01*
X108945572Y-70411384D01*
X108955716Y-70449243D01*
X108958039Y-70454224D01*
X108958039Y-70454225D01*
X109050151Y-70651762D01*
X109050154Y-70651767D01*
X109052477Y-70656749D01*
X109183802Y-70844300D01*
X109345700Y-71006198D01*
X109350208Y-71009355D01*
X109350211Y-71009357D01*
X109428389Y-71064098D01*
X109533251Y-71137523D01*
X109538233Y-71139846D01*
X109538238Y-71139849D01*
X109735775Y-71231961D01*
X109740757Y-71234284D01*
X109746065Y-71235706D01*
X109746067Y-71235707D01*
X109956598Y-71292119D01*
X109956600Y-71292119D01*
X109961913Y-71293543D01*
X110190000Y-71313498D01*
X110418087Y-71293543D01*
X110423400Y-71292119D01*
X110423402Y-71292119D01*
X110633933Y-71235707D01*
X110633935Y-71235706D01*
X110639243Y-71234284D01*
X110644225Y-71231961D01*
X110841762Y-71139849D01*
X110841767Y-71139846D01*
X110846749Y-71137523D01*
X110951611Y-71064098D01*
X111029789Y-71009357D01*
X111029792Y-71009355D01*
X111034300Y-71006198D01*
X111196198Y-70844300D01*
X111327523Y-70656749D01*
X111329846Y-70651767D01*
X111329849Y-70651762D01*
X111421961Y-70454225D01*
X111421961Y-70454224D01*
X111424284Y-70449243D01*
X111434429Y-70411384D01*
X111482119Y-70233402D01*
X111482119Y-70233400D01*
X111483543Y-70228087D01*
X111503498Y-70000000D01*
X111483543Y-69771913D01*
X111428783Y-69567548D01*
X111425707Y-69556067D01*
X111425706Y-69556065D01*
X111424284Y-69550757D01*
X111392260Y-69482081D01*
X111329849Y-69348238D01*
X111329846Y-69348233D01*
X111327523Y-69343251D01*
X111196198Y-69155700D01*
X111034300Y-68993802D01*
X111029792Y-68990645D01*
X111029789Y-68990643D01*
X110951611Y-68935902D01*
X110846749Y-68862477D01*
X110841767Y-68860154D01*
X110841762Y-68860151D01*
X110644225Y-68768039D01*
X110644224Y-68768039D01*
X110639243Y-68765716D01*
X110633935Y-68764294D01*
X110633933Y-68764293D01*
X110423402Y-68707881D01*
X110423400Y-68707881D01*
X110418087Y-68706457D01*
X110190000Y-68686502D01*
X109961913Y-68706457D01*
X109956600Y-68707881D01*
X109956598Y-68707881D01*
X109746067Y-68764293D01*
X109746065Y-68764294D01*
X109740757Y-68765716D01*
X109735776Y-68768039D01*
X109735775Y-68768039D01*
X109538238Y-68860151D01*
X109538233Y-68860154D01*
X109533251Y-68862477D01*
X109428389Y-68935902D01*
X109350211Y-68990643D01*
X109350208Y-68990645D01*
X109345700Y-68993802D01*
X109183802Y-69155700D01*
X109052477Y-69343251D01*
X109050154Y-69348233D01*
X109050151Y-69348238D01*
X108987740Y-69482081D01*
X108955716Y-69550757D01*
X108954294Y-69556065D01*
X108954293Y-69556067D01*
X108951217Y-69567548D01*
X108896457Y-69771913D01*
X108876502Y-70000000D01*
X86177914Y-70000000D01*
X86182672Y-69953562D01*
X86183000Y-69947146D01*
X86183000Y-69572115D01*
X86178525Y-69556876D01*
X86177135Y-69555671D01*
X86169452Y-69554000D01*
X84972115Y-69554000D01*
X84956876Y-69558475D01*
X84955671Y-69559865D01*
X84954000Y-69567548D01*
X84954000Y-70639884D01*
X84446000Y-70639884D01*
X84446000Y-69572115D01*
X84441525Y-69556876D01*
X84440135Y-69555671D01*
X84432452Y-69554000D01*
X83235116Y-69554000D01*
X83219877Y-69558475D01*
X83218672Y-69559865D01*
X83217001Y-69567548D01*
X83217001Y-69640500D01*
X83196999Y-69708621D01*
X83143343Y-69755114D01*
X83091001Y-69766500D01*
X83045959Y-69766500D01*
X82884685Y-69781887D01*
X82677140Y-69842774D01*
X82671813Y-69845518D01*
X82671812Y-69845518D01*
X82490183Y-69939063D01*
X82490180Y-69939065D01*
X82484852Y-69941809D01*
X82480137Y-69945513D01*
X82319478Y-70071711D01*
X82319473Y-70071715D01*
X82314761Y-70075417D01*
X82310830Y-70079947D01*
X82310829Y-70079948D01*
X82279665Y-70115861D01*
X82219911Y-70154202D01*
X82148915Y-70154150D01*
X82089216Y-70115724D01*
X82059770Y-70051122D01*
X82058500Y-70033280D01*
X82058500Y-68066371D01*
X82078502Y-67998250D01*
X82095405Y-67977276D01*
X83037160Y-67035521D01*
X83099472Y-67001495D01*
X83170287Y-67006560D01*
X83227123Y-67049107D01*
X83249570Y-67098743D01*
X83267997Y-67186570D01*
X83267999Y-67186576D01*
X83269093Y-67191791D01*
X83271051Y-67196750D01*
X83271052Y-67196752D01*
X83349527Y-67395461D01*
X83353776Y-67406221D01*
X83356543Y-67410780D01*
X83356544Y-67410783D01*
X83403278Y-67487798D01*
X83473377Y-67603317D01*
X83476874Y-67607347D01*
X83563438Y-67707103D01*
X83624477Y-67777445D01*
X83628608Y-67780832D01*
X83660529Y-67807006D01*
X83700524Y-67865666D01*
X83702455Y-67936636D01*
X83665710Y-67997384D01*
X83646941Y-68011584D01*
X83507193Y-68098063D01*
X83495792Y-68107099D01*
X83381261Y-68221829D01*
X83372249Y-68233240D01*
X83287184Y-68371243D01*
X83281037Y-68384424D01*
X83229862Y-68538710D01*
X83226995Y-68552086D01*
X83217328Y-68646438D01*
X83217000Y-68652855D01*
X83217000Y-69027885D01*
X83221475Y-69043124D01*
X83222865Y-69044329D01*
X83230548Y-69046000D01*
X86164884Y-69046000D01*
X86180123Y-69041525D01*
X86181328Y-69040135D01*
X86182999Y-69032452D01*
X86182999Y-68652905D01*
X86182662Y-68646386D01*
X86172743Y-68550794D01*
X86169851Y-68537400D01*
X86118412Y-68383216D01*
X86112239Y-68370038D01*
X86026937Y-68232193D01*
X86017901Y-68220792D01*
X85903171Y-68106261D01*
X85891757Y-68097247D01*
X85752287Y-68011277D01*
X85704793Y-67958505D01*
X85693369Y-67888434D01*
X85721643Y-67823310D01*
X85731430Y-67812847D01*
X85764991Y-67780832D01*
X85846135Y-67703424D01*
X85879560Y-67658500D01*
X85924010Y-67598757D01*
X85983754Y-67518458D01*
X85999343Y-67487798D01*
X86048005Y-67392086D01*
X86088240Y-67312949D01*
X86090603Y-67305341D01*
X86155024Y-67097871D01*
X86156607Y-67092773D01*
X86164195Y-67035521D01*
X86186198Y-66869511D01*
X86186198Y-66869506D01*
X86186898Y-66864226D01*
X86184997Y-66813575D01*
X86178449Y-66639173D01*
X86178249Y-66633842D01*
X86130907Y-66408209D01*
X86086024Y-66294558D01*
X86048185Y-66198744D01*
X86048184Y-66198742D01*
X86046224Y-66193779D01*
X85994445Y-66108449D01*
X85929390Y-66001243D01*
X85926623Y-65996683D01*
X85849051Y-65907289D01*
X85779023Y-65826588D01*
X85779021Y-65826586D01*
X85775523Y-65822555D01*
X85629057Y-65702460D01*
X85601373Y-65679760D01*
X85601367Y-65679756D01*
X85597245Y-65676376D01*
X85565750Y-65658448D01*
X85516445Y-65607368D01*
X85502583Y-65537738D01*
X85528566Y-65471667D01*
X85557716Y-65444427D01*
X85672930Y-65366860D01*
X85679319Y-65362559D01*
X85684454Y-65357661D01*
X85842278Y-65207103D01*
X85846135Y-65203424D01*
X85962901Y-65046485D01*
X97386854Y-65046485D01*
X97390688Y-65095195D01*
X97405108Y-65278417D01*
X97412370Y-65370695D01*
X97477206Y-65689378D01*
X97580398Y-65997784D01*
X97582052Y-66001253D01*
X97582053Y-66001254D01*
X97632507Y-66107033D01*
X97720405Y-66291316D01*
X97895141Y-66565597D01*
X97897584Y-66568560D01*
X97897585Y-66568562D01*
X98047308Y-66750190D01*
X98102001Y-66816538D01*
X98337902Y-67040399D01*
X98599326Y-67233843D01*
X98664476Y-67270703D01*
X98879019Y-67392086D01*
X98879023Y-67392088D01*
X98882376Y-67393985D01*
X98885937Y-67395460D01*
X98885939Y-67395461D01*
X98911916Y-67406221D01*
X99182832Y-67518438D01*
X99198345Y-67522740D01*
X99492500Y-67604317D01*
X99492508Y-67604319D01*
X99496216Y-67605347D01*
X99817856Y-67653416D01*
X99821154Y-67653560D01*
X99932918Y-67658440D01*
X99932922Y-67658440D01*
X99934294Y-67658500D01*
X100132598Y-67658500D01*
X100374605Y-67643698D01*
X100378388Y-67642997D01*
X100378395Y-67642996D01*
X100570738Y-67607347D01*
X100694372Y-67584433D01*
X100903682Y-67518438D01*
X101000860Y-67487798D01*
X101000863Y-67487797D01*
X101004532Y-67486640D01*
X101008029Y-67485046D01*
X101008035Y-67485044D01*
X101296954Y-67353376D01*
X101296958Y-67353374D01*
X101300462Y-67351777D01*
X101387050Y-67298716D01*
X101574473Y-67183863D01*
X101574476Y-67183861D01*
X101577751Y-67181854D01*
X101580755Y-67179464D01*
X101580760Y-67179461D01*
X101705007Y-67080630D01*
X101832264Y-66979405D01*
X101834958Y-66976664D01*
X101834962Y-66976660D01*
X102057513Y-66750190D01*
X102057517Y-66750185D01*
X102060208Y-66747447D01*
X102258185Y-66489439D01*
X102423242Y-66209227D01*
X102552920Y-65910988D01*
X102561352Y-65882524D01*
X102622415Y-65676376D01*
X102645285Y-65599169D01*
X102698961Y-65278417D01*
X102713146Y-64953515D01*
X102700388Y-64791410D01*
X102687932Y-64633140D01*
X102687932Y-64633137D01*
X102687630Y-64629305D01*
X102622794Y-64310622D01*
X102519602Y-64002216D01*
X102379595Y-63708684D01*
X102372496Y-63697540D01*
X102255495Y-63513886D01*
X102204859Y-63434403D01*
X102202349Y-63431358D01*
X102000442Y-63186425D01*
X102000438Y-63186420D01*
X101997999Y-63183462D01*
X101762098Y-62959601D01*
X101500674Y-62766157D01*
X101295781Y-62650234D01*
X101220981Y-62607914D01*
X101220977Y-62607912D01*
X101217624Y-62606015D01*
X100917168Y-62481562D01*
X100813712Y-62452871D01*
X100607500Y-62395683D01*
X100607492Y-62395681D01*
X100603784Y-62394653D01*
X100282144Y-62346584D01*
X100278846Y-62346440D01*
X100167082Y-62341560D01*
X100167078Y-62341560D01*
X100165706Y-62341500D01*
X99967402Y-62341500D01*
X99725395Y-62356302D01*
X99721612Y-62357003D01*
X99721605Y-62357004D01*
X99565511Y-62385935D01*
X99405628Y-62415567D01*
X99221058Y-62473762D01*
X99099140Y-62512202D01*
X99099137Y-62512203D01*
X99095468Y-62513360D01*
X99091971Y-62514954D01*
X99091965Y-62514956D01*
X98803046Y-62646624D01*
X98803042Y-62646626D01*
X98799538Y-62648223D01*
X98522249Y-62818146D01*
X98519245Y-62820536D01*
X98519240Y-62820539D01*
X98413438Y-62904698D01*
X98267736Y-63020595D01*
X98265042Y-63023336D01*
X98265038Y-63023340D01*
X98042487Y-63249810D01*
X98042483Y-63249815D01*
X98039792Y-63252553D01*
X97841815Y-63510561D01*
X97676758Y-63790773D01*
X97547080Y-64089012D01*
X97545986Y-64092706D01*
X97545984Y-64092711D01*
X97524719Y-64164500D01*
X97454715Y-64400831D01*
X97401039Y-64721583D01*
X97386854Y-65046485D01*
X85962901Y-65046485D01*
X85983754Y-65018458D01*
X86018723Y-64949680D01*
X86085822Y-64817704D01*
X86088240Y-64812949D01*
X86156607Y-64592773D01*
X86174095Y-64460827D01*
X86186198Y-64369511D01*
X86186198Y-64369506D01*
X86186898Y-64364226D01*
X86178249Y-64133842D01*
X86150732Y-64002697D01*
X86156319Y-63931922D01*
X86184952Y-63887729D01*
X87997276Y-62075405D01*
X88059588Y-62041379D01*
X88086371Y-62038500D01*
X108985500Y-62038500D01*
X109053621Y-62058502D01*
G37*
%TD.AperFunction*%
%TD*%
M02*
