%TF.GenerationSoftware,KiCad,Pcbnew,7.0.9*%
%TF.CreationDate,2024-05-17T11:53:29+10:00*%
%TF.ProjectId,_rotary_,5f726f74-6172-4795-9f2e-6b696361645f,v0_1_2*%
%TF.SameCoordinates,Original*%
%TF.FileFunction,Copper,L1,Top*%
%TF.FilePolarity,Positive*%
%FSLAX46Y46*%
G04 Gerber Fmt 4.6, Leading zero omitted, Abs format (unit mm)*
G04 Created by KiCad (PCBNEW 7.0.9) date 2024-05-17 11:53:29*
%MOMM*%
%LPD*%
G01*
G04 APERTURE LIST*
G04 Aperture macros list*
%AMRoundRect*
0 Rectangle with rounded corners*
0 $1 Rounding radius*
0 $2 $3 $4 $5 $6 $7 $8 $9 X,Y pos of 4 corners*
0 Add a 4 corners polygon primitive as box body*
4,1,4,$2,$3,$4,$5,$6,$7,$8,$9,$2,$3,0*
0 Add four circle primitives for the rounded corners*
1,1,$1+$1,$2,$3*
1,1,$1+$1,$4,$5*
1,1,$1+$1,$6,$7*
1,1,$1+$1,$8,$9*
0 Add four rect primitives between the rounded corners*
20,1,$1+$1,$2,$3,$4,$5,0*
20,1,$1+$1,$4,$5,$6,$7,0*
20,1,$1+$1,$6,$7,$8,$9,0*
20,1,$1+$1,$8,$9,$2,$3,0*%
G04 Aperture macros list end*
%TA.AperFunction,ComponentPad*%
%ADD10R,1.930000X1.830000*%
%TD*%
%TA.AperFunction,ComponentPad*%
%ADD11C,2.130000*%
%TD*%
%TA.AperFunction,ComponentPad*%
%ADD12C,1.600000*%
%TD*%
%TA.AperFunction,ComponentPad*%
%ADD13O,1.600000X1.600000*%
%TD*%
%TA.AperFunction,WasherPad*%
%ADD14C,4.000000*%
%TD*%
%TA.AperFunction,ComponentPad*%
%ADD15C,1.800000*%
%TD*%
%TA.AperFunction,ComponentPad*%
%ADD16R,1.500000X1.500000*%
%TD*%
%TA.AperFunction,ComponentPad*%
%ADD17O,1.500000X1.500000*%
%TD*%
%TA.AperFunction,ComponentPad*%
%ADD18R,2.400000X1.600000*%
%TD*%
%TA.AperFunction,ComponentPad*%
%ADD19O,2.400000X1.600000*%
%TD*%
%TA.AperFunction,ComponentPad*%
%ADD20R,1.050000X1.500000*%
%TD*%
%TA.AperFunction,ComponentPad*%
%ADD21O,1.050000X1.500000*%
%TD*%
%TA.AperFunction,ComponentPad*%
%ADD22C,3.500000*%
%TD*%
%TA.AperFunction,ComponentPad*%
%ADD23RoundRect,0.250000X0.725000X-0.600000X0.725000X0.600000X-0.725000X0.600000X-0.725000X-0.600000X0*%
%TD*%
%TA.AperFunction,ComponentPad*%
%ADD24O,1.950000X1.700000*%
%TD*%
%TA.AperFunction,Conductor*%
%ADD25C,0.250000*%
%TD*%
G04 APERTURE END LIST*
D10*
%TO.P,J1,S*%
%TO.N,GND*%
X100000000Y-117720000D03*
D11*
%TO.P,J1,T*%
%TO.N,Net-(D1-A)*%
X100000000Y-129120000D03*
%TO.P,J1,TN*%
%TO.N,GND*%
X100000000Y-120820000D03*
%TD*%
D12*
%TO.P,R9,1*%
%TO.N,Net-(D3-K)*%
X110000000Y-71700000D03*
D13*
%TO.P,R9,2*%
%TO.N,Net-(D4-A)*%
X117620000Y-71700000D03*
%TD*%
D12*
%TO.P,R11,1*%
%TO.N,Net-(SW1A-A)*%
X109300000Y-114700000D03*
D13*
%TO.P,R11,2*%
%TO.N,Net-(U3B--)*%
X116920000Y-114700000D03*
%TD*%
D12*
%TO.P,C1,1*%
%TO.N,GND*%
X98500000Y-92000000D03*
%TO.P,C1,2*%
%TO.N,+5V*%
X93500000Y-92000000D03*
%TD*%
%TO.P,R10,1*%
%TO.N,Net-(D4-A)*%
X104400000Y-95190000D03*
D13*
%TO.P,R10,2*%
%TO.N,Net-(U3B--)*%
X104400000Y-102810000D03*
%TD*%
D12*
%TO.P,C3,1*%
%TO.N,Net-(D5-K)*%
X117100000Y-82500000D03*
%TO.P,C3,2*%
%TO.N,GND*%
X117100000Y-77500000D03*
%TD*%
%TO.P,R12,1*%
%TO.N,Net-(U3B--)*%
X117000000Y-110000000D03*
D13*
%TO.P,R12,2*%
%TO.N,Net-(U3C-+)*%
X109380000Y-110000000D03*
%TD*%
D12*
%TO.P,R3,1*%
%TO.N,Net-(R2-Pad2)*%
X95900000Y-102810000D03*
D13*
%TO.P,R3,2*%
%TO.N,Net-(U1B--)*%
X95900000Y-95190000D03*
%TD*%
D14*
%TO.P,RV3,*%
%TO.N,*%
X83250000Y-130725000D03*
X92750000Y-130725000D03*
D15*
%TO.P,RV3,1,1*%
%TO.N,unconnected-(RV3-Pad1)*%
X90500000Y-138225000D03*
%TO.P,RV3,2,2*%
%TO.N,Net-(D5-K)*%
X88000000Y-138225000D03*
%TO.P,RV3,3,3*%
%TO.N,Net-(R14-Pad2)*%
X85500000Y-138225000D03*
%TD*%
D16*
%TO.P,D4,1,K*%
%TO.N,Net-(D3-A)*%
X112400000Y-77100000D03*
D17*
%TO.P,D4,2,A*%
%TO.N,Net-(D4-A)*%
X112400000Y-84720000D03*
%TD*%
D12*
%TO.P,C2,1*%
%TO.N,GND*%
X101500000Y-92100000D03*
%TO.P,C2,2*%
%TO.N,+5V*%
X106500000Y-92100000D03*
%TD*%
D18*
%TO.P,U1,1*%
%TO.N,Net-(R2-Pad2)*%
X82575000Y-91900000D03*
D19*
%TO.P,U1,2,-*%
%TO.N,Net-(U1A--)*%
X82575000Y-94440000D03*
%TO.P,U1,3,+*%
%TO.N,+2.5V*%
X82575000Y-96980000D03*
%TO.P,U1,4,V-*%
%TO.N,GND*%
X82575000Y-99520000D03*
%TO.P,U1,5,+*%
%TO.N,Net-(U1B-+)*%
X90195000Y-99520000D03*
%TO.P,U1,6,-*%
%TO.N,Net-(U1B--)*%
X90195000Y-96980000D03*
%TO.P,U1,7*%
%TO.N,Net-(J2-Pin_2)*%
X90195000Y-94440000D03*
%TO.P,U1,8,V+*%
%TO.N,+5V*%
X90195000Y-91900000D03*
%TD*%
D12*
%TO.P,R8,1*%
%TO.N,Net-(SW1A-A)*%
X100100000Y-102810000D03*
D13*
%TO.P,R8,2*%
%TO.N,Net-(D3-K)*%
X100100000Y-95190000D03*
%TD*%
D12*
%TO.P,R14,1*%
%TO.N,GND*%
X83700000Y-116200000D03*
D13*
%TO.P,R14,2*%
%TO.N,Net-(R14-Pad2)*%
X83700000Y-123820000D03*
%TD*%
D12*
%TO.P,R1,1*%
%TO.N,Net-(SW1B-B)*%
X82990000Y-105000000D03*
D13*
%TO.P,R1,2*%
%TO.N,Net-(U1A--)*%
X90610000Y-105000000D03*
%TD*%
D20*
%TO.P,U2,1,ADJ*%
%TO.N,Net-(U2-ADJ)*%
X94530000Y-72800000D03*
D21*
%TO.P,U2,2,VO*%
%TO.N,+2.5V*%
X95800000Y-72800000D03*
%TO.P,U2,3,VI*%
%TO.N,+5V*%
X97070000Y-72800000D03*
%TD*%
D22*
%TO.P,SW1,1,A*%
%TO.N,Net-(SW1A-A)*%
X95350000Y-107945000D03*
%TO.P,SW1,2,B*%
%TO.N,Net-(D1-A)*%
X100050000Y-107945000D03*
%TO.P,SW1,3,C*%
%TO.N,Net-(SW1A-C)*%
X104750000Y-107945000D03*
%TO.P,SW1,4,A*%
%TO.N,Net-(SW1B-A)*%
X95350000Y-112645000D03*
%TO.P,SW1,5,B*%
%TO.N,Net-(SW1B-B)*%
X100050000Y-112645000D03*
%TO.P,SW1,6,C*%
%TO.N,Net-(SW1A-C)*%
X104750000Y-112645000D03*
%TD*%
D16*
%TO.P,D3,1,K*%
%TO.N,Net-(D3-K)*%
X109200000Y-77100000D03*
D17*
%TO.P,D3,2,A*%
%TO.N,Net-(D3-A)*%
X109200000Y-84720000D03*
%TD*%
D12*
%TO.P,R5,1*%
%TO.N,Net-(R5-Pad1)*%
X90120000Y-83900000D03*
D13*
%TO.P,R5,2*%
%TO.N,GND*%
X82500000Y-83900000D03*
%TD*%
D16*
%TO.P,D5,1,K*%
%TO.N,Net-(D5-K)*%
X116520000Y-118400000D03*
D17*
%TO.P,D5,2,A*%
%TO.N,Net-(D5-A)*%
X108900000Y-118400000D03*
%TD*%
D14*
%TO.P,RV2,*%
%TO.N,*%
X107250000Y-130725000D03*
X116750000Y-130725000D03*
D15*
%TO.P,RV2,1,1*%
%TO.N,unconnected-(RV2-Pad1)*%
X114500000Y-138225000D03*
%TO.P,RV2,2,2*%
%TO.N,Net-(R4-Pad2)*%
X112000000Y-138225000D03*
%TO.P,RV2,3,3*%
%TO.N,Net-(J2-Pin_2)*%
X109500000Y-138225000D03*
%TD*%
D12*
%TO.P,R6,1*%
%TO.N,+2.5V*%
X90010000Y-75500000D03*
D13*
%TO.P,R6,2*%
%TO.N,Net-(U2-ADJ)*%
X82390000Y-75500000D03*
%TD*%
D18*
%TO.P,U3,1*%
%TO.N,Net-(D3-A)*%
X109500000Y-90360000D03*
D19*
%TO.P,U3,2,-*%
%TO.N,Net-(D3-K)*%
X109500000Y-92900000D03*
%TO.P,U3,3,+*%
%TO.N,GND*%
X109500000Y-95440000D03*
%TO.P,U3,4,V+*%
%TO.N,+5V*%
X109500000Y-97980000D03*
%TO.P,U3,5,+*%
%TO.N,GND*%
X109500000Y-100520000D03*
%TO.P,U3,6,-*%
%TO.N,Net-(U3B--)*%
X109500000Y-103060000D03*
%TO.P,U3,7*%
%TO.N,Net-(U3C-+)*%
X109500000Y-105600000D03*
%TO.P,U3,8*%
%TO.N,Net-(D5-A)*%
X117120000Y-105600000D03*
%TO.P,U3,9,-*%
%TO.N,Net-(D5-K)*%
X117120000Y-103060000D03*
%TO.P,U3,10,+*%
%TO.N,Net-(U3C-+)*%
X117120000Y-100520000D03*
%TO.P,U3,11,V-*%
%TO.N,GND*%
X117120000Y-97980000D03*
%TO.P,U3,12,+*%
%TO.N,Net-(D5-K)*%
X117120000Y-95440000D03*
%TO.P,U3,13,-*%
%TO.N,Net-(SW1B-A)*%
X117120000Y-92900000D03*
%TO.P,U3,14*%
X117120000Y-90360000D03*
%TD*%
D14*
%TO.P,RV1,*%
%TO.N,*%
X95250000Y-81625000D03*
X104750000Y-81625000D03*
D15*
%TO.P,RV1,1,1*%
%TO.N,+5V*%
X102500000Y-89125000D03*
%TO.P,RV1,2,2*%
%TO.N,Net-(U1B-+)*%
X100000000Y-89125000D03*
%TO.P,RV1,3,3*%
%TO.N,Net-(R5-Pad1)*%
X97500000Y-89125000D03*
%TD*%
D12*
%TO.P,R4,1*%
%TO.N,Net-(U1B--)*%
X108590000Y-123700000D03*
D13*
%TO.P,R4,2*%
%TO.N,Net-(R4-Pad2)*%
X116210000Y-123700000D03*
%TD*%
D16*
%TO.P,D2,1,K*%
%TO.N,Net-(D1-A)*%
X91600000Y-116170000D03*
D17*
%TO.P,D2,2,A*%
%TO.N,GND*%
X91600000Y-123790000D03*
%TD*%
D16*
%TO.P,D1,1,K*%
%TO.N,+5V*%
X88000000Y-116185000D03*
D17*
%TO.P,D1,2,A*%
%TO.N,Net-(D1-A)*%
X88000000Y-123805000D03*
%TD*%
D12*
%TO.P,R2,1*%
%TO.N,Net-(U1A--)*%
X90520000Y-109300000D03*
D13*
%TO.P,R2,2*%
%TO.N,Net-(R2-Pad2)*%
X82900000Y-109300000D03*
%TD*%
D12*
%TO.P,R7,1*%
%TO.N,Net-(U2-ADJ)*%
X82300000Y-79800000D03*
D13*
%TO.P,R7,2*%
%TO.N,GND*%
X89920000Y-79800000D03*
%TD*%
D23*
%TO.P,J2,1,Pin_1*%
%TO.N,GND*%
X84700000Y-69300000D03*
D24*
%TO.P,J2,2,Pin_2*%
%TO.N,Net-(J2-Pin_2)*%
X84700000Y-66800000D03*
%TO.P,J2,3,Pin_3*%
%TO.N,+5V*%
X84700000Y-64300000D03*
%TD*%
D25*
%TO.N,Net-(D5-K)*%
X116520000Y-118400000D02*
X117320000Y-118400000D01*
X104086953Y-130600000D02*
X107286953Y-127400000D01*
X118645000Y-84045000D02*
X117100000Y-82500000D01*
X118645000Y-101535000D02*
X118645000Y-96965000D01*
X117120000Y-95440000D02*
X118645000Y-93915000D01*
X88000000Y-138225000D02*
X88538047Y-138225000D01*
X113300000Y-127400000D02*
X114100000Y-126600000D01*
X114100000Y-121620000D02*
X116520000Y-119200000D01*
X116520000Y-119200000D02*
X116520000Y-118400000D01*
X117320000Y-118400000D02*
X118645000Y-117075000D01*
X118645000Y-104585000D02*
X117120000Y-103060000D01*
X118645000Y-93915000D02*
X118645000Y-84045000D01*
X118645000Y-117075000D02*
X118645000Y-104585000D01*
X107286953Y-127400000D02*
X113300000Y-127400000D01*
X117120000Y-103060000D02*
X118645000Y-101535000D01*
X88538047Y-138225000D02*
X96163047Y-130600000D01*
X118645000Y-96965000D02*
X117120000Y-95440000D01*
X96163047Y-130600000D02*
X104086953Y-130600000D01*
X114100000Y-126600000D02*
X114100000Y-121620000D01*
%TO.N,Net-(R2-Pad2)*%
X82900000Y-109300000D02*
X84025000Y-108175000D01*
X83900000Y-91900000D02*
X82575000Y-91900000D01*
X85100000Y-101700000D02*
X85100000Y-93100000D01*
X86210000Y-102810000D02*
X85100000Y-101700000D01*
X95900000Y-102810000D02*
X86210000Y-102810000D01*
X85100000Y-93100000D02*
X83900000Y-91900000D01*
X90535000Y-108175000D02*
X95900000Y-102810000D01*
X84025000Y-108175000D02*
X90535000Y-108175000D01*
%TO.N,Net-(R4-Pad2)*%
X112000000Y-138900000D02*
X112000000Y-138225000D01*
X112800000Y-128400000D02*
X112000000Y-129200000D01*
X112936396Y-128400000D02*
X116210000Y-125126396D01*
X116210000Y-125126396D02*
X116210000Y-123700000D01*
X112000000Y-129200000D02*
X112000000Y-138225000D01*
X112936396Y-128400000D02*
X112800000Y-128400000D01*
%TO.N,Net-(R5-Pad1)*%
X92275000Y-83900000D02*
X97500000Y-89125000D01*
X90120000Y-83900000D02*
X92275000Y-83900000D01*
%TO.N,Net-(D1-A)*%
X102125000Y-113775000D02*
X99730000Y-116170000D01*
X100000000Y-129120000D02*
X98935000Y-128055000D01*
X100050000Y-107945000D02*
X102125000Y-110020000D01*
X99730000Y-116170000D02*
X91600000Y-116170000D01*
X91600000Y-116170000D02*
X91600000Y-120205000D01*
X92250000Y-128055000D02*
X88000000Y-123805000D01*
X98935000Y-128055000D02*
X92250000Y-128055000D01*
X102125000Y-110020000D02*
X102125000Y-113775000D01*
X91600000Y-120205000D02*
X88000000Y-123805000D01*
%TO.N,Net-(D3-K)*%
X109175000Y-93225000D02*
X109500000Y-92900000D01*
X102065000Y-93225000D02*
X109175000Y-93225000D01*
X109200000Y-77100000D02*
X109200001Y-72499999D01*
X100100000Y-95190000D02*
X102065000Y-93225000D01*
X109200001Y-72499999D02*
X110000000Y-71700000D01*
X109500000Y-92900000D02*
X107975000Y-91375000D01*
X107975000Y-78325000D02*
X109200000Y-77100000D01*
X107975000Y-91375000D02*
X107975000Y-78325000D01*
%TO.N,Net-(D3-A)*%
X109200000Y-84720000D02*
X109200000Y-80300000D01*
X109500000Y-90360000D02*
X109500000Y-85020000D01*
X109500000Y-85020000D02*
X109200000Y-84720000D01*
X109200000Y-80300000D02*
X112400000Y-77100000D01*
%TO.N,Net-(D4-A)*%
X110185000Y-94315000D02*
X112400000Y-92100000D01*
X112400000Y-84720000D02*
X113475000Y-83645000D01*
X113475000Y-83645000D02*
X113475000Y-75845000D01*
X113475000Y-75845000D02*
X117620000Y-71700000D01*
X112400000Y-92100000D02*
X112400000Y-84720000D01*
X105275000Y-94315000D02*
X110185000Y-94315000D01*
X104400000Y-95190000D02*
X105275000Y-94315000D01*
%TO.N,Net-(D5-A)*%
X115885991Y-117325000D02*
X118125000Y-115085991D01*
X118125000Y-115085991D02*
X118125000Y-106605000D01*
X109975000Y-117325000D02*
X115885991Y-117325000D01*
X108900000Y-118400000D02*
X109975000Y-117325000D01*
X118125000Y-106605000D02*
X117120000Y-105600000D01*
%TO.N,Net-(J2-Pin_2)*%
X109500000Y-138225000D02*
X108275000Y-139450000D01*
X86355000Y-90600000D02*
X90195000Y-94440000D01*
X81175000Y-70325000D02*
X84700000Y-66800000D01*
X79950000Y-134600000D02*
X79950000Y-91875000D01*
X81225000Y-90600000D02*
X86355000Y-90600000D01*
X90195000Y-94440000D02*
X81175000Y-85420000D01*
X84800000Y-139450000D02*
X79950000Y-134600000D01*
X81175000Y-85420000D02*
X81175000Y-70325000D01*
X79950000Y-91875000D02*
X81225000Y-90600000D01*
X108275000Y-139450000D02*
X84800000Y-139450000D01*
%TO.N,Net-(U1A--)*%
X90610000Y-105000000D02*
X89000000Y-103390000D01*
X80400000Y-96615000D02*
X82575000Y-94440000D01*
X89000000Y-103300000D02*
X81200000Y-103300000D01*
X80500000Y-102600000D02*
X80400000Y-102600000D01*
X81200000Y-103300000D02*
X80500000Y-102600000D01*
X89000000Y-103390000D02*
X89000000Y-103300000D01*
X80400000Y-102600000D02*
X80400000Y-96615000D01*
%TO.N,Net-(SW1B-B)*%
X81775000Y-112675000D02*
X81775000Y-106215000D01*
X83820000Y-114720000D02*
X81775000Y-112675000D01*
X97975000Y-114720000D02*
X83820000Y-114720000D01*
X100050000Y-112645000D02*
X97975000Y-114720000D01*
X81775000Y-106215000D02*
X82990000Y-105000000D01*
%TO.N,Net-(U1B--)*%
X93990000Y-97100000D02*
X91900000Y-97100000D01*
X95900000Y-95190000D02*
X93990000Y-97100000D01*
X91900000Y-97100000D02*
X91780000Y-96980000D01*
X91780000Y-96980000D02*
X90195000Y-96980000D01*
%TO.N,Net-(U2-ADJ)*%
X94530000Y-72800000D02*
X85090000Y-72800000D01*
X82300000Y-79800000D02*
X82300000Y-75590000D01*
X85090000Y-72800000D02*
X82390000Y-75500000D01*
X82300000Y-75590000D02*
X82390000Y-75500000D01*
%TO.N,Net-(SW1A-A)*%
X95350000Y-107945000D02*
X100100000Y-103195000D01*
X100100000Y-103195000D02*
X100100000Y-102810000D01*
%TO.N,Net-(U3B--)*%
X116920000Y-114700000D02*
X116920000Y-110080000D01*
X116920000Y-110080000D02*
X117000000Y-110000000D01*
X109500000Y-103060000D02*
X104650000Y-103060000D01*
X104650000Y-103060000D02*
X104400000Y-102810000D01*
%TO.N,Net-(R14-Pad2)*%
X85575000Y-125695000D02*
X85575000Y-138150000D01*
X85575000Y-138150000D02*
X85500000Y-138225000D01*
X83700000Y-123820000D02*
X85575000Y-125695000D01*
%TO.N,Net-(U1B-+)*%
X90195000Y-99520000D02*
X93160991Y-99520000D01*
X100000000Y-92680991D02*
X100000000Y-89125000D01*
X93160991Y-99520000D02*
X100000000Y-92680991D01*
%TO.N,Net-(SW1A-C)*%
X104750000Y-112645000D02*
X104750000Y-107945000D01*
%TO.N,Net-(SW1B-A)*%
X95350000Y-112645000D02*
X97975000Y-110020000D01*
X97975000Y-107025000D02*
X99130000Y-105870000D01*
X99130000Y-105870000D02*
X107670000Y-105870000D01*
X113700000Y-104200000D02*
X113700000Y-94400000D01*
X108525000Y-106725000D02*
X111175000Y-106725000D01*
X107670000Y-105870000D02*
X108525000Y-106725000D01*
X111175000Y-106725000D02*
X113700000Y-104200000D01*
X97975000Y-110020000D02*
X97975000Y-107025000D01*
X115200000Y-92900000D02*
X117120000Y-92900000D01*
X113700000Y-94400000D02*
X115200000Y-92900000D01*
X117120000Y-92900000D02*
X117120000Y-90360000D01*
%TD*%
%TA.AperFunction,Conductor*%
%TO.N,GND*%
G36*
X117787843Y-60025634D02*
G01*
X118039407Y-60042121D01*
X118047548Y-60043193D01*
X118257024Y-60084859D01*
X118292774Y-60091970D01*
X118300738Y-60094103D01*
X118419113Y-60134286D01*
X118537483Y-60174467D01*
X118545104Y-60177623D01*
X118769333Y-60288199D01*
X118776479Y-60292324D01*
X118984360Y-60431225D01*
X118990895Y-60436239D01*
X119176295Y-60598830D01*
X119178870Y-60601088D01*
X119184700Y-60606918D01*
X119343859Y-60788402D01*
X119349546Y-60794886D01*
X119354568Y-60801431D01*
X119493467Y-61009307D01*
X119497591Y-61016451D01*
X119608172Y-61240685D01*
X119611329Y-61248307D01*
X119691690Y-61485041D01*
X119693825Y-61493010D01*
X119742602Y-61738223D01*
X119743678Y-61746402D01*
X119756335Y-61939505D01*
X119759030Y-61980629D01*
X119760151Y-61997724D01*
X119760286Y-62001845D01*
X119760286Y-137983727D01*
X119760151Y-137987843D01*
X119743665Y-138239392D01*
X119742590Y-138247564D01*
X119693814Y-138492774D01*
X119691679Y-138500742D01*
X119611318Y-138737481D01*
X119608161Y-138745103D01*
X119497585Y-138969331D01*
X119493460Y-138976475D01*
X119354565Y-139184348D01*
X119349543Y-139190893D01*
X119184697Y-139378864D01*
X119178864Y-139384697D01*
X118990893Y-139549543D01*
X118984348Y-139554565D01*
X118776475Y-139693460D01*
X118769331Y-139697585D01*
X118545103Y-139808161D01*
X118537481Y-139811318D01*
X118300742Y-139891679D01*
X118292774Y-139893814D01*
X118099521Y-139932255D01*
X118047561Y-139942590D01*
X118039392Y-139943665D01*
X117787842Y-139960151D01*
X117783728Y-139960286D01*
X108964807Y-139960286D01*
X108896686Y-139940284D01*
X108850193Y-139886628D01*
X108840089Y-139816354D01*
X108869583Y-139751774D01*
X108875697Y-139745205D01*
X109002724Y-139618178D01*
X109065032Y-139584156D01*
X109132728Y-139588103D01*
X109153049Y-139595080D01*
X109383288Y-139633500D01*
X109383292Y-139633500D01*
X109616708Y-139633500D01*
X109616712Y-139633500D01*
X109846951Y-139595080D01*
X110067727Y-139519287D01*
X110273017Y-139408190D01*
X110457220Y-139264818D01*
X110615314Y-139093083D01*
X110644517Y-139048383D01*
X110698519Y-139002296D01*
X110768867Y-138992720D01*
X110833225Y-139022696D01*
X110855481Y-139048382D01*
X110884686Y-139093083D01*
X110884687Y-139093084D01*
X111042774Y-139264813D01*
X111042778Y-139264817D01*
X111108650Y-139316087D01*
X111226983Y-139408190D01*
X111432273Y-139519287D01*
X111653049Y-139595080D01*
X111883288Y-139633500D01*
X111883292Y-139633500D01*
X112116708Y-139633500D01*
X112116712Y-139633500D01*
X112346951Y-139595080D01*
X112567727Y-139519287D01*
X112773017Y-139408190D01*
X112957220Y-139264818D01*
X113115314Y-139093083D01*
X113144517Y-139048383D01*
X113198519Y-139002296D01*
X113268867Y-138992720D01*
X113333225Y-139022696D01*
X113355481Y-139048382D01*
X113384686Y-139093083D01*
X113384687Y-139093084D01*
X113542774Y-139264813D01*
X113542778Y-139264817D01*
X113608650Y-139316087D01*
X113726983Y-139408190D01*
X113932273Y-139519287D01*
X114153049Y-139595080D01*
X114383288Y-139633500D01*
X114383292Y-139633500D01*
X114616708Y-139633500D01*
X114616712Y-139633500D01*
X114846951Y-139595080D01*
X115067727Y-139519287D01*
X115273017Y-139408190D01*
X115457220Y-139264818D01*
X115615314Y-139093083D01*
X115742984Y-138897669D01*
X115836749Y-138683907D01*
X115894051Y-138457626D01*
X115913327Y-138225000D01*
X115894051Y-137992374D01*
X115836749Y-137766093D01*
X115742984Y-137552331D01*
X115666781Y-137435693D01*
X115615314Y-137356916D01*
X115457225Y-137185186D01*
X115457221Y-137185182D01*
X115365118Y-137113496D01*
X115273017Y-137041810D01*
X115067727Y-136930713D01*
X115067724Y-136930712D01*
X115067723Y-136930711D01*
X114846955Y-136854921D01*
X114846948Y-136854919D01*
X114748411Y-136838476D01*
X114616712Y-136816500D01*
X114383288Y-136816500D01*
X114268066Y-136835727D01*
X114153051Y-136854919D01*
X114153044Y-136854921D01*
X113932276Y-136930711D01*
X113932273Y-136930713D01*
X113726991Y-137041806D01*
X113726985Y-137041809D01*
X113726983Y-137041810D01*
X113542778Y-137185182D01*
X113542774Y-137185186D01*
X113384685Y-137356916D01*
X113355483Y-137401615D01*
X113301480Y-137447704D01*
X113231132Y-137457279D01*
X113166774Y-137427302D01*
X113144517Y-137401615D01*
X113115314Y-137356916D01*
X112957225Y-137185186D01*
X112957221Y-137185182D01*
X112865118Y-137113496D01*
X112773017Y-137041810D01*
X112765332Y-137037651D01*
X112699530Y-137002040D01*
X112649140Y-136952027D01*
X112633500Y-136891227D01*
X112633500Y-130725006D01*
X114236540Y-130725006D01*
X114256357Y-131040007D01*
X114256359Y-131040024D01*
X114315504Y-131350067D01*
X114315507Y-131350080D01*
X114413039Y-131650254D01*
X114413044Y-131650266D01*
X114547438Y-131935869D01*
X114547440Y-131935872D01*
X114547443Y-131935878D01*
X114716562Y-132202368D01*
X114917763Y-132445578D01*
X114917766Y-132445580D01*
X114917767Y-132445582D01*
X115147860Y-132661654D01*
X115403221Y-132847184D01*
X115679821Y-132999247D01*
X115973298Y-133115443D01*
X116279025Y-133193940D01*
X116279033Y-133193941D01*
X116279032Y-133193941D01*
X116373810Y-133205914D01*
X116592179Y-133233500D01*
X116592183Y-133233500D01*
X116907817Y-133233500D01*
X116907821Y-133233500D01*
X117220975Y-133193940D01*
X117526702Y-133115443D01*
X117820179Y-132999247D01*
X118096779Y-132847184D01*
X118352140Y-132661654D01*
X118582233Y-132445582D01*
X118783432Y-132202375D01*
X118783434Y-132202370D01*
X118783437Y-132202368D01*
X118952556Y-131935878D01*
X118952562Y-131935869D01*
X119086956Y-131650266D01*
X119184495Y-131350072D01*
X119243641Y-131040020D01*
X119243642Y-131040007D01*
X119263460Y-130725006D01*
X119263460Y-130724993D01*
X119243642Y-130409992D01*
X119243640Y-130409975D01*
X119233255Y-130355537D01*
X119184495Y-130099928D01*
X119158015Y-130018432D01*
X119086960Y-129799745D01*
X119086955Y-129799732D01*
X119083449Y-129792281D01*
X118952562Y-129514131D01*
X118952556Y-129514121D01*
X118783437Y-129247631D01*
X118582236Y-129004421D01*
X118571314Y-128994165D01*
X118352140Y-128788346D01*
X118348604Y-128785777D01*
X118096781Y-128602817D01*
X118054385Y-128579509D01*
X117820179Y-128450753D01*
X117526702Y-128334557D01*
X117220975Y-128256060D01*
X117220970Y-128256059D01*
X117220965Y-128256058D01*
X117220967Y-128256058D01*
X116907835Y-128216501D01*
X116907824Y-128216500D01*
X116907821Y-128216500D01*
X116592179Y-128216500D01*
X116592176Y-128216500D01*
X116592164Y-128216501D01*
X116279033Y-128256058D01*
X115973301Y-128334556D01*
X115973299Y-128334556D01*
X115973298Y-128334557D01*
X115799325Y-128403438D01*
X115679821Y-128450753D01*
X115403218Y-128602817D01*
X115147861Y-128788345D01*
X115147860Y-128788345D01*
X114917763Y-129004421D01*
X114716562Y-129247631D01*
X114547443Y-129514121D01*
X114547436Y-129514135D01*
X114413044Y-129799732D01*
X114413039Y-129799745D01*
X114315507Y-130099919D01*
X114315504Y-130099932D01*
X114256359Y-130409975D01*
X114256357Y-130409992D01*
X114236540Y-130724993D01*
X114236540Y-130725006D01*
X112633500Y-130725006D01*
X112633500Y-129514594D01*
X112653502Y-129446473D01*
X112670399Y-129425504D01*
X113047339Y-129048564D01*
X113090044Y-129020512D01*
X113095190Y-129018474D01*
X113095193Y-129018474D01*
X113139081Y-129001096D01*
X113144657Y-128999187D01*
X113189989Y-128986018D01*
X113207422Y-128975708D01*
X113225176Y-128967009D01*
X113244013Y-128959552D01*
X113282182Y-128931818D01*
X113287140Y-128928562D01*
X113327758Y-128904542D01*
X113342081Y-128890218D01*
X113357120Y-128877374D01*
X113373503Y-128865472D01*
X113403589Y-128829103D01*
X113407557Y-128824741D01*
X116598657Y-125633641D01*
X116611092Y-125623680D01*
X116610905Y-125623453D01*
X116617009Y-125618401D01*
X116617018Y-125618396D01*
X116664999Y-125567300D01*
X116686134Y-125546166D01*
X116690429Y-125540628D01*
X116694271Y-125536127D01*
X116726586Y-125501717D01*
X116736345Y-125483963D01*
X116747197Y-125467442D01*
X116759613Y-125451437D01*
X116778347Y-125408144D01*
X116780961Y-125402808D01*
X116803694Y-125361457D01*
X116803695Y-125361456D01*
X116808733Y-125341831D01*
X116815138Y-125323126D01*
X116823181Y-125304541D01*
X116830561Y-125257943D01*
X116831762Y-125252136D01*
X116843500Y-125206426D01*
X116843500Y-125186171D01*
X116845051Y-125166459D01*
X116848220Y-125146453D01*
X116845109Y-125113542D01*
X116843780Y-125099476D01*
X116843500Y-125093544D01*
X116843500Y-124919393D01*
X116863502Y-124851272D01*
X116897230Y-124816180D01*
X116932392Y-124791558D01*
X117054300Y-124706198D01*
X117216198Y-124544300D01*
X117347523Y-124356749D01*
X117444284Y-124149243D01*
X117503543Y-123928087D01*
X117523498Y-123700000D01*
X117503543Y-123471913D01*
X117444284Y-123250757D01*
X117347523Y-123043251D01*
X117216198Y-122855700D01*
X117054300Y-122693802D01*
X117038126Y-122682477D01*
X116866749Y-122562477D01*
X116659246Y-122465717D01*
X116659240Y-122465715D01*
X116565771Y-122440670D01*
X116438087Y-122406457D01*
X116210000Y-122386502D01*
X115981913Y-122406457D01*
X115760759Y-122465715D01*
X115760753Y-122465717D01*
X115553250Y-122562477D01*
X115365703Y-122693799D01*
X115365697Y-122693804D01*
X115203804Y-122855697D01*
X115203799Y-122855703D01*
X115072477Y-123043250D01*
X114973695Y-123255091D01*
X114926778Y-123308376D01*
X114858501Y-123327837D01*
X114790541Y-123307295D01*
X114744475Y-123253273D01*
X114733500Y-123201841D01*
X114733500Y-121934594D01*
X114753502Y-121866473D01*
X114770405Y-121845499D01*
X115795906Y-120819998D01*
X116908660Y-119707243D01*
X116921092Y-119697285D01*
X116920904Y-119697058D01*
X116932559Y-119687416D01*
X116997796Y-119659405D01*
X117012875Y-119658500D01*
X117318632Y-119658500D01*
X117318638Y-119658500D01*
X117318645Y-119658499D01*
X117318649Y-119658499D01*
X117379196Y-119651990D01*
X117379199Y-119651989D01*
X117379201Y-119651989D01*
X117516204Y-119600889D01*
X117633261Y-119513261D01*
X117707484Y-119414111D01*
X117720887Y-119396207D01*
X117720887Y-119396206D01*
X117720889Y-119396204D01*
X117771989Y-119259201D01*
X117771989Y-119259199D01*
X117771990Y-119259196D01*
X117778499Y-119198649D01*
X117778500Y-119198632D01*
X117778500Y-118889593D01*
X117798502Y-118821472D01*
X117815405Y-118800498D01*
X118398481Y-118217422D01*
X119033659Y-117582244D01*
X119046098Y-117572280D01*
X119045910Y-117572053D01*
X119052013Y-117567002D01*
X119052018Y-117567000D01*
X119099984Y-117515920D01*
X119121135Y-117494770D01*
X119125445Y-117489212D01*
X119129274Y-117484729D01*
X119161586Y-117450321D01*
X119171346Y-117432565D01*
X119182195Y-117416050D01*
X119194614Y-117400041D01*
X119213363Y-117356710D01*
X119215953Y-117351423D01*
X119238695Y-117310060D01*
X119243733Y-117290434D01*
X119250137Y-117271732D01*
X119258180Y-117253147D01*
X119258179Y-117253147D01*
X119258181Y-117253145D01*
X119265561Y-117206547D01*
X119266762Y-117200740D01*
X119278500Y-117155030D01*
X119278500Y-117134775D01*
X119280051Y-117115063D01*
X119280853Y-117110000D01*
X119283220Y-117095057D01*
X119280629Y-117067651D01*
X119278780Y-117048080D01*
X119278500Y-117042148D01*
X119278500Y-104668854D01*
X119280249Y-104653012D01*
X119279956Y-104652985D01*
X119280700Y-104645099D01*
X119280702Y-104645092D01*
X119278500Y-104575028D01*
X119278500Y-104545144D01*
X119277620Y-104538182D01*
X119277156Y-104532293D01*
X119275674Y-104485111D01*
X119270020Y-104465652D01*
X119266012Y-104446297D01*
X119263474Y-104426203D01*
X119246103Y-104382329D01*
X119244189Y-104376740D01*
X119231019Y-104331407D01*
X119220703Y-104313964D01*
X119212005Y-104296209D01*
X119204552Y-104277383D01*
X119184553Y-104249857D01*
X119176818Y-104239210D01*
X119173558Y-104234247D01*
X119165165Y-104220055D01*
X119149542Y-104193638D01*
X119135214Y-104179310D01*
X119122384Y-104164289D01*
X119110472Y-104147893D01*
X119110469Y-104147891D01*
X119110469Y-104147890D01*
X119074107Y-104117808D01*
X119069726Y-104113822D01*
X118724719Y-103768815D01*
X118690693Y-103706503D01*
X118695758Y-103635688D01*
X118699615Y-103626479D01*
X118754284Y-103509243D01*
X118813543Y-103288087D01*
X118833498Y-103060000D01*
X118813543Y-102831913D01*
X118754284Y-102610757D01*
X118699618Y-102493526D01*
X118688958Y-102423336D01*
X118717938Y-102358524D01*
X118724706Y-102351196D01*
X119033657Y-102042245D01*
X119046092Y-102032284D01*
X119045905Y-102032057D01*
X119052009Y-102027005D01*
X119052018Y-102027000D01*
X119099999Y-101975904D01*
X119121135Y-101954769D01*
X119125437Y-101949221D01*
X119129267Y-101944735D01*
X119161586Y-101910321D01*
X119171345Y-101892567D01*
X119182204Y-101876038D01*
X119194614Y-101860040D01*
X119213354Y-101816732D01*
X119215965Y-101811404D01*
X119238695Y-101770060D01*
X119243733Y-101750435D01*
X119250138Y-101731730D01*
X119258181Y-101713145D01*
X119265561Y-101666547D01*
X119266762Y-101660740D01*
X119278500Y-101615030D01*
X119278500Y-101594775D01*
X119280051Y-101575063D01*
X119283220Y-101555057D01*
X119280455Y-101525810D01*
X119278780Y-101508080D01*
X119278500Y-101502148D01*
X119278500Y-97048854D01*
X119280249Y-97033012D01*
X119279956Y-97032985D01*
X119280700Y-97025099D01*
X119280702Y-97025092D01*
X119278500Y-96955028D01*
X119278500Y-96925144D01*
X119277620Y-96918182D01*
X119277156Y-96912293D01*
X119275674Y-96865111D01*
X119270020Y-96845652D01*
X119266012Y-96826297D01*
X119263474Y-96806203D01*
X119246103Y-96762329D01*
X119244189Y-96756740D01*
X119231019Y-96711407D01*
X119220703Y-96693964D01*
X119212005Y-96676209D01*
X119204552Y-96657383D01*
X119176818Y-96619210D01*
X119173558Y-96614247D01*
X119162814Y-96596080D01*
X119149542Y-96573638D01*
X119135214Y-96559310D01*
X119122384Y-96544289D01*
X119110472Y-96527893D01*
X119110469Y-96527891D01*
X119110469Y-96527890D01*
X119074107Y-96497808D01*
X119069726Y-96493822D01*
X118724719Y-96148815D01*
X118690693Y-96086503D01*
X118695758Y-96015688D01*
X118699615Y-96006479D01*
X118754284Y-95889243D01*
X118813543Y-95668087D01*
X118833498Y-95440000D01*
X118813543Y-95211913D01*
X118754284Y-94990757D01*
X118699618Y-94873526D01*
X118688958Y-94803336D01*
X118717938Y-94738524D01*
X118724706Y-94731196D01*
X119033657Y-94422245D01*
X119046092Y-94412284D01*
X119045905Y-94412057D01*
X119052009Y-94407005D01*
X119052018Y-94407000D01*
X119099999Y-94355904D01*
X119121135Y-94334769D01*
X119125437Y-94329221D01*
X119129267Y-94324735D01*
X119161586Y-94290321D01*
X119171345Y-94272567D01*
X119182204Y-94256038D01*
X119194614Y-94240040D01*
X119213354Y-94196732D01*
X119215965Y-94191404D01*
X119238695Y-94150060D01*
X119243733Y-94130435D01*
X119250138Y-94111730D01*
X119251645Y-94108248D01*
X119258181Y-94093145D01*
X119265561Y-94046547D01*
X119266762Y-94040740D01*
X119278500Y-93995030D01*
X119278500Y-93974775D01*
X119280051Y-93955063D01*
X119283220Y-93935057D01*
X119280185Y-93902948D01*
X119278780Y-93888080D01*
X119278500Y-93882148D01*
X119278500Y-84128853D01*
X119280249Y-84113011D01*
X119279956Y-84112984D01*
X119280702Y-84105091D01*
X119278500Y-84035028D01*
X119278500Y-84005150D01*
X119278500Y-84005144D01*
X119277620Y-83998182D01*
X119277156Y-83992293D01*
X119275674Y-83945111D01*
X119270017Y-83925642D01*
X119266012Y-83906298D01*
X119263474Y-83886203D01*
X119246100Y-83842322D01*
X119244181Y-83836716D01*
X119240238Y-83823145D01*
X119231018Y-83791407D01*
X119220706Y-83773970D01*
X119212010Y-83756221D01*
X119204552Y-83737383D01*
X119176812Y-83699203D01*
X119173564Y-83694258D01*
X119149542Y-83653638D01*
X119135214Y-83639310D01*
X119122384Y-83624289D01*
X119110472Y-83607893D01*
X119110469Y-83607891D01*
X119110469Y-83607890D01*
X119074113Y-83577813D01*
X119069721Y-83573817D01*
X118409150Y-82913245D01*
X118375125Y-82850933D01*
X118376539Y-82791542D01*
X118393543Y-82728087D01*
X118413498Y-82500000D01*
X118393543Y-82271913D01*
X118334284Y-82050757D01*
X118237523Y-81843251D01*
X118106198Y-81655700D01*
X117944300Y-81493802D01*
X117756749Y-81362477D01*
X117644194Y-81309992D01*
X117549246Y-81265717D01*
X117549240Y-81265715D01*
X117455771Y-81240670D01*
X117328087Y-81206457D01*
X117100000Y-81186502D01*
X116871913Y-81206457D01*
X116650759Y-81265715D01*
X116650753Y-81265717D01*
X116443250Y-81362477D01*
X116255703Y-81493799D01*
X116255697Y-81493804D01*
X116093804Y-81655697D01*
X116093799Y-81655703D01*
X115962477Y-81843250D01*
X115865717Y-82050753D01*
X115865716Y-82050757D01*
X115806457Y-82271913D01*
X115786502Y-82500000D01*
X115806457Y-82728087D01*
X115823458Y-82791536D01*
X115865715Y-82949240D01*
X115865717Y-82949246D01*
X115962477Y-83156749D01*
X116084072Y-83330405D01*
X116093802Y-83344300D01*
X116255700Y-83506198D01*
X116443251Y-83637523D01*
X116650757Y-83734284D01*
X116871913Y-83793543D01*
X117100000Y-83813498D01*
X117328087Y-83793543D01*
X117391541Y-83776540D01*
X117462513Y-83778228D01*
X117513245Y-83809150D01*
X117974595Y-84270499D01*
X118008620Y-84332812D01*
X118011500Y-84359595D01*
X118011500Y-88972832D01*
X117991498Y-89040953D01*
X117937842Y-89087446D01*
X117867568Y-89097550D01*
X117852891Y-89094539D01*
X117748087Y-89066457D01*
X117577127Y-89051500D01*
X116662873Y-89051500D01*
X116588452Y-89058011D01*
X116491913Y-89066457D01*
X116270759Y-89125715D01*
X116270753Y-89125717D01*
X116063250Y-89222477D01*
X115875703Y-89353799D01*
X115875697Y-89353804D01*
X115713804Y-89515697D01*
X115713799Y-89515703D01*
X115582477Y-89703250D01*
X115485717Y-89910753D01*
X115485715Y-89910759D01*
X115426457Y-90131913D01*
X115406502Y-90360000D01*
X115426457Y-90588086D01*
X115485715Y-90809240D01*
X115485717Y-90809246D01*
X115514573Y-90871128D01*
X115582477Y-91016749D01*
X115713802Y-91204300D01*
X115875700Y-91366198D01*
X116063251Y-91497523D01*
X116092880Y-91511339D01*
X116102457Y-91515805D01*
X116155742Y-91562722D01*
X116175203Y-91630999D01*
X116154661Y-91698959D01*
X116102457Y-91744195D01*
X116063250Y-91762477D01*
X115875703Y-91893799D01*
X115875697Y-91893804D01*
X115713804Y-92055697D01*
X115713799Y-92055703D01*
X115603819Y-92212771D01*
X115548362Y-92257099D01*
X115500606Y-92266500D01*
X115283849Y-92266500D01*
X115268010Y-92264751D01*
X115267983Y-92265045D01*
X115260091Y-92264299D01*
X115190060Y-92266500D01*
X115160144Y-92266500D01*
X115153172Y-92267379D01*
X115147265Y-92267844D01*
X115100110Y-92269326D01*
X115100105Y-92269327D01*
X115080660Y-92274977D01*
X115061302Y-92278986D01*
X115041210Y-92281524D01*
X115041202Y-92281526D01*
X114997336Y-92298893D01*
X114991721Y-92300816D01*
X114946407Y-92313982D01*
X114946402Y-92313984D01*
X114928963Y-92324297D01*
X114911218Y-92332990D01*
X114892380Y-92340449D01*
X114880273Y-92349246D01*
X114854212Y-92368180D01*
X114849261Y-92371433D01*
X114808640Y-92395455D01*
X114794307Y-92409787D01*
X114779281Y-92422620D01*
X114762895Y-92434526D01*
X114762894Y-92434526D01*
X114732818Y-92470880D01*
X114728823Y-92475271D01*
X113311336Y-93892757D01*
X113298901Y-93902721D01*
X113299089Y-93902948D01*
X113292980Y-93908001D01*
X113245016Y-93959078D01*
X113223866Y-93980227D01*
X113219560Y-93985777D01*
X113215714Y-93990279D01*
X113183417Y-94024674D01*
X113183411Y-94024683D01*
X113173651Y-94042435D01*
X113162803Y-94058950D01*
X113150386Y-94074958D01*
X113131645Y-94118264D01*
X113129034Y-94123594D01*
X113106305Y-94164939D01*
X113106303Y-94164944D01*
X113101267Y-94184559D01*
X113094864Y-94203262D01*
X113086819Y-94221852D01*
X113079437Y-94268456D01*
X113078233Y-94274268D01*
X113066500Y-94319968D01*
X113066500Y-94340223D01*
X113064949Y-94359933D01*
X113061780Y-94379942D01*
X113061780Y-94379943D01*
X113066220Y-94426917D01*
X113066500Y-94432850D01*
X113066500Y-103885404D01*
X113046498Y-103953525D01*
X113029595Y-103974499D01*
X111419896Y-105584197D01*
X111357584Y-105618223D01*
X111286768Y-105613158D01*
X111229933Y-105570611D01*
X111205281Y-105506087D01*
X111193543Y-105371913D01*
X111134284Y-105150757D01*
X111037523Y-104943251D01*
X110906198Y-104755700D01*
X110744300Y-104593802D01*
X110717906Y-104575321D01*
X110646095Y-104525038D01*
X110556749Y-104462477D01*
X110517543Y-104444195D01*
X110464258Y-104397279D01*
X110444796Y-104329002D01*
X110465337Y-104261042D01*
X110517543Y-104215805D01*
X110519997Y-104214660D01*
X110556749Y-104197523D01*
X110744300Y-104066198D01*
X110906198Y-103904300D01*
X111037523Y-103716749D01*
X111134284Y-103509243D01*
X111193543Y-103288087D01*
X111213498Y-103060000D01*
X111193543Y-102831913D01*
X111134284Y-102610757D01*
X111037523Y-102403251D01*
X110906198Y-102215700D01*
X110744300Y-102053802D01*
X110713746Y-102032408D01*
X110556749Y-101922477D01*
X110516951Y-101903919D01*
X110463666Y-101857002D01*
X110444205Y-101788725D01*
X110464747Y-101720765D01*
X110516951Y-101675529D01*
X110556498Y-101657087D01*
X110743974Y-101525815D01*
X110743980Y-101525810D01*
X110905810Y-101363980D01*
X110905815Y-101363974D01*
X111037087Y-101176498D01*
X111133811Y-100969073D01*
X111133813Y-100969068D01*
X111186082Y-100774000D01*
X109811686Y-100774000D01*
X109827641Y-100758045D01*
X109885165Y-100645148D01*
X109904986Y-100520000D01*
X109885165Y-100394852D01*
X109827641Y-100281955D01*
X109811686Y-100266000D01*
X111186082Y-100266000D01*
X111133813Y-100070931D01*
X111133811Y-100070926D01*
X111037087Y-99863501D01*
X110905815Y-99676025D01*
X110905810Y-99676019D01*
X110743980Y-99514189D01*
X110743974Y-99514184D01*
X110556497Y-99382911D01*
X110516949Y-99364469D01*
X110463665Y-99317551D01*
X110444205Y-99249273D01*
X110464748Y-99181314D01*
X110516950Y-99136081D01*
X110556749Y-99117523D01*
X110744300Y-98986198D01*
X110906198Y-98824300D01*
X111037523Y-98636749D01*
X111134284Y-98429243D01*
X111193543Y-98208087D01*
X111213498Y-97980000D01*
X111193543Y-97751913D01*
X111134284Y-97530757D01*
X111037523Y-97323251D01*
X110906198Y-97135700D01*
X110744300Y-96973802D01*
X110674809Y-96925144D01*
X110556749Y-96842477D01*
X110516951Y-96823919D01*
X110463666Y-96777002D01*
X110444205Y-96708725D01*
X110464747Y-96640765D01*
X110516951Y-96595529D01*
X110556498Y-96577087D01*
X110743974Y-96445815D01*
X110743980Y-96445810D01*
X110905810Y-96283980D01*
X110905815Y-96283974D01*
X111037087Y-96096498D01*
X111133811Y-95889073D01*
X111133813Y-95889068D01*
X111186082Y-95694000D01*
X109811686Y-95694000D01*
X109827641Y-95678045D01*
X109885165Y-95565148D01*
X109904986Y-95440000D01*
X109885165Y-95314852D01*
X109827641Y-95201955D01*
X109811686Y-95186000D01*
X111186082Y-95186000D01*
X111133813Y-94990931D01*
X111133811Y-94990926D01*
X111037087Y-94783501D01*
X110922828Y-94620322D01*
X110900140Y-94553048D01*
X110917425Y-94484187D01*
X110936942Y-94458961D01*
X112788660Y-92607243D01*
X112801093Y-92597284D01*
X112800905Y-92597057D01*
X112807016Y-92592001D01*
X112807015Y-92592001D01*
X112807018Y-92592000D01*
X112854983Y-92540920D01*
X112876135Y-92519770D01*
X112880447Y-92514210D01*
X112884273Y-92509730D01*
X112916586Y-92475321D01*
X112926346Y-92457565D01*
X112937195Y-92441050D01*
X112949614Y-92425041D01*
X112968363Y-92381710D01*
X112970953Y-92376423D01*
X112993695Y-92335060D01*
X112998733Y-92315434D01*
X113005137Y-92296732D01*
X113013180Y-92278147D01*
X113013179Y-92278147D01*
X113013181Y-92278145D01*
X113020561Y-92231547D01*
X113021762Y-92225740D01*
X113033500Y-92180030D01*
X113033500Y-92159775D01*
X113035051Y-92140063D01*
X113035472Y-92137404D01*
X113038220Y-92120057D01*
X113034725Y-92083085D01*
X113033780Y-92073080D01*
X113033500Y-92067148D01*
X113033500Y-85878354D01*
X113053502Y-85810233D01*
X113087230Y-85775141D01*
X113195166Y-85699563D01*
X113212038Y-85687749D01*
X113367749Y-85532038D01*
X113494056Y-85351654D01*
X113587120Y-85152076D01*
X113644115Y-84939371D01*
X113663307Y-84720000D01*
X113644115Y-84500629D01*
X113635715Y-84469281D01*
X113637403Y-84398309D01*
X113668324Y-84347578D01*
X113863657Y-84152245D01*
X113876092Y-84142284D01*
X113875905Y-84142057D01*
X113882009Y-84137005D01*
X113882018Y-84137000D01*
X113929999Y-84085904D01*
X113951135Y-84064769D01*
X113955437Y-84059221D01*
X113959267Y-84054735D01*
X113991586Y-84020321D01*
X114001345Y-84002567D01*
X114012204Y-83986038D01*
X114024614Y-83970040D01*
X114043354Y-83926732D01*
X114045965Y-83921404D01*
X114048863Y-83916133D01*
X114068695Y-83880060D01*
X114073733Y-83860435D01*
X114080138Y-83841730D01*
X114082308Y-83836716D01*
X114088181Y-83823145D01*
X114095562Y-83776540D01*
X114096762Y-83770740D01*
X114108500Y-83725030D01*
X114108500Y-83704775D01*
X114110051Y-83685063D01*
X114113220Y-83665057D01*
X114109523Y-83625944D01*
X114108780Y-83618080D01*
X114108500Y-83612148D01*
X114108500Y-77500000D01*
X115787004Y-77500000D01*
X115806951Y-77728002D01*
X115866186Y-77949068D01*
X115866188Y-77949073D01*
X115962913Y-78156501D01*
X116012899Y-78227888D01*
X116701272Y-77539516D01*
X116714835Y-77625148D01*
X116772359Y-77738045D01*
X116861955Y-77827641D01*
X116974852Y-77885165D01*
X117060482Y-77898727D01*
X116372110Y-78587098D01*
X116372110Y-78587100D01*
X116443498Y-78637086D01*
X116650926Y-78733811D01*
X116650931Y-78733813D01*
X116871999Y-78793048D01*
X116871995Y-78793048D01*
X117100000Y-78812995D01*
X117328002Y-78793048D01*
X117549068Y-78733813D01*
X117549073Y-78733811D01*
X117756497Y-78637088D01*
X117827888Y-78587099D01*
X117827888Y-78587097D01*
X117139518Y-77898727D01*
X117225148Y-77885165D01*
X117338045Y-77827641D01*
X117427641Y-77738045D01*
X117485165Y-77625148D01*
X117498727Y-77539518D01*
X118187097Y-78227888D01*
X118187099Y-78227888D01*
X118237088Y-78156497D01*
X118333811Y-77949073D01*
X118333813Y-77949068D01*
X118393048Y-77728002D01*
X118412995Y-77500000D01*
X118393048Y-77271997D01*
X118333813Y-77050931D01*
X118333811Y-77050926D01*
X118237086Y-76843498D01*
X118187100Y-76772110D01*
X118187098Y-76772110D01*
X117498727Y-77460481D01*
X117485165Y-77374852D01*
X117427641Y-77261955D01*
X117338045Y-77172359D01*
X117225148Y-77114835D01*
X117139517Y-77101272D01*
X117827888Y-76412899D01*
X117827888Y-76412898D01*
X117756501Y-76362913D01*
X117549073Y-76266188D01*
X117549068Y-76266186D01*
X117328000Y-76206951D01*
X117328004Y-76206951D01*
X117100000Y-76187004D01*
X116871997Y-76206951D01*
X116650931Y-76266186D01*
X116650926Y-76266188D01*
X116443500Y-76362913D01*
X116372109Y-76412900D01*
X117060481Y-77101272D01*
X116974852Y-77114835D01*
X116861955Y-77172359D01*
X116772359Y-77261955D01*
X116714835Y-77374852D01*
X116701272Y-77460481D01*
X116012900Y-76772109D01*
X115962913Y-76843500D01*
X115866188Y-77050926D01*
X115866186Y-77050931D01*
X115806951Y-77271997D01*
X115787004Y-77500000D01*
X114108500Y-77500000D01*
X114108500Y-76159593D01*
X114128502Y-76091472D01*
X114145400Y-76070503D01*
X117206753Y-73009149D01*
X117269063Y-72975125D01*
X117328457Y-72976539D01*
X117391913Y-72993543D01*
X117620000Y-73013498D01*
X117848087Y-72993543D01*
X118069243Y-72934284D01*
X118276749Y-72837523D01*
X118464300Y-72706198D01*
X118626198Y-72544300D01*
X118757523Y-72356749D01*
X118854284Y-72149243D01*
X118913543Y-71928087D01*
X118933498Y-71700000D01*
X118913543Y-71471913D01*
X118854284Y-71250757D01*
X118757523Y-71043251D01*
X118626198Y-70855700D01*
X118464300Y-70693802D01*
X118276749Y-70562477D01*
X118251060Y-70550498D01*
X118069246Y-70465717D01*
X118069240Y-70465715D01*
X117975771Y-70440670D01*
X117848087Y-70406457D01*
X117620000Y-70386502D01*
X117391913Y-70406457D01*
X117170759Y-70465715D01*
X117170753Y-70465717D01*
X116963250Y-70562477D01*
X116775703Y-70693799D01*
X116775697Y-70693804D01*
X116613804Y-70855697D01*
X116613799Y-70855703D01*
X116482477Y-71043250D01*
X116385717Y-71250753D01*
X116385715Y-71250759D01*
X116326457Y-71471913D01*
X116306502Y-71700000D01*
X116326457Y-71928090D01*
X116343459Y-71991540D01*
X116341769Y-72062516D01*
X116310847Y-72113246D01*
X113086336Y-75337757D01*
X113073901Y-75347721D01*
X113074089Y-75347948D01*
X113067980Y-75353001D01*
X113020016Y-75404078D01*
X112998866Y-75425227D01*
X112994560Y-75430777D01*
X112990714Y-75435279D01*
X112958417Y-75469674D01*
X112958411Y-75469683D01*
X112948651Y-75487435D01*
X112937803Y-75503950D01*
X112925386Y-75519958D01*
X112906645Y-75563264D01*
X112904034Y-75568594D01*
X112881305Y-75609939D01*
X112881303Y-75609944D01*
X112876267Y-75629559D01*
X112869864Y-75648262D01*
X112861819Y-75666852D01*
X112854437Y-75713455D01*
X112853234Y-75719265D01*
X112846158Y-75746829D01*
X112809846Y-75807837D01*
X112746316Y-75839529D01*
X112724115Y-75841500D01*
X111601350Y-75841500D01*
X111540803Y-75848009D01*
X111540795Y-75848011D01*
X111403797Y-75899110D01*
X111403792Y-75899112D01*
X111286738Y-75986738D01*
X111199112Y-76103792D01*
X111199110Y-76103797D01*
X111148011Y-76240795D01*
X111148009Y-76240803D01*
X111141500Y-76301350D01*
X111141500Y-77410404D01*
X111121498Y-77478525D01*
X111104595Y-77499499D01*
X110673595Y-77930499D01*
X110611283Y-77964525D01*
X110540468Y-77959460D01*
X110483632Y-77916913D01*
X110458821Y-77850393D01*
X110458500Y-77841404D01*
X110458500Y-76301367D01*
X110458499Y-76301350D01*
X110451990Y-76240803D01*
X110451988Y-76240795D01*
X110420640Y-76156749D01*
X110400889Y-76103796D01*
X110400888Y-76103794D01*
X110400887Y-76103792D01*
X110313261Y-75986738D01*
X110196207Y-75899112D01*
X110196202Y-75899110D01*
X110059204Y-75848011D01*
X110059196Y-75848009D01*
X109998649Y-75841500D01*
X109998638Y-75841500D01*
X109959500Y-75841500D01*
X109891379Y-75821498D01*
X109844886Y-75767842D01*
X109833500Y-75715500D01*
X109833500Y-73136436D01*
X109853502Y-73068315D01*
X109907158Y-73021822D01*
X109970480Y-73010915D01*
X110000000Y-73013498D01*
X110228087Y-72993543D01*
X110449243Y-72934284D01*
X110656749Y-72837523D01*
X110844300Y-72706198D01*
X111006198Y-72544300D01*
X111137523Y-72356749D01*
X111234284Y-72149243D01*
X111293543Y-71928087D01*
X111313498Y-71700000D01*
X111293543Y-71471913D01*
X111234284Y-71250757D01*
X111137523Y-71043251D01*
X111006198Y-70855700D01*
X110844300Y-70693802D01*
X110656749Y-70562477D01*
X110631060Y-70550498D01*
X110449246Y-70465717D01*
X110449240Y-70465715D01*
X110355771Y-70440670D01*
X110228087Y-70406457D01*
X110000000Y-70386502D01*
X109771913Y-70406457D01*
X109550759Y-70465715D01*
X109550753Y-70465717D01*
X109343250Y-70562477D01*
X109155703Y-70693799D01*
X109155697Y-70693804D01*
X108993804Y-70855697D01*
X108993799Y-70855703D01*
X108862477Y-71043250D01*
X108765717Y-71250753D01*
X108765715Y-71250759D01*
X108706457Y-71471913D01*
X108686502Y-71700000D01*
X108706457Y-71928090D01*
X108724173Y-71994204D01*
X108722483Y-72065180D01*
X108694322Y-72113062D01*
X108683416Y-72124677D01*
X108683412Y-72124682D01*
X108673652Y-72142434D01*
X108662804Y-72158949D01*
X108650387Y-72174957D01*
X108631646Y-72218263D01*
X108629035Y-72223593D01*
X108606306Y-72264938D01*
X108606304Y-72264943D01*
X108601268Y-72284558D01*
X108594865Y-72303261D01*
X108586820Y-72321851D01*
X108579438Y-72368455D01*
X108578234Y-72374267D01*
X108566500Y-72419968D01*
X108566500Y-72440230D01*
X108564949Y-72459932D01*
X108561781Y-72479937D01*
X108561781Y-72479944D01*
X108566220Y-72526913D01*
X108566500Y-72532844D01*
X108566500Y-75715500D01*
X108546498Y-75783621D01*
X108492842Y-75830114D01*
X108440500Y-75841500D01*
X108401350Y-75841500D01*
X108340803Y-75848009D01*
X108340795Y-75848011D01*
X108203797Y-75899110D01*
X108203792Y-75899112D01*
X108086738Y-75986738D01*
X107999112Y-76103792D01*
X107999110Y-76103797D01*
X107948011Y-76240795D01*
X107948009Y-76240803D01*
X107941500Y-76301350D01*
X107941500Y-77410403D01*
X107921498Y-77478524D01*
X107904595Y-77499499D01*
X107586333Y-77817760D01*
X107573901Y-77827721D01*
X107574089Y-77827948D01*
X107567980Y-77833001D01*
X107520015Y-77884079D01*
X107498866Y-77905227D01*
X107494560Y-77910777D01*
X107490714Y-77915279D01*
X107458417Y-77949674D01*
X107458411Y-77949683D01*
X107448651Y-77967435D01*
X107437803Y-77983950D01*
X107425386Y-77999958D01*
X107406645Y-78043264D01*
X107404034Y-78048594D01*
X107381305Y-78089939D01*
X107381303Y-78089944D01*
X107376267Y-78109559D01*
X107369864Y-78128262D01*
X107361819Y-78146852D01*
X107354437Y-78193456D01*
X107353233Y-78199268D01*
X107341500Y-78244968D01*
X107341500Y-78265223D01*
X107339949Y-78284933D01*
X107336780Y-78304942D01*
X107336780Y-78304943D01*
X107341220Y-78351917D01*
X107341500Y-78357850D01*
X107341500Y-80687605D01*
X107321498Y-80755726D01*
X107267842Y-80802219D01*
X107197568Y-80812323D01*
X107132988Y-80782829D01*
X107095667Y-80726542D01*
X107089865Y-80708687D01*
X107086956Y-80699734D01*
X106952562Y-80414131D01*
X106952556Y-80414121D01*
X106783437Y-80147631D01*
X106582236Y-79904421D01*
X106473800Y-79802593D01*
X106352140Y-79688346D01*
X106333567Y-79674852D01*
X106096781Y-79502817D01*
X105909758Y-79400000D01*
X105820179Y-79350753D01*
X105526702Y-79234557D01*
X105220975Y-79156060D01*
X105220970Y-79156059D01*
X105220965Y-79156058D01*
X105220967Y-79156058D01*
X104907835Y-79116501D01*
X104907824Y-79116500D01*
X104907821Y-79116500D01*
X104592179Y-79116500D01*
X104592176Y-79116500D01*
X104592164Y-79116501D01*
X104279033Y-79156058D01*
X103973301Y-79234556D01*
X103679821Y-79350753D01*
X103403218Y-79502817D01*
X103147861Y-79688345D01*
X103147860Y-79688345D01*
X102917763Y-79904421D01*
X102716562Y-80147631D01*
X102547443Y-80414121D01*
X102547436Y-80414135D01*
X102413044Y-80699732D01*
X102413039Y-80699745D01*
X102315507Y-80999919D01*
X102315504Y-80999932D01*
X102256359Y-81309975D01*
X102256357Y-81309992D01*
X102236540Y-81624993D01*
X102236540Y-81625006D01*
X102256357Y-81940007D01*
X102256359Y-81940024D01*
X102315504Y-82250067D01*
X102315507Y-82250080D01*
X102413039Y-82550254D01*
X102413044Y-82550267D01*
X102472835Y-82677329D01*
X102547438Y-82835869D01*
X102547440Y-82835872D01*
X102547443Y-82835878D01*
X102716562Y-83102368D01*
X102917763Y-83345578D01*
X102917766Y-83345580D01*
X102917767Y-83345582D01*
X103088808Y-83506200D01*
X103147860Y-83561654D01*
X103385465Y-83734284D01*
X103403221Y-83747184D01*
X103679821Y-83899247D01*
X103973298Y-84015443D01*
X104279025Y-84093940D01*
X104279033Y-84093941D01*
X104279032Y-84093941D01*
X104367295Y-84105091D01*
X104592179Y-84133500D01*
X104592183Y-84133500D01*
X104907817Y-84133500D01*
X104907821Y-84133500D01*
X105220975Y-84093940D01*
X105526702Y-84015443D01*
X105820179Y-83899247D01*
X106096779Y-83747184D01*
X106352140Y-83561654D01*
X106582233Y-83345582D01*
X106783432Y-83102375D01*
X106783434Y-83102370D01*
X106783437Y-83102368D01*
X106915795Y-82893804D01*
X106952562Y-82835869D01*
X107086956Y-82550266D01*
X107086960Y-82550254D01*
X107095667Y-82523458D01*
X107135740Y-82464852D01*
X107201137Y-82437215D01*
X107271094Y-82449322D01*
X107323400Y-82497328D01*
X107341500Y-82562394D01*
X107341500Y-90850904D01*
X107321498Y-90919025D01*
X107267842Y-90965518D01*
X107197568Y-90975622D01*
X107162366Y-90963447D01*
X107161735Y-90964802D01*
X106949246Y-90865717D01*
X106949240Y-90865715D01*
X106838465Y-90836033D01*
X106728087Y-90806457D01*
X106500000Y-90786502D01*
X106271913Y-90806457D01*
X106050759Y-90865715D01*
X106050753Y-90865717D01*
X105843250Y-90962477D01*
X105655703Y-91093799D01*
X105655697Y-91093804D01*
X105493804Y-91255697D01*
X105493799Y-91255703D01*
X105362477Y-91443250D01*
X105265717Y-91650753D01*
X105265715Y-91650759D01*
X105211384Y-91853524D01*
X105206457Y-91871913D01*
X105186502Y-92100000D01*
X105206457Y-92328087D01*
X105231787Y-92422620D01*
X105234539Y-92432889D01*
X105232849Y-92503866D01*
X105193055Y-92562661D01*
X105127790Y-92590609D01*
X105112832Y-92591500D01*
X102886651Y-92591500D01*
X102818530Y-92571498D01*
X102772037Y-92517842D01*
X102761933Y-92447568D01*
X102764944Y-92432889D01*
X102793048Y-92328002D01*
X102812995Y-92100000D01*
X102793048Y-91871997D01*
X102733813Y-91650931D01*
X102733811Y-91650926D01*
X102637086Y-91443498D01*
X102587100Y-91372110D01*
X102587097Y-91372110D01*
X101898726Y-92060480D01*
X101885165Y-91974852D01*
X101827641Y-91861955D01*
X101738045Y-91772359D01*
X101625148Y-91714835D01*
X101539515Y-91701272D01*
X102227888Y-91012900D01*
X102227888Y-91012898D01*
X102156501Y-90962913D01*
X101949073Y-90866188D01*
X101949068Y-90866186D01*
X101728000Y-90806951D01*
X101728004Y-90806951D01*
X101500000Y-90787004D01*
X101271997Y-90806951D01*
X101050931Y-90866186D01*
X101050926Y-90866188D01*
X100843498Y-90962913D01*
X100831766Y-90971128D01*
X100764492Y-90993813D01*
X100695632Y-90976525D01*
X100647050Y-90924754D01*
X100633500Y-90867912D01*
X100633500Y-90458772D01*
X100653502Y-90390651D01*
X100699532Y-90347958D01*
X100736913Y-90327727D01*
X100773017Y-90308190D01*
X100957220Y-90164818D01*
X101115314Y-89993083D01*
X101144517Y-89948383D01*
X101198519Y-89902296D01*
X101268867Y-89892720D01*
X101333225Y-89922696D01*
X101355481Y-89948382D01*
X101384686Y-89993083D01*
X101384687Y-89993084D01*
X101542774Y-90164813D01*
X101542778Y-90164817D01*
X101586812Y-90199090D01*
X101726983Y-90308190D01*
X101932273Y-90419287D01*
X102153049Y-90495080D01*
X102383288Y-90533500D01*
X102383292Y-90533500D01*
X102616708Y-90533500D01*
X102616712Y-90533500D01*
X102846951Y-90495080D01*
X103067727Y-90419287D01*
X103273017Y-90308190D01*
X103457220Y-90164818D01*
X103487512Y-90131913D01*
X103615314Y-89993083D01*
X103625335Y-89977744D01*
X103742984Y-89797669D01*
X103836749Y-89583907D01*
X103894051Y-89357626D01*
X103913327Y-89125000D01*
X103894051Y-88892374D01*
X103836749Y-88666093D01*
X103742984Y-88452331D01*
X103644517Y-88301615D01*
X103615314Y-88256916D01*
X103457225Y-88085186D01*
X103457221Y-88085182D01*
X103365118Y-88013496D01*
X103273017Y-87941810D01*
X103067727Y-87830713D01*
X103067724Y-87830712D01*
X103067723Y-87830711D01*
X102846955Y-87754921D01*
X102846948Y-87754919D01*
X102748411Y-87738476D01*
X102616712Y-87716500D01*
X102383288Y-87716500D01*
X102268066Y-87735727D01*
X102153051Y-87754919D01*
X102153044Y-87754921D01*
X101932276Y-87830711D01*
X101932273Y-87830713D01*
X101726985Y-87941809D01*
X101726983Y-87941810D01*
X101542778Y-88085182D01*
X101542774Y-88085186D01*
X101384685Y-88256916D01*
X101355483Y-88301615D01*
X101301480Y-88347704D01*
X101231132Y-88357279D01*
X101166774Y-88327302D01*
X101144517Y-88301615D01*
X101115314Y-88256916D01*
X100957225Y-88085186D01*
X100957221Y-88085182D01*
X100865118Y-88013496D01*
X100773017Y-87941810D01*
X100567727Y-87830713D01*
X100567724Y-87830712D01*
X100567723Y-87830711D01*
X100346955Y-87754921D01*
X100346948Y-87754919D01*
X100248411Y-87738476D01*
X100116712Y-87716500D01*
X99883288Y-87716500D01*
X99768066Y-87735727D01*
X99653051Y-87754919D01*
X99653044Y-87754921D01*
X99432276Y-87830711D01*
X99432273Y-87830713D01*
X99226985Y-87941809D01*
X99226983Y-87941810D01*
X99042778Y-88085182D01*
X99042774Y-88085186D01*
X98884685Y-88256916D01*
X98855483Y-88301615D01*
X98801480Y-88347704D01*
X98731132Y-88357279D01*
X98666774Y-88327302D01*
X98644517Y-88301615D01*
X98615314Y-88256916D01*
X98457225Y-88085186D01*
X98457221Y-88085182D01*
X98365118Y-88013496D01*
X98273017Y-87941810D01*
X98067727Y-87830713D01*
X98067724Y-87830712D01*
X98067723Y-87830711D01*
X97846955Y-87754921D01*
X97846948Y-87754919D01*
X97748411Y-87738476D01*
X97616712Y-87716500D01*
X97383288Y-87716500D01*
X97268066Y-87735727D01*
X97153051Y-87754919D01*
X97153041Y-87754922D01*
X97132722Y-87761897D01*
X97061798Y-87765094D01*
X97002721Y-87731817D01*
X94899183Y-85628279D01*
X92782244Y-83511339D01*
X92772279Y-83498901D01*
X92772052Y-83499090D01*
X92767001Y-83492984D01*
X92767000Y-83492982D01*
X92757737Y-83484284D01*
X92715921Y-83445016D01*
X92694777Y-83423871D01*
X92694772Y-83423866D01*
X92689225Y-83419563D01*
X92684717Y-83415712D01*
X92650325Y-83383417D01*
X92650319Y-83383413D01*
X92632563Y-83373651D01*
X92616047Y-83362802D01*
X92600041Y-83350386D01*
X92569289Y-83337078D01*
X92556740Y-83331648D01*
X92551408Y-83329036D01*
X92510061Y-83306305D01*
X92490436Y-83301266D01*
X92471736Y-83294864D01*
X92453145Y-83286819D01*
X92453143Y-83286818D01*
X92453142Y-83286818D01*
X92406542Y-83279437D01*
X92400729Y-83278233D01*
X92355030Y-83266500D01*
X92334776Y-83266500D01*
X92315066Y-83264949D01*
X92295057Y-83261780D01*
X92295056Y-83261780D01*
X92248083Y-83266220D01*
X92242150Y-83266500D01*
X91339394Y-83266500D01*
X91271273Y-83246498D01*
X91236181Y-83212771D01*
X91148902Y-83088124D01*
X91126198Y-83055700D01*
X90964300Y-82893802D01*
X90776749Y-82762477D01*
X90633433Y-82695648D01*
X90569246Y-82665717D01*
X90569240Y-82665715D01*
X90475771Y-82640670D01*
X90348087Y-82606457D01*
X90120000Y-82586502D01*
X89891913Y-82606457D01*
X89670759Y-82665715D01*
X89670753Y-82665717D01*
X89463250Y-82762477D01*
X89275703Y-82893799D01*
X89275697Y-82893804D01*
X89113804Y-83055697D01*
X89113799Y-83055703D01*
X88982477Y-83243250D01*
X88885717Y-83450753D01*
X88885715Y-83450759D01*
X88851671Y-83577813D01*
X88826457Y-83671913D01*
X88806502Y-83900000D01*
X88826457Y-84128087D01*
X88853133Y-84227641D01*
X88885715Y-84349240D01*
X88885717Y-84349246D01*
X88908925Y-84399016D01*
X88982477Y-84556749D01*
X89113802Y-84744300D01*
X89275700Y-84906198D01*
X89463251Y-85037523D01*
X89670757Y-85134284D01*
X89891913Y-85193543D01*
X90120000Y-85213498D01*
X90348087Y-85193543D01*
X90569243Y-85134284D01*
X90776749Y-85037523D01*
X90964300Y-84906198D01*
X91126198Y-84744300D01*
X91236181Y-84587229D01*
X91291638Y-84542901D01*
X91339394Y-84533500D01*
X91960406Y-84533500D01*
X92028527Y-84553502D01*
X92049501Y-84570405D01*
X96108976Y-88629880D01*
X96143002Y-88692192D01*
X96142026Y-88749905D01*
X96105949Y-88892370D01*
X96086673Y-89125000D01*
X96105632Y-89353804D01*
X96105950Y-89357633D01*
X96163249Y-89583903D01*
X96163252Y-89583910D01*
X96257015Y-89797668D01*
X96384685Y-89993083D01*
X96542774Y-90164813D01*
X96542778Y-90164817D01*
X96586812Y-90199090D01*
X96726983Y-90308190D01*
X96932273Y-90419287D01*
X97153049Y-90495080D01*
X97383288Y-90533500D01*
X97383292Y-90533500D01*
X97616708Y-90533500D01*
X97616712Y-90533500D01*
X97846951Y-90495080D01*
X98067727Y-90419287D01*
X98273017Y-90308190D01*
X98457220Y-90164818D01*
X98615314Y-89993083D01*
X98644517Y-89948383D01*
X98698519Y-89902296D01*
X98768867Y-89892720D01*
X98833225Y-89922696D01*
X98855481Y-89948382D01*
X98884686Y-89993083D01*
X98884687Y-89993084D01*
X99042774Y-90164813D01*
X99042778Y-90164817D01*
X99086812Y-90199090D01*
X99226983Y-90308190D01*
X99226988Y-90308192D01*
X99226990Y-90308194D01*
X99300468Y-90347958D01*
X99350859Y-90397971D01*
X99366500Y-90458772D01*
X99366500Y-90767912D01*
X99346498Y-90836033D01*
X99292842Y-90882526D01*
X99222568Y-90892630D01*
X99168234Y-90871128D01*
X99156501Y-90862913D01*
X98949073Y-90766188D01*
X98949068Y-90766186D01*
X98728000Y-90706951D01*
X98728004Y-90706951D01*
X98500000Y-90687004D01*
X98271997Y-90706951D01*
X98050931Y-90766186D01*
X98050926Y-90766188D01*
X97843500Y-90862913D01*
X97772109Y-90912899D01*
X98460482Y-91601272D01*
X98374852Y-91614835D01*
X98261955Y-91672359D01*
X98172359Y-91761955D01*
X98114835Y-91874852D01*
X98101272Y-91960481D01*
X97412900Y-91272109D01*
X97362913Y-91343500D01*
X97266188Y-91550926D01*
X97266186Y-91550931D01*
X97206951Y-91771997D01*
X97187004Y-92000000D01*
X97206951Y-92228002D01*
X97266186Y-92449068D01*
X97266188Y-92449073D01*
X97362913Y-92656501D01*
X97412899Y-92727888D01*
X98101272Y-92039516D01*
X98114835Y-92125148D01*
X98172359Y-92238045D01*
X98261955Y-92327641D01*
X98374852Y-92385165D01*
X98460480Y-92398726D01*
X97772110Y-93087097D01*
X97772110Y-93087100D01*
X97843498Y-93137086D01*
X98050926Y-93233811D01*
X98050931Y-93233813D01*
X98234734Y-93283063D01*
X98295357Y-93320015D01*
X98326378Y-93383875D01*
X98317950Y-93454370D01*
X98291218Y-93493865D01*
X97231963Y-94553120D01*
X97169651Y-94587146D01*
X97098836Y-94582081D01*
X97042000Y-94539534D01*
X97039655Y-94536296D01*
X96952907Y-94412408D01*
X96906198Y-94345700D01*
X96744300Y-94183802D01*
X96726015Y-94170999D01*
X96556749Y-94052477D01*
X96349246Y-93955717D01*
X96349240Y-93955715D01*
X96255771Y-93930670D01*
X96128087Y-93896457D01*
X95900000Y-93876502D01*
X95671913Y-93896457D01*
X95450759Y-93955715D01*
X95450753Y-93955717D01*
X95243250Y-94052477D01*
X95055703Y-94183799D01*
X95055697Y-94183804D01*
X94893804Y-94345697D01*
X94893799Y-94345703D01*
X94762477Y-94533250D01*
X94665717Y-94740753D01*
X94665715Y-94740759D01*
X94606457Y-94961913D01*
X94586502Y-95190000D01*
X94606457Y-95418090D01*
X94623459Y-95481540D01*
X94621769Y-95552516D01*
X94590848Y-95603246D01*
X93764500Y-96429595D01*
X93702187Y-96463620D01*
X93675404Y-96466500D01*
X92194737Y-96466500D01*
X92126616Y-96446498D01*
X92117520Y-96440066D01*
X92105041Y-96430386D01*
X92090935Y-96424282D01*
X92061740Y-96411648D01*
X92056408Y-96409036D01*
X92015061Y-96386305D01*
X91995436Y-96381266D01*
X91976736Y-96374864D01*
X91958145Y-96366819D01*
X91958143Y-96366818D01*
X91958142Y-96366818D01*
X91911542Y-96359437D01*
X91905729Y-96358233D01*
X91860030Y-96346500D01*
X91839776Y-96346500D01*
X91820066Y-96344949D01*
X91792228Y-96340540D01*
X91792749Y-96337245D01*
X91739763Y-96319799D01*
X91708079Y-96288341D01*
X91601200Y-96135703D01*
X91601195Y-96135697D01*
X91439302Y-95973804D01*
X91439296Y-95973799D01*
X91376998Y-95930177D01*
X91251749Y-95842477D01*
X91212543Y-95824195D01*
X91159258Y-95777279D01*
X91139796Y-95709002D01*
X91160337Y-95641042D01*
X91212543Y-95595805D01*
X91214997Y-95594660D01*
X91251749Y-95577523D01*
X91439300Y-95446198D01*
X91601198Y-95284300D01*
X91732523Y-95096749D01*
X91829284Y-94889243D01*
X91888543Y-94668087D01*
X91908498Y-94440000D01*
X91888543Y-94211913D01*
X91829284Y-93990757D01*
X91732523Y-93783251D01*
X91601198Y-93595700D01*
X91439300Y-93433802D01*
X91439291Y-93433796D01*
X91333086Y-93359430D01*
X91251749Y-93302477D01*
X91212543Y-93284195D01*
X91159258Y-93237279D01*
X91139796Y-93169002D01*
X91160337Y-93101042D01*
X91212543Y-93055805D01*
X91214997Y-93054660D01*
X91251749Y-93037523D01*
X91439300Y-92906198D01*
X91601198Y-92744300D01*
X91732523Y-92556749D01*
X91829284Y-92349243D01*
X91888543Y-92128087D01*
X91899749Y-92000000D01*
X92186502Y-92000000D01*
X92206457Y-92228087D01*
X92229473Y-92313982D01*
X92265715Y-92449240D01*
X92265717Y-92449246D01*
X92362477Y-92656749D01*
X92470635Y-92811215D01*
X92493802Y-92844300D01*
X92655700Y-93006198D01*
X92843251Y-93137523D01*
X93050757Y-93234284D01*
X93271913Y-93293543D01*
X93500000Y-93313498D01*
X93728087Y-93293543D01*
X93949243Y-93234284D01*
X94156749Y-93137523D01*
X94344300Y-93006198D01*
X94506198Y-92844300D01*
X94637523Y-92656749D01*
X94734284Y-92449243D01*
X94793543Y-92228087D01*
X94813498Y-92000000D01*
X94793543Y-91771913D01*
X94734284Y-91550757D01*
X94637523Y-91343251D01*
X94506198Y-91155700D01*
X94344300Y-90993802D01*
X94318336Y-90975622D01*
X94156749Y-90862477D01*
X93949246Y-90765717D01*
X93949240Y-90765715D01*
X93855771Y-90740670D01*
X93728087Y-90706457D01*
X93500000Y-90686502D01*
X93271913Y-90706457D01*
X93050759Y-90765715D01*
X93050753Y-90765717D01*
X92843250Y-90862477D01*
X92655703Y-90993799D01*
X92655697Y-90993804D01*
X92493804Y-91155697D01*
X92493799Y-91155703D01*
X92362477Y-91343250D01*
X92265717Y-91550753D01*
X92265715Y-91550759D01*
X92229688Y-91685215D01*
X92206457Y-91771913D01*
X92186502Y-92000000D01*
X91899749Y-92000000D01*
X91908498Y-91900000D01*
X91888543Y-91671913D01*
X91829284Y-91450757D01*
X91732523Y-91243251D01*
X91601198Y-91055700D01*
X91439300Y-90893802D01*
X91423196Y-90882526D01*
X91251749Y-90762477D01*
X91044246Y-90665717D01*
X91044240Y-90665715D01*
X90925479Y-90633893D01*
X90823087Y-90606457D01*
X90652127Y-90591500D01*
X89737873Y-90591500D01*
X89566913Y-90606457D01*
X89345759Y-90665715D01*
X89345753Y-90665717D01*
X89138250Y-90762477D01*
X88950703Y-90893799D01*
X88950697Y-90893804D01*
X88788804Y-91055697D01*
X88788799Y-91055703D01*
X88657477Y-91243250D01*
X88560717Y-91450753D01*
X88560712Y-91450767D01*
X88520189Y-91602000D01*
X88483238Y-91662622D01*
X88419377Y-91693644D01*
X88348882Y-91685215D01*
X88309388Y-91658483D01*
X86862244Y-90211339D01*
X86852279Y-90198901D01*
X86852052Y-90199090D01*
X86847001Y-90192984D01*
X86847000Y-90192982D01*
X86795921Y-90145016D01*
X82019786Y-85368881D01*
X81985760Y-85306569D01*
X81990825Y-85235754D01*
X82033372Y-85178918D01*
X82099892Y-85154107D01*
X82141492Y-85158079D01*
X82246000Y-85186081D01*
X82246000Y-84211686D01*
X82261955Y-84227641D01*
X82374852Y-84285165D01*
X82468519Y-84300000D01*
X82531481Y-84300000D01*
X82625148Y-84285165D01*
X82738045Y-84227641D01*
X82754000Y-84211686D01*
X82754000Y-85186081D01*
X82949068Y-85133813D01*
X82949073Y-85133811D01*
X83156498Y-85037087D01*
X83343974Y-84905815D01*
X83343980Y-84905810D01*
X83505810Y-84743980D01*
X83505815Y-84743974D01*
X83637087Y-84556498D01*
X83733811Y-84349073D01*
X83733813Y-84349068D01*
X83786082Y-84154000D01*
X82811686Y-84154000D01*
X82827641Y-84138045D01*
X82885165Y-84025148D01*
X82904986Y-83900000D01*
X82885165Y-83774852D01*
X82827641Y-83661955D01*
X82811686Y-83646000D01*
X83786082Y-83646000D01*
X83733813Y-83450931D01*
X83733811Y-83450926D01*
X83637087Y-83243501D01*
X83505815Y-83056025D01*
X83505810Y-83056019D01*
X83343980Y-82894189D01*
X83343974Y-82894184D01*
X83156498Y-82762912D01*
X82949073Y-82666188D01*
X82949071Y-82666187D01*
X82754000Y-82613917D01*
X82754000Y-83588314D01*
X82738045Y-83572359D01*
X82625148Y-83514835D01*
X82531481Y-83500000D01*
X82468519Y-83500000D01*
X82374852Y-83514835D01*
X82261955Y-83572359D01*
X82246000Y-83588314D01*
X82246000Y-82613917D01*
X82245999Y-82613917D01*
X82050928Y-82666187D01*
X82050926Y-82666188D01*
X81987750Y-82695648D01*
X81917559Y-82706309D01*
X81852746Y-82677329D01*
X81813889Y-82617909D01*
X81808500Y-82581453D01*
X81808500Y-81625006D01*
X92736540Y-81625006D01*
X92756357Y-81940007D01*
X92756359Y-81940024D01*
X92815504Y-82250067D01*
X92815507Y-82250080D01*
X92913039Y-82550254D01*
X92913044Y-82550267D01*
X92972835Y-82677329D01*
X93047438Y-82835869D01*
X93047440Y-82835872D01*
X93047443Y-82835878D01*
X93216562Y-83102368D01*
X93417763Y-83345578D01*
X93417766Y-83345580D01*
X93417767Y-83345582D01*
X93588808Y-83506200D01*
X93647860Y-83561654D01*
X93885465Y-83734284D01*
X93903221Y-83747184D01*
X94179821Y-83899247D01*
X94473298Y-84015443D01*
X94779025Y-84093940D01*
X94779033Y-84093941D01*
X94779032Y-84093941D01*
X94867295Y-84105091D01*
X95092179Y-84133500D01*
X95092183Y-84133500D01*
X95407817Y-84133500D01*
X95407821Y-84133500D01*
X95720975Y-84093940D01*
X96026702Y-84015443D01*
X96320179Y-83899247D01*
X96596779Y-83747184D01*
X96852140Y-83561654D01*
X97082233Y-83345582D01*
X97283432Y-83102375D01*
X97283434Y-83102370D01*
X97283437Y-83102368D01*
X97415795Y-82893804D01*
X97452562Y-82835869D01*
X97586956Y-82550266D01*
X97595667Y-82523458D01*
X97619755Y-82449322D01*
X97684495Y-82250072D01*
X97743641Y-81940020D01*
X97749729Y-81843250D01*
X97763460Y-81625006D01*
X97763460Y-81624993D01*
X97743642Y-81309992D01*
X97743640Y-81309975D01*
X97707218Y-81119046D01*
X97684495Y-80999928D01*
X97664077Y-80937087D01*
X97586960Y-80699745D01*
X97586955Y-80699732D01*
X97452562Y-80414131D01*
X97452556Y-80414121D01*
X97283437Y-80147631D01*
X97082236Y-79904421D01*
X96973800Y-79802593D01*
X96852140Y-79688346D01*
X96833567Y-79674852D01*
X96596781Y-79502817D01*
X96409758Y-79400000D01*
X96320179Y-79350753D01*
X96026702Y-79234557D01*
X95720975Y-79156060D01*
X95720970Y-79156059D01*
X95720965Y-79156058D01*
X95720967Y-79156058D01*
X95407835Y-79116501D01*
X95407824Y-79116500D01*
X95407821Y-79116500D01*
X95092179Y-79116500D01*
X95092176Y-79116500D01*
X95092164Y-79116501D01*
X94779033Y-79156058D01*
X94473301Y-79234556D01*
X94179821Y-79350753D01*
X93903218Y-79502817D01*
X93647861Y-79688345D01*
X93647860Y-79688345D01*
X93417763Y-79904421D01*
X93216562Y-80147631D01*
X93047443Y-80414121D01*
X93047436Y-80414135D01*
X92913044Y-80699732D01*
X92913039Y-80699745D01*
X92815507Y-80999919D01*
X92815504Y-80999932D01*
X92756359Y-81309975D01*
X92756357Y-81309992D01*
X92736540Y-81624993D01*
X92736540Y-81625006D01*
X81808500Y-81625006D01*
X81808500Y-81187167D01*
X81828502Y-81119046D01*
X81882158Y-81072553D01*
X81952432Y-81062449D01*
X81967104Y-81065459D01*
X82071913Y-81093543D01*
X82300000Y-81113498D01*
X82528087Y-81093543D01*
X82749243Y-81034284D01*
X82956749Y-80937523D01*
X83144300Y-80806198D01*
X83306198Y-80644300D01*
X83437523Y-80456749D01*
X83534284Y-80249243D01*
X83593543Y-80028087D01*
X83613498Y-79800000D01*
X83593543Y-79571913D01*
X83586600Y-79546000D01*
X88633917Y-79546000D01*
X89608314Y-79546000D01*
X89592359Y-79561955D01*
X89534835Y-79674852D01*
X89515014Y-79800000D01*
X89534835Y-79925148D01*
X89592359Y-80038045D01*
X89608314Y-80054000D01*
X88633918Y-80054000D01*
X88686186Y-80249068D01*
X88686188Y-80249073D01*
X88782912Y-80456498D01*
X88914184Y-80643974D01*
X88914189Y-80643980D01*
X89076019Y-80805810D01*
X89076025Y-80805815D01*
X89263501Y-80937087D01*
X89470926Y-81033811D01*
X89470931Y-81033813D01*
X89666000Y-81086081D01*
X89666000Y-80111686D01*
X89681955Y-80127641D01*
X89794852Y-80185165D01*
X89888519Y-80200000D01*
X89951481Y-80200000D01*
X90045148Y-80185165D01*
X90158045Y-80127641D01*
X90174000Y-80111686D01*
X90174000Y-81086081D01*
X90369068Y-81033813D01*
X90369073Y-81033811D01*
X90576498Y-80937087D01*
X90763974Y-80805815D01*
X90763980Y-80805810D01*
X90925810Y-80643980D01*
X90925815Y-80643974D01*
X91057087Y-80456498D01*
X91153811Y-80249073D01*
X91153813Y-80249068D01*
X91206082Y-80054000D01*
X90231686Y-80054000D01*
X90247641Y-80038045D01*
X90305165Y-79925148D01*
X90324986Y-79800000D01*
X90305165Y-79674852D01*
X90247641Y-79561955D01*
X90231686Y-79546000D01*
X91206082Y-79546000D01*
X91153813Y-79350931D01*
X91153811Y-79350926D01*
X91057087Y-79143501D01*
X90925815Y-78956025D01*
X90925810Y-78956019D01*
X90763980Y-78794189D01*
X90763974Y-78794184D01*
X90576498Y-78662912D01*
X90369073Y-78566188D01*
X90369071Y-78566187D01*
X90174000Y-78513917D01*
X90174000Y-79488314D01*
X90158045Y-79472359D01*
X90045148Y-79414835D01*
X89951481Y-79400000D01*
X89888519Y-79400000D01*
X89794852Y-79414835D01*
X89681955Y-79472359D01*
X89666000Y-79488314D01*
X89666000Y-78513917D01*
X89665999Y-78513917D01*
X89470928Y-78566187D01*
X89470926Y-78566188D01*
X89263501Y-78662912D01*
X89076025Y-78794184D01*
X89076019Y-78794189D01*
X88914189Y-78956019D01*
X88914184Y-78956025D01*
X88782912Y-79143501D01*
X88686188Y-79350926D01*
X88686186Y-79350931D01*
X88633917Y-79546000D01*
X83586600Y-79546000D01*
X83534284Y-79350757D01*
X83437523Y-79143251D01*
X83306198Y-78955700D01*
X83144300Y-78793802D01*
X83143223Y-78793048D01*
X82987229Y-78683819D01*
X82942901Y-78628362D01*
X82933500Y-78580606D01*
X82933500Y-76770602D01*
X82953502Y-76702481D01*
X83006251Y-76656407D01*
X83046749Y-76637523D01*
X83234300Y-76506198D01*
X83396198Y-76344300D01*
X83527523Y-76156749D01*
X83624284Y-75949243D01*
X83683543Y-75728087D01*
X83703498Y-75500000D01*
X88696502Y-75500000D01*
X88716457Y-75728087D01*
X88737826Y-75807837D01*
X88775715Y-75949240D01*
X88775717Y-75949246D01*
X88832258Y-76070498D01*
X88872477Y-76156749D01*
X89003802Y-76344300D01*
X89165700Y-76506198D01*
X89353251Y-76637523D01*
X89560757Y-76734284D01*
X89781913Y-76793543D01*
X90010000Y-76813498D01*
X90238087Y-76793543D01*
X90459243Y-76734284D01*
X90666749Y-76637523D01*
X90854300Y-76506198D01*
X91016198Y-76344300D01*
X91147523Y-76156749D01*
X91244284Y-75949243D01*
X91303543Y-75728087D01*
X91323498Y-75500000D01*
X91303543Y-75271913D01*
X91244284Y-75050757D01*
X91147523Y-74843251D01*
X91016198Y-74655700D01*
X90854300Y-74493802D01*
X90666749Y-74362477D01*
X90591500Y-74327388D01*
X90459246Y-74265717D01*
X90459240Y-74265715D01*
X90365771Y-74240670D01*
X90238087Y-74206457D01*
X90010000Y-74186502D01*
X89781913Y-74206457D01*
X89560759Y-74265715D01*
X89560753Y-74265717D01*
X89353250Y-74362477D01*
X89165703Y-74493799D01*
X89165697Y-74493804D01*
X89003804Y-74655697D01*
X89003799Y-74655703D01*
X88872477Y-74843250D01*
X88775717Y-75050753D01*
X88775715Y-75050759D01*
X88752478Y-75137481D01*
X88716457Y-75271913D01*
X88696502Y-75500000D01*
X83703498Y-75500000D01*
X83683543Y-75271913D01*
X83666540Y-75208457D01*
X83668229Y-75137481D01*
X83699147Y-75086755D01*
X85315501Y-73470402D01*
X85377811Y-73436379D01*
X85404594Y-73433500D01*
X93370500Y-73433500D01*
X93438621Y-73453502D01*
X93485114Y-73507158D01*
X93496500Y-73559500D01*
X93496500Y-73598649D01*
X93503009Y-73659196D01*
X93503011Y-73659204D01*
X93554110Y-73796202D01*
X93554112Y-73796207D01*
X93641738Y-73913261D01*
X93758792Y-74000887D01*
X93758794Y-74000888D01*
X93758796Y-74000889D01*
X93817875Y-74022924D01*
X93895795Y-74051988D01*
X93895803Y-74051990D01*
X93956350Y-74058499D01*
X93956355Y-74058499D01*
X93956362Y-74058500D01*
X93956368Y-74058500D01*
X95103632Y-74058500D01*
X95103638Y-74058500D01*
X95103645Y-74058499D01*
X95103649Y-74058499D01*
X95164196Y-74051990D01*
X95164199Y-74051989D01*
X95164201Y-74051989D01*
X95186838Y-74043546D01*
X95301201Y-74000890D01*
X95301200Y-74000890D01*
X95301204Y-74000889D01*
X95301207Y-74000886D01*
X95309113Y-73996570D01*
X95310791Y-73999644D01*
X95361496Y-73980717D01*
X95407092Y-73985817D01*
X95597399Y-74043546D01*
X95597403Y-74043546D01*
X95597405Y-74043547D01*
X95799997Y-74063501D01*
X95800000Y-74063501D01*
X95800003Y-74063501D01*
X96002594Y-74043547D01*
X96002595Y-74043546D01*
X96002601Y-74043546D01*
X96197417Y-73984450D01*
X96375607Y-73889205D01*
X96445109Y-73874734D01*
X96494391Y-73889204D01*
X96672583Y-73984450D01*
X96867399Y-74043546D01*
X96867403Y-74043546D01*
X96867405Y-74043547D01*
X97069997Y-74063501D01*
X97070000Y-74063501D01*
X97070003Y-74063501D01*
X97272594Y-74043547D01*
X97272595Y-74043546D01*
X97272601Y-74043546D01*
X97467417Y-73984450D01*
X97646960Y-73888482D01*
X97804331Y-73759331D01*
X97933482Y-73601960D01*
X98029450Y-73422417D01*
X98088546Y-73227601D01*
X98103500Y-73075775D01*
X98103500Y-72524225D01*
X98095227Y-72440230D01*
X98088547Y-72372405D01*
X98088546Y-72372403D01*
X98088546Y-72372399D01*
X98029450Y-72177583D01*
X97933482Y-71998040D01*
X97804331Y-71840669D01*
X97646960Y-71711518D01*
X97467417Y-71615550D01*
X97272601Y-71556454D01*
X97272600Y-71556453D01*
X97272594Y-71556452D01*
X97070003Y-71536499D01*
X97069997Y-71536499D01*
X96867405Y-71556452D01*
X96672582Y-71615550D01*
X96494396Y-71710793D01*
X96424890Y-71725265D01*
X96375604Y-71710793D01*
X96197417Y-71615550D01*
X96002594Y-71556452D01*
X95800003Y-71536499D01*
X95799997Y-71536499D01*
X95597405Y-71556452D01*
X95407094Y-71614181D01*
X95336100Y-71614814D01*
X95309961Y-71601878D01*
X95309114Y-71603430D01*
X95301203Y-71599110D01*
X95164204Y-71548011D01*
X95164196Y-71548009D01*
X95103649Y-71541500D01*
X95103638Y-71541500D01*
X93956362Y-71541500D01*
X93956350Y-71541500D01*
X93895803Y-71548009D01*
X93895795Y-71548011D01*
X93758797Y-71599110D01*
X93758792Y-71599112D01*
X93641738Y-71686738D01*
X93554112Y-71803792D01*
X93554110Y-71803797D01*
X93503011Y-71940795D01*
X93503009Y-71940803D01*
X93496500Y-72001350D01*
X93496500Y-72040500D01*
X93476498Y-72108621D01*
X93422842Y-72155114D01*
X93370500Y-72166500D01*
X85173854Y-72166500D01*
X85158012Y-72164750D01*
X85157985Y-72165044D01*
X85150092Y-72164297D01*
X85080029Y-72166500D01*
X85050144Y-72166500D01*
X85050140Y-72166500D01*
X85050129Y-72166501D01*
X85043190Y-72167377D01*
X85037277Y-72167843D01*
X84990111Y-72169325D01*
X84970650Y-72174979D01*
X84951304Y-72178985D01*
X84931204Y-72181525D01*
X84931203Y-72181525D01*
X84887335Y-72198893D01*
X84881720Y-72200815D01*
X84836413Y-72213978D01*
X84836404Y-72213982D01*
X84818962Y-72224297D01*
X84801215Y-72232991D01*
X84782383Y-72240447D01*
X84782381Y-72240448D01*
X84744214Y-72268178D01*
X84739254Y-72271436D01*
X84698636Y-72295459D01*
X84698633Y-72295461D01*
X84684312Y-72309783D01*
X84669283Y-72322619D01*
X84652893Y-72334527D01*
X84622808Y-72370892D01*
X84618812Y-72375283D01*
X82803246Y-74190847D01*
X82740934Y-74224873D01*
X82681540Y-74223459D01*
X82618090Y-74206457D01*
X82390000Y-74186502D01*
X82161913Y-74206457D01*
X81967111Y-74258654D01*
X81896134Y-74256964D01*
X81837339Y-74217170D01*
X81809391Y-74151905D01*
X81808500Y-74136947D01*
X81808500Y-70639593D01*
X81828502Y-70571472D01*
X81845400Y-70550503D01*
X83001906Y-69393997D01*
X83064217Y-69359972D01*
X83135032Y-69365037D01*
X83191868Y-69407584D01*
X83216679Y-69474104D01*
X83217000Y-69483093D01*
X83217000Y-69898500D01*
X83196998Y-69966621D01*
X83143342Y-70013114D01*
X83091000Y-70024500D01*
X83052525Y-70024500D01*
X82910690Y-70039925D01*
X82910678Y-70039928D01*
X82730222Y-70100731D01*
X82730221Y-70100732D01*
X82567044Y-70198912D01*
X82567042Y-70198914D01*
X82428795Y-70329868D01*
X82321925Y-70487488D01*
X82251437Y-70664398D01*
X82220630Y-70852321D01*
X82220630Y-70852322D01*
X82230938Y-71042472D01*
X82230940Y-71042480D01*
X82281883Y-71225961D01*
X82281885Y-71225964D01*
X82281886Y-71225967D01*
X82295027Y-71250753D01*
X82371085Y-71394215D01*
X82435567Y-71470129D01*
X82494369Y-71539357D01*
X82645971Y-71654602D01*
X82818803Y-71734562D01*
X82818804Y-71734562D01*
X82818806Y-71734563D01*
X83004778Y-71775499D01*
X83004781Y-71775499D01*
X83004784Y-71775500D01*
X83004786Y-71775500D01*
X83147457Y-71775500D01*
X83147465Y-71775500D01*
X83159045Y-71774240D01*
X83289309Y-71760074D01*
X83289310Y-71760073D01*
X83289316Y-71760073D01*
X83469780Y-71699267D01*
X83632954Y-71601089D01*
X83771207Y-71470129D01*
X83878075Y-71312510D01*
X83948562Y-71135602D01*
X83979370Y-70947678D01*
X83974383Y-70855700D01*
X83970866Y-70790821D01*
X83987151Y-70721718D01*
X84038211Y-70672388D01*
X84096681Y-70658000D01*
X84446000Y-70658000D01*
X84446000Y-69706191D01*
X84564801Y-69760446D01*
X84666025Y-69775000D01*
X84733975Y-69775000D01*
X84835199Y-69760446D01*
X84954000Y-69706191D01*
X84954000Y-70658000D01*
X85475517Y-70658000D01*
X85475516Y-70657999D01*
X85579318Y-70647394D01*
X85579321Y-70647393D01*
X85747525Y-70591657D01*
X85898339Y-70498634D01*
X85898345Y-70498629D01*
X86023629Y-70373345D01*
X86023634Y-70373339D01*
X86116657Y-70222525D01*
X86172393Y-70054321D01*
X86172394Y-70054318D01*
X86182999Y-69950516D01*
X86183000Y-69950516D01*
X86183000Y-69554000D01*
X85101398Y-69554000D01*
X85136519Y-69499351D01*
X85175000Y-69368295D01*
X85175000Y-69231705D01*
X85136519Y-69100649D01*
X85101398Y-69046000D01*
X86183000Y-69046000D01*
X86183000Y-68649483D01*
X86172394Y-68545681D01*
X86172393Y-68545678D01*
X86116657Y-68377474D01*
X86023634Y-68226660D01*
X86023629Y-68226654D01*
X85898345Y-68101370D01*
X85898339Y-68101365D01*
X85752319Y-68011299D01*
X85704841Y-67958513D01*
X85693438Y-67888438D01*
X85721731Y-67823322D01*
X85731264Y-67813110D01*
X85848476Y-67700772D01*
X85985985Y-67514847D01*
X86090095Y-67308357D01*
X86157811Y-67087243D01*
X86187184Y-66857865D01*
X86177369Y-66626822D01*
X86128649Y-66400762D01*
X86118778Y-66376198D01*
X86084803Y-66291647D01*
X86042426Y-66186187D01*
X85921179Y-65989270D01*
X85768398Y-65815676D01*
X85588476Y-65670400D01*
X85567264Y-65658550D01*
X85517552Y-65607869D01*
X85503131Y-65538352D01*
X85528582Y-65472074D01*
X85558161Y-65444161D01*
X85681523Y-65360783D01*
X85848476Y-65200772D01*
X85985985Y-65014847D01*
X86032341Y-64922905D01*
X97645793Y-64922905D01*
X97655672Y-65230969D01*
X97655673Y-65230979D01*
X97704867Y-65535264D01*
X97792570Y-65830759D01*
X97792571Y-65830763D01*
X97862738Y-65989270D01*
X97917337Y-66112609D01*
X98077123Y-66376193D01*
X98077127Y-66376198D01*
X98077127Y-66376199D01*
X98269294Y-66617169D01*
X98269304Y-66617181D01*
X98490724Y-66831614D01*
X98737747Y-67015972D01*
X98879680Y-67095907D01*
X99006313Y-67167225D01*
X99006318Y-67167228D01*
X99292013Y-67282895D01*
X99292021Y-67282897D01*
X99292025Y-67282899D01*
X99590179Y-67361084D01*
X99895883Y-67400500D01*
X99895888Y-67400500D01*
X100126981Y-67400500D01*
X100218834Y-67394602D01*
X100357601Y-67385693D01*
X100660151Y-67326772D01*
X100952683Y-67229644D01*
X101230393Y-67095907D01*
X101418937Y-66973178D01*
X101488713Y-66927759D01*
X101488715Y-66927757D01*
X101488720Y-66927754D01*
X101723424Y-66727948D01*
X101930650Y-66499769D01*
X102106996Y-66246963D01*
X102249567Y-65973683D01*
X102276967Y-65899230D01*
X102356019Y-65684418D01*
X102361923Y-65658553D01*
X102424609Y-65383908D01*
X102454206Y-65077098D01*
X102444327Y-64769022D01*
X102395133Y-64464739D01*
X102307431Y-64169244D01*
X102307428Y-64169238D01*
X102307428Y-64169236D01*
X102238159Y-64012758D01*
X102182663Y-63887391D01*
X102022877Y-63623807D01*
X102022872Y-63623800D01*
X101830705Y-63382830D01*
X101830702Y-63382827D01*
X101830696Y-63382819D01*
X101609276Y-63168386D01*
X101403040Y-63014468D01*
X101362255Y-62984029D01*
X101093686Y-62832774D01*
X101093681Y-62832771D01*
X100807986Y-62717104D01*
X100807973Y-62717100D01*
X100509828Y-62638917D01*
X100509821Y-62638916D01*
X100204117Y-62599500D01*
X99973026Y-62599500D01*
X99973019Y-62599500D01*
X99742393Y-62614307D01*
X99439864Y-62673224D01*
X99439844Y-62673229D01*
X99147316Y-62770356D01*
X98869609Y-62904091D01*
X98611286Y-63072240D01*
X98611284Y-63072242D01*
X98376574Y-63272053D01*
X98376571Y-63272056D01*
X98169353Y-63500226D01*
X98169348Y-63500232D01*
X97993005Y-63753035D01*
X97993004Y-63753035D01*
X97850431Y-64026318D01*
X97743980Y-64315581D01*
X97675390Y-64616094D01*
X97645793Y-64922905D01*
X86032341Y-64922905D01*
X86090095Y-64808357D01*
X86157811Y-64587243D01*
X86187184Y-64357865D01*
X86177369Y-64126822D01*
X86128649Y-63900762D01*
X86042426Y-63686187D01*
X85921179Y-63489270D01*
X85768398Y-63315676D01*
X85588476Y-63170400D01*
X85386591Y-63057620D01*
X85386590Y-63057619D01*
X85386589Y-63057619D01*
X85168557Y-62980582D01*
X85117046Y-62971749D01*
X84940625Y-62941500D01*
X84517287Y-62941500D01*
X84344582Y-62956198D01*
X84344578Y-62956199D01*
X84120798Y-63014468D01*
X84120794Y-63014469D01*
X84120793Y-63014470D01*
X84065982Y-63039246D01*
X83910076Y-63109719D01*
X83910070Y-63109722D01*
X83718478Y-63239216D01*
X83718477Y-63239217D01*
X83551521Y-63399230D01*
X83414013Y-63585154D01*
X83309903Y-63791647D01*
X83280584Y-63887385D01*
X83242189Y-64012757D01*
X83227583Y-64126822D01*
X83212815Y-64242144D01*
X83222630Y-64473178D01*
X83271351Y-64699240D01*
X83357575Y-64913815D01*
X83357577Y-64913819D01*
X83363170Y-64922902D01*
X83478821Y-65110730D01*
X83631602Y-65284324D01*
X83811524Y-65429600D01*
X83832733Y-65441448D01*
X83882446Y-65492129D01*
X83896869Y-65561645D01*
X83871418Y-65627923D01*
X83841839Y-65655838D01*
X83718478Y-65739216D01*
X83718477Y-65739217D01*
X83551521Y-65899230D01*
X83414013Y-66085154D01*
X83309903Y-66291647D01*
X83276488Y-66400759D01*
X83242189Y-66512757D01*
X83214634Y-66727943D01*
X83212815Y-66742144D01*
X83222630Y-66973178D01*
X83271352Y-67199242D01*
X83278589Y-67217253D01*
X83285427Y-67287920D01*
X83252974Y-67351065D01*
X83250769Y-67353325D01*
X80786336Y-69817757D01*
X80773901Y-69827721D01*
X80774089Y-69827948D01*
X80767980Y-69833001D01*
X80720016Y-69884078D01*
X80698866Y-69905227D01*
X80694560Y-69910777D01*
X80690714Y-69915279D01*
X80658417Y-69949674D01*
X80658411Y-69949683D01*
X80648651Y-69967435D01*
X80637803Y-69983950D01*
X80625386Y-69999958D01*
X80606645Y-70043264D01*
X80604034Y-70048594D01*
X80581305Y-70089939D01*
X80581303Y-70089944D01*
X80576267Y-70109559D01*
X80569864Y-70128262D01*
X80561819Y-70146852D01*
X80554437Y-70193456D01*
X80553233Y-70199268D01*
X80541500Y-70244968D01*
X80541500Y-70265223D01*
X80539949Y-70284933D01*
X80536780Y-70304942D01*
X80536780Y-70304943D01*
X80541220Y-70351917D01*
X80541500Y-70357850D01*
X80541500Y-85336146D01*
X80539751Y-85351988D01*
X80540044Y-85352016D01*
X80539298Y-85359907D01*
X80541500Y-85429957D01*
X80541500Y-85459851D01*
X80541501Y-85459872D01*
X80542378Y-85466820D01*
X80542844Y-85472732D01*
X80544326Y-85519888D01*
X80544327Y-85519893D01*
X80549977Y-85539339D01*
X80553986Y-85558697D01*
X80556525Y-85578793D01*
X80556526Y-85578799D01*
X80573893Y-85622662D01*
X80575816Y-85628279D01*
X80588982Y-85673593D01*
X80599294Y-85691031D01*
X80607988Y-85708779D01*
X80615444Y-85727609D01*
X80615450Y-85727620D01*
X80643177Y-85765783D01*
X80646437Y-85770746D01*
X80666061Y-85803927D01*
X80669790Y-85810233D01*
X80670460Y-85811365D01*
X80684779Y-85825684D01*
X80697617Y-85840714D01*
X80707156Y-85853843D01*
X80709528Y-85857107D01*
X80735211Y-85878354D01*
X80745886Y-85887185D01*
X80750267Y-85891171D01*
X82689807Y-87830711D01*
X84610501Y-89751405D01*
X84644527Y-89813717D01*
X84639462Y-89884532D01*
X84596915Y-89941368D01*
X84530395Y-89966179D01*
X84521406Y-89966500D01*
X81308853Y-89966500D01*
X81293011Y-89964750D01*
X81292984Y-89965044D01*
X81285092Y-89964298D01*
X81285091Y-89964298D01*
X81215042Y-89966500D01*
X81185144Y-89966500D01*
X81185140Y-89966500D01*
X81185130Y-89966501D01*
X81178179Y-89967379D01*
X81172267Y-89967844D01*
X81125112Y-89969326D01*
X81125110Y-89969327D01*
X81105655Y-89974978D01*
X81086302Y-89978986D01*
X81066210Y-89981524D01*
X81066202Y-89981526D01*
X81022336Y-89998893D01*
X81016721Y-90000816D01*
X80971407Y-90013982D01*
X80971402Y-90013984D01*
X80953963Y-90024297D01*
X80936218Y-90032990D01*
X80917380Y-90040449D01*
X80895278Y-90056507D01*
X80879212Y-90068180D01*
X80874261Y-90071433D01*
X80833640Y-90095455D01*
X80819307Y-90109787D01*
X80804281Y-90122620D01*
X80787895Y-90134526D01*
X80787894Y-90134526D01*
X80757818Y-90170880D01*
X80753822Y-90175271D01*
X80295202Y-90633893D01*
X80215096Y-90713999D01*
X80152783Y-90748024D01*
X80081968Y-90742960D01*
X80025132Y-90700413D01*
X80000321Y-90633893D01*
X80000000Y-90624904D01*
X80000000Y-61223940D01*
X80013276Y-61167644D01*
X80015944Y-61162300D01*
X80092854Y-61008300D01*
X80096977Y-61001237D01*
X80236190Y-60794880D01*
X80241193Y-60788417D01*
X80406036Y-60601903D01*
X80411841Y-60596137D01*
X80599517Y-60432630D01*
X80606035Y-60427659D01*
X80813367Y-60289922D01*
X80820454Y-60285852D01*
X81043939Y-60176217D01*
X81051498Y-60173102D01*
X81287317Y-60093441D01*
X81295237Y-60091329D01*
X81539396Y-60042988D01*
X81547533Y-60041922D01*
X81582466Y-60039642D01*
X81797190Y-60025634D01*
X81801293Y-60025500D01*
X81808285Y-60025500D01*
X117777501Y-60025500D01*
X117783727Y-60025500D01*
X117787843Y-60025634D01*
G37*
%TD.AperFunction*%
%TA.AperFunction,Conductor*%
G36*
X80792012Y-103786049D02*
G01*
X80795745Y-103789416D01*
X80824679Y-103816586D01*
X80824680Y-103816586D01*
X80824682Y-103816588D01*
X80842429Y-103826344D01*
X80858959Y-103837202D01*
X80874959Y-103849613D01*
X80906136Y-103863104D01*
X80918251Y-103868347D01*
X80923585Y-103870959D01*
X80964940Y-103893695D01*
X80984562Y-103898733D01*
X81003263Y-103905135D01*
X81021855Y-103913181D01*
X81068470Y-103920563D01*
X81074242Y-103921758D01*
X81119970Y-103933500D01*
X81140231Y-103933500D01*
X81159939Y-103935050D01*
X81179943Y-103938219D01*
X81213459Y-103935051D01*
X81226910Y-103933780D01*
X81232842Y-103933500D01*
X81901812Y-103933500D01*
X81969933Y-103953502D01*
X82016426Y-104007158D01*
X82026530Y-104077432D01*
X81997036Y-104142012D01*
X81990907Y-104148595D01*
X81983804Y-104155697D01*
X81983799Y-104155703D01*
X81852477Y-104343250D01*
X81755717Y-104550753D01*
X81755715Y-104550759D01*
X81696457Y-104771913D01*
X81676502Y-105000000D01*
X81696457Y-105228090D01*
X81713459Y-105291540D01*
X81711769Y-105362516D01*
X81680847Y-105413246D01*
X81386336Y-105707757D01*
X81373901Y-105717721D01*
X81374089Y-105717948D01*
X81367980Y-105723001D01*
X81320016Y-105774078D01*
X81298866Y-105795227D01*
X81294560Y-105800777D01*
X81290714Y-105805279D01*
X81258417Y-105839674D01*
X81258411Y-105839683D01*
X81248651Y-105857435D01*
X81237803Y-105873950D01*
X81225386Y-105889958D01*
X81206645Y-105933264D01*
X81204034Y-105938594D01*
X81181305Y-105979939D01*
X81181303Y-105979944D01*
X81176267Y-105999559D01*
X81169864Y-106018262D01*
X81161819Y-106036852D01*
X81154437Y-106083456D01*
X81153233Y-106089268D01*
X81141500Y-106134968D01*
X81141500Y-106155223D01*
X81139949Y-106174933D01*
X81136780Y-106194942D01*
X81136780Y-106194943D01*
X81141220Y-106241917D01*
X81141500Y-106247850D01*
X81141500Y-112591146D01*
X81139751Y-112606988D01*
X81140044Y-112607016D01*
X81139298Y-112614907D01*
X81141500Y-112684957D01*
X81141500Y-112714851D01*
X81141501Y-112714872D01*
X81142378Y-112721820D01*
X81142844Y-112727732D01*
X81144326Y-112774888D01*
X81144327Y-112774893D01*
X81149977Y-112794339D01*
X81153986Y-112813697D01*
X81156525Y-112833793D01*
X81156526Y-112833799D01*
X81173893Y-112877662D01*
X81175816Y-112883279D01*
X81188982Y-112928593D01*
X81199294Y-112946031D01*
X81207988Y-112963779D01*
X81215444Y-112982609D01*
X81215450Y-112982620D01*
X81243177Y-113020783D01*
X81246437Y-113025746D01*
X81270460Y-113066365D01*
X81284779Y-113080684D01*
X81297617Y-113095714D01*
X81307156Y-113108843D01*
X81309528Y-113112107D01*
X81337794Y-113135491D01*
X81345886Y-113142185D01*
X81350267Y-113146171D01*
X83069088Y-114864992D01*
X83103113Y-114927303D01*
X83098048Y-114998118D01*
X83055501Y-115054954D01*
X83044526Y-115062194D01*
X82972109Y-115112899D01*
X83660482Y-115801272D01*
X83574852Y-115814835D01*
X83461955Y-115872359D01*
X83372359Y-115961955D01*
X83314835Y-116074852D01*
X83301272Y-116160481D01*
X82612900Y-115472109D01*
X82562913Y-115543500D01*
X82466188Y-115750926D01*
X82466186Y-115750931D01*
X82406951Y-115971997D01*
X82387004Y-116200000D01*
X82406951Y-116428002D01*
X82466186Y-116649068D01*
X82466188Y-116649073D01*
X82562913Y-116856501D01*
X82612899Y-116927888D01*
X83301272Y-116239516D01*
X83314835Y-116325148D01*
X83372359Y-116438045D01*
X83461955Y-116527641D01*
X83574852Y-116585165D01*
X83660482Y-116598727D01*
X82972110Y-117287098D01*
X82972110Y-117287100D01*
X83043498Y-117337086D01*
X83250926Y-117433811D01*
X83250931Y-117433813D01*
X83471999Y-117493048D01*
X83471995Y-117493048D01*
X83700000Y-117512995D01*
X83928002Y-117493048D01*
X84149068Y-117433813D01*
X84149073Y-117433811D01*
X84356497Y-117337088D01*
X84427888Y-117287099D01*
X84427888Y-117287097D01*
X83739518Y-116598727D01*
X83825148Y-116585165D01*
X83938045Y-116527641D01*
X84027641Y-116438045D01*
X84085165Y-116325148D01*
X84098727Y-116239517D01*
X84787097Y-116927888D01*
X84787099Y-116927888D01*
X84837088Y-116856497D01*
X84933811Y-116649073D01*
X84933813Y-116649068D01*
X84993048Y-116428002D01*
X85012995Y-116200000D01*
X84993048Y-115971997D01*
X84933813Y-115750931D01*
X84933811Y-115750926D01*
X84837085Y-115543497D01*
X84836510Y-115542500D01*
X84836389Y-115542004D01*
X84834763Y-115538516D01*
X84835464Y-115538189D01*
X84819772Y-115473505D01*
X84842992Y-115406413D01*
X84898800Y-115362526D01*
X84945629Y-115353500D01*
X86615500Y-115353500D01*
X86683621Y-115373502D01*
X86730114Y-115427158D01*
X86741500Y-115479500D01*
X86741500Y-116983649D01*
X86748009Y-117044196D01*
X86748011Y-117044204D01*
X86799110Y-117181202D01*
X86799112Y-117181207D01*
X86886738Y-117298261D01*
X87003792Y-117385887D01*
X87003794Y-117385888D01*
X87003796Y-117385889D01*
X87041731Y-117400038D01*
X87140795Y-117436988D01*
X87140803Y-117436990D01*
X87201350Y-117443499D01*
X87201355Y-117443499D01*
X87201362Y-117443500D01*
X87201368Y-117443500D01*
X88798632Y-117443500D01*
X88798638Y-117443500D01*
X88798645Y-117443499D01*
X88798649Y-117443499D01*
X88859196Y-117436990D01*
X88859199Y-117436989D01*
X88859201Y-117436989D01*
X88867722Y-117433811D01*
X88899417Y-117421989D01*
X88996204Y-117385889D01*
X89016245Y-117370887D01*
X89113261Y-117298261D01*
X89200887Y-117181207D01*
X89200888Y-117181205D01*
X89200889Y-117181204D01*
X89251989Y-117044201D01*
X89253602Y-117029204D01*
X89258499Y-116983649D01*
X89258500Y-116983632D01*
X89258500Y-115479500D01*
X89278502Y-115411379D01*
X89332158Y-115364886D01*
X89384500Y-115353500D01*
X90215500Y-115353500D01*
X90283621Y-115373502D01*
X90330114Y-115427158D01*
X90341500Y-115479500D01*
X90341500Y-116968649D01*
X90348009Y-117029196D01*
X90348011Y-117029204D01*
X90399110Y-117166202D01*
X90399112Y-117166207D01*
X90486738Y-117283261D01*
X90603792Y-117370887D01*
X90603794Y-117370888D01*
X90603796Y-117370889D01*
X90644007Y-117385887D01*
X90740795Y-117421988D01*
X90740803Y-117421990D01*
X90801350Y-117428499D01*
X90801355Y-117428499D01*
X90801362Y-117428500D01*
X90840500Y-117428500D01*
X90908621Y-117448502D01*
X90955114Y-117502158D01*
X90966500Y-117554500D01*
X90966500Y-119890404D01*
X90946498Y-119958525D01*
X90929595Y-119979499D01*
X88372421Y-122536672D01*
X88310109Y-122570698D01*
X88250716Y-122569284D01*
X88219371Y-122560885D01*
X88000000Y-122541693D01*
X87780629Y-122560885D01*
X87567926Y-122617879D01*
X87567920Y-122617881D01*
X87368346Y-122710944D01*
X87187965Y-122837248D01*
X87187959Y-122837253D01*
X87032253Y-122992959D01*
X87032248Y-122992965D01*
X86905944Y-123173346D01*
X86812881Y-123372920D01*
X86812879Y-123372926D01*
X86781514Y-123489981D01*
X86755885Y-123585629D01*
X86736693Y-123805000D01*
X86755885Y-124024371D01*
X86762240Y-124048086D01*
X86812879Y-124237073D01*
X86812881Y-124237079D01*
X86827881Y-124269246D01*
X86905944Y-124436654D01*
X87021515Y-124601706D01*
X87032251Y-124617038D01*
X87032254Y-124617042D01*
X87187957Y-124772745D01*
X87187961Y-124772748D01*
X87187962Y-124772749D01*
X87368346Y-124899056D01*
X87567924Y-124992120D01*
X87780629Y-125049115D01*
X88000000Y-125068307D01*
X88219371Y-125049115D01*
X88250714Y-125040716D01*
X88321688Y-125042402D01*
X88372422Y-125073326D01*
X91606343Y-128307247D01*
X91640369Y-128369559D01*
X91635304Y-128440374D01*
X91592757Y-128497210D01*
X91577950Y-128506756D01*
X91403220Y-128602815D01*
X91403220Y-128602816D01*
X91147861Y-128788345D01*
X91147860Y-128788345D01*
X90917763Y-129004421D01*
X90716562Y-129247631D01*
X90547443Y-129514121D01*
X90547436Y-129514135D01*
X90413044Y-129799732D01*
X90413039Y-129799745D01*
X90315507Y-130099919D01*
X90315504Y-130099932D01*
X90256359Y-130409975D01*
X90256357Y-130409992D01*
X90236540Y-130724993D01*
X90236540Y-130725006D01*
X90256357Y-131040007D01*
X90256359Y-131040024D01*
X90315504Y-131350067D01*
X90315507Y-131350080D01*
X90413039Y-131650254D01*
X90413044Y-131650266D01*
X90547438Y-131935869D01*
X90547440Y-131935872D01*
X90547443Y-131935878D01*
X90716562Y-132202368D01*
X90917763Y-132445578D01*
X90917766Y-132445580D01*
X90917767Y-132445582D01*
X91147860Y-132661654D01*
X91403221Y-132847184D01*
X91679821Y-132999247D01*
X91973298Y-133115443D01*
X92279025Y-133193940D01*
X92373825Y-133205915D01*
X92438898Y-133234296D01*
X92478300Y-133293355D01*
X92479517Y-133364341D01*
X92447125Y-133420016D01*
X88873396Y-136993744D01*
X88811084Y-137027770D01*
X88740268Y-137022705D01*
X88724332Y-137015463D01*
X88682083Y-136992599D01*
X88567727Y-136930713D01*
X88567724Y-136930712D01*
X88567723Y-136930711D01*
X88346955Y-136854921D01*
X88346948Y-136854919D01*
X88248411Y-136838476D01*
X88116712Y-136816500D01*
X87883288Y-136816500D01*
X87768066Y-136835727D01*
X87653051Y-136854919D01*
X87653044Y-136854921D01*
X87432276Y-136930711D01*
X87432273Y-136930713D01*
X87226991Y-137041806D01*
X87226985Y-137041809D01*
X87226983Y-137041810D01*
X87042778Y-137185182D01*
X87042774Y-137185186D01*
X86884685Y-137356916D01*
X86855483Y-137401615D01*
X86801480Y-137447704D01*
X86731132Y-137457279D01*
X86666774Y-137427302D01*
X86644517Y-137401615D01*
X86615314Y-137356916D01*
X86457225Y-137185186D01*
X86457221Y-137185182D01*
X86365118Y-137113496D01*
X86273017Y-137041810D01*
X86273011Y-137041806D01*
X86268654Y-137038960D01*
X86269509Y-137037651D01*
X86224131Y-136992599D01*
X86208500Y-136931815D01*
X86208500Y-125778849D01*
X86210249Y-125763012D01*
X86209955Y-125762985D01*
X86210701Y-125755092D01*
X86208500Y-125685059D01*
X86208500Y-125655151D01*
X86208500Y-125655144D01*
X86207620Y-125648185D01*
X86207155Y-125642280D01*
X86205673Y-125595110D01*
X86200022Y-125575663D01*
X86196012Y-125556300D01*
X86193474Y-125536203D01*
X86176100Y-125492323D01*
X86174184Y-125486725D01*
X86161018Y-125441406D01*
X86150700Y-125423961D01*
X86142005Y-125406209D01*
X86141689Y-125405412D01*
X86134552Y-125387383D01*
X86134550Y-125387379D01*
X86106818Y-125349210D01*
X86103562Y-125344253D01*
X86079542Y-125303637D01*
X86079540Y-125303635D01*
X86079540Y-125303634D01*
X86065218Y-125289312D01*
X86052377Y-125274279D01*
X86040471Y-125257892D01*
X86033029Y-125251735D01*
X86004108Y-125227810D01*
X85999736Y-125223831D01*
X85009151Y-124233246D01*
X84975125Y-124170934D01*
X84976539Y-124111541D01*
X84993543Y-124048087D01*
X85013498Y-123820000D01*
X84993543Y-123591913D01*
X84934284Y-123370757D01*
X84837523Y-123163251D01*
X84706198Y-122975700D01*
X84544300Y-122813802D01*
X84376604Y-122696380D01*
X84356749Y-122682477D01*
X84149246Y-122585717D01*
X84149240Y-122585715D01*
X83984948Y-122541693D01*
X83928087Y-122526457D01*
X83700000Y-122506502D01*
X83471913Y-122526457D01*
X83250759Y-122585715D01*
X83250753Y-122585717D01*
X83043250Y-122682477D01*
X82855703Y-122813799D01*
X82855697Y-122813804D01*
X82693804Y-122975697D01*
X82693799Y-122975703D01*
X82562477Y-123163250D01*
X82465717Y-123370753D01*
X82465715Y-123370759D01*
X82435368Y-123484016D01*
X82406457Y-123591913D01*
X82386502Y-123820000D01*
X82406457Y-124048087D01*
X82415958Y-124083544D01*
X82465715Y-124269240D01*
X82465717Y-124269246D01*
X82562477Y-124476749D01*
X82693802Y-124664300D01*
X82855700Y-124826198D01*
X83043251Y-124957523D01*
X83250757Y-125054284D01*
X83471913Y-125113543D01*
X83700000Y-125133498D01*
X83928087Y-125113543D01*
X83991541Y-125096540D01*
X84062516Y-125098228D01*
X84113247Y-125129151D01*
X84904595Y-125920499D01*
X84938621Y-125982811D01*
X84941500Y-126009594D01*
X84941500Y-128605981D01*
X84921498Y-128674102D01*
X84867842Y-128720595D01*
X84797568Y-128730699D01*
X84741439Y-128707917D01*
X84596781Y-128602817D01*
X84554385Y-128579509D01*
X84320179Y-128450753D01*
X84026702Y-128334557D01*
X83720975Y-128256060D01*
X83720970Y-128256059D01*
X83720965Y-128256058D01*
X83720967Y-128256058D01*
X83407835Y-128216501D01*
X83407824Y-128216500D01*
X83407821Y-128216500D01*
X83092179Y-128216500D01*
X83092176Y-128216500D01*
X83092164Y-128216501D01*
X82779033Y-128256058D01*
X82473301Y-128334556D01*
X82473299Y-128334556D01*
X82473298Y-128334557D01*
X82299325Y-128403438D01*
X82179821Y-128450753D01*
X81903218Y-128602817D01*
X81647861Y-128788345D01*
X81647860Y-128788345D01*
X81417763Y-129004421D01*
X81216562Y-129247631D01*
X81047443Y-129514121D01*
X81047436Y-129514135D01*
X80913044Y-129799732D01*
X80913039Y-129799745D01*
X80829333Y-130057368D01*
X80789260Y-130115974D01*
X80723863Y-130143611D01*
X80653906Y-130131504D01*
X80601600Y-130083498D01*
X80583500Y-130018432D01*
X80583500Y-103881273D01*
X80603502Y-103813152D01*
X80657158Y-103766659D01*
X80727432Y-103756555D01*
X80792012Y-103786049D01*
G37*
%TD.AperFunction*%
%TA.AperFunction,Conductor*%
G36*
X115550398Y-93549671D02*
G01*
X115607234Y-93592218D01*
X115609579Y-93595456D01*
X115704617Y-93731183D01*
X115713802Y-93744300D01*
X115875700Y-93906198D01*
X116063251Y-94037523D01*
X116092404Y-94051117D01*
X116102457Y-94055805D01*
X116155742Y-94102722D01*
X116175203Y-94170999D01*
X116154661Y-94238959D01*
X116102457Y-94284195D01*
X116063250Y-94302477D01*
X115875703Y-94433799D01*
X115875697Y-94433804D01*
X115713804Y-94595697D01*
X115713799Y-94595703D01*
X115582477Y-94783250D01*
X115485717Y-94990753D01*
X115485715Y-94990759D01*
X115445332Y-95141472D01*
X115426457Y-95211913D01*
X115406502Y-95440000D01*
X115426457Y-95668087D01*
X115437420Y-95709002D01*
X115485715Y-95889240D01*
X115485717Y-95889246D01*
X115582477Y-96096749D01*
X115652113Y-96196200D01*
X115713802Y-96284300D01*
X115875700Y-96446198D01*
X116063251Y-96577523D01*
X116103047Y-96596080D01*
X116156332Y-96642996D01*
X116175794Y-96711273D01*
X116155253Y-96779233D01*
X116103051Y-96824468D01*
X116063504Y-96842910D01*
X115876025Y-96974184D01*
X115876019Y-96974189D01*
X115714189Y-97136019D01*
X115714184Y-97136025D01*
X115582912Y-97323501D01*
X115486188Y-97530926D01*
X115486186Y-97530931D01*
X115433917Y-97726000D01*
X116808314Y-97726000D01*
X116792359Y-97741955D01*
X116734835Y-97854852D01*
X116715014Y-97980000D01*
X116734835Y-98105148D01*
X116792359Y-98218045D01*
X116808314Y-98234000D01*
X115433918Y-98234000D01*
X115486186Y-98429068D01*
X115486188Y-98429073D01*
X115582912Y-98636498D01*
X115714184Y-98823974D01*
X115714189Y-98823980D01*
X115876019Y-98985810D01*
X115876025Y-98985815D01*
X116063503Y-99117089D01*
X116103049Y-99135530D01*
X116156334Y-99182447D01*
X116175794Y-99250724D01*
X116155252Y-99318684D01*
X116103049Y-99363918D01*
X116063252Y-99382475D01*
X115875703Y-99513799D01*
X115875697Y-99513804D01*
X115713804Y-99675697D01*
X115713799Y-99675703D01*
X115582477Y-99863250D01*
X115485717Y-100070753D01*
X115485715Y-100070759D01*
X115449148Y-100207229D01*
X115426457Y-100291913D01*
X115406502Y-100520000D01*
X115426457Y-100748087D01*
X115485716Y-100969243D01*
X115582477Y-101176749D01*
X115713802Y-101364300D01*
X115875700Y-101526198D01*
X116063251Y-101657523D01*
X116095320Y-101672477D01*
X116102457Y-101675805D01*
X116155742Y-101722722D01*
X116175203Y-101790999D01*
X116154661Y-101858959D01*
X116102457Y-101904195D01*
X116063250Y-101922477D01*
X115875703Y-102053799D01*
X115875697Y-102053804D01*
X115713804Y-102215697D01*
X115713799Y-102215703D01*
X115582477Y-102403250D01*
X115485717Y-102610753D01*
X115485715Y-102610759D01*
X115432329Y-102810000D01*
X115426457Y-102831913D01*
X115406502Y-103060000D01*
X115426457Y-103288087D01*
X115460670Y-103415771D01*
X115485715Y-103509240D01*
X115485717Y-103509246D01*
X115582477Y-103716749D01*
X115711630Y-103901199D01*
X115713802Y-103904300D01*
X115875700Y-104066198D01*
X116063251Y-104197523D01*
X116098359Y-104213894D01*
X116102457Y-104215805D01*
X116155742Y-104262722D01*
X116175203Y-104330999D01*
X116154661Y-104398959D01*
X116102457Y-104444195D01*
X116063250Y-104462477D01*
X115875703Y-104593799D01*
X115875697Y-104593804D01*
X115713804Y-104755697D01*
X115713799Y-104755703D01*
X115582477Y-104943250D01*
X115485717Y-105150753D01*
X115485715Y-105150759D01*
X115462847Y-105236103D01*
X115426457Y-105371913D01*
X115406502Y-105600000D01*
X115426457Y-105828087D01*
X115460670Y-105955771D01*
X115485715Y-106049240D01*
X115485717Y-106049246D01*
X115582477Y-106256749D01*
X115711140Y-106440499D01*
X115713802Y-106444300D01*
X115875700Y-106606198D01*
X116063251Y-106737523D01*
X116270757Y-106834284D01*
X116491913Y-106893543D01*
X116662873Y-106908500D01*
X117365500Y-106908500D01*
X117433621Y-106928502D01*
X117480114Y-106982158D01*
X117491500Y-107034500D01*
X117491500Y-108612832D01*
X117471498Y-108680953D01*
X117417842Y-108727446D01*
X117347568Y-108737550D01*
X117332891Y-108734539D01*
X117228087Y-108706457D01*
X117000000Y-108686502D01*
X116771913Y-108706457D01*
X116550759Y-108765715D01*
X116550753Y-108765717D01*
X116343250Y-108862477D01*
X116155703Y-108993799D01*
X116155697Y-108993804D01*
X115993804Y-109155697D01*
X115993799Y-109155703D01*
X115862477Y-109343250D01*
X115765717Y-109550753D01*
X115765715Y-109550759D01*
X115707933Y-109766406D01*
X115706457Y-109771913D01*
X115686502Y-110000000D01*
X115706457Y-110228087D01*
X115740670Y-110355771D01*
X115765715Y-110449240D01*
X115765717Y-110449246D01*
X115862477Y-110656749D01*
X115935432Y-110760940D01*
X115993802Y-110844300D01*
X116155700Y-111006198D01*
X116232771Y-111060164D01*
X116277099Y-111115619D01*
X116286500Y-111163376D01*
X116286500Y-113480606D01*
X116266498Y-113548727D01*
X116232771Y-113583819D01*
X116075703Y-113693799D01*
X116075697Y-113693804D01*
X115913804Y-113855697D01*
X115913799Y-113855703D01*
X115782477Y-114043250D01*
X115685717Y-114250753D01*
X115685715Y-114250759D01*
X115626457Y-114471913D01*
X115606502Y-114700000D01*
X115626457Y-114928086D01*
X115685715Y-115149240D01*
X115685717Y-115149246D01*
X115782477Y-115356749D01*
X115912541Y-115542500D01*
X115913802Y-115544300D01*
X116075700Y-115706198D01*
X116075703Y-115706200D01*
X116266297Y-115839656D01*
X116310625Y-115895113D01*
X116317934Y-115965733D01*
X116285903Y-116029093D01*
X116283122Y-116031964D01*
X115660489Y-116654596D01*
X115598179Y-116688620D01*
X115571396Y-116691500D01*
X110058854Y-116691500D01*
X110043012Y-116689750D01*
X110042985Y-116690044D01*
X110035092Y-116689297D01*
X109965029Y-116691500D01*
X109935144Y-116691500D01*
X109935140Y-116691500D01*
X109935129Y-116691501D01*
X109928190Y-116692377D01*
X109922277Y-116692843D01*
X109875111Y-116694325D01*
X109855650Y-116699979D01*
X109836304Y-116703985D01*
X109816204Y-116706525D01*
X109816203Y-116706525D01*
X109772335Y-116723893D01*
X109766720Y-116725815D01*
X109721413Y-116738978D01*
X109721404Y-116738982D01*
X109703962Y-116749297D01*
X109686215Y-116757991D01*
X109667383Y-116765447D01*
X109667381Y-116765448D01*
X109629214Y-116793178D01*
X109624254Y-116796436D01*
X109583636Y-116820459D01*
X109583633Y-116820461D01*
X109569312Y-116834783D01*
X109554283Y-116847619D01*
X109537893Y-116859527D01*
X109507808Y-116895892D01*
X109503812Y-116900283D01*
X109272422Y-117131672D01*
X109210110Y-117165698D01*
X109150718Y-117164284D01*
X109119372Y-117155885D01*
X108900000Y-117136693D01*
X108680629Y-117155885D01*
X108467926Y-117212879D01*
X108467920Y-117212881D01*
X108268346Y-117305944D01*
X108087965Y-117432248D01*
X108087959Y-117432253D01*
X107932253Y-117587959D01*
X107932248Y-117587965D01*
X107805944Y-117768346D01*
X107712881Y-117967920D01*
X107712879Y-117967926D01*
X107655885Y-118180629D01*
X107636693Y-118400000D01*
X107655885Y-118619370D01*
X107712879Y-118832073D01*
X107712881Y-118832079D01*
X107735677Y-118880965D01*
X107805944Y-119031654D01*
X107922864Y-119198632D01*
X107932251Y-119212038D01*
X107932254Y-119212042D01*
X108087957Y-119367745D01*
X108087961Y-119367748D01*
X108087962Y-119367749D01*
X108268346Y-119494056D01*
X108467924Y-119587120D01*
X108680629Y-119644115D01*
X108900000Y-119663307D01*
X109119371Y-119644115D01*
X109332076Y-119587120D01*
X109531654Y-119494056D01*
X109712038Y-119367749D01*
X109867749Y-119212038D01*
X109994056Y-119031654D01*
X110087120Y-118832076D01*
X110144115Y-118619371D01*
X110163307Y-118400000D01*
X110144115Y-118180629D01*
X110135716Y-118149284D01*
X110137405Y-118078307D01*
X110168328Y-118027575D01*
X110200501Y-117995403D01*
X110262814Y-117961379D01*
X110289595Y-117958500D01*
X115135500Y-117958500D01*
X115203621Y-117978502D01*
X115250114Y-118032158D01*
X115261500Y-118084500D01*
X115261500Y-119198649D01*
X115268009Y-119259196D01*
X115268010Y-119259197D01*
X115268010Y-119259199D01*
X115268011Y-119259201D01*
X115308498Y-119367749D01*
X115320364Y-119399563D01*
X115325429Y-119470379D01*
X115291404Y-119532691D01*
X115291403Y-119532691D01*
X113711336Y-121112757D01*
X113698901Y-121122721D01*
X113699089Y-121122948D01*
X113692980Y-121128001D01*
X113645016Y-121179078D01*
X113623866Y-121200227D01*
X113619560Y-121205777D01*
X113615714Y-121210279D01*
X113583417Y-121244674D01*
X113583411Y-121244683D01*
X113573651Y-121262435D01*
X113562803Y-121278950D01*
X113550386Y-121294958D01*
X113531645Y-121338264D01*
X113529034Y-121343594D01*
X113506305Y-121384939D01*
X113506303Y-121384944D01*
X113501267Y-121404559D01*
X113494864Y-121423262D01*
X113486819Y-121441852D01*
X113479437Y-121488456D01*
X113478233Y-121494268D01*
X113466500Y-121539968D01*
X113466500Y-121560223D01*
X113464949Y-121579933D01*
X113461780Y-121599942D01*
X113461780Y-121599943D01*
X113466220Y-121646917D01*
X113466500Y-121652850D01*
X113466500Y-126285405D01*
X113446498Y-126353526D01*
X113429595Y-126374500D01*
X113074500Y-126729595D01*
X113012188Y-126763621D01*
X112985405Y-126766500D01*
X107370802Y-126766500D01*
X107354963Y-126764751D01*
X107354936Y-126765045D01*
X107347044Y-126764299D01*
X107277013Y-126766500D01*
X107247097Y-126766500D01*
X107240125Y-126767379D01*
X107234218Y-126767844D01*
X107187063Y-126769326D01*
X107187058Y-126769327D01*
X107167613Y-126774977D01*
X107148255Y-126778986D01*
X107128160Y-126781524D01*
X107128158Y-126781525D01*
X107084277Y-126798897D01*
X107078662Y-126800819D01*
X107033363Y-126813980D01*
X107033357Y-126813982D01*
X107015919Y-126824295D01*
X106998173Y-126832989D01*
X106979334Y-126840448D01*
X106979333Y-126840449D01*
X106941166Y-126868178D01*
X106936205Y-126871437D01*
X106895590Y-126895458D01*
X106881260Y-126909787D01*
X106866234Y-126922620D01*
X106849848Y-126934526D01*
X106849847Y-126934526D01*
X106819771Y-126970880D01*
X106815776Y-126975271D01*
X103861453Y-129929595D01*
X103799141Y-129963620D01*
X103772358Y-129966500D01*
X101541084Y-129966500D01*
X101472963Y-129946498D01*
X101426470Y-129892842D01*
X101416366Y-129822568D01*
X101424672Y-129792289D01*
X101501115Y-129607742D01*
X101558934Y-129366911D01*
X101578366Y-129120000D01*
X101558934Y-128873089D01*
X101501115Y-128632258D01*
X101406334Y-128403437D01*
X101276925Y-128192260D01*
X101264261Y-128177432D01*
X101116073Y-128003926D01*
X100927743Y-127843077D01*
X100927741Y-127843076D01*
X100927740Y-127843075D01*
X100716563Y-127713666D01*
X100487742Y-127618885D01*
X100246911Y-127561066D01*
X100246912Y-127561066D01*
X100000000Y-127541634D01*
X99753088Y-127561066D01*
X99512253Y-127618886D01*
X99512250Y-127618887D01*
X99506976Y-127621072D01*
X99436386Y-127628661D01*
X99372900Y-127596881D01*
X99369664Y-127593758D01*
X99354772Y-127578866D01*
X99349225Y-127574563D01*
X99344717Y-127570712D01*
X99310325Y-127538417D01*
X99310319Y-127538413D01*
X99292563Y-127528651D01*
X99276047Y-127517802D01*
X99260041Y-127505386D01*
X99229289Y-127492078D01*
X99216740Y-127486648D01*
X99211408Y-127484036D01*
X99170061Y-127461305D01*
X99150436Y-127456266D01*
X99131736Y-127449864D01*
X99113145Y-127441819D01*
X99113143Y-127441818D01*
X99113142Y-127441818D01*
X99066542Y-127434437D01*
X99060729Y-127433233D01*
X99015030Y-127421500D01*
X98994776Y-127421500D01*
X98975066Y-127419949D01*
X98955057Y-127416780D01*
X98955056Y-127416780D01*
X98908083Y-127421220D01*
X98902150Y-127421500D01*
X92564594Y-127421500D01*
X92496473Y-127401498D01*
X92475499Y-127384595D01*
X89268327Y-124177422D01*
X89234301Y-124115110D01*
X89235715Y-124055715D01*
X89244115Y-124024371D01*
X89263307Y-123805000D01*
X89244115Y-123585629D01*
X89235715Y-123554281D01*
X89236150Y-123536000D01*
X90365681Y-123536000D01*
X91324122Y-123536000D01*
X91281722Y-123582059D01*
X91231449Y-123696670D01*
X91221114Y-123821395D01*
X91251837Y-123942719D01*
X91318008Y-124044000D01*
X90365682Y-124044000D01*
X90413350Y-124221903D01*
X90413352Y-124221907D01*
X90506378Y-124421401D01*
X90506379Y-124421403D01*
X90632628Y-124601706D01*
X90632637Y-124601717D01*
X90788282Y-124757362D01*
X90788293Y-124757371D01*
X90968596Y-124883620D01*
X90968598Y-124883621D01*
X91168094Y-124976648D01*
X91168093Y-124976648D01*
X91346000Y-125024316D01*
X91346000Y-124067503D01*
X91419052Y-124124363D01*
X91537424Y-124165000D01*
X91631073Y-124165000D01*
X91723446Y-124149586D01*
X91833514Y-124090019D01*
X91854000Y-124067765D01*
X91854000Y-125024316D01*
X92031905Y-124976648D01*
X92231401Y-124883621D01*
X92231403Y-124883620D01*
X92411706Y-124757371D01*
X92411717Y-124757362D01*
X92567362Y-124601717D01*
X92567371Y-124601706D01*
X92693620Y-124421403D01*
X92693621Y-124421401D01*
X92786647Y-124221907D01*
X92786649Y-124221903D01*
X92834318Y-124044000D01*
X91875878Y-124044000D01*
X91918278Y-123997941D01*
X91968551Y-123883330D01*
X91978886Y-123758605D01*
X91964045Y-123700000D01*
X107276502Y-123700000D01*
X107296457Y-123928087D01*
X107322256Y-124024370D01*
X107355715Y-124149240D01*
X107355717Y-124149246D01*
X107411674Y-124269246D01*
X107452477Y-124356749D01*
X107583802Y-124544300D01*
X107745700Y-124706198D01*
X107933251Y-124837523D01*
X108140757Y-124934284D01*
X108361913Y-124993543D01*
X108590000Y-125013498D01*
X108818087Y-124993543D01*
X109039243Y-124934284D01*
X109246749Y-124837523D01*
X109434300Y-124706198D01*
X109596198Y-124544300D01*
X109727523Y-124356749D01*
X109824284Y-124149243D01*
X109883543Y-123928087D01*
X109903498Y-123700000D01*
X109883543Y-123471913D01*
X109824284Y-123250757D01*
X109727523Y-123043251D01*
X109596198Y-122855700D01*
X109434300Y-122693802D01*
X109418126Y-122682477D01*
X109246749Y-122562477D01*
X109039246Y-122465717D01*
X109039240Y-122465715D01*
X108945771Y-122440670D01*
X108818087Y-122406457D01*
X108590000Y-122386502D01*
X108361913Y-122406457D01*
X108140759Y-122465715D01*
X108140753Y-122465717D01*
X107933250Y-122562477D01*
X107745703Y-122693799D01*
X107745697Y-122693804D01*
X107583804Y-122855697D01*
X107583799Y-122855703D01*
X107452477Y-123043250D01*
X107355717Y-123250753D01*
X107355715Y-123250759D01*
X107311707Y-123415000D01*
X107296457Y-123471913D01*
X107276502Y-123700000D01*
X91964045Y-123700000D01*
X91948163Y-123637281D01*
X91881992Y-123536000D01*
X92834318Y-123536000D01*
X92786649Y-123358096D01*
X92786647Y-123358092D01*
X92693619Y-123158594D01*
X92567371Y-122978293D01*
X92567362Y-122978282D01*
X92411717Y-122822637D01*
X92411706Y-122822628D01*
X92231403Y-122696379D01*
X92231401Y-122696378D01*
X92031907Y-122603352D01*
X92031903Y-122603350D01*
X91854000Y-122555681D01*
X91854000Y-123512496D01*
X91780948Y-123455637D01*
X91662576Y-123415000D01*
X91568927Y-123415000D01*
X91476554Y-123430414D01*
X91366486Y-123489981D01*
X91346000Y-123512234D01*
X91346000Y-122555681D01*
X91168096Y-122603350D01*
X91168092Y-122603352D01*
X90968594Y-122696380D01*
X90788293Y-122822628D01*
X90788282Y-122822637D01*
X90632637Y-122978282D01*
X90632628Y-122978293D01*
X90506380Y-123158594D01*
X90413352Y-123358092D01*
X90413350Y-123358096D01*
X90365681Y-123536000D01*
X89236150Y-123536000D01*
X89237403Y-123483309D01*
X89268324Y-123432578D01*
X91988660Y-120712243D01*
X92001098Y-120702280D01*
X92000910Y-120702053D01*
X92007013Y-120697002D01*
X92007018Y-120697000D01*
X92054983Y-120645921D01*
X92076135Y-120624770D01*
X92080445Y-120619212D01*
X92084274Y-120614729D01*
X92116586Y-120580321D01*
X92126346Y-120562565D01*
X92137195Y-120546050D01*
X92149614Y-120530041D01*
X92168363Y-120486710D01*
X92170953Y-120481423D01*
X92193695Y-120440060D01*
X92198733Y-120420434D01*
X92205137Y-120401732D01*
X92213180Y-120383147D01*
X92213179Y-120383147D01*
X92213181Y-120383145D01*
X92220561Y-120336547D01*
X92221762Y-120330740D01*
X92233500Y-120285030D01*
X92233500Y-120264775D01*
X92235051Y-120245063D01*
X92238220Y-120225057D01*
X92234595Y-120186709D01*
X92233780Y-120178080D01*
X92233500Y-120172148D01*
X92233500Y-117554500D01*
X92253502Y-117486379D01*
X92307158Y-117439886D01*
X92359500Y-117428500D01*
X92398632Y-117428500D01*
X92398638Y-117428500D01*
X92398645Y-117428499D01*
X92398649Y-117428499D01*
X92459196Y-117421990D01*
X92459199Y-117421989D01*
X92459201Y-117421989D01*
X92596204Y-117370889D01*
X92615108Y-117356738D01*
X92713261Y-117283261D01*
X92800887Y-117166207D01*
X92800887Y-117166206D01*
X92800889Y-117166204D01*
X92851989Y-117029201D01*
X92856888Y-116983638D01*
X92858499Y-116968649D01*
X92858500Y-116968632D01*
X92858500Y-116929500D01*
X92878502Y-116861379D01*
X92932158Y-116814886D01*
X92984500Y-116803500D01*
X98401000Y-116803500D01*
X98469121Y-116823502D01*
X98515614Y-116877158D01*
X98527000Y-116929500D01*
X98527000Y-117466000D01*
X99445362Y-117466000D01*
X99415245Y-117530002D01*
X99386365Y-117681393D01*
X99396043Y-117835211D01*
X99441138Y-117974000D01*
X98527000Y-117974000D01*
X98527000Y-118683597D01*
X98533505Y-118744093D01*
X98584555Y-118880964D01*
X98584555Y-118880965D01*
X98672095Y-118997904D01*
X98789034Y-119085444D01*
X98925906Y-119136494D01*
X98986402Y-119142999D01*
X98986415Y-119143000D01*
X99304745Y-119143000D01*
X99372866Y-119163002D01*
X99419359Y-119216658D01*
X99429463Y-119286932D01*
X99399969Y-119351512D01*
X99352963Y-119385409D01*
X99283668Y-119414111D01*
X99283654Y-119414119D01*
X99078839Y-119539628D01*
X99078839Y-119539630D01*
X99709888Y-120170679D01*
X99667623Y-120186709D01*
X99525725Y-120284654D01*
X99411390Y-120413712D01*
X99350506Y-120529715D01*
X98719630Y-119898839D01*
X98719628Y-119898839D01*
X98594119Y-120103654D01*
X98594111Y-120103668D01*
X98499362Y-120332412D01*
X98441562Y-120573168D01*
X98422136Y-120820000D01*
X98441562Y-121066831D01*
X98499362Y-121307587D01*
X98594114Y-121536336D01*
X98719628Y-121741159D01*
X98719630Y-121741159D01*
X99350505Y-121110284D01*
X99411390Y-121226288D01*
X99525725Y-121355346D01*
X99667623Y-121453291D01*
X99709888Y-121469320D01*
X99078839Y-122100368D01*
X99078839Y-122100369D01*
X99283666Y-122225887D01*
X99512412Y-122320637D01*
X99753168Y-122378437D01*
X100000000Y-122397863D01*
X100246831Y-122378437D01*
X100487587Y-122320637D01*
X100716333Y-122225887D01*
X100921159Y-122100369D01*
X100921159Y-122100368D01*
X100290111Y-121469320D01*
X100332377Y-121453291D01*
X100474275Y-121355346D01*
X100588610Y-121226288D01*
X100649493Y-121110284D01*
X101280368Y-121741159D01*
X101280369Y-121741159D01*
X101405887Y-121536333D01*
X101500637Y-121307587D01*
X101558437Y-121066831D01*
X101577863Y-120820000D01*
X101558437Y-120573168D01*
X101500637Y-120332412D01*
X101405887Y-120103666D01*
X101280369Y-119898839D01*
X101280368Y-119898839D01*
X100649493Y-120529714D01*
X100588610Y-120413712D01*
X100474275Y-120284654D01*
X100332377Y-120186709D01*
X100290110Y-120170679D01*
X100921159Y-119539630D01*
X100921159Y-119539628D01*
X100716336Y-119414114D01*
X100647037Y-119385409D01*
X100591756Y-119340860D01*
X100569335Y-119273497D01*
X100586893Y-119204706D01*
X100638856Y-119156327D01*
X100695255Y-119143000D01*
X101013585Y-119143000D01*
X101013597Y-119142999D01*
X101074093Y-119136494D01*
X101210964Y-119085444D01*
X101210965Y-119085444D01*
X101327904Y-118997904D01*
X101415444Y-118880965D01*
X101415444Y-118880964D01*
X101466494Y-118744093D01*
X101472999Y-118683597D01*
X101473000Y-118683585D01*
X101473000Y-117974000D01*
X100554638Y-117974000D01*
X100584755Y-117909998D01*
X100613635Y-117758607D01*
X100603957Y-117604789D01*
X100558862Y-117466000D01*
X101473000Y-117466000D01*
X101473000Y-116756414D01*
X101472999Y-116756402D01*
X101466494Y-116695906D01*
X101415444Y-116559035D01*
X101415444Y-116559034D01*
X101327904Y-116442095D01*
X101210965Y-116354555D01*
X101074093Y-116303505D01*
X101013597Y-116297000D01*
X100803093Y-116297000D01*
X100734972Y-116276998D01*
X100688479Y-116223342D01*
X100678375Y-116153068D01*
X100707869Y-116088488D01*
X100713998Y-116081905D01*
X101610433Y-115185470D01*
X102513657Y-114282245D01*
X102526092Y-114272284D01*
X102525905Y-114272057D01*
X102532009Y-114267005D01*
X102532018Y-114267000D01*
X102579999Y-114215904D01*
X102601134Y-114194770D01*
X102605429Y-114189232D01*
X102609271Y-114184731D01*
X102641586Y-114150321D01*
X102651345Y-114132567D01*
X102662197Y-114116046D01*
X102674613Y-114100041D01*
X102693352Y-114056733D01*
X102695954Y-114051422D01*
X102718695Y-114010060D01*
X102718695Y-114010057D01*
X102721286Y-114005346D01*
X102771633Y-113955288D01*
X102841050Y-113940396D01*
X102907499Y-113965398D01*
X102936465Y-113996047D01*
X102954359Y-114022827D01*
X102954361Y-114022830D01*
X102954367Y-114022838D01*
X103149573Y-114245427D01*
X103372162Y-114440633D01*
X103618327Y-114605115D01*
X103883855Y-114736059D01*
X104164203Y-114831224D01*
X104454574Y-114888983D01*
X104623388Y-114900047D01*
X104749997Y-114908346D01*
X104750000Y-114908346D01*
X104750003Y-114908346D01*
X104860784Y-114901084D01*
X105045426Y-114888983D01*
X105335797Y-114831224D01*
X105616145Y-114736059D01*
X105689265Y-114700000D01*
X107986502Y-114700000D01*
X108006457Y-114928086D01*
X108065715Y-115149240D01*
X108065717Y-115149246D01*
X108162477Y-115356749D01*
X108292541Y-115542500D01*
X108293802Y-115544300D01*
X108455700Y-115706198D01*
X108643251Y-115837523D01*
X108850757Y-115934284D01*
X109071913Y-115993543D01*
X109300000Y-116013498D01*
X109528087Y-115993543D01*
X109749243Y-115934284D01*
X109956749Y-115837523D01*
X110144300Y-115706198D01*
X110306198Y-115544300D01*
X110437523Y-115356749D01*
X110534284Y-115149243D01*
X110593543Y-114928087D01*
X110613498Y-114700000D01*
X110593543Y-114471913D01*
X110534284Y-114250757D01*
X110437523Y-114043251D01*
X110306198Y-113855700D01*
X110144300Y-113693802D01*
X109956749Y-113562477D01*
X109927262Y-113548727D01*
X109749246Y-113465717D01*
X109749240Y-113465715D01*
X109655771Y-113440670D01*
X109528087Y-113406457D01*
X109300000Y-113386502D01*
X109071913Y-113406457D01*
X108850759Y-113465715D01*
X108850753Y-113465717D01*
X108643250Y-113562477D01*
X108455703Y-113693799D01*
X108455697Y-113693804D01*
X108293804Y-113855697D01*
X108293799Y-113855703D01*
X108162477Y-114043250D01*
X108065717Y-114250753D01*
X108065715Y-114250759D01*
X108006457Y-114471913D01*
X107986502Y-114700000D01*
X105689265Y-114700000D01*
X105881673Y-114605115D01*
X106127838Y-114440633D01*
X106350427Y-114245427D01*
X106545633Y-114022838D01*
X106710115Y-113776673D01*
X106841059Y-113511145D01*
X106936224Y-113230797D01*
X106993983Y-112940426D01*
X107008766Y-112714872D01*
X107013346Y-112645003D01*
X107013346Y-112644996D01*
X107000532Y-112449500D01*
X106993983Y-112349574D01*
X106936224Y-112059203D01*
X106841059Y-111778855D01*
X106710115Y-111513327D01*
X106545633Y-111267162D01*
X106350427Y-111044573D01*
X106127838Y-110849367D01*
X106127830Y-110849361D01*
X106127827Y-110849359D01*
X105881670Y-110684883D01*
X105616144Y-110553940D01*
X105468998Y-110503990D01*
X105410922Y-110463152D01*
X105384144Y-110397399D01*
X105383500Y-110384677D01*
X105383500Y-110205321D01*
X105403502Y-110137200D01*
X105457158Y-110090707D01*
X105468999Y-110086008D01*
X105616145Y-110036059D01*
X105689265Y-110000000D01*
X108066502Y-110000000D01*
X108086457Y-110228087D01*
X108120670Y-110355771D01*
X108145715Y-110449240D01*
X108145717Y-110449246D01*
X108242477Y-110656749D01*
X108315432Y-110760940D01*
X108373802Y-110844300D01*
X108535700Y-111006198D01*
X108723251Y-111137523D01*
X108930757Y-111234284D01*
X109151913Y-111293543D01*
X109380000Y-111313498D01*
X109608087Y-111293543D01*
X109829243Y-111234284D01*
X110036749Y-111137523D01*
X110224300Y-111006198D01*
X110386198Y-110844300D01*
X110517523Y-110656749D01*
X110614284Y-110449243D01*
X110673543Y-110228087D01*
X110693498Y-110000000D01*
X110673543Y-109771913D01*
X110614284Y-109550757D01*
X110517523Y-109343251D01*
X110386198Y-109155700D01*
X110224300Y-108993802D01*
X110186181Y-108967111D01*
X110036749Y-108862477D01*
X109829246Y-108765717D01*
X109829240Y-108765715D01*
X109686418Y-108727446D01*
X109608087Y-108706457D01*
X109380000Y-108686502D01*
X109151913Y-108706457D01*
X108930759Y-108765715D01*
X108930753Y-108765717D01*
X108723250Y-108862477D01*
X108535703Y-108993799D01*
X108535697Y-108993804D01*
X108373804Y-109155697D01*
X108373799Y-109155703D01*
X108242477Y-109343250D01*
X108145717Y-109550753D01*
X108145715Y-109550759D01*
X108087933Y-109766406D01*
X108086457Y-109771913D01*
X108066502Y-110000000D01*
X105689265Y-110000000D01*
X105881673Y-109905115D01*
X106127838Y-109740633D01*
X106350427Y-109545427D01*
X106545633Y-109322838D01*
X106710115Y-109076673D01*
X106841059Y-108811145D01*
X106936224Y-108530797D01*
X106993983Y-108240426D01*
X107013346Y-107945000D01*
X106993983Y-107649574D01*
X106936224Y-107359203D01*
X106935528Y-107357154D01*
X106896299Y-107241588D01*
X106841059Y-107078855D01*
X106710115Y-106813327D01*
X106672491Y-106757019D01*
X106634060Y-106699502D01*
X106612845Y-106631749D01*
X106631628Y-106563282D01*
X106684445Y-106515839D01*
X106738825Y-106503500D01*
X107355406Y-106503500D01*
X107423527Y-106523502D01*
X107444501Y-106540405D01*
X108017753Y-107113657D01*
X108027720Y-107126097D01*
X108027947Y-107125910D01*
X108032999Y-107132017D01*
X108033000Y-107132018D01*
X108084095Y-107179999D01*
X108105231Y-107201135D01*
X108110770Y-107205431D01*
X108115282Y-107209285D01*
X108136853Y-107229542D01*
X108149678Y-107241585D01*
X108149682Y-107241588D01*
X108167430Y-107251345D01*
X108183957Y-107262201D01*
X108199960Y-107274614D01*
X108243259Y-107293351D01*
X108248585Y-107295960D01*
X108289935Y-107318693D01*
X108289938Y-107318694D01*
X108289940Y-107318695D01*
X108309562Y-107323733D01*
X108328263Y-107330135D01*
X108340814Y-107335567D01*
X108346852Y-107338180D01*
X108346853Y-107338180D01*
X108346855Y-107338181D01*
X108393477Y-107345564D01*
X108399262Y-107346763D01*
X108444970Y-107358500D01*
X108465224Y-107358500D01*
X108484934Y-107360051D01*
X108487141Y-107360400D01*
X108504943Y-107363220D01*
X108539472Y-107359956D01*
X108551917Y-107358780D01*
X108557850Y-107358500D01*
X111091147Y-107358500D01*
X111106988Y-107360249D01*
X111107016Y-107359956D01*
X111114902Y-107360700D01*
X111114909Y-107360702D01*
X111184958Y-107358500D01*
X111214856Y-107358500D01*
X111221818Y-107357619D01*
X111227719Y-107357154D01*
X111274889Y-107355673D01*
X111294347Y-107350019D01*
X111313694Y-107346013D01*
X111333797Y-107343474D01*
X111377679Y-107326099D01*
X111383274Y-107324183D01*
X111411816Y-107315891D01*
X111428591Y-107311019D01*
X111428595Y-107311017D01*
X111446026Y-107300708D01*
X111463780Y-107292009D01*
X111482617Y-107284552D01*
X111520786Y-107256818D01*
X111525744Y-107253562D01*
X111566362Y-107229542D01*
X111580685Y-107215218D01*
X111595724Y-107202374D01*
X111612107Y-107190472D01*
X111642193Y-107154103D01*
X111646161Y-107149741D01*
X114088657Y-104707245D01*
X114101092Y-104697284D01*
X114100905Y-104697057D01*
X114107009Y-104692005D01*
X114107018Y-104692000D01*
X114154999Y-104640904D01*
X114176134Y-104619770D01*
X114180429Y-104614232D01*
X114184271Y-104609731D01*
X114216586Y-104575321D01*
X114226345Y-104557567D01*
X114237197Y-104541046D01*
X114249613Y-104525041D01*
X114266892Y-104485111D01*
X114268347Y-104481748D01*
X114270961Y-104476412D01*
X114293694Y-104435061D01*
X114293695Y-104435060D01*
X114298733Y-104415435D01*
X114305138Y-104396730D01*
X114311364Y-104382343D01*
X114313181Y-104378145D01*
X114320561Y-104331547D01*
X114321762Y-104325740D01*
X114333500Y-104280030D01*
X114333500Y-104259775D01*
X114335051Y-104240063D01*
X114335186Y-104239210D01*
X114338220Y-104220057D01*
X114334369Y-104179317D01*
X114333780Y-104173080D01*
X114333500Y-104167148D01*
X114333500Y-94714594D01*
X114353502Y-94646473D01*
X114370405Y-94625499D01*
X114893182Y-94102722D01*
X115417273Y-93578630D01*
X115479583Y-93544607D01*
X115550398Y-93549671D01*
G37*
%TD.AperFunction*%
%TA.AperFunction,Conductor*%
G36*
X86108527Y-91253502D02*
G01*
X86129501Y-91270405D01*
X88590279Y-93731183D01*
X88624305Y-93793495D01*
X88619240Y-93864310D01*
X88615379Y-93873527D01*
X88560719Y-93990748D01*
X88560715Y-93990759D01*
X88506952Y-94191404D01*
X88501457Y-94211913D01*
X88481502Y-94440000D01*
X88501457Y-94668087D01*
X88506079Y-94685335D01*
X88560715Y-94889240D01*
X88560717Y-94889246D01*
X88617236Y-95010452D01*
X88657477Y-95096749D01*
X88788802Y-95284300D01*
X88950700Y-95446198D01*
X89138251Y-95577523D01*
X89173359Y-95593894D01*
X89177457Y-95595805D01*
X89230742Y-95642722D01*
X89250203Y-95710999D01*
X89229661Y-95778959D01*
X89177457Y-95824195D01*
X89138250Y-95842477D01*
X88950703Y-95973799D01*
X88950697Y-95973804D01*
X88788804Y-96135697D01*
X88788799Y-96135703D01*
X88657477Y-96323250D01*
X88560717Y-96530753D01*
X88560715Y-96530759D01*
X88501457Y-96751913D01*
X88481502Y-96980000D01*
X88501457Y-97208086D01*
X88560715Y-97429240D01*
X88560717Y-97429246D01*
X88657477Y-97636749D01*
X88739228Y-97753502D01*
X88788802Y-97824300D01*
X88950700Y-97986198D01*
X89138251Y-98117523D01*
X89173359Y-98133894D01*
X89177457Y-98135805D01*
X89230742Y-98182722D01*
X89250203Y-98250999D01*
X89229661Y-98318959D01*
X89177457Y-98364195D01*
X89138250Y-98382477D01*
X88950703Y-98513799D01*
X88950697Y-98513804D01*
X88788804Y-98675697D01*
X88788799Y-98675703D01*
X88657477Y-98863250D01*
X88560717Y-99070753D01*
X88560715Y-99070759D01*
X88504125Y-99281955D01*
X88501457Y-99291913D01*
X88481502Y-99520000D01*
X88501457Y-99748087D01*
X88526133Y-99840180D01*
X88560715Y-99969240D01*
X88560717Y-99969246D01*
X88615629Y-100087005D01*
X88657477Y-100176749D01*
X88788802Y-100364300D01*
X88950700Y-100526198D01*
X89138251Y-100657523D01*
X89345757Y-100754284D01*
X89566913Y-100813543D01*
X89737873Y-100828500D01*
X89737874Y-100828500D01*
X90652126Y-100828500D01*
X90652127Y-100828500D01*
X90823087Y-100813543D01*
X91044243Y-100754284D01*
X91251749Y-100657523D01*
X91439300Y-100526198D01*
X91601198Y-100364300D01*
X91711181Y-100207229D01*
X91766638Y-100162901D01*
X91814394Y-100153500D01*
X93077138Y-100153500D01*
X93092979Y-100155249D01*
X93093007Y-100154956D01*
X93100893Y-100155700D01*
X93100900Y-100155702D01*
X93170949Y-100153500D01*
X93200847Y-100153500D01*
X93207809Y-100152619D01*
X93213710Y-100152154D01*
X93260880Y-100150673D01*
X93280338Y-100145019D01*
X93299685Y-100141013D01*
X93319788Y-100138474D01*
X93363670Y-100121099D01*
X93369265Y-100119183D01*
X93397807Y-100110891D01*
X93414582Y-100106019D01*
X93414586Y-100106017D01*
X93432017Y-100095708D01*
X93449771Y-100087009D01*
X93468608Y-100079552D01*
X93506777Y-100051818D01*
X93511735Y-100048562D01*
X93552353Y-100024542D01*
X93566676Y-100010218D01*
X93581715Y-99997374D01*
X93598098Y-99985472D01*
X93628184Y-99949103D01*
X93632152Y-99944741D01*
X98580029Y-94996864D01*
X98642339Y-94962840D01*
X98713154Y-94967905D01*
X98769990Y-95010452D01*
X98794801Y-95076972D01*
X98794643Y-95096941D01*
X98786502Y-95189998D01*
X98786502Y-95190000D01*
X98806457Y-95418087D01*
X98813990Y-95446200D01*
X98865715Y-95639240D01*
X98865717Y-95639246D01*
X98962477Y-95846749D01*
X99051438Y-95973799D01*
X99093802Y-96034300D01*
X99255700Y-96196198D01*
X99443251Y-96327523D01*
X99650757Y-96424284D01*
X99871913Y-96483543D01*
X100100000Y-96503498D01*
X100328087Y-96483543D01*
X100549243Y-96424284D01*
X100756749Y-96327523D01*
X100944300Y-96196198D01*
X101106198Y-96034300D01*
X101237523Y-95846749D01*
X101334284Y-95639243D01*
X101393543Y-95418087D01*
X101413498Y-95190000D01*
X101393543Y-94961913D01*
X101376540Y-94898457D01*
X101378229Y-94827483D01*
X101409149Y-94776753D01*
X102290500Y-93895404D01*
X102352812Y-93861379D01*
X102379595Y-93858500D01*
X103620658Y-93858500D01*
X103688779Y-93878502D01*
X103735272Y-93932158D01*
X103745376Y-94002432D01*
X103715882Y-94067012D01*
X103692929Y-94087713D01*
X103555703Y-94183799D01*
X103555697Y-94183804D01*
X103393804Y-94345697D01*
X103393799Y-94345703D01*
X103262477Y-94533250D01*
X103165717Y-94740753D01*
X103165715Y-94740759D01*
X103110051Y-94948500D01*
X103106457Y-94961913D01*
X103086502Y-95190000D01*
X103106457Y-95418087D01*
X103113990Y-95446200D01*
X103165715Y-95639240D01*
X103165717Y-95639246D01*
X103262477Y-95846749D01*
X103351438Y-95973799D01*
X103393802Y-96034300D01*
X103555700Y-96196198D01*
X103743251Y-96327523D01*
X103950757Y-96424284D01*
X104171913Y-96483543D01*
X104400000Y-96503498D01*
X104628087Y-96483543D01*
X104849243Y-96424284D01*
X105056749Y-96327523D01*
X105244300Y-96196198D01*
X105406198Y-96034300D01*
X105537523Y-95846749D01*
X105634284Y-95639243D01*
X105693543Y-95418087D01*
X105713498Y-95190000D01*
X105704354Y-95085482D01*
X105718342Y-95015877D01*
X105767741Y-94964885D01*
X105829874Y-94948500D01*
X107713349Y-94948500D01*
X107781470Y-94968502D01*
X107827963Y-95022158D01*
X107838067Y-95092432D01*
X107835056Y-95107111D01*
X107813917Y-95186000D01*
X109188314Y-95186000D01*
X109172359Y-95201955D01*
X109114835Y-95314852D01*
X109095014Y-95440000D01*
X109114835Y-95565148D01*
X109172359Y-95678045D01*
X109188314Y-95694000D01*
X107813918Y-95694000D01*
X107866186Y-95889068D01*
X107866188Y-95889073D01*
X107962912Y-96096498D01*
X108094184Y-96283974D01*
X108094189Y-96283980D01*
X108256019Y-96445810D01*
X108256025Y-96445815D01*
X108443503Y-96577089D01*
X108483049Y-96595530D01*
X108536334Y-96642447D01*
X108555794Y-96710724D01*
X108535252Y-96778684D01*
X108483049Y-96823918D01*
X108443252Y-96842475D01*
X108255703Y-96973799D01*
X108255697Y-96973804D01*
X108093804Y-97135697D01*
X108093799Y-97135703D01*
X107962477Y-97323250D01*
X107865717Y-97530753D01*
X107865715Y-97530759D01*
X107820441Y-97699725D01*
X107806457Y-97751913D01*
X107786502Y-97980000D01*
X107806457Y-98208087D01*
X107817420Y-98249002D01*
X107865715Y-98429240D01*
X107865717Y-98429246D01*
X107959628Y-98630640D01*
X107962477Y-98636749D01*
X108093802Y-98824300D01*
X108255700Y-98986198D01*
X108443251Y-99117523D01*
X108483045Y-99136079D01*
X108483047Y-99136080D01*
X108536332Y-99182996D01*
X108555794Y-99251273D01*
X108535253Y-99319233D01*
X108483051Y-99364468D01*
X108443504Y-99382910D01*
X108256025Y-99514184D01*
X108256019Y-99514189D01*
X108094189Y-99676019D01*
X108094184Y-99676025D01*
X107962912Y-99863501D01*
X107866188Y-100070926D01*
X107866186Y-100070931D01*
X107813917Y-100266000D01*
X109188314Y-100266000D01*
X109172359Y-100281955D01*
X109114835Y-100394852D01*
X109095014Y-100520000D01*
X109114835Y-100645148D01*
X109172359Y-100758045D01*
X109188314Y-100774000D01*
X107813918Y-100774000D01*
X107866186Y-100969068D01*
X107866188Y-100969073D01*
X107962912Y-101176498D01*
X108094184Y-101363974D01*
X108094189Y-101363980D01*
X108256019Y-101525810D01*
X108256025Y-101525815D01*
X108443503Y-101657089D01*
X108483049Y-101675530D01*
X108536334Y-101722447D01*
X108555794Y-101790724D01*
X108535252Y-101858684D01*
X108483049Y-101903918D01*
X108443252Y-101922475D01*
X108255703Y-102053799D01*
X108255697Y-102053804D01*
X108093804Y-102215697D01*
X108093799Y-102215703D01*
X107983819Y-102372771D01*
X107928362Y-102417099D01*
X107880606Y-102426500D01*
X105745212Y-102426500D01*
X105677091Y-102406498D01*
X105631017Y-102353750D01*
X105576853Y-102237595D01*
X105537523Y-102153251D01*
X105406198Y-101965700D01*
X105244300Y-101803802D01*
X105238717Y-101799893D01*
X105056749Y-101672477D01*
X104849246Y-101575717D01*
X104849240Y-101575715D01*
X104755771Y-101550670D01*
X104628087Y-101516457D01*
X104400000Y-101496502D01*
X104171913Y-101516457D01*
X103950759Y-101575715D01*
X103950753Y-101575717D01*
X103743250Y-101672477D01*
X103555703Y-101803799D01*
X103555697Y-101803804D01*
X103393804Y-101965697D01*
X103393799Y-101965703D01*
X103262477Y-102153250D01*
X103165717Y-102360753D01*
X103165715Y-102360759D01*
X103106457Y-102581913D01*
X103086502Y-102810000D01*
X103106457Y-103038086D01*
X103165715Y-103259240D01*
X103165717Y-103259246D01*
X103251636Y-103443500D01*
X103262477Y-103466749D01*
X103393802Y-103654300D01*
X103555700Y-103816198D01*
X103743251Y-103947523D01*
X103950757Y-104044284D01*
X104171913Y-104103543D01*
X104400000Y-104123498D01*
X104628087Y-104103543D01*
X104849243Y-104044284D01*
X105056749Y-103947523D01*
X105244300Y-103816198D01*
X105330093Y-103730405D01*
X105392405Y-103696379D01*
X105419188Y-103693500D01*
X107880606Y-103693500D01*
X107948727Y-103713502D01*
X107983819Y-103747229D01*
X108093799Y-103904296D01*
X108093802Y-103904300D01*
X108255700Y-104066198D01*
X108443251Y-104197523D01*
X108478359Y-104213894D01*
X108482457Y-104215805D01*
X108535742Y-104262722D01*
X108555203Y-104330999D01*
X108534661Y-104398959D01*
X108482457Y-104444195D01*
X108443250Y-104462477D01*
X108255703Y-104593799D01*
X108255697Y-104593804D01*
X108093804Y-104755697D01*
X108093799Y-104755703D01*
X107962477Y-104943250D01*
X107865716Y-105150756D01*
X107864685Y-105153590D01*
X107863893Y-105154664D01*
X107863391Y-105155743D01*
X107863174Y-105155641D01*
X107822592Y-105210763D01*
X107756272Y-105236103D01*
X107746282Y-105236500D01*
X107729776Y-105236500D01*
X107710066Y-105234949D01*
X107690057Y-105231780D01*
X107690056Y-105231780D01*
X107643083Y-105236220D01*
X107637150Y-105236500D01*
X99258593Y-105236500D01*
X99190472Y-105216498D01*
X99143979Y-105162842D01*
X99133875Y-105092568D01*
X99163369Y-105027988D01*
X99169483Y-105021419D01*
X100031854Y-104159048D01*
X100094163Y-104125026D01*
X100109946Y-104122627D01*
X100328087Y-104103543D01*
X100549243Y-104044284D01*
X100756749Y-103947523D01*
X100944300Y-103816198D01*
X101106198Y-103654300D01*
X101237523Y-103466749D01*
X101334284Y-103259243D01*
X101393543Y-103038087D01*
X101413498Y-102810000D01*
X101393543Y-102581913D01*
X101334284Y-102360757D01*
X101237523Y-102153251D01*
X101106198Y-101965700D01*
X100944300Y-101803802D01*
X100938717Y-101799893D01*
X100756749Y-101672477D01*
X100549246Y-101575717D01*
X100549240Y-101575715D01*
X100455771Y-101550670D01*
X100328087Y-101516457D01*
X100100000Y-101496502D01*
X99871913Y-101516457D01*
X99650759Y-101575715D01*
X99650753Y-101575717D01*
X99443250Y-101672477D01*
X99255703Y-101803799D01*
X99255697Y-101803804D01*
X99093804Y-101965697D01*
X99093799Y-101965703D01*
X98962477Y-102153250D01*
X98865717Y-102360753D01*
X98865715Y-102360759D01*
X98806457Y-102581913D01*
X98786502Y-102810000D01*
X98806457Y-103038086D01*
X98865715Y-103259240D01*
X98865719Y-103259251D01*
X98915608Y-103366241D01*
X98926269Y-103436433D01*
X98897288Y-103501245D01*
X98890508Y-103508585D01*
X96500335Y-105898758D01*
X96438023Y-105932784D01*
X96367208Y-105927719D01*
X96355512Y-105922669D01*
X96289182Y-105889959D01*
X96216145Y-105853941D01*
X96216140Y-105853939D01*
X96216137Y-105853938D01*
X95935805Y-105758778D01*
X95935799Y-105758776D01*
X95935797Y-105758776D01*
X95838566Y-105739435D01*
X95645435Y-105701018D01*
X95645421Y-105701016D01*
X95350003Y-105681654D01*
X95349997Y-105681654D01*
X95054578Y-105701016D01*
X95054564Y-105701018D01*
X94812818Y-105749105D01*
X94764203Y-105758776D01*
X94764201Y-105758776D01*
X94764194Y-105758778D01*
X94483862Y-105853938D01*
X94483848Y-105853944D01*
X94218329Y-105984883D01*
X93972172Y-106149359D01*
X93972165Y-106149364D01*
X93972162Y-106149367D01*
X93749573Y-106344573D01*
X93554367Y-106567162D01*
X93554364Y-106567165D01*
X93554359Y-106567172D01*
X93389883Y-106813329D01*
X93258944Y-107078848D01*
X93258938Y-107078862D01*
X93163778Y-107359194D01*
X93163776Y-107359201D01*
X93163776Y-107359203D01*
X93163568Y-107360249D01*
X93106018Y-107649564D01*
X93106016Y-107649578D01*
X93086654Y-107944996D01*
X93086654Y-107945003D01*
X93106016Y-108240421D01*
X93106018Y-108240435D01*
X93163776Y-108530795D01*
X93163778Y-108530805D01*
X93258938Y-108811137D01*
X93258944Y-108811151D01*
X93389883Y-109076670D01*
X93554359Y-109322827D01*
X93554361Y-109322830D01*
X93554367Y-109322838D01*
X93749573Y-109545427D01*
X93972162Y-109740633D01*
X93972170Y-109740638D01*
X93972172Y-109740640D01*
X94018976Y-109771913D01*
X94218327Y-109905115D01*
X94483855Y-110036059D01*
X94764203Y-110131224D01*
X94942423Y-110166674D01*
X94966284Y-110171421D01*
X95029193Y-110204329D01*
X95064325Y-110266024D01*
X95060525Y-110336919D01*
X95018999Y-110394505D01*
X94966284Y-110418579D01*
X94910306Y-110429714D01*
X94764203Y-110458776D01*
X94764201Y-110458776D01*
X94764194Y-110458778D01*
X94483862Y-110553938D01*
X94483848Y-110553944D01*
X94218329Y-110684883D01*
X93972172Y-110849359D01*
X93972165Y-110849364D01*
X93972162Y-110849367D01*
X93749573Y-111044573D01*
X93554367Y-111267162D01*
X93554364Y-111267165D01*
X93554359Y-111267172D01*
X93389883Y-111513329D01*
X93258944Y-111778848D01*
X93258938Y-111778862D01*
X93163778Y-112059194D01*
X93163776Y-112059204D01*
X93106018Y-112349564D01*
X93106016Y-112349578D01*
X93086654Y-112644996D01*
X93086654Y-112645003D01*
X93106016Y-112940421D01*
X93106018Y-112940435D01*
X93163776Y-113230795D01*
X93163778Y-113230805D01*
X93258938Y-113511137D01*
X93258944Y-113511151D01*
X93389883Y-113776670D01*
X93465940Y-113890498D01*
X93487155Y-113958251D01*
X93468372Y-114026718D01*
X93415555Y-114074161D01*
X93361175Y-114086500D01*
X84134594Y-114086500D01*
X84066473Y-114066498D01*
X84045499Y-114049595D01*
X82445405Y-112449500D01*
X82411379Y-112387188D01*
X82408500Y-112360405D01*
X82408500Y-110687167D01*
X82428502Y-110619046D01*
X82482158Y-110572553D01*
X82552432Y-110562449D01*
X82567104Y-110565459D01*
X82671913Y-110593543D01*
X82900000Y-110613498D01*
X83128087Y-110593543D01*
X83349243Y-110534284D01*
X83556749Y-110437523D01*
X83744300Y-110306198D01*
X83906198Y-110144300D01*
X84037523Y-109956749D01*
X84134284Y-109749243D01*
X84193543Y-109528087D01*
X84213498Y-109300000D01*
X84193543Y-109071913D01*
X84176540Y-109008457D01*
X84178229Y-108937483D01*
X84209150Y-108886752D01*
X84250502Y-108845402D01*
X84312815Y-108811379D01*
X84339595Y-108808500D01*
X89132832Y-108808500D01*
X89200953Y-108828502D01*
X89247446Y-108882158D01*
X89257550Y-108952432D01*
X89254539Y-108967108D01*
X89226457Y-109071913D01*
X89206502Y-109300000D01*
X89226457Y-109528087D01*
X89253400Y-109628638D01*
X89285715Y-109749240D01*
X89285717Y-109749246D01*
X89382477Y-109956749D01*
X89508830Y-110137200D01*
X89513802Y-110144300D01*
X89675700Y-110306198D01*
X89863251Y-110437523D01*
X90070757Y-110534284D01*
X90291913Y-110593543D01*
X90520000Y-110613498D01*
X90748087Y-110593543D01*
X90969243Y-110534284D01*
X91176749Y-110437523D01*
X91364300Y-110306198D01*
X91526198Y-110144300D01*
X91657523Y-109956749D01*
X91754284Y-109749243D01*
X91813543Y-109528087D01*
X91833498Y-109300000D01*
X91813543Y-109071913D01*
X91754284Y-108850757D01*
X91657523Y-108643251D01*
X91526198Y-108455700D01*
X91427295Y-108356797D01*
X91393269Y-108294485D01*
X91398334Y-108223670D01*
X91427293Y-108178609D01*
X95486754Y-104119149D01*
X95549064Y-104085125D01*
X95608457Y-104086539D01*
X95671913Y-104103543D01*
X95900000Y-104123498D01*
X96128087Y-104103543D01*
X96349243Y-104044284D01*
X96556749Y-103947523D01*
X96744300Y-103816198D01*
X96906198Y-103654300D01*
X97037523Y-103466749D01*
X97134284Y-103259243D01*
X97193543Y-103038087D01*
X97213498Y-102810000D01*
X97193543Y-102581913D01*
X97134284Y-102360757D01*
X97037523Y-102153251D01*
X96906198Y-101965700D01*
X96744300Y-101803802D01*
X96738717Y-101799893D01*
X96556749Y-101672477D01*
X96349246Y-101575717D01*
X96349240Y-101575715D01*
X96255771Y-101550670D01*
X96128087Y-101516457D01*
X95900000Y-101496502D01*
X95671913Y-101516457D01*
X95450759Y-101575715D01*
X95450753Y-101575717D01*
X95243250Y-101672477D01*
X95055703Y-101803799D01*
X95055697Y-101803804D01*
X94893804Y-101965697D01*
X94893799Y-101965703D01*
X94783819Y-102122771D01*
X94728362Y-102167099D01*
X94680606Y-102176500D01*
X86524595Y-102176500D01*
X86456474Y-102156498D01*
X86435499Y-102139595D01*
X85770404Y-101474499D01*
X85736379Y-101412187D01*
X85733500Y-101385404D01*
X85733500Y-93183855D01*
X85735249Y-93168014D01*
X85734956Y-93167987D01*
X85735701Y-93160094D01*
X85735702Y-93160091D01*
X85733500Y-93090041D01*
X85733500Y-93060144D01*
X85732619Y-93053178D01*
X85732155Y-93047282D01*
X85730673Y-93000110D01*
X85725022Y-92980663D01*
X85721012Y-92961300D01*
X85720849Y-92960007D01*
X85718474Y-92941203D01*
X85701099Y-92897320D01*
X85699179Y-92891711D01*
X85686018Y-92846407D01*
X85675705Y-92828969D01*
X85667010Y-92811222D01*
X85659552Y-92792383D01*
X85631821Y-92754215D01*
X85628562Y-92749255D01*
X85628197Y-92748638D01*
X85604542Y-92708637D01*
X85604541Y-92708635D01*
X85590218Y-92694312D01*
X85577377Y-92679279D01*
X85565471Y-92662892D01*
X85551235Y-92651115D01*
X85529108Y-92632810D01*
X85524736Y-92628831D01*
X84407244Y-91511339D01*
X84397279Y-91498901D01*
X84397052Y-91499090D01*
X84392001Y-91492984D01*
X84392000Y-91492982D01*
X84347665Y-91451349D01*
X84311701Y-91390138D01*
X84314538Y-91319198D01*
X84355279Y-91261054D01*
X84420987Y-91234165D01*
X84433919Y-91233500D01*
X86040406Y-91233500D01*
X86108527Y-91253502D01*
G37*
%TD.AperFunction*%
%TA.AperFunction,Conductor*%
G36*
X82829000Y-100828000D02*
G01*
X83032104Y-100828000D01*
X83203002Y-100813048D01*
X83424068Y-100753813D01*
X83424073Y-100753811D01*
X83631498Y-100657087D01*
X83818974Y-100525815D01*
X83818980Y-100525810D01*
X83980810Y-100363980D01*
X83980815Y-100363974D01*
X84112087Y-100176498D01*
X84208811Y-99969073D01*
X84208813Y-99969069D01*
X84218793Y-99931824D01*
X84255744Y-99871201D01*
X84319605Y-99840180D01*
X84390099Y-99848608D01*
X84444847Y-99893811D01*
X84466464Y-99961436D01*
X84466500Y-99964435D01*
X84466500Y-101616146D01*
X84464751Y-101631988D01*
X84465044Y-101632016D01*
X84464298Y-101639907D01*
X84466500Y-101709957D01*
X84466500Y-101739851D01*
X84466501Y-101739872D01*
X84467378Y-101746820D01*
X84467844Y-101752732D01*
X84469326Y-101799888D01*
X84469327Y-101799893D01*
X84474977Y-101819339D01*
X84478986Y-101838697D01*
X84481525Y-101858793D01*
X84481526Y-101858799D01*
X84498893Y-101902662D01*
X84500816Y-101908279D01*
X84513982Y-101953593D01*
X84524294Y-101971031D01*
X84532988Y-101988779D01*
X84540444Y-102007609D01*
X84540450Y-102007620D01*
X84568177Y-102045783D01*
X84571437Y-102050746D01*
X84595460Y-102091365D01*
X84609779Y-102105684D01*
X84622617Y-102120714D01*
X84624112Y-102122771D01*
X84634528Y-102137107D01*
X84654042Y-102153250D01*
X84670886Y-102167185D01*
X84675267Y-102171171D01*
X84855279Y-102351183D01*
X84955501Y-102451405D01*
X84989527Y-102513717D01*
X84984462Y-102584532D01*
X84941915Y-102641368D01*
X84875395Y-102666179D01*
X84866406Y-102666500D01*
X81514595Y-102666500D01*
X81446474Y-102646498D01*
X81425500Y-102629595D01*
X81070405Y-102274500D01*
X81036379Y-102212188D01*
X81033500Y-102185405D01*
X81033500Y-100532481D01*
X81053502Y-100464360D01*
X81107158Y-100417867D01*
X81177432Y-100407763D01*
X81242012Y-100437257D01*
X81248595Y-100443386D01*
X81331019Y-100525810D01*
X81331025Y-100525815D01*
X81518501Y-100657087D01*
X81725926Y-100753811D01*
X81725931Y-100753813D01*
X81946999Y-100813048D01*
X81946996Y-100813048D01*
X82117896Y-100828000D01*
X82321000Y-100828000D01*
X82321000Y-99831686D01*
X82336955Y-99847641D01*
X82449852Y-99905165D01*
X82543519Y-99920000D01*
X82606481Y-99920000D01*
X82700148Y-99905165D01*
X82813045Y-99847641D01*
X82829000Y-99831686D01*
X82829000Y-100828000D01*
G37*
%TD.AperFunction*%
%TD*%
M02*
