%TF.GenerationSoftware,KiCad,Pcbnew,7.0.9*%
%TF.CreationDate,2024-05-17T11:53:30+10:00*%
%TF.ProjectId,_rotary_,5f726f74-6172-4795-9f2e-6b696361645f,v0_1_2*%
%TF.SameCoordinates,Original*%
%TF.FileFunction,Soldermask,Top*%
%TF.FilePolarity,Negative*%
%FSLAX46Y46*%
G04 Gerber Fmt 4.6, Leading zero omitted, Abs format (unit mm)*
G04 Created by KiCad (PCBNEW 7.0.9) date 2024-05-17 11:53:30*
%MOMM*%
%LPD*%
G01*
G04 APERTURE LIST*
G04 Aperture macros list*
%AMRoundRect*
0 Rectangle with rounded corners*
0 $1 Rounding radius*
0 $2 $3 $4 $5 $6 $7 $8 $9 X,Y pos of 4 corners*
0 Add a 4 corners polygon primitive as box body*
4,1,4,$2,$3,$4,$5,$6,$7,$8,$9,$2,$3,0*
0 Add four circle primitives for the rounded corners*
1,1,$1+$1,$2,$3*
1,1,$1+$1,$4,$5*
1,1,$1+$1,$6,$7*
1,1,$1+$1,$8,$9*
0 Add four rect primitives between the rounded corners*
20,1,$1+$1,$2,$3,$4,$5,0*
20,1,$1+$1,$4,$5,$6,$7,0*
20,1,$1+$1,$6,$7,$8,$9,0*
20,1,$1+$1,$8,$9,$2,$3,0*%
G04 Aperture macros list end*
%ADD10R,1.930000X1.830000*%
%ADD11C,2.130000*%
%ADD12C,1.600000*%
%ADD13O,1.600000X1.600000*%
%ADD14C,4.300000*%
%ADD15C,4.000000*%
%ADD16C,1.800000*%
%ADD17R,1.500000X1.500000*%
%ADD18O,1.500000X1.500000*%
%ADD19R,2.400000X1.600000*%
%ADD20O,2.400000X1.600000*%
%ADD21R,1.050000X1.500000*%
%ADD22O,1.050000X1.500000*%
%ADD23C,3.500000*%
%ADD24C,1.250000*%
%ADD25RoundRect,0.250000X0.725000X-0.600000X0.725000X0.600000X-0.725000X0.600000X-0.725000X-0.600000X0*%
%ADD26O,1.950000X1.700000*%
G04 APERTURE END LIST*
D10*
%TO.C,J1*%
X100000000Y-117720000D03*
D11*
X100000000Y-129120000D03*
X100000000Y-120820000D03*
%TD*%
D12*
%TO.C,R9*%
X110000000Y-71700000D03*
D13*
X117620000Y-71700000D03*
%TD*%
D12*
%TO.C,R11*%
X109300000Y-114700000D03*
D13*
X116920000Y-114700000D03*
%TD*%
D12*
%TO.C,C1*%
X98500000Y-92000000D03*
X93500000Y-92000000D03*
%TD*%
%TO.C,R10*%
X104400000Y-95190000D03*
D13*
X104400000Y-102810000D03*
%TD*%
D12*
%TO.C,C3*%
X117100000Y-82500000D03*
X117100000Y-77500000D03*
%TD*%
%TO.C,R12*%
X117000000Y-110000000D03*
D13*
X109380000Y-110000000D03*
%TD*%
D14*
%TO.C,REF\u002A\u002A*%
X100000000Y-135050000D03*
%TD*%
D12*
%TO.C,R3*%
X95900000Y-102810000D03*
D13*
X95900000Y-95190000D03*
%TD*%
D15*
%TO.C,RV3*%
X83250000Y-130725000D03*
X92750000Y-130725000D03*
D16*
X90500000Y-138225000D03*
X88000000Y-138225000D03*
X85500000Y-138225000D03*
%TD*%
D17*
%TO.C,D4*%
X112400000Y-77100000D03*
D18*
X112400000Y-84720000D03*
%TD*%
D12*
%TO.C,C2*%
X101500000Y-92100000D03*
X106500000Y-92100000D03*
%TD*%
D19*
%TO.C,U1*%
X82575000Y-91900000D03*
D20*
X82575000Y-94440000D03*
X82575000Y-96980000D03*
X82575000Y-99520000D03*
X90195000Y-99520000D03*
X90195000Y-96980000D03*
X90195000Y-94440000D03*
X90195000Y-91900000D03*
%TD*%
D12*
%TO.C,R8*%
X100100000Y-102810000D03*
D13*
X100100000Y-95190000D03*
%TD*%
D14*
%TO.C,REF\u002A\u002A*%
X100050000Y-65000000D03*
%TD*%
D12*
%TO.C,R14*%
X83700000Y-116200000D03*
D13*
X83700000Y-123820000D03*
%TD*%
D12*
%TO.C,R1*%
X82990000Y-105000000D03*
D13*
X90610000Y-105000000D03*
%TD*%
D21*
%TO.C,U2*%
X94530000Y-72800000D03*
D22*
X95800000Y-72800000D03*
X97070000Y-72800000D03*
%TD*%
D23*
%TO.C,SW1*%
X95350000Y-107945000D03*
X100050000Y-107945000D03*
X104750000Y-107945000D03*
X95350000Y-112645000D03*
X100050000Y-112645000D03*
X104750000Y-112645000D03*
%TD*%
D17*
%TO.C,D3*%
X109200000Y-77100000D03*
D18*
X109200000Y-84720000D03*
%TD*%
D12*
%TO.C,R5*%
X90120000Y-83900000D03*
D13*
X82500000Y-83900000D03*
%TD*%
D17*
%TO.C,D5*%
X116520000Y-118400000D03*
D18*
X108900000Y-118400000D03*
%TD*%
D15*
%TO.C,RV2*%
X107250000Y-130725000D03*
X116750000Y-130725000D03*
D16*
X114500000Y-138225000D03*
X112000000Y-138225000D03*
X109500000Y-138225000D03*
%TD*%
D12*
%TO.C,R6*%
X90010000Y-75500000D03*
D13*
X82390000Y-75500000D03*
%TD*%
D19*
%TO.C,U3*%
X109500000Y-90360000D03*
D20*
X109500000Y-92900000D03*
X109500000Y-95440000D03*
X109500000Y-97980000D03*
X109500000Y-100520000D03*
X109500000Y-103060000D03*
X109500000Y-105600000D03*
X117120000Y-105600000D03*
X117120000Y-103060000D03*
X117120000Y-100520000D03*
X117120000Y-97980000D03*
X117120000Y-95440000D03*
X117120000Y-92900000D03*
X117120000Y-90360000D03*
%TD*%
D15*
%TO.C,RV1*%
X95250000Y-81625000D03*
X104750000Y-81625000D03*
D16*
X102500000Y-89125000D03*
X100000000Y-89125000D03*
X97500000Y-89125000D03*
%TD*%
D12*
%TO.C,R4*%
X108590000Y-123700000D03*
D13*
X116210000Y-123700000D03*
%TD*%
D17*
%TO.C,D2*%
X91600000Y-116170000D03*
D18*
X91600000Y-123790000D03*
%TD*%
D17*
%TO.C,D1*%
X88000000Y-116185000D03*
D18*
X88000000Y-123805000D03*
%TD*%
D12*
%TO.C,R2*%
X90520000Y-109300000D03*
D13*
X82900000Y-109300000D03*
%TD*%
D12*
%TO.C,R7*%
X82300000Y-79800000D03*
D13*
X89920000Y-79800000D03*
%TD*%
D24*
%TO.C,J2*%
X83100000Y-70900000D03*
D25*
X84700000Y-69300000D03*
D26*
X84700000Y-66800000D03*
X84700000Y-64300000D03*
%TD*%
M02*
