M48
; DRILL file {KiCad 7.0.9} date Fri 17 May 2024 11:53:32
; FORMAT={-:-/ absolute / metric / decimal}
; #@! TF.CreationDate,2024-05-17T11:53:32+10:00
; #@! TF.GenerationSoftware,Kicad,Pcbnew,7.0.9
; #@! TF.FileFunction,Plated,1,2,PTH
FMAT,2
METRIC
; #@! TA.AperFunction,Plated,PTH,ComponentDrill
T1C0.750
; #@! TA.AperFunction,Plated,PTH,ComponentDrill
T2C0.800
; #@! TA.AperFunction,Plated,PTH,ComponentDrill
T3C0.950
; #@! TA.AperFunction,Plated,PTH,ComponentDrill
T4C1.000
; #@! TA.AperFunction,Plated,PTH,ComponentDrill
T5C1.220
; #@! TA.AperFunction,Plated,PTH,ComponentDrill
T6C1.420
; #@! TA.AperFunction,Plated,PTH,ComponentDrill
T7C1.430
; #@! TA.AperFunction,Plated,PTH,ComponentDrill
T8C2.100
%
G90
G05
T1
X88.0Y-116.185
X88.0Y-123.805
X91.6Y-116.17
X91.6Y-123.79
X94.53Y-72.8
X95.8Y-72.8
X97.07Y-72.8
X108.9Y-118.4
X109.2Y-77.1
X109.2Y-84.72
X112.4Y-77.1
X112.4Y-84.72
X116.52Y-118.4
T2
X82.3Y-79.8
X82.39Y-75.5
X82.5Y-83.9
X82.575Y-91.9
X82.575Y-94.44
X82.575Y-96.98
X82.575Y-99.52
X82.9Y-109.3
X82.99Y-105.0
X83.7Y-116.2
X83.7Y-123.82
X89.92Y-79.8
X90.01Y-75.5
X90.12Y-83.9
X90.195Y-91.9
X90.195Y-94.44
X90.195Y-96.98
X90.195Y-99.52
X90.52Y-109.3
X90.61Y-105.0
X93.5Y-92.0
X95.9Y-95.19
X95.9Y-102.81
X98.5Y-92.0
X100.1Y-95.19
X100.1Y-102.81
X101.5Y-92.1
X104.4Y-95.19
X104.4Y-102.81
X106.5Y-92.1
X108.59Y-123.7
X109.3Y-114.7
X109.38Y-110.0
X109.5Y-90.36
X109.5Y-92.9
X109.5Y-95.44
X109.5Y-97.98
X109.5Y-100.52
X109.5Y-103.06
X109.5Y-105.6
X110.0Y-71.7
X116.21Y-123.7
X116.92Y-114.7
X117.0Y-110.0
X117.1Y-77.5
X117.1Y-82.5
X117.12Y-90.36
X117.12Y-92.9
X117.12Y-95.44
X117.12Y-97.98
X117.12Y-100.52
X117.12Y-103.06
X117.12Y-105.6
X117.62Y-71.7
T3
X84.7Y-64.3
X84.7Y-66.8
X84.7Y-69.3
T4
X85.5Y-138.225
X88.0Y-138.225
X90.5Y-138.225
X97.5Y-89.125
X100.0Y-89.125
X102.5Y-89.125
X109.5Y-138.225
X112.0Y-138.225
X114.5Y-138.225
T5
X100.0Y-117.72
T6
X100.0Y-120.82
T7
X100.0Y-129.12
T8
X95.35Y-107.945
X95.35Y-112.645
X100.05Y-107.945
X100.05Y-112.645
X104.75Y-107.945
X104.75Y-112.645
T0
M30
